# Blender 4.3.2
# www.blender.org
mtllib Horns.mtl
o SM_Horn_Standard.001
v 3.794276 13.489037 2.022903
v 2.806732 13.915627 1.765076
v 3.012796 14.216743 1.765015
v 3.982688 13.809357 1.979919
v 3.278891 14.588448 1.626198
v 4.735516 13.647377 2.889580
v 4.555923 13.266731 3.025879
v 4.227556 14.212082 1.816856
v 3.592224 15.037910 1.250427
v 4.908950 13.879868 4.078789
v 4.756700 13.431320 4.294106
v 4.536616 14.718231 1.503693
v 3.998454 15.581047 0.856186
v 4.986311 14.124275 2.637825
v 4.906758 15.299347 1.063904
v 4.428609 16.190979 0.348297
v 5.305319 14.717125 2.255409
v 5.657169 15.377235 1.727715
v 5.290252 15.947868 0.517975
v 4.827758 16.859489 -0.256866
v 6.007710 16.084671 1.097031
v 5.628769 16.652237 -0.103790
v 5.161762 17.570549 -0.900597
v 6.289053 16.825478 0.407448
v 5.879749 17.397171 -0.759056
v 5.428201 18.293427 -1.550610
v 6.462856 17.583054 -0.314171
v 6.557801 17.291786 1.057159
v 6.722125 18.034782 0.242134
v 6.542150 18.326805 -1.050110
v 6.784540 18.749969 -0.588097
v 6.041191 18.147644 -1.424316
v 6.150237 18.863045 -2.088844
v 5.645520 18.978661 -2.205219
v 6.569822 19.029770 -1.789146
v 6.801627 19.409286 -1.424683
v 6.273139 19.488426 -2.764977
v 5.854493 19.571251 -2.879387
v 6.101216 20.055107 -3.570950
v 6.630398 19.642136 -2.528786
v 6.458576 19.998863 -3.454926
v 6.389737 20.425117 -4.268456
v 6.769993 20.140747 -3.268318
v 6.851837 19.975731 -2.251991
v 6.991367 20.431488 -3.066338
v 6.708604 20.381363 -4.156052
v 6.675084 20.685555 -4.952400
v 6.992020 20.506783 -4.004601
v 6.975371 20.639832 -4.844936
v 6.942308 20.865608 -5.611694
v 7.240654 20.743683 -4.711346
v 7.210823 20.760559 -3.860947
v 7.449683 20.962776 -4.615196
v 7.478997 20.873512 -5.332542
v 7.254962 20.802963 -5.505497
v 7.172781 21.041145 -6.292343
v 7.653925 21.050232 -5.279213
v 7.642793 20.941475 -5.741615
v 7.588639 20.936058 -6.172119
v 7.483960 21.038956 -7.069183
v 7.754218 21.052391 -5.719666
v 7.778703 20.960632 -7.013927
v 7.667060 20.994812 -7.701469
v 7.861050 21.215492 -6.141735
v 7.909200 20.932953 -7.677666
v 7.787900 20.983253 -8.141293
v 7.978106 21.181198 -6.996895
v 7.979555 20.938393 -8.135864
v 7.862963 21.043732 -8.308174
v 8.056769 21.117195 -7.654083
v 8.072635 21.058258 -8.105515
v 8.006326 21.013412 -8.317917
v 7.946004 21.110222 -8.282566
v 7.996149 21.195358 -8.092232
v 7.861428 21.215889 -8.098644
v 7.966538 21.311401 -7.670235
v 7.886035 21.441208 -7.059677
v 7.764991 21.339378 -7.687126
v 7.751625 21.120399 -8.115990
v 7.622615 21.201561 -7.691414
v 7.621525 21.480583 -7.103664
v 7.756448 21.570335 -6.310966
v 7.429591 21.296799 -7.094711
v 7.414612 21.631447 -6.391907
v 7.569437 21.676987 -5.498741
v 7.106188 21.394699 -6.338661
v 7.166028 21.773933 -5.613289
v 7.738352 21.336342 -5.376316
v 7.324756 21.676704 -4.641228
v 7.523666 21.305618 -4.589169
v 6.880877 21.810654 -4.769562
v 7.272610 21.140533 -3.757626
v 7.047391 21.538696 -3.746223
v 7.029534 20.850113 -2.892868
v 6.767831 21.271507 -2.826317
v 6.842010 20.444122 -2.000931
v 6.510582 20.894379 -1.883568
v 6.575301 21.697708 -3.871281
v 6.264823 21.441193 -2.942287
v 6.329460 20.403893 -0.935059
v 6.740264 19.926422 -1.094124
v 5.959861 21.065880 -1.999580
v 6.679973 19.309769 -0.179070
v 6.191938 19.811974 0.014481
v 5.711429 20.588173 -1.050568
v 6.580075 18.623604 0.726860
v 6.023148 19.144028 0.955429
v 5.494733 20.010162 -0.111366
v 6.375546 17.896393 1.616592
v 5.757553 18.426537 1.878441
v 5.246375 19.352249 0.811630
v 6.288368 16.545837 1.848251
v 5.393785 17.694061 2.790154
v 5.957809 15.807976 2.591499
v 6.065188 17.157173 2.494263
v 5.629498 15.091187 3.241196
v 5.706464 16.426155 3.333580
v 5.178255 14.437386 3.732834
v 5.373079 15.706657 4.088623
v 4.951061 15.012932 4.648453
v 4.995384 16.991020 3.678566
v 4.562459 16.226738 4.395493
v 4.258235 15.603592 5.063774
v 4.708035 14.438972 5.083832
v 4.566045 13.982178 5.389091
v 3.860184 14.655090 5.968475
v 4.034698 15.075500 5.580750
v 3.105522 15.449097 5.309166
v 2.867479 15.071205 5.721916
v 2.039329 15.138573 4.767632
v 3.369139 15.925346 4.795868
v 2.300618 15.561554 4.448738
v 1.698136 14.943794 3.463760
v 3.675767 16.580452 4.207848
v 2.606956 15.957047 4.005089
v 1.978006 15.264320 3.269974
v 4.083735 17.195679 3.428520
v 2.967107 16.447418 3.439835
v 2.276115 15.631676 2.945946
v 2.264031 14.729691 2.271690
v 2.021615 14.420692 2.343369
v 2.554342 15.097031 2.058784
v 2.631599 16.085571 2.479828
v 2.842548 15.563545 1.623192
v 3.376135 17.038673 2.756241
v 3.069768 16.633919 1.914032
v 3.298049 16.091583 1.187210
v 4.512264 17.901802 2.587318
v 3.778253 16.695946 0.645172
v 4.917108 18.642136 1.712288
v 3.813338 17.725861 2.000145
v 4.243717 18.444016 1.195419
v 3.546121 17.266434 1.265137
v 4.624447 19.139481 0.355560
v 4.007518 17.945114 0.551048
v 4.938414 19.786514 -0.510857
v 4.422471 18.625481 -0.202774
v 4.228496 17.357742 0.011009
v 4.624401 18.045341 -0.667656
v 4.962160 18.727081 -1.363899
v 4.775547 19.277290 -0.982193
v 5.250017 19.360184 -2.073883
v 5.221505 20.354385 -1.393700
v 5.083443 19.867477 -1.778290
v 5.519114 19.904457 -2.805412
v 5.510063 20.833405 -2.288502
v 5.380584 20.369804 -2.589661
v 5.831235 21.213074 -3.182781
v 5.808276 20.342537 -3.551090
v 5.691312 20.772194 -3.410156
v 6.155750 21.478912 -4.064564
v 6.122246 20.672829 -4.289833
v 6.014648 21.064880 -4.218117
v 6.430053 20.901192 -4.987968
v 6.484576 21.604774 -4.903183
v 6.342811 21.239220 -4.969742
v 6.707201 21.044312 -5.592724
v 6.649126 21.299751 -5.603279
v 6.885380 21.124840 -5.984413
v 6.856571 21.275574 -5.996124
v 6.808434 21.575233 -5.656364
v -2.801917 13.915611 1.765091
v -3.789399 13.489059 2.022873
v -3.007939 14.216743 1.765015
v -3.977819 13.809334 1.979912
v -3.273989 14.588425 1.626228
v -4.730658 13.647377 2.889580
v -4.551049 13.266731 3.025864
v -4.222672 14.212082 1.816833
v -3.587364 15.037918 1.250427
v -4.904093 13.879868 4.078796
v -4.751841 13.431313 4.294106
v -4.531792 14.718246 1.503708
v -3.993598 15.581039 0.856186
v -4.703167 14.438995 5.083847
v -4.561189 13.982170 5.389091
v -3.855331 14.655090 5.968475
v -4.901911 15.299347 1.063904
v -4.423757 16.190979 0.348297
v -4.029886 15.075478 5.580757
v -5.285392 15.947876 0.517975
v -4.822896 16.859474 -0.256866
v -4.946204 15.012932 4.648453
v -5.173399 14.437386 3.732841
v -4.253410 15.603577 5.063751
v -4.981454 14.124275 2.637825
v -5.368224 15.706657 4.088615
v -5.624639 15.091194 3.241203
v -5.300480 14.717155 2.255432
v -5.701615 16.426155 3.333572
v -5.652333 15.377266 1.727737
v -5.952953 15.807999 2.591499
v -6.002864 16.084694 1.097046
v -6.283511 16.545845 1.848259
v -6.060309 17.157196 2.494278
v -4.557563 16.226746 4.395500
v -4.990467 16.991028 3.678558
v -6.370687 17.896393 1.616600
v -5.388903 17.694061 2.790154
v -4.078819 17.195686 3.428513
v -6.552946 17.291794 1.057159
v -3.670897 16.580437 4.207848
v -6.284191 16.825470 0.407440
v -3.364286 15.925346 4.795868
v -5.623870 16.652222 -0.103813
v -5.156896 17.570549 -0.900589
v -3.100630 15.449081 5.309158
v -2.862622 15.071198 5.721916
v -2.034496 15.138603 4.767639
v -2.295733 15.561523 4.448730
v -1.693274 14.943794 3.463760
v -2.602122 15.957054 4.005096
v -1.973133 15.264297 3.269989
v -2.962260 16.447433 3.439835
v -2.271246 15.631668 2.945961
v -2.259164 14.729683 2.271706
v -2.016734 14.420677 2.343391
v -2.549468 15.097023 2.058830
v -2.626750 16.085579 2.479813
v -2.837689 15.563538 1.623199
v -3.371275 17.038673 2.756233
v -3.064924 16.633934 1.914017
v -3.293197 16.091583 1.187202
v -4.507349 17.901802 2.587318
v -3.773412 16.695946 0.645149
v -3.808493 17.725876 2.000137
v -3.541265 17.266434 1.265121
v -4.912210 18.642136 1.712288
v -4.238879 18.444038 1.195419
v -4.002667 17.945114 0.551048
v -4.223641 17.357742 0.011009
v -4.619530 18.045349 -0.667625
v -5.423341 18.293427 -1.550606
v -4.957290 18.727089 -1.363876
v -5.640666 18.978661 -2.205223
v -4.417618 18.625488 -0.202782
v -5.245172 19.360168 -2.073906
v -5.849634 19.571251 -2.879387
v -4.770681 19.277283 -0.982178
v -4.619576 19.139473 0.355553
v -5.514262 19.904457 -2.805420
v -6.096362 20.055115 -3.570957
v -5.241554 19.352257 0.811630
v -4.933558 19.786514 -0.510857
v -5.489883 20.010162 -0.111374
v -5.752686 18.426552 1.878441
v -6.018301 19.144028 0.955421
v -6.575220 18.623604 0.726860
v -6.187104 19.811966 0.014473
v -6.717268 18.034798 0.242134
v -6.675124 19.309769 -0.179085
v -6.779684 18.749985 -0.588097
v -6.458003 17.583069 -0.314163
v -6.796771 19.409286 -1.424683
v -5.874838 17.397186 -0.759064
v -6.537300 18.326813 -1.050102
v -6.036331 18.147644 -1.424316
v -6.564973 19.029778 -1.789139
v -6.145378 18.863045 -2.088844
v -6.846979 19.975723 -2.251991
v -6.268251 19.488411 -2.764996
v -6.625548 19.642143 -2.528786
v -6.453711 19.998856 -3.454926
v -6.384883 20.425117 -4.268463
v -6.765143 20.140747 -3.268318
v -6.703730 20.381355 -4.156059
v -6.670262 20.685539 -4.952408
v -6.987178 20.506805 -4.004601
v -6.986507 20.431473 -3.066338
v -7.205965 20.760551 -3.860950
v -6.970502 20.639816 -4.844940
v -6.937482 20.865601 -5.611710
v -7.235787 20.743668 -4.711346
v -7.250146 20.802986 -5.505501
v -7.167941 21.041130 -6.292358
v -7.474151 20.873520 -5.332542
v -7.444823 20.962761 -4.615196
v -7.649070 21.050240 -5.279213
v -7.637958 20.941483 -5.741619
v -7.583775 20.936050 -6.172127
v -7.479115 21.038918 -7.069199
v -7.749363 21.052422 -5.719666
v -7.773841 20.960609 -7.013935
v -7.662198 20.994820 -7.701458
v -7.856194 21.215492 -6.141731
v -7.904380 20.932976 -7.677639
v -7.783050 20.983253 -8.141312
v -7.973252 21.181198 -6.996895
v -7.974757 20.938400 -8.135925
v -7.858109 21.043732 -8.308178
v -8.051906 21.117226 -7.654049
v -8.067773 21.058266 -8.105515
v -8.001445 21.013420 -8.317963
v -7.941144 21.110214 -8.282570
v -7.991279 21.195358 -8.092232
v -7.856596 21.215881 -8.098637
v -7.961688 21.311401 -7.670223
v -7.881169 21.441208 -7.059673
v -7.760145 21.339378 -7.687119
v -7.746792 21.120392 -8.116051
v -7.617763 21.201576 -7.691422
v -7.616694 21.480576 -7.103668
v -7.424742 21.296799 -7.094727
v -7.101350 21.394707 -6.338673
v -7.409804 21.631439 -6.391914
v -7.751609 21.570335 -6.310959
v -7.564597 21.676987 -5.498737
v -7.161168 21.773933 -5.613281
v -7.733491 21.336349 -5.376312
v -7.319861 21.676712 -4.641220
v -7.518807 21.305618 -4.589165
v -6.876039 21.810638 -4.769562
v -7.267760 21.140511 -3.757618
v -7.042579 21.538673 -3.746231
v -7.024674 20.850105 -2.892860
v -6.763025 21.271492 -2.826324
v -6.837146 20.444130 -2.000923
v -6.505735 20.894379 -1.883575
v -6.570466 21.697701 -3.871281
v -6.260024 21.441177 -2.942291
v -6.324602 20.403893 -0.935059
v -6.735416 19.926414 -1.094131
v -5.955029 21.065872 -1.999580
v -5.706538 20.588173 -1.050560
v -5.216665 20.354401 -1.393700
v -5.505210 20.833405 -2.288498
v -5.078583 19.867455 -1.778297
v -5.826390 21.213074 -3.182777
v -5.375725 20.369804 -2.589645
v -5.803432 20.342522 -3.551109
v -5.686449 20.772171 -3.410164
v -6.150897 21.478912 -4.064560
v -6.117383 20.672829 -4.289818
v -6.009782 21.064873 -4.218109
v -6.425197 20.901184 -4.987965
v -6.479746 21.604782 -4.903191
v -6.337961 21.239235 -4.969753
v -6.702359 21.044296 -5.592751
v -6.644280 21.299751 -5.603294
v -6.880525 21.124832 -5.984421
v -6.851716 21.275574 -5.996132
v -6.803590 21.575241 -5.656364
vn 0.4021 -0.3448 -0.8482
vn -0.1469 0.0811 -0.9858
vn -0.1900 -0.0568 -0.9801
vn 0.3748 -0.4416 -0.8152
vn -0.3084 -0.3165 -0.8971
vn 0.7897 -0.5242 -0.3188
vn 0.8171 -0.4830 -0.3147
vn 0.3026 -0.5847 -0.7527
vn -0.3100 -0.4302 -0.8478
vn 0.9432 -0.3055 0.1307
vn 0.9589 -0.2623 0.1077
vn 0.2853 -0.6537 -0.7009
vn -0.2914 -0.4500 -0.8442
vn 0.7437 -0.5923 -0.3100
vn 0.2674 -0.6943 -0.6682
vn -0.3148 -0.4994 -0.8072
vn 0.7266 -0.6100 -0.3161
vn 0.7311 -0.6179 -0.2893
vn 0.2715 -0.7065 -0.6535
vn -0.3270 -0.5309 -0.7818
vn 0.7515 -0.5931 -0.2888
vn 0.2939 -0.6956 -0.6556
vn -0.3322 -0.5489 -0.7671
vn 0.7777 -0.5422 -0.3181
vn 0.3166 -0.6747 -0.6668
vn -0.3387 -0.5715 -0.7474
vn 0.7953 -0.4889 -0.3585
vn 0.9774 -0.1889 0.0949
vn 0.9912 -0.1309 0.0205
vn 0.7982 -0.4617 -0.3870
vn 0.9939 -0.1043 -0.0357
vn 0.3236 -0.6669 -0.6712
vn 0.3179 -0.6993 -0.6403
vn -0.3439 -0.6183 -0.7067
vn 0.7833 -0.4898 -0.3829
vn 0.9889 -0.1358 -0.0596
vn 0.3094 -0.7708 -0.5569
vn -0.3420 -0.6834 -0.6450
vn -0.3169 -0.7553 -0.5737
vn 0.7517 -0.5747 -0.3235
vn 0.3003 -0.8445 -0.4435
vn -0.2887 -0.8214 -0.4919
vn 0.6995 -0.6794 -0.2219
vn 0.9726 -0.2307 -0.0282
vn 0.9350 -0.3525 0.0399
vn 0.2583 -0.9114 -0.3205
vn -0.3058 -0.8610 -0.4065
vn 0.6363 -0.7637 -0.1092
vn 0.1882 -0.9567 -0.2220
vn -0.3453 -0.8674 -0.3582
vn 0.5727 -0.8196 -0.0178
vn 0.8929 -0.4352 0.1152
vn 0.8645 -0.4721 0.1725
vn 0.5281 -0.8482 0.0403
vn 0.1132 -0.9786 -0.1717
vn -0.5912 -0.7061 -0.3898
vn 0.8604 -0.4696 0.1980
vn 0.5549 -0.8319 0.0091
vn 0.2947 -0.9521 -0.0815
vn -0.6824 -0.6999 -0.2109
vn 0.8644 -0.4919 0.1043
vn 0.2906 -0.9547 0.0639
vn -0.7026 -0.6925 -0.1635
vn 0.9792 -0.1724 0.1072
vn 0.3127 -0.9473 0.0695
vn -0.6533 -0.6828 -0.3272
vn 0.9736 -0.1812 0.1388
vn 0.3240 -0.9345 -0.1476
vn -0.4938 -0.1334 -0.8593
vn 0.9893 -0.1210 0.0809
vn 0.9897 -0.0520 -0.1337
vn 0.5155 -0.2958 -0.8042
vn 0.1978 0.6961 -0.6901
vn 0.5756 0.7647 -0.2895
vn -0.2131 0.8812 -0.4220
vn 0.6043 0.7864 -0.1281
vn 0.6369 0.7695 -0.0464
vn -0.2674 0.9153 -0.3013
vn -0.8428 0.3049 -0.4435
vn -0.9014 0.2798 -0.3304
vn -0.2642 0.9246 -0.2745
vn 0.6520 0.7581 0.0131
vn -0.8910 0.2661 -0.3679
vn -0.2216 0.9419 -0.2524
vn 0.6024 0.7941 0.0804
vn -0.8133 0.3307 -0.4787
vn -0.1152 0.9794 -0.1658
vn 0.9637 0.1714 0.2045
vn 0.5720 0.7884 0.2262
vn 0.9442 0.1556 0.2903
vn -0.0933 0.9956 0.0068
vn 0.9400 0.1394 0.3114
vn 0.5603 0.7559 0.3387
vn 0.9408 0.1623 0.2977
vn 0.5457 0.7312 0.4094
vn 0.9326 0.2377 0.2717
vn 0.5101 0.7315 0.4525
vn -0.1223 0.9799 0.1573
vn -0.1615 0.9504 0.2659
vn 0.4816 0.7261 0.4908
vn 0.9143 0.3028 0.2691
vn -0.2046 0.9138 0.3508
vn 0.8945 0.3223 0.3097
vn 0.4534 0.7081 0.5413
vn -0.2207 0.8759 0.4290
vn 0.8732 0.3015 0.3828
vn 0.4231 0.6785 0.6005
vn -0.2232 0.8400 0.4945
vn 0.8481 0.2584 0.4626
vn 0.3932 0.6511 0.6491
vn -0.2274 0.8148 0.5333
vn 0.9586 -0.2443 0.1463
vn 0.3641 0.6445 0.6724
vn 0.9461 -0.2828 0.1575
vn 0.8304 0.2199 0.5119
vn 0.9182 -0.3496 0.1861
vn 0.8172 0.1835 0.5463
vn 0.9046 -0.3774 0.1984
vn 0.7996 0.1291 0.5865
vn 0.8298 0.0200 0.5578
vn 0.3291 0.5968 0.7318
vn 0.3434 0.5968 0.7252
vn 0.3660 0.5520 0.7492
vn 0.8703 0.0360 0.4912
vn 0.8804 0.0419 0.4723
vn 0.4423 0.5030 0.7425
vn 0.4120 0.5242 0.7453
vn -0.1821 0.7611 0.6226
vn -0.1422 0.7696 0.6225
vn -0.6311 0.6874 0.3594
vn -0.2167 0.7418 0.6347
vn -0.6296 0.7148 0.3044
vn -0.7990 0.5767 -0.1703
vn -0.2165 0.7822 0.5842
vn -0.6388 0.7290 0.2460
vn -0.8145 0.5463 -0.1953
vn -0.2620 0.7971 0.5440
vn -0.6662 0.7176 0.2031
vn -0.8459 0.4950 -0.1984
vn -0.6931 0.2798 -0.6643
vn -0.6580 0.3632 -0.6596
vn -0.7611 0.0927 -0.6420
vn -0.8662 0.4601 -0.1947
vn -0.7764 0.0007 -0.6302
vn -0.6839 0.7002 0.2051
vn -0.8671 0.4420 -0.2296
vn -0.7358 0.0153 -0.6770
vn -0.2589 0.7987 0.5432
vn -0.7507 -0.0643 -0.6575
vn -0.2380 0.8009 0.5494
vn -0.7090 0.6759 0.2011
vn -0.7338 0.6519 0.1911
vn -0.8912 0.3705 -0.2619
vn -0.7597 0.6252 0.1789
vn -0.9149 0.3003 -0.2699
vn -0.7830 0.6038 0.1493
vn -0.9363 0.2345 -0.2612
vn -0.7717 -0.1231 -0.6239
vn -0.7911 -0.1692 -0.5879
vn -0.8025 -0.2156 -0.5563
vn -0.9500 0.1794 -0.2557
vn -0.8081 -0.2637 -0.5267
vn -0.7920 0.6029 0.0966
vn -0.9546 0.1478 -0.2586
vn -0.8053 -0.3030 -0.5096
vn -0.7797 0.6254 0.0311
vn -0.9497 0.1431 -0.2787
vn -0.7496 0.6610 -0.0330
vn -0.7935 -0.3489 -0.4986
vn -0.9400 0.1450 -0.3087
vn -0.7168 0.6873 -0.1176
vn -0.7682 -0.4101 -0.4916
vn -0.9274 0.1261 -0.3522
vn -0.7535 -0.4611 -0.4686
vn -0.6763 0.6976 -0.2366
vn -0.9101 0.1103 -0.3995
vn -0.7539 -0.4798 -0.4488
vn -0.8901 0.1085 -0.4427
vn -0.7519 -0.4279 -0.5016
vn -0.8466 0.0621 -0.5287
vn -0.6469 0.6680 -0.3679
vn 0.1470 0.0811 -0.9858
vn -0.4021 -0.3448 -0.8482
vn 0.1901 -0.0567 -0.9801
vn -0.3748 -0.4416 -0.8152
vn 0.3084 -0.3165 -0.8971
vn -0.7897 -0.5242 -0.3188
vn -0.8171 -0.4830 -0.3147
vn -0.3026 -0.5847 -0.7527
vn 0.3100 -0.4302 -0.8478
vn -0.9432 -0.3055 0.1307
vn -0.9590 -0.2623 0.1077
vn -0.2854 -0.6537 -0.7009
vn 0.2914 -0.4500 -0.8442
vn -0.8703 0.0360 0.4912
vn -0.8805 0.0419 0.4723
vn -0.4423 0.5030 0.7425
vn -0.2674 -0.6943 -0.6682
vn 0.3148 -0.4994 -0.8072
vn -0.4120 0.5242 0.7453
vn -0.2715 -0.7065 -0.6535
vn 0.3270 -0.5308 -0.7818
vn -0.8298 0.0200 0.5578
vn -0.9046 -0.3774 0.1984
vn -0.3660 0.5520 0.7492
vn -0.7437 -0.5923 -0.3100
vn -0.7996 0.1291 0.5865
vn -0.9182 -0.3496 0.1861
vn -0.7266 -0.6100 -0.3161
vn -0.8172 0.1835 0.5464
vn -0.7311 -0.6179 -0.2892
vn -0.9461 -0.2828 0.1575
vn -0.7515 -0.5931 -0.2888
vn -0.9586 -0.2443 0.1463
vn -0.8304 0.2200 0.5120
vn -0.3434 0.5968 0.7252
vn -0.3291 0.5968 0.7318
vn -0.8481 0.2584 0.4626
vn -0.3641 0.6445 0.6724
vn 0.2620 0.7971 0.5440
vn -0.9774 -0.1889 0.0949
vn 0.2165 0.7822 0.5842
vn -0.7777 -0.5422 -0.3181
vn 0.2166 0.7418 0.6347
vn -0.2939 -0.6956 -0.6556
vn 0.3322 -0.5488 -0.7671
vn 0.1821 0.7611 0.6226
vn 0.1422 0.7696 0.6225
vn 0.6311 0.6874 0.3594
vn 0.6296 0.7148 0.3044
vn 0.7990 0.5767 -0.1703
vn 0.6388 0.7290 0.2460
vn 0.8145 0.5463 -0.1953
vn 0.6663 0.7175 0.2031
vn 0.8459 0.4950 -0.1984
vn 0.6931 0.2798 -0.6643
vn 0.6580 0.3632 -0.6596
vn 0.7611 0.0927 -0.6420
vn 0.8662 0.4601 -0.1947
vn 0.7764 0.0007 -0.6302
vn 0.6839 0.7002 0.2051
vn 0.8671 0.4420 -0.2296
vn 0.7358 0.0153 -0.6770
vn 0.2589 0.7987 0.5432
vn 0.7507 -0.0643 -0.6575
vn 0.7090 0.6759 0.2011
vn 0.8912 0.3705 -0.2619
vn 0.2380 0.8009 0.5494
vn 0.7338 0.6519 0.1911
vn 0.9149 0.3003 -0.2699
vn 0.7717 -0.1231 -0.6239
vn 0.7911 -0.1692 -0.5879
vn 0.3388 -0.5715 -0.7474
vn 0.8025 -0.2156 -0.5563
vn 0.3438 -0.6183 -0.7067
vn 0.9363 0.2345 -0.2612
vn 0.8081 -0.2637 -0.5267
vn 0.3420 -0.6833 -0.6450
vn 0.9500 0.1794 -0.2557
vn 0.7597 0.6252 0.1788
vn 0.8053 -0.3030 -0.5096
vn 0.3169 -0.7553 -0.5737
vn 0.2274 0.8148 0.5333
vn 0.7830 0.6038 0.1493
vn 0.2232 0.8400 0.4945
vn -0.3932 0.6511 0.6491
vn -0.4232 0.6785 0.6005
vn -0.8732 0.3015 0.3828
vn -0.4534 0.7081 0.5413
vn -0.9912 -0.1309 0.0205
vn -0.8946 0.3223 0.3097
vn -0.9939 -0.1043 -0.0357
vn -0.7953 -0.4889 -0.3585
vn -0.9889 -0.1358 -0.0596
vn -0.3166 -0.6747 -0.6668
vn -0.7982 -0.4617 -0.3870
vn -0.3236 -0.6669 -0.6712
vn -0.7833 -0.4898 -0.3829
vn -0.3179 -0.6993 -0.6403
vn -0.9726 -0.2307 -0.0282
vn -0.3093 -0.7708 -0.5569
vn -0.7517 -0.5747 -0.3235
vn -0.3003 -0.8445 -0.4435
vn 0.2887 -0.8214 -0.4919
vn -0.6995 -0.6794 -0.2219
vn -0.2583 -0.9114 -0.3205
vn 0.3058 -0.8610 -0.4065
vn -0.6363 -0.7637 -0.1092
vn -0.9350 -0.3525 0.0399
vn -0.8929 -0.4353 0.1152
vn -0.1882 -0.9567 -0.2220
vn 0.3452 -0.8675 -0.3582
vn -0.5727 -0.8196 -0.0178
vn -0.1133 -0.9786 -0.1717
vn 0.5912 -0.7061 -0.3898
vn -0.5281 -0.8482 0.0403
vn -0.8645 -0.4721 0.1724
vn -0.8604 -0.4696 0.1980
vn -0.5550 -0.8318 0.0091
vn -0.2947 -0.9521 -0.0815
vn 0.6823 -0.7000 -0.2109
vn -0.8644 -0.4918 0.1043
vn -0.2907 -0.9547 0.0639
vn 0.7026 -0.6926 -0.1636
vn -0.9792 -0.1724 0.1072
vn -0.3128 -0.9473 0.0695
vn 0.6532 -0.6828 -0.3272
vn -0.9736 -0.1812 0.1388
vn -0.3243 -0.9344 -0.1477
vn 0.4939 -0.1333 -0.8592
vn -0.9894 -0.1209 0.0809
vn -0.9897 -0.0518 -0.1336
vn -0.5154 -0.2957 -0.8043
vn -0.1978 0.6962 -0.6900
vn -0.5756 0.7647 -0.2896
vn 0.2130 0.8812 -0.4220
vn -0.6043 0.7864 -0.1281
vn -0.6369 0.7695 -0.0464
vn 0.2674 0.9153 -0.3013
vn 0.8428 0.3050 -0.4435
vn 0.9014 0.2799 -0.3304
vn 0.2642 0.9246 -0.2745
vn 0.8910 0.2661 -0.3679
vn 0.8133 0.3307 -0.4787
vn 0.2216 0.9419 -0.2524
vn -0.6521 0.7580 0.0131
vn -0.6024 0.7941 0.0804
vn 0.1152 0.9794 -0.1658
vn -0.9637 0.1714 0.2045
vn -0.5719 0.7885 0.2262
vn -0.9442 0.1556 0.2903
vn 0.0933 0.9956 0.0068
vn -0.9400 0.1393 0.3114
vn -0.5604 0.7558 0.3387
vn -0.9408 0.1622 0.2977
vn -0.5457 0.7312 0.4094
vn -0.9326 0.2377 0.2717
vn -0.5101 0.7315 0.4525
vn 0.1223 0.9799 0.1573
vn 0.1615 0.9504 0.2659
vn -0.4816 0.7261 0.4908
vn -0.9143 0.3028 0.2691
vn 0.2046 0.9138 0.3507
vn 0.2207 0.8759 0.4290
vn 0.7920 0.6029 0.0966
vn 0.7797 0.6254 0.0311
vn 0.9546 0.1478 -0.2586
vn 0.7496 0.6611 -0.0329
vn 0.9497 0.1431 -0.2787
vn 0.7935 -0.3489 -0.4986
vn 0.9400 0.1450 -0.3087
vn 0.7168 0.6873 -0.1176
vn 0.7682 -0.4101 -0.4916
vn 0.9274 0.1261 -0.3522
vn 0.7535 -0.4611 -0.4686
vn 0.6763 0.6976 -0.2366
vn 0.9101 0.1103 -0.3995
vn 0.7539 -0.4798 -0.4488
vn 0.8901 0.1085 -0.4427
vn 0.7519 -0.4279 -0.5016
vn 0.8466 0.0621 -0.5287
vn 0.6468 0.6680 -0.3679
vt 0.980469 0.791138
vt 0.975098 0.778076
vt 0.984375 0.788696
vt 0.971191 0.780762
vt 0.976074 0.794678
vt 0.961914 0.767822
vt 0.965820 0.763916
vt 0.966797 0.785034
vt 0.970215 0.800659
vt 0.951660 0.754761
vt 0.956055 0.749756
vt 0.960938 0.791504
vt 0.963379 0.807617
vt 0.957031 0.773560
vt 0.954590 0.799561
vt 0.956055 0.816162
vt 0.951660 0.781372
vt 0.945312 0.790894
vt 0.947754 0.809204
vt 0.947754 0.826172
vt 0.938965 0.801758
vt 0.940430 0.819702
vt 0.939453 0.836670
vt 0.932129 0.813232
vt 0.932617 0.830933
vt 0.930664 0.847168
vt 0.924805 0.825195
vt 0.923340 0.807129
vt 0.916992 0.820068
vt 0.917969 0.837280
vt 0.910645 0.832764
vt 0.924316 0.842041
vt 0.916504 0.853027
vt 0.921387 0.857300
vt 0.911133 0.848999
vt 0.904297 0.845337
vt 0.909180 0.863525
vt 0.913574 0.867065
vt 0.906250 0.876648
vt 0.904297 0.860229
vt 0.902344 0.873657
vt 0.899902 0.886047
vt 0.897949 0.870972
vt 0.898438 0.857300
vt 0.893066 0.868530
vt 0.895996 0.883484
vt 0.893555 0.895081
vt 0.892090 0.881104
vt 0.890137 0.892700
vt 0.887695 0.903625
vt 0.886719 0.890442
vt 0.888184 0.879089
vt 0.883301 0.888794
vt 0.881836 0.898193
vt 0.884277 0.901062
vt 0.881348 0.911926
vt 0.878906 0.896912
vt 0.878418 0.902893
vt 0.876953 0.908447
vt 0.873535 0.920166
vt 0.876465 0.902100
vt 0.870605 0.917847
vt 0.867676 0.927124
vt 0.872070 0.906250
vt 0.865234 0.924988
vt 0.861816 0.930725
vt 0.866699 0.915833
vt 0.861328 0.928650
vt 0.858398 0.929688
vt 0.863281 0.922913
vt 0.860352 0.927124
vt 0.859375 0.928711
vt 0.858398 0.928406
vt 0.859375 0.926086
vt 0.857910 0.925903
vt 0.860840 0.921509
vt 0.863281 0.914490
vt 0.858398 0.920715
vt 0.855957 0.926575
vt 0.854980 0.928101
vt 0.853027 0.921570
vt 0.855469 0.920593
vt 0.853027 0.912476
vt 0.859863 0.913330
vt 0.866699 0.905701
vt 0.856445 0.912354
vt 0.862305 0.904114
vt 0.870117 0.896179
vt 0.857422 0.901550
vt 0.852539 0.901184
vt 0.865234 0.894409
vt 0.875000 0.896973
vt 0.874023 0.886108
vt 0.878906 0.887573
vt 0.868164 0.884277
vt 0.883301 0.877319
vt 0.877930 0.875427
vt 0.887695 0.866211
vt 0.881836 0.864136
vt 0.892578 0.854492
vt 0.885742 0.852051
vt 0.871582 0.873535
vt 0.875000 0.862183
vt 0.889648 0.839355
vt 0.897461 0.842163
vt 0.878418 0.849976
vt 0.902832 0.829102
vt 0.894043 0.826050
vt 0.881836 0.837036
vt 0.908203 0.815552
vt 0.898926 0.812134
vt 0.885742 0.823486
vt 0.913574 0.802002
vt 0.903809 0.797974
vt 0.889648 0.809448
vt 0.929199 0.794556
vt 0.908691 0.783936
vt 0.935059 0.782593
vt 0.918945 0.788452
vt 0.940918 0.771729
vt 0.924805 0.775635
vt 0.946777 0.762085
vt 0.930176 0.763672
vt 0.935059 0.753052
vt 0.913574 0.770508
vt 0.918945 0.757812
vt 0.923828 0.747070
vt 0.939941 0.744629
vt 0.943848 0.738525
vt 0.930664 0.731201
vt 0.927734 0.738281
vt 0.914062 0.735352
vt 0.916504 0.727783
vt 0.899414 0.728271
vt 0.911133 0.744141
vt 0.898438 0.735596
vt 0.881836 0.732178
vt 0.906738 0.755005
vt 0.896484 0.743896
vt 0.881836 0.738037
vt 0.902344 0.767334
vt 0.893066 0.753906
vt 0.880859 0.745361
vt 0.866699 0.740967
vt 0.865723 0.736084
vt 0.852539 0.739746
vt 0.854004 0.744141
vt 0.866699 0.747559
vt 0.854492 0.749756
vt 0.854004 0.757935
vt 0.878906 0.754517
vt 0.866211 0.756470
vt 0.889648 0.765747
vt 0.876953 0.765747
vt 0.864746 0.766724
vt 0.853516 0.767578
vt 0.852539 0.778931
vt 0.897949 0.780884
vt 0.863281 0.778564
vt 0.851562 0.791626
vt 0.893555 0.795166
vt 0.886230 0.779175
vt 0.883301 0.793213
vt 0.874512 0.778442
vt 0.879883 0.807495
vt 0.872559 0.792114
vt 0.876953 0.821533
vt 0.870117 0.806030
vt 0.861816 0.791626
vt 0.851074 0.805298
vt 0.860352 0.805420
vt 0.851074 0.819092
vt 0.859375 0.819336
vt 0.851074 0.832642
vt 0.867676 0.820068
vt 0.857910 0.832886
vt 0.851074 0.845459
vt 0.874023 0.835205
vt 0.865723 0.833740
vt 0.856934 0.845947
vt 0.850586 0.857666
vt 0.871094 0.848145
vt 0.863770 0.846802
vt 0.868164 0.860352
vt 0.855957 0.858276
vt 0.861816 0.859131
vt 0.865234 0.871948
vt 0.854492 0.869751
vt 0.849609 0.869385
vt 0.859375 0.870605
vt 0.853516 0.880432
vt 0.849121 0.880432
vt 0.862793 0.882446
vt 0.857910 0.881104
vt 0.853516 0.889709
vt 0.850098 0.890930
vt 0.856934 0.890076
vt 0.854004 0.895569
vt 0.855957 0.895813
vt 0.860352 0.892212
vt 0.995117 0.979721
vt 0.996582 0.984085
vt 0.982422 0.986267
vt 0.980957 0.981735
vt 0.993652 0.974014
vt 0.965820 0.985542
vt 0.966309 0.991173
vt 0.980469 0.975449
vt 0.993164 0.965820
vt 0.949707 0.989128
vt 0.949707 0.995800
vt 0.980469 0.966919
vt 0.992676 0.956207
vt 0.934082 0.989166
vt 0.933105 0.996382
vt 0.917969 0.993557
vt 0.980469 0.956573
vt 0.992188 0.944824
vt 0.920410 0.986237
vt 0.981445 0.944763
vt 0.992676 0.932007
vt 0.935547 0.979782
vt 0.950195 0.980286
vt 0.922852 0.976913
vt 0.965820 0.978104
vt 0.938477 0.968323
vt 0.952148 0.969162
vt 0.966309 0.968475
vt 0.942383 0.955719
vt 0.967773 0.957214
vt 0.955078 0.957123
vt 0.969727 0.944733
vt 0.958008 0.944092
vt 0.946289 0.942291
vt 0.926270 0.965576
vt 0.930664 0.952606
vt 0.950684 0.928406
vt 0.935547 0.939056
vt 0.919922 0.947662
vt 0.961426 0.930542
vt 0.915527 0.959961
vt 0.972168 0.931580
vt 0.911621 0.970917
vt 0.982422 0.931885
vt 0.992676 0.918396
vt 0.908203 0.979858
vt 0.904785 0.987015
vt 0.892578 0.975830
vt 0.896484 0.969406
vt 0.881348 0.961548
vt 0.899902 0.961731
vt 0.885254 0.957001
vt 0.904297 0.952118
vt 0.889160 0.950775
vt 0.875488 0.944977
vt 0.871582 0.948181
vt 0.863770 0.936768
vt 0.867676 0.934265
vt 0.879883 0.939972
vt 0.871582 0.930176
vt 0.876465 0.923584
vt 0.893555 0.942535
vt 0.885254 0.932678
vt 0.909180 0.940765
vt 0.899414 0.932556
vt 0.890625 0.924072
vt 0.882324 0.915894
vt 0.889160 0.906738
vt 0.924805 0.934326
vt 0.896973 0.914001
vt 0.896484 0.896362
vt 0.915039 0.928345
vt 0.905762 0.921387
vt 0.931152 0.920715
vt 0.921875 0.915405
vt 0.912598 0.909424
vt 0.904297 0.902954
vt 0.904785 0.885620
vt 0.912109 0.891479
vt 0.913574 0.875000
vt 0.920410 0.880127
vt 0.922363 0.864746
vt 0.919922 0.897217
vt 0.928223 0.869019
vt 0.930664 0.854858
vt 0.927246 0.885071
vt 0.928223 0.902466
vt 0.935547 0.858398
vt 0.938477 0.845215
vt 0.937012 0.907166
vt 0.935059 0.889709
vt 0.942871 0.893860
vt 0.940430 0.925110
vt 0.945801 0.911194
vt 0.955078 0.914429
vt 0.951172 0.897522
vt 0.964844 0.916687
vt 0.959473 0.900635
vt 0.968262 0.902832
vt 0.974609 0.917908
vt 0.971680 0.889343
vt 0.983887 0.918396
vt 0.976562 0.904175
vt 0.992676 0.904602
vt 0.984863 0.904663
vt 0.979004 0.890686
vt 0.985840 0.891235
vt 0.992676 0.891174
vt 0.974609 0.876465
vt 0.986816 0.878357
vt 0.992676 0.878418
vt 0.993164 0.866455
vt 0.980957 0.877747
vt 0.988281 0.866211
vt 0.994141 0.855103
vt 0.983398 0.865601
vt 0.989746 0.854736
vt 0.995117 0.844238
vt 0.985352 0.854126
vt 0.978027 0.864380
vt 0.980957 0.852905
vt 0.991211 0.843994
vt 0.996094 0.833984
vt 0.987305 0.843506
vt 0.992188 0.833740
vt 0.997070 0.823608
vt 0.988281 0.834351
vt 0.983398 0.842407
vt 0.985352 0.833496
vt 0.988770 0.828491
vt 0.991211 0.823242
vt 0.996094 0.812256
vt 0.986816 0.827881
vt 0.992188 0.811890
vt 0.996094 0.803101
vt 0.986328 0.821899
vt 0.993164 0.803223
vt 0.994141 0.796509
vt 0.988281 0.811157
vt 0.992188 0.797729
vt 0.990723 0.794922
vt 0.989746 0.803345
vt 0.990723 0.798462
vt 0.990723 0.796509
vt 0.989746 0.796143
vt 0.988770 0.798340
vt 0.987793 0.797607
vt 0.987305 0.802856
vt 0.984863 0.809937
vt 0.984863 0.801880
vt 0.986816 0.796021
vt 0.987305 0.794312
vt 0.981445 0.797852
vt 0.982910 0.800293
vt 0.975586 0.804810
vt 0.981445 0.808594
vt 0.978027 0.807129
vt 0.971680 0.816162
vt 0.967773 0.813232
vt 0.977051 0.817139
vt 0.981445 0.818848
vt 0.978027 0.828369
vt 0.973145 0.826416
vt 0.982422 0.830933
vt 0.974609 0.838379
vt 0.979492 0.840576
vt 0.968750 0.836182
vt 0.976074 0.851196
vt 0.970703 0.849121
vt 0.972168 0.862549
vt 0.966309 0.860229
vt 0.968262 0.874512
vt 0.961426 0.872070
vt 0.964355 0.846558
vt 0.959961 0.857422
vt 0.956543 0.884399
vt 0.963867 0.887207
vt 0.954590 0.869019
vt 0.948730 0.881104
vt 0.941406 0.877380
vt 0.947754 0.865601
vt 0.934570 0.873291
vt 0.953613 0.854370
vt 0.941406 0.862061
vt 0.942871 0.848145
vt 0.947754 0.851318
vt 0.958496 0.843872
vt 0.949219 0.838501
vt 0.945312 0.835815
vt 0.953613 0.841187
vt 0.955078 0.829712
vt 0.952148 0.827026
vt 0.963379 0.833984
vt 0.958984 0.832031
vt 0.960938 0.822510
vt 0.958984 0.819336
vt 0.963867 0.824463
vt 0.965332 0.818481
vt 0.967285 0.819580
vt 0.967773 0.825073
s 1
usemtl MI_Horns_1
f 3/1/3 1/2/1 2/3/2
f 1/2/1 3/1/3 4/4/4
f 5/5/5 4/4/4 3/1/3
f 4/4/4 6/6/6 1/2/1
f 7/7/7 1/2/1 6/6/6
f 4/4/4 5/5/5 8/8/8
f 4/4/4 8/8/8 6/6/6
f 9/9/9 8/8/8 5/5/5
f 6/6/6 10/10/10 7/7/7
f 11/11/11 7/7/7 10/10/10
f 8/8/8 9/9/9 12/12/12
f 13/13/13 12/12/12 9/9/9
f 6/6/6 8/8/8 14/14/14
f 12/12/12 13/13/13 15/15/15
f 15/15/15 13/13/13 16/16/16
f 12/12/12 17/17/17 8/8/8
f 14/14/14 8/8/8 17/17/17
f 15/15/15 18/18/18 12/12/12
f 17/17/17 12/12/12 18/18/18
f 15/15/15 16/16/16 19/19/19
f 19/19/19 16/16/16 20/20/20
f 18/18/18 15/15/15 21/21/21
f 19/19/19 21/21/21 15/15/15
f 19/19/19 20/20/20 22/22/22
f 22/22/22 20/20/20 23/23/23
f 21/21/21 19/19/19 24/24/24
f 22/22/22 24/24/24 19/19/19
f 22/22/22 23/23/23 25/25/25
f 23/23/23 26/26/26 25/25/25
f 24/24/24 22/22/22 27/27/27
f 25/25/25 27/27/27 22/22/22
f 24/24/24 28/28/28 21/21/21
f 27/27/27 29/29/29 24/24/24
f 28/28/28 24/24/24 29/29/29
f 27/27/27 25/25/25 30/30/30
f 29/29/29 27/27/27 31/31/31
f 30/30/30 31/31/31 27/27/27
f 32/32/32 25/25/25 26/26/26
f 32/32/32 30/30/30 25/25/25
f 32/32/32 26/26/26 33/33/33
f 34/34/34 33/33/33 26/26/26
f 30/30/30 32/32/32 35/35/35
f 33/33/33 35/35/35 32/32/32
f 31/31/31 30/30/30 36/36/36
f 35/35/35 36/36/36 30/30/30
f 33/33/33 34/34/34 37/37/37
f 38/38/38 37/37/37 34/34/34
f 38/38/38 39/39/39 37/37/37
f 35/35/35 33/33/33 40/40/40
f 37/37/37 40/40/40 33/33/33
f 41/41/41 37/37/37 39/39/39
f 39/39/39 42/42/42 41/41/41
f 40/40/40 37/37/37 43/43/43
f 41/41/41 43/43/43 37/37/37
f 40/40/40 44/44/44 35/35/35
f 36/36/36 35/35/35 44/44/44
f 43/43/43 45/45/45 40/40/40
f 44/44/44 40/40/40 45/45/45
f 46/46/46 41/41/41 42/42/42
f 42/42/42 47/47/47 46/46/46
f 43/43/43 41/41/41 48/48/48
f 46/46/46 48/48/48 41/41/41
f 49/49/49 46/46/46 47/47/47
f 47/47/47 50/50/50 49/49/49
f 48/48/48 46/46/46 51/51/51
f 49/49/49 51/51/51 46/46/46
f 48/48/48 52/52/52 43/43/43
f 45/45/45 43/43/43 52/52/52
f 51/51/51 53/53/53 48/48/48
f 52/52/52 48/48/48 53/53/53
f 51/51/51 49/49/49 54/54/54
f 55/55/55 49/49/49 50/50/50
f 54/54/54 49/49/49 55/55/55
f 55/55/55 50/50/50 56/56/56
f 54/54/54 57/57/57 51/51/51
f 53/53/53 51/51/51 57/57/57
f 54/54/54 55/55/55 58/58/58
f 54/54/54 58/58/58 57/57/57
f 55/55/55 56/56/56 59/59/59
f 58/58/58 55/55/55 59/59/59
f 59/59/59 56/56/56 60/60/60
f 61/61/61 57/57/57 58/58/58
f 58/58/58 59/59/59 61/61/61
f 59/59/59 60/60/60 62/62/62
f 62/62/62 60/60/60 63/63/63
f 64/64/64 61/61/61 59/59/59
f 62/62/62 63/63/63 65/65/65
f 65/65/65 63/63/63 66/66/66
f 67/67/67 59/59/59 62/62/62
f 59/59/59 67/67/67 64/64/64
f 65/65/65 66/66/66 68/68/68
f 66/66/66 69/69/69 68/68/68
f 65/65/65 70/70/70 62/62/62
f 67/67/67 62/62/62 70/70/70
f 71/71/71 65/65/65 68/68/68
f 65/65/65 71/71/71 70/70/70
f 72/72/72 71/71/71 68/68/68
f 72/72/72 68/68/68 69/69/69
f 72/72/72 73/73/73 71/71/71
f 72/72/72 69/69/69 73/73/73
f 74/74/74 71/71/71 73/73/73
f 74/74/74 70/70/70 71/71/71
f 73/73/73 69/69/69 75/75/75
f 73/73/73 75/75/75 74/74/74
f 70/70/70 74/74/74 76/76/76
f 75/75/75 76/76/76 74/74/74
f 76/76/76 77/77/77 70/70/70
f 67/67/67 70/70/70 77/77/77
f 76/76/76 75/75/75 78/78/78
f 76/76/76 78/78/78 77/77/77
f 69/69/69 79/79/79 75/75/75
f 75/75/75 79/79/79 78/78/78
f 69/69/69 66/80/66 79/79/79
f 66/80/66 63/81/63 79/79/79
f 80/82/80 79/79/79 63/81/63
f 80/82/80 78/78/78 79/79/79
f 63/81/63 60/83/60 80/82/80
f 81/84/81 77/77/77 78/78/78
f 78/78/78 80/82/80 81/84/81
f 77/77/77 82/85/82 67/67/67
f 77/77/77 81/84/81 82/85/82
f 82/85/82 64/64/64 67/67/67
f 83/86/83 81/84/81 80/82/80
f 83/86/83 80/82/80 60/83/60
f 84/87/84 82/85/82 81/84/81
f 81/84/81 83/86/83 84/87/84
f 82/85/82 85/88/85 64/64/64
f 82/85/82 84/87/84 85/88/85
f 60/83/60 86/89/86 83/86/83
f 86/89/86 84/87/84 83/86/83
f 86/89/86 60/83/60 56/90/56
f 87/91/87 85/88/85 84/87/84
f 84/87/84 86/89/86 87/91/87
f 88/92/88 64/64/64 85/88/85
f 64/64/64 88/92/88 61/61/61
f 57/57/57 61/61/61 88/92/88
f 85/88/85 89/93/89 88/92/88
f 85/88/85 87/91/87 89/93/89
f 88/92/88 90/94/90 57/57/57
f 90/94/90 88/92/88 89/93/89
f 53/53/53 57/57/57 90/94/90
f 91/95/91 89/93/89 87/91/87
f 90/94/90 92/96/92 53/53/53
f 52/52/52 53/53/53 92/96/92
f 89/93/89 93/97/93 90/94/90
f 93/97/93 92/96/92 90/94/90
f 89/93/89 91/95/91 93/97/93
f 92/96/92 94/98/94 52/52/52
f 45/45/45 52/52/52 94/98/94
f 93/97/93 95/99/95 92/96/92
f 94/98/94 92/96/92 95/99/95
f 94/98/94 96/100/96 45/45/45
f 44/44/44 45/45/45 96/100/96
f 95/99/95 97/101/97 94/98/94
f 96/100/96 94/98/94 97/101/97
f 93/97/93 98/102/98 95/99/95
f 98/102/98 93/97/93 91/95/91
f 95/99/95 99/103/99 97/101/97
f 99/103/99 95/99/95 98/102/98
f 97/101/97 100/104/100 96/100/96
f 96/100/96 101/105/101 44/44/44
f 101/105/101 96/100/96 100/104/100
f 36/36/36 44/44/44 101/105/101
f 97/101/97 102/106/102 100/104/100
f 102/106/102 97/101/97 99/103/99
f 101/105/101 103/107/103 36/36/36
f 31/31/31 36/36/36 103/107/103
f 100/104/100 104/108/104 101/105/101
f 103/107/103 101/105/101 104/108/104
f 105/109/105 100/104/100 102/106/102
f 100/104/100 105/109/105 104/108/104
f 103/107/103 106/110/106 31/31/31
f 29/29/29 31/31/31 106/110/106
f 29/29/29 106/110/106 28/28/28
f 104/108/104 107/111/107 103/107/103
f 106/110/106 103/107/103 107/111/107
f 108/112/108 104/108/104 105/109/105
f 104/108/104 108/112/108 107/111/107
f 109/113/109 28/28/28 106/110/106
f 106/110/106 107/111/107 110/114/110
f 110/114/110 109/113/109 106/110/106
f 111/115/111 107/111/107 108/112/108
f 107/111/107 111/115/111 110/114/110
f 28/28/28 109/113/109 112/116/112
f 112/116/112 21/21/21 28/28/28
f 21/21/21 112/116/112 18/18/18
f 109/113/109 110/114/110 113/117/113
f 114/118/114 18/18/18 112/116/112
f 18/18/18 114/118/114 17/17/17
f 115/119/115 112/116/112 109/113/109
f 112/116/112 115/119/115 114/118/114
f 113/117/113 115/119/115 109/113/109
f 116/120/116 17/17/17 114/118/114
f 17/17/17 116/120/116 14/14/14
f 117/121/117 114/118/114 115/119/115
f 114/118/114 117/121/117 116/120/116
f 118/122/118 14/14/14 116/120/116
f 14/14/14 118/122/118 6/6/6
f 10/10/10 6/6/6 118/122/118
f 116/120/116 119/123/119 118/122/118
f 119/123/119 116/120/116 117/121/117
f 118/122/118 120/124/120 10/10/10
f 120/124/120 118/122/118 119/123/119
f 121/125/121 117/121/117 115/119/115
f 115/119/115 113/117/113 121/125/121
f 122/126/122 119/123/119 117/121/117
f 122/126/122 117/121/117 121/125/121
f 123/127/123 120/124/120 119/123/119
f 123/127/123 119/123/119 122/126/122
f 124/128/124 10/10/10 120/124/120
f 10/10/10 124/128/124 11/11/11
f 125/129/125 11/11/11 124/128/124
f 125/129/125 124/128/124 126/130/126
f 124/128/124 120/124/120 127/131/127
f 126/130/126 124/128/124 127/131/127
f 127/131/127 120/124/120 123/127/123
f 127/131/127 128/132/128 126/130/126
f 129/133/129 126/130/126 128/132/128
f 129/133/129 128/132/128 130/134/130
f 123/127/123 131/135/131 127/131/127
f 128/132/128 127/131/127 131/135/131
f 132/136/132 130/134/130 128/132/128
f 128/132/128 131/135/131 132/136/132
f 130/134/130 132/136/132 133/137/133
f 131/135/131 123/127/123 134/138/134
f 122/126/122 134/138/134 123/127/123
f 135/139/135 132/136/132 131/135/131
f 131/135/131 134/138/134 135/139/135
f 133/137/133 132/136/132 136/140/136
f 132/136/132 135/139/135 136/140/136
f 134/138/134 122/126/122 137/141/137
f 121/125/121 137/141/137 122/126/122
f 138/142/138 135/139/135 134/138/134
f 134/138/134 137/141/137 138/142/138
f 136/140/136 135/139/135 139/143/139
f 135/139/135 138/142/138 139/143/139
f 136/140/136 140/144/140 133/137/133
f 136/140/136 139/143/139 140/144/140
f 141/145/141 133/137/133 140/144/140
f 140/144/140 2/146/2 141/145/141
f 2/146/2 140/144/140 3/147/3
f 3/147/3 140/144/140 142/148/142
f 142/148/142 140/144/140 139/143/139
f 3/147/3 142/148/142 5/149/5
f 5/149/5 142/148/142 9/150/9
f 139/143/139 143/151/143 142/148/142
f 139/143/139 138/142/138 143/151/143
f 144/152/144 9/150/9 142/148/142
f 143/151/143 144/152/144 142/148/142
f 138/142/138 145/153/145 143/151/143
f 145/153/145 138/142/138 137/141/137
f 143/151/143 146/154/146 144/152/144
f 145/153/145 146/154/146 143/151/143
f 9/150/9 144/152/144 147/155/147
f 147/155/147 144/152/144 146/154/146
f 9/150/9 147/155/147 13/156/13
f 13/156/13 147/155/147 16/157/16
f 137/141/137 148/158/148 145/153/145
f 137/141/137 121/125/121 148/158/148
f 113/117/113 148/158/148 121/125/121
f 149/159/149 16/157/16 147/155/147
f 16/157/16 149/159/149 20/160/20
f 148/158/148 113/117/113 150/161/150
f 110/114/110 150/161/150 113/117/113
f 150/161/150 110/114/110 111/115/111
f 151/162/151 145/153/145 148/158/148
f 148/158/148 150/161/150 151/162/151
f 145/153/145 151/162/151 146/154/146
f 150/161/150 111/115/111 152/163/152
f 152/163/152 151/162/151 150/161/150
f 151/162/151 153/164/153 146/154/146
f 151/162/151 152/163/152 153/164/153
f 146/154/146 153/164/153 147/155/147
f 149/159/149 147/155/147 153/164/153
f 154/165/154 152/163/152 111/115/111
f 108/112/108 154/165/154 111/115/111
f 155/166/155 153/164/153 152/163/152
f 152/163/152 154/165/154 155/166/155
f 153/164/153 155/166/155 149/159/149
f 108/112/108 156/167/156 154/165/154
f 156/167/156 108/112/108 105/109/105
f 157/168/157 155/166/155 154/165/154
f 156/167/156 157/168/157 154/165/154
f 158/169/158 149/159/149 155/166/155
f 158/169/158 20/160/20 149/159/149
f 20/160/20 158/169/158 23/170/23
f 158/169/158 155/166/155 159/171/159
f 159/171/159 23/170/23 158/169/158
f 157/168/157 159/171/159 155/166/155
f 23/170/23 159/171/159 26/172/26
f 160/173/160 26/172/26 159/171/159
f 159/171/159 157/168/157 160/173/160
f 26/172/26 160/173/160 34/174/34
f 161/175/161 160/173/160 157/168/157
f 156/167/156 161/175/161 157/168/157
f 162/176/162 34/174/34 160/173/160
f 160/173/160 161/175/161 162/176/162
f 34/174/34 162/176/162 38/177/38
f 163/178/163 161/175/161 156/167/156
f 105/109/105 163/178/163 156/167/156
f 163/178/163 105/109/105 102/106/102
f 164/179/164 162/176/162 161/175/161
f 163/178/163 164/179/164 161/175/161
f 165/180/165 38/177/38 162/176/162
f 162/176/162 164/179/164 165/180/165
f 38/177/38 165/180/165 39/181/39
f 102/106/102 166/182/166 163/178/163
f 166/182/166 164/179/164 163/178/163
f 166/182/166 102/106/102 99/103/99
f 167/183/167 165/180/165 164/179/164
f 166/182/166 167/183/167 164/179/164
f 99/103/99 168/184/168 166/182/166
f 167/183/167 166/182/166 168/184/168
f 168/184/168 99/103/99 98/102/98
f 165/180/165 167/183/167 169/185/169
f 169/185/169 39/181/39 165/180/165
f 168/184/168 170/186/170 167/183/167
f 170/186/170 169/185/169 167/183/167
f 98/102/98 171/187/171 168/184/168
f 170/186/170 168/184/168 171/187/171
f 171/187/171 98/102/98 91/95/91
f 39/181/39 169/185/169 172/188/172
f 169/185/169 170/186/170 172/188/172
f 42/189/42 39/181/39 172/188/172
f 171/187/171 173/190/173 170/186/170
f 173/190/173 172/188/172 170/186/170
f 42/189/42 172/188/172 174/191/174
f 172/188/172 173/190/173 174/191/174
f 47/192/47 42/189/42 174/191/174
f 173/190/173 171/187/171 175/193/175
f 175/193/175 171/187/171 91/95/91
f 176/194/176 174/191/174 173/190/173
f 176/194/176 173/190/173 175/193/175
f 174/191/174 177/195/177 47/192/47
f 174/191/174 176/194/176 177/195/177
f 50/196/50 47/192/47 177/195/177
f 176/194/176 175/193/175 178/197/178
f 178/197/178 177/195/177 176/194/176
f 177/195/177 179/198/179 50/196/50
f 178/197/178 179/198/179 177/195/177
f 56/90/56 50/196/50 179/198/179
f 179/198/179 180/199/180 56/90/56
f 179/198/179 178/197/178 180/199/180
f 86/89/86 56/90/56 180/199/180
f 181/200/181 178/197/178 175/193/175
f 178/197/178 181/200/181 180/199/180
f 86/89/86 180/199/180 181/200/181
f 175/193/175 91/95/91 181/200/181
f 181/200/181 87/91/87 86/89/86
f 87/91/87 181/200/181 91/95/91
f 184/201/184 182/202/182 183/203/183
f 185/204/185 184/201/184 183/203/183
f 186/205/186 184/201/184 185/204/185
f 185/204/185 183/203/183 187/206/187
f 188/207/188 187/206/187 183/203/183
f 189/208/189 186/205/186 185/204/185
f 189/208/189 185/204/185 187/206/187
f 190/209/190 186/205/186 189/208/189
f 187/206/187 188/207/188 191/210/191
f 192/211/192 191/210/191 188/207/188
f 193/212/193 190/209/190 189/208/189
f 194/213/194 190/209/190 193/212/193
f 191/210/191 192/211/192 195/214/195
f 196/215/196 195/214/195 192/211/192
f 195/214/195 196/215/196 197/216/197
f 198/217/198 194/213/194 193/212/193
f 199/218/199 194/213/194 198/217/198
f 200/219/200 195/214/195 197/216/197
f 201/220/201 199/218/199 198/217/198
f 202/221/202 199/218/199 201/220/201
f 195/214/195 203/222/203 191/210/191
f 203/222/203 195/214/195 200/219/200
f 204/223/204 191/210/191 203/222/203
f 191/210/191 204/223/204 187/206/187
f 205/224/205 203/222/203 200/219/200
f 206/225/206 187/206/187 204/223/204
f 206/225/206 189/208/189 187/206/187
f 203/222/203 207/226/207 204/223/204
f 203/222/203 205/224/205 207/226/207
f 204/223/204 208/227/208 206/225/206
f 208/227/208 204/223/204 207/226/207
f 206/225/206 209/228/209 189/208/189
f 209/228/209 206/225/206 208/227/208
f 193/212/193 189/208/189 209/228/209
f 207/226/207 210/229/210 208/227/208
f 209/228/209 211/230/211 193/212/193
f 198/217/198 193/212/193 211/230/211
f 208/227/208 212/231/212 209/228/209
f 211/230/211 209/228/209 212/231/212
f 212/231/212 208/227/208 210/229/210
f 211/230/211 213/232/213 198/217/198
f 201/220/201 198/217/198 213/232/213
f 212/231/212 214/233/214 211/230/211
f 213/232/213 211/230/211 214/233/214
f 210/229/210 215/234/215 212/231/212
f 214/233/214 212/231/212 215/234/215
f 210/229/210 207/226/207 216/235/216
f 216/235/216 207/226/207 205/224/205
f 217/236/217 215/234/215 210/229/210
f 217/236/217 210/229/210 216/235/216
f 215/234/215 218/237/218 214/233/214
f 219/238/219 215/234/215 217/236/217
f 219/238/219 218/237/218 215/234/215
f 217/236/217 216/235/216 220/239/220
f 221/240/221 214/233/214 218/237/218
f 214/233/214 221/240/221 213/232/213
f 222/241/222 220/239/220 216/235/216
f 216/235/216 205/224/205 222/241/222
f 223/242/223 213/232/213 221/240/221
f 213/232/213 223/242/223 201/220/201
f 224/243/224 222/241/222 205/224/205
f 205/224/205 200/219/200 224/243/224
f 225/244/225 201/220/201 223/242/223
f 225/244/225 202/221/202 201/220/201
f 202/221/202 225/244/225 226/245/226
f 227/246/227 224/243/224 200/219/200
f 200/219/200 197/216/197 227/246/227
f 228/247/228 227/246/227 197/216/197
f 229/248/229 227/246/227 228/247/228
f 229/248/229 230/249/230 227/246/227
f 230/249/230 224/243/224 227/246/227
f 230/249/230 229/248/229 231/250/231
f 230/249/230 232/251/232 224/243/224
f 232/251/232 222/241/222 224/243/224
f 231/250/231 233/252/233 230/249/230
f 232/251/232 230/249/230 233/252/233
f 232/251/232 234/253/234 222/241/222
f 234/253/234 220/239/220 222/241/222
f 233/252/233 235/254/235 232/251/232
f 234/253/234 232/251/232 235/254/235
f 233/252/233 231/250/231 236/255/236
f 235/254/235 233/252/233 236/255/236
f 237/256/237 236/255/236 231/250/231
f 236/255/236 237/256/237 182/257/182
f 184/258/184 236/255/236 182/257/182
f 238/259/238 236/255/236 184/258/184
f 236/255/236 238/259/238 235/254/235
f 186/260/186 238/259/238 184/258/184
f 186/260/186 190/261/190 238/259/238
f 238/259/238 239/262/239 235/254/235
f 235/254/235 239/262/239 234/253/234
f 240/263/240 238/259/238 190/261/190
f 238/259/238 240/263/240 239/262/239
f 239/262/239 241/264/241 234/253/234
f 220/239/220 234/253/234 241/264/241
f 240/263/240 242/265/242 239/262/239
f 239/262/239 242/265/242 241/264/241
f 243/266/243 240/263/240 190/261/190
f 240/263/240 243/266/243 242/265/242
f 194/267/194 243/266/243 190/261/190
f 194/267/194 199/268/199 243/266/243
f 241/264/241 244/269/244 220/239/220
f 220/239/220 244/269/244 217/236/217
f 219/238/219 217/236/217 244/269/244
f 245/270/245 243/266/243 199/268/199
f 199/268/199 202/271/202 245/270/245
f 244/269/244 241/264/241 246/272/246
f 242/265/242 246/272/246 241/264/241
f 243/266/243 247/273/247 242/265/242
f 242/265/242 247/273/247 246/272/246
f 243/266/243 245/270/245 247/273/247
f 246/272/246 248/274/248 244/269/244
f 244/269/244 248/274/248 219/238/219
f 247/273/247 249/275/249 246/272/246
f 248/274/248 246/272/246 249/275/249
f 245/270/245 250/276/250 247/273/247
f 249/275/249 247/273/247 250/276/250
f 251/277/251 245/270/245 202/271/202
f 250/276/250 245/270/245 251/277/251
f 202/271/202 226/278/226 251/277/251
f 252/279/252 251/277/251 226/278/226
f 251/277/251 252/279/252 250/276/250
f 226/278/226 253/280/253 252/279/252
f 254/281/254 252/279/252 253/280/253
f 253/280/253 255/282/255 254/281/254
f 256/283/256 250/276/250 252/279/252
f 252/279/252 254/281/254 256/283/256
f 257/284/257 254/281/254 255/282/255
f 255/282/255 258/285/258 257/284/257
f 259/286/259 256/283/256 254/281/254
f 254/281/254 257/284/257 259/286/259
f 260/287/260 250/276/250 256/283/256
f 250/276/250 260/287/260 249/275/249
f 261/288/261 257/284/257 258/285/258
f 258/285/258 262/289/262 261/288/261
f 263/290/263 249/275/249 260/287/260
f 249/275/249 263/290/263 248/274/248
f 260/287/260 256/283/256 264/291/264
f 259/286/259 264/291/264 256/283/256
f 263/290/263 260/287/260 265/292/265
f 260/287/260 264/291/264 265/292/265
f 248/274/248 263/290/263 266/293/266
f 266/293/266 219/238/219 248/274/248
f 266/293/266 218/237/218 219/238/219
f 267/294/267 266/293/266 263/290/263
f 263/290/263 265/292/265 267/294/267
f 266/293/266 268/295/268 218/237/218
f 267/294/267 268/295/268 266/293/266
f 218/237/218 268/295/268 221/240/221
f 269/296/269 267/294/267 265/292/265
f 270/297/270 221/240/221 268/295/268
f 221/240/221 270/297/270 223/242/223
f 267/294/267 271/298/271 268/295/268
f 269/296/269 271/298/271 267/294/267
f 270/297/270 268/295/268 272/299/272
f 271/298/271 272/299/272 268/295/268
f 273/300/273 223/242/223 270/297/270
f 270/297/270 272/299/272 273/300/273
f 223/242/223 273/300/273 225/244/225
f 271/298/271 274/301/274 272/299/272
f 275/302/275 225/244/225 273/300/273
f 275/302/275 226/245/226 225/244/225
f 276/303/276 273/300/273 272/299/272
f 273/300/273 276/303/276 275/302/275
f 272/299/272 274/301/274 276/303/276
f 275/302/275 253/304/253 226/245/226
f 277/305/277 275/302/275 276/303/276
f 253/304/253 275/302/275 277/305/277
f 276/303/276 278/306/278 277/305/277
f 278/306/278 276/303/276 274/301/274
f 277/305/277 279/307/279 253/304/253
f 279/307/279 277/305/277 278/306/278
f 255/308/255 253/304/253 279/307/279
f 274/301/274 280/309/280 278/306/278
f 279/307/279 281/310/281 255/308/255
f 258/311/258 255/308/255 281/310/281
f 281/310/281 262/312/262 258/311/258
f 278/306/278 282/313/282 279/307/279
f 281/310/281 279/307/279 282/313/282
f 282/313/282 278/306/278 280/309/280
f 262/312/262 281/310/281 283/314/283
f 283/314/283 284/315/284 262/312/262
f 282/313/282 285/316/285 281/310/281
f 283/314/283 281/310/281 285/316/285
f 286/317/286 284/315/284 283/314/283
f 286/317/286 287/318/287 284/315/284
f 285/316/285 288/319/288 283/314/283
f 286/317/286 283/314/283 288/319/288
f 285/316/285 282/313/282 289/320/289
f 280/309/280 289/320/289 282/313/282
f 288/319/288 285/316/285 290/321/290
f 289/320/289 290/321/290 285/316/285
f 291/322/291 287/318/287 286/317/286
f 287/318/287 291/322/291 292/323/292
f 288/319/288 293/324/293 286/317/286
f 291/322/291 286/317/286 293/324/293
f 294/325/294 292/323/292 291/322/291
f 292/323/292 294/325/294 295/326/295
f 293/324/293 296/327/296 291/322/291
f 294/325/294 291/322/291 296/327/296
f 293/324/293 288/319/288 297/328/297
f 290/321/290 297/328/297 288/319/288
f 296/327/296 293/324/293 298/329/298
f 297/328/297 298/329/298 293/324/293
f 296/327/296 299/330/299 294/325/294
f 296/327/296 298/329/298 299/330/299
f 300/331/300 295/326/295 294/325/294
f 299/330/299 300/331/300 294/325/294
f 295/326/295 300/331/300 301/332/301
f 302/333/302 299/330/299 298/329/298
f 299/330/299 302/333/302 300/331/300
f 303/334/303 301/332/301 300/331/300
f 301/332/301 303/334/303 304/335/304
f 305/336/305 300/331/300 302/333/302
f 306/337/306 304/335/304 303/334/303
f 304/335/304 306/337/306 307/338/307
f 303/334/303 300/331/300 308/339/308
f 300/331/300 305/336/305 308/339/308
f 309/340/309 307/338/307 306/337/306
f 307/338/307 309/340/309 310/341/310
f 306/337/306 303/334/303 311/342/311
f 308/339/308 311/342/311 303/334/303
f 309/340/309 306/337/306 312/343/312
f 306/337/306 311/342/311 312/343/312
f 309/340/309 312/343/312 313/344/313
f 313/344/313 310/341/310 309/340/309
f 313/344/313 312/343/312 314/345/314
f 314/345/314 310/341/310 313/344/313
f 315/346/315 314/345/314 312/343/312
f 312/343/312 311/342/311 315/346/315
f 316/347/316 310/341/310 314/345/314
f 315/346/315 316/347/316 314/345/314
f 317/348/317 315/346/315 311/342/311
f 315/346/315 317/348/317 316/347/316
f 317/348/317 311/342/311 318/349/318
f 308/339/308 318/349/318 311/342/311
f 319/350/319 316/347/316 317/348/317
f 318/349/318 319/350/319 317/348/317
f 316/347/316 320/351/320 310/341/310
f 316/347/316 319/350/319 320/351/320
f 320/351/320 307/352/307 310/341/310
f 307/352/307 320/351/320 304/353/304
f 321/354/321 304/353/304 320/351/320
f 321/354/321 320/351/320 319/350/319
f 321/354/321 301/355/301 304/353/304
f 322/356/322 321/354/321 319/350/319
f 318/349/318 322/356/322 319/350/319
f 301/355/301 321/354/321 323/357/323
f 322/356/322 323/357/323 321/354/321
f 323/357/323 324/358/324 301/355/301
f 324/358/324 295/359/295 301/355/301
f 322/356/322 325/360/325 323/357/323
f 324/358/324 323/357/323 325/360/325
f 318/349/318 326/361/326 322/356/322
f 325/360/325 322/356/322 326/361/326
f 318/349/318 308/339/308 326/361/326
f 305/336/305 326/361/326 308/339/308
f 326/361/326 327/362/327 325/360/325
f 326/361/326 305/336/305 327/362/327
f 328/363/328 324/358/324 325/360/325
f 328/363/328 325/360/325 327/362/327
f 329/364/329 327/362/327 305/336/305
f 302/333/302 329/364/329 305/336/305
f 298/329/298 329/364/329 302/333/302
f 327/362/327 329/364/329 330/365/330
f 327/362/327 330/365/330 328/363/328
f 329/364/329 298/329/298 331/366/331
f 331/366/331 330/365/330 329/364/329
f 297/328/297 331/366/331 298/329/298
f 332/367/332 328/363/328 330/365/330
f 297/328/297 333/368/333 331/366/331
f 333/368/333 297/328/297 290/321/290
f 331/366/331 334/369/334 330/365/330
f 334/369/334 331/366/331 333/368/333
f 330/365/330 334/369/334 332/367/332
f 290/321/290 335/370/335 333/368/333
f 335/370/335 290/321/290 289/320/289
f 333/368/333 336/371/336 334/369/334
f 336/371/336 333/368/333 335/370/335
f 335/370/335 289/320/289 337/372/337
f 337/372/337 289/320/289 280/309/280
f 335/370/335 338/373/338 336/371/336
f 338/373/338 335/370/335 337/372/337
f 334/369/334 336/371/336 339/374/339
f 339/374/339 332/367/332 334/369/334
f 336/371/336 338/373/338 340/375/340
f 340/375/340 339/374/339 336/371/336
f 337/372/337 341/376/341 338/373/338
f 337/372/337 280/309/280 342/377/342
f 341/376/341 337/372/337 342/377/342
f 342/377/342 280/309/280 274/301/274
f 342/377/342 274/301/274 271/298/271
f 269/296/269 342/377/342 271/298/271
f 342/377/342 269/296/269 341/376/341
f 338/373/338 341/376/341 343/378/343
f 343/378/343 340/375/340 338/373/338
f 341/376/341 269/296/269 344/379/344
f 344/379/344 343/378/343 341/376/341
f 265/292/265 344/379/344 269/296/269
f 265/292/265 264/291/264 344/379/344
f 344/379/344 264/291/264 345/380/345
f 344/379/344 345/380/345 343/378/343
f 264/291/264 259/286/259 345/380/345
f 343/378/343 346/381/346 340/375/340
f 343/378/343 345/380/345 346/381/346
f 347/382/347 345/380/345 259/286/259
f 345/380/345 347/382/347 346/381/346
f 347/382/347 259/286/259 257/284/257
f 257/284/257 261/288/261 347/382/347
f 340/375/340 346/381/346 348/383/348
f 340/375/340 348/383/348 339/374/339
f 349/384/349 346/381/346 347/382/347
f 349/384/349 347/382/347 261/288/261
f 346/381/346 349/384/349 348/383/348
f 261/288/261 350/385/350 349/384/349
f 350/385/350 261/288/261 262/289/262
f 348/383/348 349/384/349 351/386/351
f 351/386/351 349/384/349 350/385/350
f 339/374/339 348/383/348 352/387/352
f 348/383/348 351/386/351 352/387/352
f 339/374/339 352/387/352 332/367/332
f 262/289/262 353/388/353 350/385/350
f 350/385/350 353/388/353 351/386/351
f 353/388/353 262/289/262 284/389/284
f 352/387/352 351/386/351 354/390/354
f 354/390/354 351/386/351 353/388/353
f 284/389/284 355/391/355 353/388/353
f 353/388/353 355/391/355 354/390/354
f 355/391/355 284/389/284 287/392/287
f 352/387/352 354/390/354 356/393/356
f 332/367/332 352/387/352 356/393/356
f 357/394/357 354/390/354 355/391/355
f 356/393/356 354/390/354 357/394/357
f 355/391/355 287/392/287 358/395/358
f 357/394/357 355/391/355 358/395/358
f 292/396/292 358/395/358 287/392/287
f 356/393/356 357/394/357 359/397/359
f 359/397/359 357/394/357 358/395/358
f 358/395/358 292/396/292 360/398/360
f 359/397/359 358/395/358 360/398/360
f 295/359/295 360/398/360 292/396/292
f 360/398/360 295/359/295 361/399/361
f 361/399/361 359/397/359 360/398/360
f 361/399/361 295/359/295 324/358/324
f 362/400/362 356/393/356 359/397/359
f 359/397/359 361/399/361 362/400/362
f 324/358/324 362/400/362 361/399/361
f 332/367/332 356/393/356 362/400/362
f 328/363/328 362/400/362 324/358/324
f 332/367/332 362/400/362 328/363/328
