# Blender 4.3.2
# www.blender.org
mtllib Toonhorns.mtl
o SM_Gear_Horns_ToonHorns_LOD0.001
v -2.910590 13.877972 7.515236
v -3.421937 13.000679 7.251701
v -2.703469 13.262371 7.389256
v -3.680436 13.548645 7.374385
v -4.063562 12.721645 6.844288
v -3.118063 14.452293 7.409107
v -4.373374 13.231247 6.933880
v -4.595067 12.451981 6.264983
v -4.578852 13.746403 6.833965
v -4.988420 13.026100 6.269203
v -5.385519 12.793633 5.407974
v -4.934946 12.218235 5.509701
v -5.664011 13.571789 5.220749
v -5.066312 15.099201 6.363506
v -3.689010 15.939178 6.882229
v -5.563108 12.605648 4.541885
v -5.120457 12.026120 4.692346
v -5.014791 11.927090 3.849308
v -5.569194 16.379276 5.673367
v -4.297668 17.330151 6.109829
v -5.414629 12.401688 3.658688
v -4.736570 11.899214 3.091451
v -6.081755 17.506809 4.815426
v -4.913754 18.545132 5.155697
v -6.426260 15.700603 4.156391
v -6.590158 18.456623 3.810917
v -5.521832 19.557522 4.044849
v -7.207315 17.356300 2.539902
v -7.081002 19.210365 2.685841
v -6.107190 20.348713 2.807209
v -7.541180 19.752125 1.467457
v -6.655523 20.902893 1.473919
v -7.930424 18.365604 0.526119
v -7.958951 20.073841 0.185734
v -7.154263 21.213196 0.078655
v -6.800530 16.034901 1.546806
v -8.323157 20.170132 -1.128780
v -7.591551 21.275726 -1.344479
v -8.512313 18.641003 -1.699589
v -8.624774 20.043709 -2.445038
v -7.958076 21.095577 -2.761395
v -8.855590 19.699924 -3.732185
v -8.245468 20.680676 -4.138405
v -7.383288 16.953655 -0.020714
v -9.010073 19.151707 -4.961071
v -8.448433 20.047142 -5.444256
v -8.562744 19.213528 -6.648857
v -8.883286 18.164139 -3.932743
v -9.083643 18.414330 -6.103439
v -8.587477 18.205009 -7.726658
v -7.876532 17.297344 -1.821323
v -9.074690 17.509449 -7.134716
v -8.520582 17.058102 -8.643414
v -8.993698 16.987221 -5.969006
v -8.979101 16.470043 -8.024170
v -8.349926 15.870846 -9.308132
v -8.894997 15.736057 -7.266029
v -8.774765 15.390682 -8.700336
v -8.074474 14.751308 -9.650097
v -8.215538 17.017353 -3.693508
v -8.452271 14.376095 -9.107746
v -7.640125 13.461025 -9.794731
v -8.703996 14.807442 -7.936405
v -7.943045 13.230988 -9.390415
v -7.122340 12.612442 -9.827801
v -8.401917 13.917744 -8.413174
v -8.297241 15.111282 -6.632565
v -7.512902 12.405102 -9.333309
v -8.159622 14.324390 -7.282703
v -8.348409 16.123989 -5.463459
v -7.926460 12.921177 -8.854847
v -7.932306 13.537487 -7.811024
v -7.085132 12.073303 -8.766537
v -7.574541 12.644653 -8.388031
v -7.331123 14.111050 -6.969196
v -7.207975 13.372997 -7.519901
v -7.019253 12.511997 -8.177410
v -6.480895 12.572189 -8.296520
v -6.490376 13.483181 -7.643909
v -6.538361 12.037609 -8.813473
v -6.509300 14.242115 -7.105831
v -6.956815 11.870621 -9.080776
v -6.622563 11.841290 -9.118282
v -6.857136 11.868557 -9.487602
v -7.218906 12.073959 -9.427841
v -6.973942 12.183800 -9.729290
v -7.393597 14.812984 -6.344200
v -6.498387 14.944904 -6.501244
v -6.391993 15.788818 -5.477402
v -7.367550 15.672180 -5.278118
v -6.087848 16.484146 -3.981960
v -7.161640 16.383984 -3.712063
v -5.623860 16.639824 -2.464787
v -6.787566 16.542885 -2.109806
v -6.298800 16.167828 -0.623863
v -5.053844 16.281204 -1.073730
v -5.756591 15.328499 0.614216
v -4.438291 15.482594 0.066227
v -5.223414 14.135380 1.505634
v -3.837801 14.356533 0.864086
v -6.199279 14.642101 2.746853
v -4.746713 12.742863 2.009521
v -3.306768 13.053017 1.292252
v -5.635408 12.938442 3.490589
v -5.087410 12.301850 2.851637
v -4.275352 11.949383 2.440128
v -4.569529 12.308914 2.155201
v -3.921427 12.416557 1.668097
v -3.687751 12.073169 1.986144
v -3.145915 12.639587 1.435135
v -2.973599 12.277378 1.771877
v -1.970983 13.492785 7.301102
v -2.116244 14.141265 7.416526
v -1.327326 13.652500 6.955231
v -1.410077 14.303356 7.041985
v -0.763715 13.751513 6.395985
v -1.600353 14.882561 6.930431
v -0.778223 14.366517 6.440606
v -0.393255 14.359596 5.678577
v -0.413375 13.756458 5.693043
v -0.232336 13.685613 4.869015
v -0.553159 14.887676 5.564289
v -2.199698 16.361389 6.412506
v -0.234648 14.378699 4.745370
v -0.279235 13.538113 4.041325
v -2.858000 17.738285 5.655773
v -0.324515 14.291237 3.812851
v -0.422227 13.391310 3.419325
v -1.115944 16.219116 5.117588
v -0.468668 14.100164 3.157478
v -0.707913 13.209061 2.873772
v -0.577392 15.013828 3.616463
v -0.749044 13.832432 2.589878
v -1.083449 13.009014 2.404752
v -0.956217 14.410664 2.405708
v -1.135623 13.555017 2.094441
v -1.638879 13.278992 1.748909
v -1.561922 12.797085 2.076801
v -1.815988 13.761124 1.588047
v -2.374515 12.928801 1.452340
v -2.255226 12.520519 1.793171
v -2.523971 15.228722 1.045151
v -1.841466 16.132545 1.676304
v -3.303768 16.443630 0.093273
v -1.639607 17.057606 2.646717
v -2.792983 17.497334 0.479267
v -4.081072 17.254387 -1.213970
v -4.789826 17.554478 -2.762901
v -3.717046 18.348934 -1.092014
v -5.367328 17.283028 -4.409409
v -4.539851 18.589390 -2.891582
v -2.756568 18.618076 1.136166
v -5.760764 16.433357 -5.992054
v -5.195548 18.176964 -4.748158
v -5.632748 17.131481 -6.480999
v -5.922882 15.461063 -7.048916
v -5.809808 15.995197 -7.604572
v -5.981393 14.670757 -7.643017
v -5.877342 15.099640 -8.197945
v -6.033987 13.825436 -8.132717
v -5.946429 14.162189 -8.634449
v -6.153203 12.792561 -8.681278
v -6.096973 13.011929 -9.056564
v -6.324543 12.213043 -9.202869
v -6.234190 13.230305 -9.426350
v -6.504792 11.916317 -9.309147
v -6.611148 12.086578 -9.632694
v -6.515322 12.468449 -9.666569
v -6.622023 13.454258 -9.802166
v -6.133305 14.493557 -9.144127
v -7.143968 13.541096 -9.942028
v -6.678352 14.819790 -9.667736
v -6.093259 15.527340 -8.764481
v -7.406837 14.916866 -9.858318
v -6.729409 15.952763 -9.345684
v -7.579174 16.082233 -9.550564
v -6.047451 16.541306 -8.164593
v -6.746709 17.101143 -8.728275
v -7.678992 17.295979 -8.908787
v -6.704470 18.181400 -7.882271
v -5.886574 17.868084 -6.948971
v -7.693890 18.458340 -8.008495
v -5.440255 19.140224 -5.018650
v -7.619512 19.480938 -6.946346
v -7.455559 20.328617 -5.757397
v -6.581744 19.123608 -6.892521
v -6.376494 19.898312 -5.791683
v -7.202950 20.976231 -4.467213
v -6.090332 20.483860 -4.604328
v -6.865915 21.405201 -3.105854
v -4.733377 19.712322 -2.891438
v -5.727839 20.864986 -3.358707
v -6.449745 21.599430 -1.704601
v -5.294541 21.028728 -2.083981
v -3.815582 19.532146 -0.771671
v -4.798657 20.969776 -0.811001
v -5.962812 21.550968 -0.297123
v -4.249207 20.685383 0.429188
v -5.414429 21.254738 1.082485
v -3.657349 20.180958 1.606045
v -4.816452 20.714626 2.400116
v -3.034828 19.464550 2.689590
v -4.181450 19.937519 3.622105
v -2.394745 18.552067 3.652569
v -3.523728 18.939198 4.717293
v -1.750505 17.461864 4.468979
v 3.421937 13.000679 7.251701
v 2.910590 13.877972 7.515236
v 2.703469 13.262371 7.389256
v 3.680436 13.548645 7.374385
v 4.063562 12.721645 6.844288
v 3.118063 14.452293 7.409107
v 4.373374 13.231247 6.933880
v 4.595067 12.451981 6.264983
v 4.578852 13.746403 6.833965
v 4.988420 13.026100 6.269203
v 5.385519 12.793633 5.407974
v 4.934946 12.218235 5.509701
v 5.664011 13.571789 5.220749
v 5.066312 15.099201 6.363506
v 3.689010 15.939178 6.882229
v 5.563108 12.605648 4.541885
v 5.120457 12.026120 4.692346
v 5.014791 11.927090 3.849308
v 5.569194 16.379276 5.673367
v 4.297668 17.330151 6.109829
v 5.414629 12.401688 3.658688
v 4.736570 11.899214 3.091451
v 5.635408 12.938442 3.490589
v 5.087410 12.301850 2.851637
v 4.275352 11.949383 2.440128
v 6.199279 14.642101 2.746853
v 4.569529 12.308914 2.155201
v 4.746713 12.742863 2.009521
v 3.921427 12.416557 1.668097
v 3.687751 12.073169 1.986144
v 3.145915 12.639587 1.435135
v 2.973599 12.277378 1.771877
v 3.306768 13.053017 1.292252
v 3.837801 14.356533 0.864086
v 5.223414 14.135380 1.505634
v 4.438291 15.482594 0.066227
v 5.756591 15.328499 0.614216
v 5.053844 16.281204 -1.073730
v 6.800530 16.034901 1.546806
v 6.298800 16.167828 -0.623863
v 5.623860 16.639824 -2.464787
v 7.383288 16.953655 -0.020714
v 6.787566 16.542885 -2.109806
v 7.876532 17.297344 -1.821323
v 7.161640 16.383984 -3.712063
v 6.087848 16.484146 -3.981960
v 7.367550 15.672180 -5.278118
v 6.391993 15.788818 -5.477402
v 8.215538 17.017353 -3.693508
v 7.393597 14.812984 -6.344200
v 6.498387 14.944904 -6.501244
v 6.509300 14.242115 -7.105831
v 8.348409 16.123989 -5.463459
v 7.331123 14.111050 -6.969196
v 6.490376 13.483181 -7.643909
v 8.297241 15.111282 -6.632565
v 7.207975 13.372997 -7.519901
v 6.480895 12.572189 -8.296520
v 8.159622 14.324390 -7.282703
v 7.932306 13.537487 -7.811024
v 7.019253 12.511997 -8.177410
v 7.574541 12.644653 -8.388031
v 7.085132 12.073303 -8.766537
v 6.538361 12.037609 -8.813473
v 7.926460 12.921177 -8.854847
v 8.401917 13.917744 -8.413174
v 6.956815 11.870621 -9.080776
v 6.622563 11.841290 -9.118282
v 6.857136 11.868557 -9.487602
v 7.512902 12.405102 -9.333309
v 7.218906 12.073959 -9.427841
v 6.973942 12.183800 -9.729290
v 7.122340 12.612442 -9.827801
v 7.943045 13.230988 -9.390415
v 7.640125 13.461025 -9.794731
v 8.452271 14.376095 -9.107746
v 8.074474 14.751308 -9.650097
v 8.703996 14.807442 -7.936405
v 8.774765 15.390682 -8.700336
v 8.349926 15.870846 -9.308132
v 8.894997 15.736057 -7.266029
v 8.979101 16.470043 -8.024170
v 8.520582 17.058102 -8.643414
v 8.993698 16.987221 -5.969006
v 9.074690 17.509449 -7.134716
v 8.587477 18.205009 -7.726658
v 9.083643 18.414330 -6.103439
v 8.562744 19.213528 -6.648857
v 8.883286 18.164139 -3.932743
v 9.010073 19.151707 -4.961071
v 8.448433 20.047142 -5.444256
v 8.245468 20.680676 -4.138405
v 8.855590 19.699924 -3.732185
v 7.958076 21.095577 -2.761395
v 8.512313 18.641003 -1.699589
v 8.624774 20.043709 -2.445038
v 7.591551 21.275726 -1.344479
v 8.323157 20.170132 -1.128780
v 7.154263 21.213196 0.078655
v 7.958951 20.073841 0.185734
v 6.655523 20.902893 1.473919
v 7.930424 18.365604 0.526119
v 7.541180 19.752125 1.467457
v 6.107190 20.348713 2.807209
v 7.081002 19.210365 2.685841
v 5.521832 19.557522 4.044849
v 7.207315 17.356300 2.539902
v 6.590158 18.456623 3.810917
v 4.913754 18.545132 5.155697
v 6.426260 15.700603 4.156391
v 6.081755 17.506809 4.815426
v 1.970983 13.492785 7.301102
v 2.116244 14.141265 7.416526
v 1.327326 13.652500 6.955231
v 1.410077 14.303356 7.041985
v 0.763715 13.751513 6.395985
v 1.600353 14.882561 6.930431
v 0.778223 14.366517 6.440606
v 0.393255 14.359596 5.678577
v 0.413375 13.756458 5.693043
v 0.232336 13.685613 4.869015
v 0.553159 14.887676 5.564289
v 2.199698 16.361389 6.412506
v 0.234648 14.378699 4.745370
v 0.279235 13.538113 4.041325
v 2.858000 17.738285 5.655773
v 0.324515 14.291237 3.812851
v 0.422227 13.391310 3.419325
v 1.115944 16.219116 5.117588
v 0.468668 14.100164 3.157478
v 0.707913 13.209061 2.873772
v 0.577392 15.013828 3.616463
v 0.749044 13.832432 2.589878
v 1.083449 13.009014 2.404752
v 0.956217 14.410664 2.405708
v 1.135623 13.555017 2.094441
v 1.638879 13.278992 1.748909
v 1.561922 12.797085 2.076801
v 1.815988 13.761124 1.588047
v 2.374515 12.928801 1.452340
v 2.255226 12.520519 1.793171
v 2.523971 15.228722 1.045151
v 1.841466 16.132545 1.676304
v 3.303768 16.443630 0.093273
v 1.639607 17.057606 2.646717
v 4.081072 17.254387 -1.213970
v 2.792983 17.497334 0.479267
v 4.789826 17.554478 -2.762901
v 3.717046 18.348934 -1.092014
v 5.367328 17.283028 -4.409409
v 4.539851 18.589390 -2.891582
v 2.756568 18.618076 1.136166
v 5.760764 16.433357 -5.992054
v 5.195548 18.176964 -4.748158
v 5.922882 15.461063 -7.048916
v 5.632748 17.131481 -6.480999
v 5.809808 15.995197 -7.604572
v 5.981393 14.670757 -7.643017
v 5.877342 15.099640 -8.197945
v 6.033987 13.825436 -8.132717
v 5.946429 14.162189 -8.634449
v 6.153203 12.792561 -8.681278
v 6.096973 13.011929 -9.056564
v 6.324543 12.213043 -9.202869
v 6.234190 13.230305 -9.426350
v 6.504792 11.916317 -9.309147
v 6.515322 12.468449 -9.666569
v 6.611148 12.086578 -9.632694
v 6.622023 13.454258 -9.802166
v 6.133305 14.493557 -9.144127
v 7.143968 13.541096 -9.942028
v 6.678352 14.819790 -9.667736
v 6.093259 15.527340 -8.764481
v 7.406837 14.916866 -9.858318
v 6.729409 15.952763 -9.345684
v 7.579174 16.082233 -9.550564
v 6.047451 16.541306 -8.164593
v 6.746709 17.101143 -8.728275
v 7.678992 17.295979 -8.908787
v 6.704470 18.181400 -7.882271
v 5.886574 17.868084 -6.948971
v 7.693890 18.458340 -8.008495
v 5.440255 19.140224 -5.018650
v 7.619512 19.480938 -6.946346
v 7.455559 20.328617 -5.757397
v 6.581744 19.123608 -6.892521
v 6.376494 19.898312 -5.791683
v 7.202950 20.976231 -4.467213
v 6.090332 20.483860 -4.604328
v 6.865915 21.405201 -3.105854
v 4.733377 19.712322 -2.891438
v 5.727839 20.864986 -3.358707
v 6.449745 21.599430 -1.704601
v 5.294541 21.028728 -2.083981
v 3.815582 19.532146 -0.771671
v 4.798657 20.969776 -0.811001
v 5.962812 21.550968 -0.297123
v 4.249207 20.685383 0.429188
v 5.414429 21.254738 1.082485
v 3.657349 20.180958 1.606045
v 4.816452 20.714626 2.400116
v 3.034828 19.464550 2.689590
v 4.181450 19.937519 3.622105
v 2.394745 18.552067 3.652569
v 3.523728 18.939198 4.717293
v 1.750505 17.461864 4.468979
vn 0.0430 -0.1839 0.9820
vn 0.0039 -0.0665 0.9978
vn -0.2321 -0.3028 0.9244
vn -0.3342 -0.0747 0.9396
vn -0.4781 -0.4070 0.7784
vn -0.1290 0.2853 0.9497
vn -0.5240 -0.3113 0.7928
vn -0.6588 -0.4695 0.5878
vn -0.5718 0.0828 0.8162
vn -0.7665 -0.2634 0.5857
vn -0.8254 -0.4147 0.3831
vn -0.7559 -0.5185 0.3997
vn -0.9303 -0.1781 0.3207
vn -0.6725 0.0826 0.7355
vn -0.1529 0.3569 0.9216
vn -0.9060 -0.4075 0.1147
vn -0.7928 -0.5877 0.1617
vn -0.7463 -0.6594 -0.0908
vn -0.7043 0.1377 0.6964
vn -0.2080 0.4670 0.8594
vn -0.8001 -0.5873 -0.1222
vn -0.6238 -0.7192 -0.3060
vn -0.7529 0.2010 0.6267
vn -0.2716 0.5705 0.7751
vn -0.9381 -0.1781 0.2969
vn -0.7845 0.2405 0.5716
vn -0.3316 0.6593 0.6749
vn -0.9474 -0.1784 0.2656
vn -0.8296 0.2792 0.4836
vn -0.3877 0.7322 0.5600
vn -0.8547 0.3033 0.4214
vn -0.4521 0.7823 0.4285
vn -0.9511 -0.1934 0.2407
vn -0.8950 0.3115 0.3194
vn -0.5078 0.8149 0.2795
vn -0.8679 -0.4954 -0.0357
vn -0.9215 0.3045 0.2412
vn -0.5599 0.8184 0.1292
vn -0.9517 -0.2172 0.2172
vn -0.9471 0.2893 0.1387
vn -0.6018 0.7984 -0.0196
vn -0.9644 0.2559 0.0669
vn -0.6352 0.7535 -0.1696
vn -0.8213 -0.5674 0.0595
vn -0.9757 0.2173 -0.0277
vn -0.6563 0.6877 -0.3105
vn -0.6665 0.6034 -0.4378
vn -0.9473 -0.2418 0.2101
vn -0.9820 0.1696 -0.0828
vn -0.6709 0.5041 -0.5439
vn -0.7783 -0.6045 0.1699
vn -0.9740 0.1301 -0.1853
vn -0.6608 0.3838 -0.6450
vn -0.9403 -0.2737 0.2023
vn -0.9735 0.0434 -0.2246
vn -0.6368 0.2175 -0.7397
vn -0.9447 -0.2806 0.1700
vn -0.9454 -0.0594 -0.3204
vn -0.5826 0.0198 -0.8125
vn -0.7356 -0.6098 0.2950
vn -0.8978 -0.2017 -0.3915
vn -0.5508 -0.1545 -0.8202
vn -0.9358 -0.3277 0.1303
vn -0.8241 -0.3225 -0.4658
vn -0.2255 -0.2650 -0.9375
vn -0.9088 -0.4088 0.0833
vn -0.6746 -0.5563 0.4852
vn -0.7602 -0.5850 -0.2826
vn -0.6655 -0.5395 0.5158
vn -0.6989 -0.5884 0.4067
vn -0.8515 -0.5188 0.0753
vn -0.6509 -0.5562 0.5167
vn -0.4148 -0.8099 0.4148
vn -0.6378 -0.6378 0.4318
vn -0.1224 -0.6358 0.7621
vn -0.1142 -0.6105 0.7838
vn -0.0590 -0.6571 0.7515
vn 0.5443 -0.5443 0.6383
vn 0.5524 -0.4741 0.6856
vn 0.4996 -0.6963 0.5153
vn 0.5556 -0.5083 0.6580
vn -0.4308 -0.8577 0.2806
vn 0.3503 -0.8778 0.3267
vn -0.1624 -0.8833 -0.4397
vn -0.7260 -0.6308 -0.2738
vn -0.2342 -0.3453 -0.9088
vn -0.1376 -0.7274 0.6723
vn 0.5529 -0.6234 0.5529
vn 0.5404 -0.7534 0.3747
vn -0.1694 -0.8395 0.5163
vn 0.4925 -0.8628 0.1143
vn -0.2251 -0.9282 0.2962
vn 0.4070 -0.8891 -0.2094
vn -0.3114 -0.9501 0.0197
vn -0.4069 -0.8811 -0.2410
vn 0.2813 -0.8122 -0.5111
vn -0.5037 -0.7337 -0.4561
vn 0.1544 -0.6453 -0.7482
vn -0.5875 -0.5481 -0.5954
vn 0.0437 -0.4324 -0.9006
vn -0.9075 -0.4082 -0.0991
vn -0.6228 -0.4403 -0.6467
vn -0.0198 -0.3043 -0.9524
vn -0.9261 -0.3537 -0.1312
vn -0.7419 -0.5435 -0.3927
vn -0.4382 -0.7461 -0.5014
vn -0.4965 -0.6633 -0.5600
vn -0.2897 -0.5040 -0.8136
vn -0.1701 -0.7240 -0.6686
vn 0.0676 -0.5525 -0.8308
vn 0.1148 -0.6449 -0.7556
vn 0.3265 -0.0983 0.9401
vn 0.2630 0.1452 0.9538
vn 0.5978 -0.0351 0.8009
vn 0.5766 0.0902 0.8120
vn 0.8051 -0.0118 0.5930
vn 0.4575 0.4575 0.7625
vn 0.7707 0.2387 0.5908
vn 0.9449 0.1059 0.3097
vn 0.9487 0.0039 0.3162
vn 0.9986 0.0118 0.0509
vn 0.8004 0.4646 0.3787
vn 0.4330 0.5188 0.7372
vn 0.9744 0.2230 0.0274
vn 0.9916 0.0039 -0.1294
vn 0.3799 0.6383 0.6696
vn 0.9818 0.1134 -0.1525
vn 0.9520 -0.0509 -0.3017
vn 0.8252 0.5045 0.2542
vn 0.9297 0.0902 -0.3570
vn 0.8700 -0.1535 -0.4685
vn 0.9088 0.3659 -0.2006
vn 0.8597 -0.0667 -0.5064
vn 0.7441 -0.2717 -0.6103
vn 0.8072 0.1772 -0.5631
vn 0.7186 -0.1060 -0.6872
vn 0.5547 -0.3029 -0.7750
vn 0.5732 -0.3993 -0.7155
vn 0.4909 -0.0746 -0.8680
vn 0.3115 -0.2958 -0.9030
vn 0.3840 -0.5186 -0.7640
vn 0.5410 -0.1619 -0.8253
vn 0.8238 0.1458 -0.5479
vn 0.6272 -0.3116 -0.7139
vn 0.8975 0.3802 -0.2234
vn 0.8587 0.0823 -0.5058
vn 0.7288 -0.4215 -0.5397
vn 0.8137 -0.4756 -0.3342
vn 0.8949 0.0276 -0.4455
vn 0.8773 -0.4681 -0.1062
vn 0.9309 -0.0039 -0.3653
vn 0.8812 0.3877 -0.2703
vn 0.9096 -0.4055 0.0906
vn 0.9604 -0.0118 -0.2783
vn 0.9797 -0.0040 -0.2006
vn 0.9192 -0.3247 0.2230
vn 0.9906 0.0039 -0.1370
vn 0.9178 -0.2560 0.3033
vn 0.9926 0.0039 -0.1216
vn 0.9152 -0.2475 0.3182
vn 0.9907 -0.0431 -0.1292
vn 0.9030 -0.3115 0.2957
vn 0.9729 -0.1142 -0.2009
vn 0.9238 -0.3656 -0.1140
vn 0.8433 0.0039 -0.5374
vn 0.7903 -0.5702 -0.2241
vn 0.5415 -0.3359 -0.7707
vn 0.5965 -0.1620 -0.7861
vn 0.4917 0.0511 -0.8693
vn 0.8391 0.1142 -0.5318
vn 0.0434 0.0197 -0.9989
vn 0.5232 0.1928 -0.8301
vn 0.8455 0.2084 -0.4916
vn -0.0198 0.1701 -0.9852
vn 0.5240 0.3506 -0.7762
vn -0.0432 0.3812 -0.9235
vn 0.8488 0.2777 -0.4498
vn 0.5460 0.4674 -0.6953
vn -0.0593 0.5492 -0.8336
vn 0.5225 0.5539 -0.6482
vn 0.8595 0.3022 -0.4121
vn -0.0591 0.6737 -0.7367
vn 0.8591 0.3334 -0.3884
vn -0.0513 0.7771 -0.6272
vn -0.0354 0.8611 -0.5072
vn 0.5639 0.6033 -0.5639
vn 0.5616 0.6480 -0.5145
vn -0.0039 0.9309 -0.3653
vn 0.5845 0.6944 -0.4198
vn 0.0274 0.9744 -0.2231
vn 0.8597 0.3651 -0.3572
vn 0.5925 0.7259 -0.3492
vn 0.0747 0.9950 -0.0669
vn 0.6238 0.7415 -0.2472
vn 0.8676 0.3887 -0.3101
vn 0.6445 0.7460 -0.1680
vn 0.1212 0.9892 0.0821
vn 0.6776 0.7324 -0.0666
vn 0.1682 0.9584 0.2308
vn 0.7032 0.7110 0.0039
vn 0.2231 0.9043 0.3641
vn 0.7385 0.6682 0.0899
vn 0.2773 0.8320 0.4805
vn 0.7630 0.6300 0.1448
vn 0.3330 0.7405 0.5838
vn 0.7982 0.5623 0.2163
vn -0.0352 -0.1839 0.9823
vn 0.2395 -0.3023 0.9226
vn 0.3411 -0.0745 0.9371
vn 0.4841 -0.4054 0.7754
vn 0.1366 0.2850 0.9487
vn 0.5301 -0.3102 0.7892
vn 0.6633 -0.4670 0.5848
vn 0.5771 0.0824 0.8125
vn 0.7697 -0.2618 0.5822
vn 0.8279 -0.4120 0.3806
vn 0.7593 -0.5154 0.3973
vn 0.9313 -0.1768 0.3183
vn 0.6768 0.0821 0.7316
vn 0.1606 0.3564 0.9204
vn 0.9074 -0.4046 0.1139
vn 0.7957 -0.5840 0.1607
vn 0.7497 -0.6555 -0.0903
vn 0.7082 0.1370 0.6926
vn 0.2155 0.4662 0.8580
vn 0.8029 -0.5836 -0.1214
vn 0.6286 -0.7156 -0.3044
vn 0.9272 -0.3512 -0.1302
vn 0.7454 -0.5403 -0.3904
vn 0.4445 -0.7435 -0.4996
vn 0.9089 -0.4053 -0.0984
vn 0.5024 -0.6606 -0.5578
vn 0.6277 -0.4382 -0.6435
vn 0.2970 -0.5029 -0.8118
vn 0.1778 -0.7229 -0.6676
vn -0.1069 -0.6454 -0.7563
vn -0.0597 -0.5528 -0.8312
vn 0.0277 -0.3042 -0.9522
vn -0.0357 -0.4326 -0.9009
vn 0.5926 -0.5455 -0.5926
vn -0.1466 -0.6460 -0.7491
vn 0.5096 -0.7308 -0.4542
vn -0.2740 -0.8140 -0.5122
vn 0.8699 -0.4920 -0.0354
vn 0.4135 -0.8782 -0.2402
vn -0.4004 -0.8919 -0.2101
vn 0.8239 -0.5637 0.0591
vn 0.3185 -0.9477 0.0197
vn 0.7814 -0.6008 0.1688
vn 0.2326 -0.9265 0.2957
vn -0.4864 -0.8661 0.1147
vn 0.1771 -0.8383 0.5156
vn -0.5348 -0.7566 0.3763
vn 0.7392 -0.6062 0.2933
vn 0.1453 -0.7266 0.6716
vn -0.5474 -0.6261 0.5553
vn -0.5501 -0.5105 0.6609
vn 0.7029 -0.5851 0.4045
vn 0.1302 -0.6351 0.7614
vn -0.5469 -0.4761 0.6886
vn 0.6789 -0.5533 0.4827
vn 0.1220 -0.6099 0.7830
vn -0.5388 -0.5466 0.6410
vn 0.6698 -0.5367 0.5132
vn 0.6554 -0.5534 0.5141
vn 0.0668 -0.6568 0.7511
vn 0.6425 -0.6346 0.4296
vn 0.4213 -0.8072 0.4134
vn -0.4937 -0.6990 0.5174
vn 0.8537 -0.5154 0.0747
vn 0.9102 -0.4059 0.0828
vn 0.4372 -0.8548 0.2797
vn -0.3434 -0.8802 0.3276
vn 0.1701 -0.8822 -0.4391
vn 0.7635 -0.5815 -0.2809
vn 0.7298 -0.6272 -0.2722
vn 0.2416 -0.3446 -0.9071
vn 0.2330 -0.2645 -0.9358
vn 0.8266 -0.3203 -0.4627
vn 0.5562 -0.1539 -0.8167
vn 0.8993 -0.2003 -0.3888
vn 0.5878 0.0197 -0.8087
vn 0.9367 -0.3253 0.1293
vn 0.9462 -0.0589 -0.3180
vn 0.6415 0.2165 -0.7360
vn 0.9455 -0.2786 0.1687
vn 0.9739 0.0430 -0.2230
vn 0.6652 0.3818 -0.6416
vn 0.9412 -0.2717 0.2008
vn 0.9744 0.1291 -0.1839
vn 0.6752 0.5015 -0.5410
vn 0.9823 0.1683 -0.0822
vn 0.6709 0.6002 -0.4355
vn 0.9481 -0.2400 0.2085
vn 0.9761 0.2156 -0.0274
vn 0.6607 0.6842 -0.3088
vn 0.6398 0.7498 -0.1688
vn 0.9649 0.2539 0.0664
vn 0.6068 0.7947 -0.0196
vn 0.9524 -0.2155 0.2154
vn 0.9479 0.2872 0.1377
vn 0.5653 0.8148 0.1286
vn 0.9226 0.3023 0.2395
vn 0.5136 0.8116 0.2784
vn 0.8965 0.3093 0.3171
vn 0.4583 0.7795 0.4270
vn 0.9518 -0.1920 0.2391
vn 0.8568 0.3012 0.4186
vn 0.3943 0.7300 0.5582
vn 0.8320 0.2774 0.4805
vn 0.3385 0.6575 0.6731
vn 0.9482 -0.1770 0.2636
vn 0.7875 0.2390 0.5681
vn 0.2788 0.5693 0.7734
vn 0.9391 -0.1768 0.2947
vn 0.7562 0.1998 0.6230
vn -0.3194 -0.0985 0.9425
vn -0.2557 0.1455 0.9558
vn -0.5927 -0.0353 0.8046
vn -0.5714 0.0907 0.8157
vn -0.8023 -0.0119 0.5968
vn -0.4513 0.4591 0.7652
vn -0.7675 0.2401 0.5943
vn -0.9441 0.1067 0.3121
vn -0.9479 0.0039 0.3186
vn -0.9986 0.0118 0.0513
vn -0.7976 0.4675 0.3811
vn -0.4266 0.5205 0.7397
vn -0.9740 0.2248 0.0276
vn -0.9915 0.0040 -0.1303
vn -0.3731 0.6401 0.6716
vn -0.9815 0.1143 -0.1537
vn -0.9513 -0.0513 -0.3039
vn -0.8226 0.5078 0.2558
vn -0.9287 0.0909 -0.3596
vn -0.8681 -0.1546 -0.4717
vn -0.9074 0.3685 -0.2021
vn -0.8576 -0.0672 -0.5098
vn -0.7406 -0.2732 -0.6139
vn -0.8044 0.1783 -0.5667
vn -0.7148 -0.1066 -0.6911
vn -0.5492 -0.3042 -0.7784
vn -0.5679 -0.4011 -0.7188
vn -0.4850 -0.0749 -0.8713
vn -0.3044 -0.2965 -0.9052
vn -0.3772 -0.5201 -0.7663
vn -0.5354 -0.1626 -0.8288
vn -0.8212 0.1468 -0.5515
vn -0.6223 -0.3131 -0.7174
vn -0.8960 0.3829 -0.2250
vn -0.7250 -0.4239 -0.5428
vn -0.8566 0.0829 -0.5092
vn -0.8110 -0.4787 -0.3363
vn -0.8933 0.0278 -0.4486
vn -0.8754 -0.4714 -0.1069
vn -0.9298 -0.0040 -0.3680
vn -0.8795 0.3904 -0.2721
vn -0.9082 -0.4085 0.0912
vn -0.9598 -0.0118 -0.2804
vn -0.9180 -0.3270 0.2246
vn -0.9793 -0.0040 -0.2022
vn -0.9904 0.0039 -0.1381
vn -0.9166 -0.2579 0.3055
vn -0.9925 0.0039 -0.1226
vn -0.9139 -0.2492 0.3205
vn -0.9905 -0.0434 -0.1302
vn -0.9016 -0.3138 0.2979
vn -0.9725 -0.1151 -0.2024
vn -0.9226 -0.3683 -0.1148
vn -0.8410 0.0039 -0.5410
vn -0.7874 -0.5738 -0.2255
vn -0.5914 -0.1627 -0.7898
vn -0.5358 -0.3374 -0.7740
vn -0.4857 0.0513 -0.8726
vn -0.8368 0.1150 -0.5354
vn -0.0355 0.0197 -0.9992
vn -0.5175 0.1936 -0.8335
vn -0.8433 0.2098 -0.4948
vn 0.0277 0.1701 -0.9850
vn -0.5183 0.3521 -0.7794
vn 0.0511 0.3810 -0.9232
vn -0.8466 0.2796 -0.4528
vn -0.5404 0.4694 -0.6983
vn 0.0671 0.5489 -0.8332
vn -0.5168 0.5562 -0.6509
vn -0.8575 0.3043 -0.4149
vn 0.0669 0.6733 -0.7363
vn -0.8570 0.3357 -0.3910
vn 0.0591 0.7768 -0.6270
vn 0.0432 0.8608 -0.5071
vn -0.5585 0.6060 -0.5664
vn -0.5562 0.6509 -0.5167
vn 0.0118 0.9308 -0.3653
vn -0.5793 0.6976 -0.4217
vn -0.0196 0.9746 -0.2232
vn -0.8577 0.3675 -0.3597
vn -0.5874 0.7293 -0.3509
vn -0.0669 0.9955 -0.0669
vn -0.6190 0.7451 -0.2484
vn -0.8656 0.3913 -0.3123
vn -0.6398 0.7498 -0.1688
vn -0.1135 0.9901 0.0822
vn -0.6733 0.7363 -0.0669
vn -0.1606 0.9596 0.2311
vn -0.6991 0.7150 0.0040
vn -0.2157 0.9058 0.3647
vn -0.7349 0.6721 0.0904
vn -0.2701 0.8338 0.4815
vn -0.7597 0.6337 0.1456
vn -0.3261 0.7424 0.5853
vn -0.7953 0.5658 0.2176
vt 0.848633 0.923157
vt 0.871094 0.901733
vt 0.820312 0.899841
vt 0.839844 0.878723
vt 0.791992 0.876587
vt 0.888672 0.878296
vt 0.808594 0.855713
vt 0.761230 0.851807
vt 0.823242 0.834961
vt 0.779297 0.826050
vt 0.749512 0.796387
vt 0.730469 0.826904
vt 0.768555 0.765869
vt 0.857422 0.776733
vt 0.927246 0.809570
vt 0.716797 0.773926
vt 0.700195 0.802246
vt 0.669434 0.777588
vt 0.882812 0.713867
vt 0.955078 0.735596
vt 0.684082 0.751343
vt 0.639648 0.757446
vt 0.899902 0.649658
vt 0.972656 0.661377
vt 0.812012 0.662598
vt 0.909180 0.585693
vt 0.980469 0.588379
vt 0.830566 0.554688
vt 0.910645 0.522705
vt 0.979492 0.517578
vt 0.904785 0.461426
vt 0.970703 0.449219
vt 0.825195 0.448242
vt 0.891602 0.402832
vt 0.953613 0.383789
vt 0.750977 0.553711
vt 0.872559 0.346191
vt 0.929199 0.322266
vt 0.795898 0.347656
vt 0.846191 0.293457
vt 0.897949 0.264160
vt 0.813477 0.244141
vt 0.859863 0.211426
vt 0.750488 0.462402
vt 0.775879 0.198730
vt 0.815918 0.163574
vt 0.766602 0.120605
vt 0.743164 0.257324
vt 0.732422 0.157715
vt 0.712402 0.083008
vt 0.729980 0.374023
vt 0.684570 0.121582
vt 0.654297 0.051758
vt 0.670410 0.180176
vt 0.632812 0.090820
vt 0.595215 0.030273
vt 0.605957 0.131836
vt 0.581055 0.068359
vt 0.539551 0.021973
vt 0.689941 0.291016
vt 0.532227 0.056152
vt 0.475098 0.024902
vt 0.560547 0.107422
vt 0.475342 0.050293
vt 0.427002 0.030273
vt 0.517090 0.090820
vt 0.575195 0.170410
vt 0.434570 0.060059
vt 0.535156 0.144043
vt 0.630371 0.217773
vt 0.466797 0.076660
vt 0.496338 0.123047
vt 0.415527 0.089844
vt 0.451416 0.100586
vt 0.508301 0.175781
vt 0.472412 0.149902
vt 0.432129 0.118652
vt 0.410645 0.131836
vt 0.447510 0.172852
vt 0.392822 0.099609
vt 0.480469 0.203125
vt 0.403076 0.077637
vt 0.388672 0.081055
vt 0.395264 0.059570
vt 0.414551 0.059570
vt 0.407715 0.042969
vt 0.543457 0.204102
vt 0.512207 0.232910
vt 0.553223 0.277832
vt 0.590820 0.250488
vt 0.593262 0.341309
vt 0.639648 0.319336
vt 0.616211 0.407227
vt 0.669434 0.394531
vt 0.682129 0.472656
vt 0.620605 0.474121
vt 0.676758 0.550293
vt 0.610352 0.540527
vt 0.657227 0.625000
vt 0.587891 0.604980
vt 0.731934 0.643311
vt 0.628906 0.693604
vt 0.559570 0.667969
vt 0.697266 0.726807
vt 0.651855 0.732910
vt 0.609863 0.737549
vt 0.619141 0.714355
vt 0.585449 0.701416
vt 0.578125 0.724854
vt 0.551758 0.688232
vt 0.546387 0.712158
vt 0.136719 0.014160
vt 0.167847 0.031738
vt 0.117126 0.038574
vt 0.149780 0.056641
vt 0.198853 0.049805
vt 0.101196 0.063965
vt 0.182495 0.075195
vt 0.231812 0.070312
vt 0.168457 0.099121
vt 0.216309 0.094238
vt 0.250000 0.113281
vt 0.264648 0.090820
vt 0.298340 0.114746
vt 0.237549 0.135254
vt 0.135254 0.166504
vt 0.066589 0.139160
vt 0.282227 0.142090
vt 0.332031 0.138672
vt 0.110291 0.238281
vt 0.041382 0.219727
vt 0.314453 0.170410
vt 0.356934 0.158203
vt 0.207153 0.194824
vt 0.340332 0.187988
vt 0.381836 0.177734
vt 0.296875 0.201660
vt 0.366211 0.205078
vt 0.405762 0.195312
vt 0.352539 0.231445
vt 0.391846 0.221191
vt 0.417480 0.237305
vt 0.429688 0.212891
vt 0.406250 0.259766
vt 0.450928 0.254395
vt 0.460693 0.230469
vt 0.491699 0.247559
vt 0.484619 0.271484
vt 0.475342 0.291504
vt 0.444824 0.355469
vt 0.374023 0.334961
vt 0.422607 0.424316
vt 0.315674 0.320312
vt 0.354004 0.416504
vt 0.414062 0.496094
vt 0.254883 0.306152
vt 0.296143 0.414551
vt 0.350098 0.501221
vt 0.365234 0.584961
vt 0.421631 0.569092
vt 0.447266 0.640625
vt 0.296387 0.509521
vt 0.399170 0.664551
vt 0.490723 0.708008
vt 0.317627 0.601318
vt 0.235840 0.414062
vt 0.451904 0.736816
vt 0.534180 0.755859
vt 0.359375 0.686523
vt 0.420898 0.762085
vt 0.501953 0.785645
vt 0.477295 0.811523
vt 0.539551 0.815430
vt 0.567383 0.787109
vt 0.518066 0.839722
vt 0.577148 0.842773
vt 0.601562 0.818604
vt 0.559082 0.863647
vt 0.620605 0.876526
vt 0.639160 0.860107
vt 0.657715 0.892578
vt 0.607422 0.891052
vt 0.641113 0.906555
vt 0.663086 0.911316
vt 0.595215 0.907471
vt 0.653320 0.916687
vt 0.659180 0.934570
vt 0.643555 0.930237
vt 0.641602 0.947998
vt 0.626953 0.928040
vt 0.619629 0.957275
vt 0.582520 0.930786
vt 0.541992 0.886841
vt 0.574707 0.954437
vt 0.574219 0.978745
vt 0.523438 0.919128
vt 0.498047 0.866699
vt 0.511230 0.951538
vt 0.506836 0.984283
vt 0.447754 0.976822
vt 0.474854 0.903687
vt 0.458008 0.940033
vt 0.384277 0.955780
vt 0.452881 0.840210
vt 0.423828 0.879517
vt 0.401123 0.917542
vt 0.321533 0.923340
vt 0.373291 0.847778
vt 0.389404 0.790283
vt 0.343994 0.885681
vt 0.318359 0.711670
vt 0.291504 0.847168
vt 0.261963 0.884766
vt 0.243164 0.803955
vt 0.208862 0.838501
vt 0.326660 0.810791
vt 0.284424 0.769409
vt 0.200806 0.755249
vt 0.160278 0.787598
vt 0.247803 0.723633
vt 0.163940 0.702148
vt 0.117676 0.730957
vt 0.267822 0.620605
vt 0.216187 0.674316
vt 0.134155 0.644531
vt 0.081482 0.668701
vt 0.054962 0.600830
vt 0.191284 0.621582
vt 0.240112 0.520264
vt 0.172974 0.565186
vt 0.110779 0.583496
vt 0.033997 0.530273
vt 0.161011 0.506836
vt 0.095581 0.518799
vt 0.023987 0.455566
vt 0.156128 0.446289
vt 0.086975 0.451660
vt 0.020432 0.378906
vt 0.157837 0.384277
vt 0.086792 0.381836
vt 0.026169 0.299805
vt 0.166992 0.320801
vt 0.094360 0.310547
vt 0.183105 0.257812
s 1
usemtl MI_ToonHorns
f 3/1/1 1/2/2 2/3/3
f 4/4/4 2/3/3 1/2/2
f 2/3/3 4/4/4 5/5/5
f 1/2/2 6/6/6 4/4/4
f 7/7/7 5/5/5 4/4/4
f 5/5/5 7/7/7 8/8/8
f 6/6/6 9/9/9 4/4/4
f 9/9/9 7/7/7 4/4/4
f 10/10/10 8/8/8 7/7/7
f 7/7/7 9/9/9 10/10/10
f 8/8/8 10/10/10 11/11/11
f 12/12/12 8/8/8 11/11/11
f 9/9/9 13/13/13 10/10/10
f 13/13/13 11/11/11 10/10/10
f 6/6/6 14/14/14 9/9/9
f 13/13/13 9/9/9 14/14/14
f 15/15/15 14/14/14 6/6/6
f 11/11/11 16/16/16 12/12/12
f 11/11/11 13/13/13 16/16/16
f 17/17/17 12/12/12 16/16/16
f 17/17/17 16/16/16 18/18/18
f 15/15/15 19/19/19 14/14/14
f 20/20/20 19/19/19 15/15/15
f 21/21/21 18/18/18 16/16/16
f 18/18/18 21/21/21 22/22/22
f 20/20/20 23/23/23 19/19/19
f 23/23/23 20/20/20 24/24/24
f 19/19/19 25/25/25 14/14/14
f 25/25/25 19/19/19 23/23/23
f 13/13/13 14/14/14 25/25/25
f 26/26/26 23/23/23 24/24/24
f 26/26/26 24/24/24 27/27/27
f 26/26/26 28/28/28 23/23/23
f 23/23/23 28/28/28 25/25/25
f 27/27/27 29/29/29 26/26/26
f 28/28/28 26/26/26 29/29/29
f 29/29/29 27/27/27 30/30/30
f 29/29/29 30/30/30 31/31/31
f 32/32/32 31/31/31 30/30/30
f 28/28/28 29/29/29 33/33/33
f 31/31/31 33/33/33 29/29/29
f 34/34/34 31/31/31 32/32/32
f 33/33/33 31/31/31 34/34/34
f 34/34/34 32/32/32 35/35/35
f 33/33/33 36/36/36 28/28/28
f 28/28/28 36/36/36 25/25/25
f 34/34/34 35/35/35 37/37/37
f 38/38/38 37/37/37 35/35/35
f 33/33/33 34/34/34 39/39/39
f 37/37/37 39/39/39 34/34/34
f 40/40/40 37/37/37 38/38/38
f 39/39/39 37/37/37 40/40/40
f 40/40/40 38/38/38 41/41/41
f 40/40/40 41/41/41 42/42/42
f 40/40/40 42/42/42 39/39/39
f 42/42/42 41/41/41 43/43/43
f 44/44/44 33/33/33 39/39/39
f 33/33/33 44/44/44 36/36/36
f 42/42/42 43/43/43 45/45/45
f 43/43/43 46/46/46 45/45/45
f 46/46/46 47/47/47 45/45/45
f 48/48/48 39/39/39 42/42/42
f 48/48/48 42/42/42 45/45/45
f 49/49/49 45/45/45 47/47/47
f 45/45/45 49/49/49 48/48/48
f 47/47/47 50/50/50 49/49/49
f 39/39/39 48/48/48 51/51/51
f 51/51/51 44/44/44 39/39/39
f 52/52/52 49/49/49 50/50/50
f 50/50/50 53/53/53 52/52/52
f 54/54/54 48/48/48 49/49/49
f 54/54/54 49/49/49 52/52/52
f 55/55/55 52/52/52 53/53/53
f 53/53/53 56/56/56 55/55/55
f 55/55/55 57/57/57 52/52/52
f 54/54/54 52/52/52 57/57/57
f 58/58/58 55/55/55 56/56/56
f 55/55/55 58/58/58 57/57/57
f 56/56/56 59/59/59 58/58/58
f 48/48/48 54/54/54 60/60/60
f 60/60/60 51/51/51 48/48/48
f 61/61/61 58/58/58 59/59/59
f 59/59/59 62/62/62 61/61/61
f 58/58/58 61/61/61 63/63/63
f 63/63/63 57/57/57 58/58/58
f 64/64/64 61/61/61 62/62/62
f 62/62/62 65/65/65 64/64/64
f 66/66/66 63/63/63 61/61/61
f 61/61/61 64/64/64 66/66/66
f 57/57/57 63/63/63 67/67/67
f 68/68/68 64/64/64 65/65/65
f 69/69/69 67/67/67 63/63/63
f 63/63/63 66/66/66 69/69/69
f 67/67/67 70/70/70 57/57/57
f 54/54/54 57/57/57 70/70/70
f 70/70/70 60/60/60 54/54/54
f 71/71/71 66/66/66 64/64/64
f 71/71/71 64/64/64 68/68/68
f 66/66/66 71/71/71 72/72/72
f 72/72/72 69/69/69 66/66/66
f 68/68/68 73/73/73 71/71/71
f 74/74/74 72/72/72 71/71/71
f 74/74/74 71/71/71 73/73/73
f 69/69/69 72/72/72 75/75/75
f 72/72/72 74/74/74 76/76/76
f 76/76/76 75/75/75 72/72/72
f 77/77/77 76/76/76 74/74/74
f 77/77/77 74/74/74 73/73/73
f 78/78/78 76/76/76 77/77/77
f 77/77/77 73/73/73 78/78/78
f 78/78/78 79/79/79 76/76/76
f 79/79/79 75/75/75 76/76/76
f 80/80/80 78/78/78 73/73/73
f 79/79/79 81/81/81 75/75/75
f 80/80/80 73/73/73 82/82/82
f 73/73/73 68/68/68 82/82/82
f 83/83/83 80/80/80 82/82/82
f 82/82/82 84/84/84 83/83/83
f 85/85/85 82/82/82 68/68/68
f 85/85/85 84/84/84 82/82/82
f 68/68/68 65/65/65 85/85/85
f 86/86/86 84/84/84 85/85/85
f 86/86/86 85/85/85 65/65/65
f 81/81/81 87/87/87 75/75/75
f 75/75/75 87/87/87 69/69/69
f 81/81/81 88/88/88 87/87/87
f 67/67/67 69/69/69 87/87/87
f 88/88/88 89/89/89 87/87/87
f 67/67/67 87/87/87 70/70/70
f 89/89/89 90/90/90 87/87/87
f 90/90/90 70/70/70 87/87/87
f 89/89/89 91/91/91 90/90/90
f 70/70/70 90/90/90 60/60/60
f 91/91/91 92/92/92 90/90/90
f 92/92/92 60/60/60 90/90/90
f 91/91/91 93/93/93 92/92/92
f 92/92/92 51/51/51 60/60/60
f 94/94/94 92/92/92 93/93/93
f 51/51/51 92/92/92 94/94/94
f 94/94/94 93/93/93 95/95/95
f 94/94/94 95/95/95 51/51/51
f 96/96/96 95/95/95 93/93/93
f 95/95/95 44/44/44 51/51/51
f 95/95/95 96/96/96 97/97/97
f 44/44/44 95/95/95 97/97/97
f 98/98/98 97/97/97 96/96/96
f 44/44/44 97/97/97 36/36/36
f 98/98/98 99/99/99 97/97/97
f 97/97/97 99/99/99 36/36/36
f 98/98/98 100/100/100 99/99/99
f 101/101/101 36/36/36 99/99/99
f 101/101/101 25/25/25 36/36/36
f 25/25/25 101/101/101 13/13/13
f 100/100/100 102/102/102 99/99/99
f 99/99/99 102/102/102 101/101/101
f 102/102/102 100/100/100 103/103/103
f 104/104/104 13/13/13 101/101/101
f 104/104/104 101/101/101 102/102/102
f 13/13/13 104/104/104 16/16/16
f 104/104/104 21/21/21 16/16/16
f 21/21/21 104/104/104 105/105/105
f 104/104/104 102/102/102 105/105/105
f 105/105/105 22/22/22 21/21/21
f 22/22/22 105/105/105 106/106/106
f 102/102/102 107/107/107 105/105/105
f 107/107/107 106/106/106 105/105/105
f 107/107/107 102/102/102 108/108/108
f 107/107/107 108/108/108 106/106/106
f 102/102/102 103/103/103 108/108/108
f 109/109/109 106/106/106 108/108/108
f 103/103/103 110/110/110 108/108/108
f 110/110/110 109/109/109 108/108/108
f 110/110/110 111/111/111 109/109/109
f 3/112/1 112/113/112 1/114/2
f 113/115/113 1/114/2 112/113/112
f 112/113/112 114/116/114 113/115/113
f 6/117/6 1/114/2 113/115/113
f 115/118/115 113/115/113 114/116/114
f 114/116/114 116/119/116 115/118/115
f 117/120/117 6/117/6 113/115/113
f 115/118/115 117/120/117 113/115/113
f 118/121/118 115/118/115 116/119/116
f 117/120/117 115/118/115 118/121/118
f 118/121/118 116/119/116 119/122/119
f 120/123/120 119/122/119 116/119/116
f 121/124/121 119/122/119 120/123/120
f 122/125/122 117/120/117 118/121/118
f 119/122/119 122/125/122 118/121/118
f 117/120/117 123/126/123 6/117/6
f 122/125/122 123/126/123 117/120/117
f 15/127/15 6/117/6 123/126/123
f 124/128/124 119/122/119 121/124/121
f 122/125/122 119/122/119 124/128/124
f 121/124/121 125/129/125 124/128/124
f 123/126/123 126/130/126 15/127/15
f 20/131/20 15/127/15 126/130/126
f 127/132/127 124/128/124 125/129/125
f 125/129/125 128/133/128 127/132/127
f 129/134/129 126/130/126 123/126/123
f 129/134/129 123/126/123 122/125/122
f 130/135/130 127/132/127 128/133/128
f 128/133/128 131/136/131 130/135/130
f 127/132/127 132/137/132 124/128/124
f 132/137/132 122/125/122 124/128/124
f 132/137/132 127/132/127 130/135/130
f 122/125/122 132/137/132 129/134/129
f 133/138/133 130/135/130 131/136/131
f 131/136/131 134/139/134 133/138/133
f 133/138/133 135/140/135 130/135/130
f 135/140/135 132/137/132 130/135/130
f 136/141/136 133/138/133 134/139/134
f 135/140/135 133/138/133 136/141/136
f 136/141/136 134/139/134 137/142/137
f 138/143/138 137/142/137 134/139/134
f 137/142/137 139/144/139 136/141/136
f 139/144/139 135/140/135 136/141/136
f 137/142/137 138/143/138 140/145/140
f 139/144/139 137/142/137 140/145/140
f 141/146/141 140/145/140 138/143/138
f 140/145/140 141/146/141 111/147/111
f 140/145/140 111/147/111 110/148/110
f 110/148/110 103/149/103 140/145/140
f 103/149/103 139/144/139 140/145/140
f 103/149/103 100/150/100 139/144/139
f 142/151/142 139/144/139 100/150/100
f 139/144/139 142/151/142 135/140/135
f 100/150/100 98/152/98 142/151/142
f 143/153/143 135/140/135 142/151/142
f 135/140/135 143/153/143 132/137/132
f 144/154/144 142/151/142 98/152/98
f 142/151/142 144/154/144 143/153/143
f 96/155/96 144/154/144 98/152/98
f 145/156/145 132/137/132 143/153/143
f 146/157/146 143/153/143 144/154/144
f 143/153/143 146/157/146 145/156/145
f 144/154/144 96/155/96 147/158/147
f 144/154/144 147/158/147 146/157/146
f 147/158/147 96/155/96 148/159/148
f 93/160/93 148/159/148 96/155/96
f 93/160/93 91/161/91 148/159/148
f 149/162/149 146/157/146 147/158/147
f 147/158/147 148/159/148 149/162/149
f 150/163/150 148/159/148 91/161/91
f 150/163/150 91/161/91 89/164/89
f 151/165/151 149/162/149 148/159/148
f 148/159/148 150/163/150 151/165/151
f 146/157/146 149/162/149 152/166/152
f 152/166/152 145/156/145 146/157/146
f 89/164/89 153/167/153 150/163/150
f 88/168/88 153/167/153 89/164/89
f 154/169/154 151/165/151 150/163/150
f 153/167/153 155/170/155 150/163/150
f 154/169/154 150/163/150 155/170/155
f 88/168/88 156/171/156 153/167/153
f 155/170/155 153/167/153 157/172/157
f 156/171/156 157/172/157 153/167/153
f 156/171/156 88/168/88 158/173/158
f 81/174/81 158/173/158 88/168/88
f 157/172/157 156/171/156 159/175/159
f 158/173/158 159/175/159 156/171/156
f 158/173/158 81/174/81 160/176/160
f 79/177/79 160/176/160 81/174/81
f 159/175/159 158/173/158 161/178/161
f 160/176/160 161/178/161 158/173/158
f 160/176/160 79/177/79 162/179/162
f 78/180/78 162/179/162 79/177/79
f 78/180/78 80/181/80 162/179/162
f 162/179/162 163/182/163 160/176/160
f 161/178/161 160/176/160 163/182/163
f 164/183/164 162/179/162 80/181/80
f 163/182/163 162/179/162 164/183/164
f 83/184/83 164/183/164 80/181/80
f 163/182/163 165/185/165 161/178/161
f 166/186/166 164/183/164 83/184/83
f 83/184/83 84/187/84 166/186/166
f 166/186/166 84/187/84 167/188/167
f 166/186/166 167/188/167 164/183/164
f 167/188/167 84/187/84 86/189/86
f 164/183/164 168/190/168 163/182/163
f 168/190/168 164/183/164 167/188/167
f 167/188/167 86/189/86 168/190/168
f 165/185/165 163/182/163 168/190/168
f 65/191/65 168/190/168 86/189/86
f 169/192/169 165/185/165 168/190/168
f 168/190/168 65/191/65 169/192/169
f 170/193/170 161/178/161 165/185/165
f 165/185/165 169/192/169 170/193/170
f 161/178/161 170/193/170 159/175/159
f 171/194/171 169/192/169 65/191/65
f 62/195/62 171/194/171 65/191/65
f 172/196/172 170/193/170 169/192/169
f 169/192/169 171/194/171 172/196/172
f 173/197/173 159/175/159 170/193/170
f 170/193/170 172/196/172 173/197/173
f 159/175/159 173/197/173 157/172/157
f 171/194/171 62/195/62 174/198/174
f 174/198/174 172/196/172 171/194/171
f 59/199/59 174/198/174 62/195/62
f 59/199/59 56/200/56 174/198/174
f 175/201/175 173/197/173 172/196/172
f 172/196/172 174/198/174 175/201/175
f 176/202/176 174/198/174 56/200/56
f 176/202/176 175/201/175 174/198/174
f 56/200/56 53/203/53 176/202/176
f 173/197/173 175/201/175 177/204/177
f 177/204/177 157/172/157 173/197/173
f 157/172/157 177/204/177 155/170/155
f 175/201/175 176/202/176 178/205/178
f 178/205/178 177/204/177 175/201/175
f 179/206/179 176/202/176 53/203/53
f 179/206/179 178/205/178 176/202/176
f 50/207/50 179/206/179 53/203/53
f 177/204/177 178/205/178 180/208/180
f 178/205/178 179/206/179 180/208/180
f 181/209/181 155/170/155 177/204/177
f 177/204/177 180/208/180 181/209/181
f 155/170/155 181/209/181 154/169/154
f 182/210/182 180/208/180 179/206/179
f 182/210/182 179/206/179 50/207/50
f 183/211/183 154/169/154 181/209/181
f 50/207/50 184/212/184 182/210/182
f 182/210/182 184/212/184 180/208/180
f 50/207/50 47/213/47 184/212/184
f 183/211/183 151/165/151 154/169/154
f 184/212/184 47/213/47 185/214/185
f 46/215/46 185/214/185 47/213/47
f 186/216/186 180/208/180 184/212/184
f 186/216/186 181/209/181 180/208/180
f 184/212/184 185/214/185 186/216/186
f 181/209/181 186/216/186 183/211/183
f 187/217/187 186/216/186 185/214/185
f 187/217/187 183/211/183 186/216/186
f 46/215/46 188/218/188 185/214/185
f 185/214/185 188/218/188 187/217/187
f 43/219/43 188/218/188 46/215/46
f 189/220/189 183/211/183 187/217/187
f 189/220/189 187/217/187 188/218/188
f 43/219/43 190/221/190 188/218/188
f 188/218/188 190/221/190 189/220/189
f 41/222/41 190/221/190 43/219/43
f 189/220/189 191/223/191 183/211/183
f 151/165/151 183/211/183 191/223/191
f 151/165/151 191/223/191 149/162/149
f 192/224/192 189/220/189 190/221/190
f 191/223/191 189/220/189 192/224/192
f 41/222/41 193/225/193 190/221/190
f 190/221/190 193/225/193 192/224/192
f 38/226/38 193/225/193 41/222/41
f 38/226/38 35/227/35 193/225/193
f 194/228/194 191/223/191 192/224/192
f 194/228/194 192/224/192 193/225/193
f 195/229/195 149/162/149 191/223/191
f 191/223/191 194/228/194 195/229/195
f 195/229/195 152/166/152 149/162/149
f 194/228/194 193/225/193 196/230/196
f 196/230/196 195/229/195 194/228/194
f 197/231/197 193/225/193 35/227/35
f 197/231/197 196/230/196 193/225/193
f 35/227/35 32/232/32 197/231/197
f 198/233/198 195/229/195 196/230/196
f 198/233/198 196/230/196 197/231/197
f 195/229/195 198/233/198 152/166/152
f 199/234/199 197/231/197 32/232/32
f 199/234/199 198/233/198 197/231/197
f 32/232/32 30/235/30 199/234/199
f 200/236/200 152/166/152 198/233/198
f 198/233/198 199/234/199 200/236/200
f 201/237/201 199/234/199 30/235/30
f 201/237/201 200/236/200 199/234/199
f 30/235/30 27/238/27 201/237/201
f 202/239/202 152/166/152 200/236/200
f 202/239/202 200/236/200 201/237/201
f 152/166/152 202/239/202 145/156/145
f 203/240/203 201/237/201 27/238/27
f 203/240/203 202/239/202 201/237/201
f 27/238/27 24/241/24 203/240/203
f 204/242/204 145/156/145 202/239/202
f 202/239/202 203/240/203 204/242/204
f 205/243/205 203/240/203 24/241/24
f 205/243/205 204/242/204 203/240/203
f 24/241/24 20/131/20 205/243/205
f 126/130/126 205/243/205 20/131/20
f 206/244/206 145/156/145 204/242/204
f 204/242/204 205/243/205 206/244/206
f 126/130/126 206/244/206 205/243/205
f 145/156/145 206/244/206 132/137/132
f 206/244/206 126/130/126 129/134/129
f 129/134/129 132/137/132 206/244/206
f 209/1/207 207/3/208 208/2/2
f 210/4/209 208/2/2 207/3/208
f 207/3/208 211/5/210 210/4/209
f 210/4/209 212/6/211 208/2/2
f 213/7/212 210/4/209 211/5/210
f 211/5/210 214/8/213 213/7/212
f 210/4/209 215/9/214 212/6/211
f 210/4/209 213/7/212 215/9/214
f 216/10/215 213/7/212 214/8/213
f 216/10/215 215/9/214 213/7/212
f 214/8/213 217/11/216 216/10/215
f 217/11/216 214/8/213 218/12/217
f 216/10/215 219/13/218 215/9/214
f 216/10/215 217/11/216 219/13/218
f 215/9/214 220/14/219 212/6/211
f 220/14/219 215/9/214 219/13/218
f 221/15/220 212/6/211 220/14/219
f 218/12/217 222/16/221 217/11/216
f 222/16/221 219/13/218 217/11/216
f 222/16/221 218/12/217 223/17/222
f 223/17/222 224/18/223 222/16/221
f 220/14/219 225/19/224 221/15/220
f 226/20/225 221/15/220 225/19/224
f 227/21/226 222/16/221 224/18/223
f 224/18/223 228/22/227 227/21/226
f 222/16/221 227/21/226 229/104/228
f 222/16/221 229/104/228 219/13/218
f 230/105/229 227/21/226 228/22/227
f 230/105/229 229/104/228 227/21/226
f 228/22/227 231/106/230 230/105/229
f 229/104/228 232/101/231 219/13/218
f 233/107/232 230/105/229 231/106/230
f 230/105/229 234/102/233 229/104/228
f 230/105/229 233/107/232 234/102/233
f 229/104/228 234/102/233 232/101/231
f 233/107/232 231/106/230 235/108/234
f 235/108/234 234/102/233 233/107/232
f 236/109/235 235/108/234 231/106/230
f 238/111/236 237/110/237 236/109/235
f 235/108/234 236/109/235 237/110/237
f 235/108/234 237/110/237 239/103/238
f 235/108/234 239/103/238 234/102/233
f 239/103/238 240/100/239 234/102/233
f 241/99/240 234/102/233 240/100/239
f 241/99/240 232/101/231 234/102/233
f 240/100/239 242/98/241 241/99/240
f 243/97/242 241/99/240 242/98/241
f 242/98/241 244/96/243 243/97/242
f 232/101/231 241/99/240 245/36/244
f 243/97/242 245/36/244 241/99/240
f 246/95/245 243/97/242 244/96/243
f 244/96/243 247/93/246 246/95/245
f 245/36/244 243/97/242 248/44/247
f 243/97/242 246/95/245 248/44/247
f 249/94/248 246/95/245 247/93/246
f 248/44/247 246/95/245 250/51/249
f 250/51/249 246/95/245 249/94/248
f 249/94/248 247/93/246 251/92/250
f 249/94/248 251/92/250 250/51/249
f 252/91/251 251/92/250 247/93/246
f 251/92/250 252/91/251 253/90/252
f 253/90/252 252/91/251 254/89/253
f 255/60/254 250/51/249 251/92/250
f 251/92/250 253/90/252 255/60/254
f 256/87/255 253/90/252 254/89/253
f 256/87/255 254/89/253 257/88/256
f 256/87/255 257/88/256 258/81/257
f 259/70/258 255/60/254 253/90/252
f 253/90/252 256/87/255 259/70/258
f 260/75/259 256/87/255 258/81/257
f 260/75/259 258/81/257 261/79/260
f 262/67/261 259/70/258 256/87/255
f 263/76/262 260/75/259 261/79/260
f 263/76/262 261/79/260 264/78/263
f 260/75/259 265/69/264 256/87/255
f 262/67/261 256/87/255 265/69/264
f 263/76/262 266/72/265 260/75/259
f 265/69/264 260/75/259 266/72/265
f 267/77/266 263/76/262 264/78/263
f 266/72/265 263/76/262 268/74/267
f 267/77/266 268/74/267 263/76/262
f 267/77/266 264/78/263 269/73/268
f 269/73/268 268/74/267 267/77/266
f 270/80/269 269/73/268 264/78/263
f 268/74/267 271/71/270 266/72/265
f 268/74/267 269/73/268 271/71/270
f 266/72/265 272/66/271 265/69/264
f 272/66/271 266/72/265 271/71/270
f 273/82/272 269/73/268 270/80/269
f 273/82/272 270/80/269 274/83/273
f 274/83/273 275/84/274 273/82/272
f 271/71/270 269/73/268 276/68/275
f 269/73/268 273/82/272 276/68/275
f 273/82/272 275/84/274 277/85/276
f 277/85/276 276/68/275 273/82/272
f 277/85/276 275/84/274 278/86/277
f 278/86/277 279/65/278 277/85/276
f 276/68/275 277/85/276 279/65/278
f 276/68/275 280/64/279 271/71/270
f 276/68/275 279/65/278 280/64/279
f 271/71/270 280/64/279 272/66/271
f 281/62/280 280/64/279 279/65/278
f 280/64/279 281/62/280 282/61/281
f 282/61/281 272/66/271 280/64/279
f 283/59/282 282/61/281 281/62/280
f 272/66/271 282/61/281 284/63/283
f 284/63/283 265/69/264 272/66/271
f 265/69/264 284/63/283 262/67/261
f 282/61/281 283/59/282 285/58/284
f 285/58/284 284/63/283 282/61/281
f 286/56/285 285/58/284 283/59/282
f 287/57/286 262/67/261 284/63/283
f 284/63/283 285/58/284 287/57/286
f 262/67/261 287/57/286 259/70/258
f 285/58/284 286/56/285 288/55/287
f 288/55/287 287/57/286 285/58/284
f 289/53/288 288/55/287 286/56/285
f 259/70/258 287/57/286 290/54/289
f 259/70/258 290/54/289 255/60/254
f 288/55/287 291/52/290 287/57/286
f 288/55/287 289/53/288 291/52/290
f 290/54/289 287/57/286 291/52/290
f 292/50/291 291/52/290 289/53/288
f 291/52/290 292/50/291 293/49/292
f 291/52/290 293/49/292 290/54/289
f 294/47/293 293/49/292 292/50/291
f 255/60/254 290/54/289 295/48/294
f 293/49/292 295/48/294 290/54/289
f 255/60/254 295/48/294 250/51/249
f 293/49/292 294/47/293 296/45/295
f 296/45/295 295/48/294 293/49/292
f 296/45/295 294/47/293 297/46/296
f 296/45/295 297/46/296 298/43/297
f 296/45/295 298/43/297 299/42/298
f 296/45/295 299/42/298 295/48/294
f 299/42/298 298/43/297 300/41/299
f 301/39/300 250/51/249 295/48/294
f 295/48/294 299/42/298 301/39/300
f 301/39/300 248/44/247 250/51/249
f 300/41/299 302/40/301 299/42/298
f 302/40/301 301/39/300 299/42/298
f 300/41/299 303/38/302 302/40/301
f 303/38/302 304/37/303 302/40/301
f 302/40/301 304/37/303 301/39/300
f 303/38/302 305/35/304 304/37/303
f 306/34/305 304/37/303 305/35/304
f 304/37/303 306/34/305 301/39/300
f 305/35/304 307/32/306 306/34/305
f 308/33/307 248/44/247 301/39/300
f 308/33/307 301/39/300 306/34/305
f 245/36/244 248/44/247 308/33/307
f 307/32/306 309/31/308 306/34/305
f 306/34/305 309/31/308 308/33/307
f 307/32/306 310/30/309 309/31/308
f 311/29/310 309/31/308 310/30/309
f 309/31/308 311/29/310 308/33/307
f 310/30/309 312/27/311 311/29/310
f 313/28/312 245/36/244 308/33/307
f 313/28/312 308/33/307 311/29/310
f 314/26/313 311/29/310 312/27/311
f 311/29/310 314/26/313 313/28/312
f 312/27/311 315/24/314 314/26/313
f 313/28/312 316/25/315 245/36/244
f 232/101/231 245/36/244 316/25/315
f 219/13/218 232/101/231 316/25/315
f 219/13/218 316/25/315 220/14/219
f 220/14/219 316/25/315 225/19/224
f 314/26/313 317/23/316 313/28/312
f 316/25/315 313/28/312 317/23/316
f 317/23/316 314/26/313 315/24/314
f 317/23/316 225/19/224 316/25/315
f 315/24/314 226/20/225 317/23/316
f 225/19/224 317/23/316 226/20/225
f 209/112/207 208/114/2 318/113/317
f 319/115/318 318/113/317 208/114/2
f 318/113/317 319/115/318 320/116/319
f 319/115/318 208/114/2 212/117/211
f 320/116/319 319/115/318 321/118/320
f 320/116/319 321/118/320 322/119/321
f 319/115/318 212/117/211 323/120/322
f 319/115/318 323/120/322 321/118/320
f 322/119/321 321/118/320 324/121/323
f 324/121/323 321/118/320 323/120/322
f 324/121/323 325/122/324 322/119/321
f 326/123/325 322/119/321 325/122/324
f 326/123/325 325/122/324 327/124/326
f 324/121/323 323/120/322 328/125/327
f 324/121/323 328/125/327 325/122/324
f 323/120/322 212/117/211 329/126/328
f 323/120/322 329/126/328 328/125/327
f 221/127/220 329/126/328 212/117/211
f 330/128/329 327/124/326 325/122/324
f 330/128/329 325/122/324 328/125/327
f 327/124/326 330/128/329 331/129/330
f 329/126/328 221/127/220 332/130/331
f 226/131/225 332/130/331 221/127/220
f 333/132/332 331/129/330 330/128/329
f 331/129/330 333/132/332 334/133/333
f 329/126/328 332/130/331 335/134/334
f 335/134/334 328/125/327 329/126/328
f 336/135/335 334/133/333 333/132/332
f 334/133/333 336/135/335 337/136/336
f 330/128/329 338/137/337 333/132/332
f 330/128/329 328/125/327 338/137/337
f 336/135/335 333/132/332 338/137/337
f 335/134/334 338/137/337 328/125/327
f 337/136/336 336/135/335 339/138/338
f 337/136/336 339/138/338 340/139/339
f 336/135/335 341/140/340 339/138/338
f 336/135/335 338/137/337 341/140/340
f 340/139/339 339/138/338 342/141/341
f 342/141/341 339/138/338 341/140/340
f 342/141/341 343/142/342 340/139/339
f 344/143/343 340/139/339 343/142/342
f 342/141/341 345/144/344 343/142/342
f 342/141/341 341/140/340 345/144/344
f 343/142/342 346/145/345 344/143/343
f 346/145/345 343/142/342 345/144/344
f 347/146/346 344/143/343 346/145/345
f 347/146/346 346/145/345 238/147/236
f 237/148/237 238/147/236 346/145/345
f 346/145/345 239/149/238 237/148/237
f 346/145/345 345/144/344 239/149/238
f 239/149/238 345/144/344 240/150/239
f 348/151/347 240/150/239 345/144/344
f 345/144/344 341/140/340 348/151/347
f 240/150/239 348/151/347 242/152/241
f 349/153/348 348/151/347 341/140/340
f 341/140/340 338/137/337 349/153/348
f 350/154/349 242/152/241 348/151/347
f 348/151/347 349/153/348 350/154/349
f 242/152/241 350/154/349 244/155/243
f 351/156/350 349/153/348 338/137/337
f 352/158/351 244/155/243 350/154/349
f 353/157/352 350/154/349 349/153/348
f 353/157/352 352/158/351 350/154/349
f 349/153/348 351/156/350 353/157/352
f 352/158/351 354/159/353 244/155/243
f 247/160/246 244/155/243 354/159/353
f 247/160/246 354/159/353 252/161/251
f 352/158/351 353/157/352 355/162/354
f 355/162/354 354/159/353 352/158/351
f 356/163/355 252/161/251 354/159/353
f 252/161/251 356/163/355 254/164/253
f 354/159/353 355/162/354 357/165/356
f 354/159/353 357/165/356 356/163/355
f 358/166/357 355/162/354 353/157/352
f 358/166/357 353/157/352 351/156/350
f 254/164/253 356/163/355 359/167/358
f 254/164/253 359/167/358 257/168/256
f 360/169/359 356/163/355 357/165/356
f 361/171/360 257/168/256 359/167/358
f 359/167/358 356/163/355 362/170/361
f 360/169/359 362/170/361 356/163/355
f 361/171/360 359/167/358 363/172/362
f 362/170/361 363/172/362 359/167/358
f 361/171/360 364/173/363 257/168/256
f 258/174/257 257/168/256 364/173/363
f 363/172/362 365/175/364 361/171/360
f 364/173/363 361/171/360 365/175/364
f 364/173/363 366/176/365 258/174/257
f 258/174/257 366/176/365 261/177/260
f 365/175/364 367/178/366 364/173/363
f 364/173/363 367/178/366 366/176/365
f 366/176/365 368/179/367 261/177/260
f 368/179/367 264/180/263 261/177/260
f 264/180/263 368/179/367 270/181/269
f 369/182/368 368/179/367 366/176/365
f 369/182/368 366/176/365 367/178/366
f 370/183/369 270/181/269 368/179/367
f 370/183/369 368/179/367 369/182/368
f 270/181/269 370/183/369 274/184/273
f 371/185/370 369/182/368 367/178/366
f 372/186/371 274/184/273 370/183/369
f 372/186/371 275/187/274 274/184/273
f 373/190/372 370/183/369 369/182/368
f 373/190/372 369/182/368 371/185/370
f 372/186/371 370/183/369 374/188/373
f 374/188/373 275/187/274 372/186/371
f 373/190/372 374/188/373 370/183/369
f 278/189/277 275/187/274 374/188/373
f 374/188/373 373/190/372 278/189/277
f 279/191/278 278/189/277 373/190/372
f 373/190/372 371/185/370 375/192/374
f 375/192/374 279/191/278 373/190/372
f 371/185/370 367/178/366 376/193/375
f 375/192/374 371/185/370 376/193/375
f 376/193/375 367/178/366 365/175/364
f 377/194/376 279/191/278 375/192/374
f 279/191/278 377/194/376 281/195/280
f 375/192/374 376/193/375 378/196/377
f 377/194/376 375/192/374 378/196/377
f 376/193/375 365/175/364 379/197/378
f 378/196/377 376/193/375 379/197/378
f 363/172/362 379/197/378 365/175/364
f 281/195/280 377/194/376 380/198/379
f 377/194/376 378/196/377 380/198/379
f 281/195/280 380/198/379 283/199/282
f 283/199/282 380/198/379 286/200/285
f 378/196/377 379/197/378 381/201/380
f 381/201/380 380/198/379 378/196/377
f 382/202/381 286/200/285 380/198/379
f 380/198/379 381/201/380 382/202/381
f 286/200/285 382/202/381 289/203/288
f 383/204/382 381/201/380 379/197/378
f 383/204/382 379/197/378 363/172/362
f 363/172/362 362/170/361 383/204/382
f 384/205/383 382/202/381 381/201/380
f 384/205/383 381/201/380 383/204/382
f 385/206/384 289/203/288 382/202/381
f 385/206/384 382/202/381 384/205/383
f 289/203/288 385/206/384 292/207/291
f 384/205/383 383/204/382 386/208/385
f 384/205/383 386/208/385 385/206/384
f 387/209/386 383/204/382 362/170/361
f 387/209/386 386/208/385 383/204/382
f 362/170/361 360/169/359 387/209/386
f 388/210/387 385/206/384 386/208/385
f 388/210/387 292/207/291 385/206/384
f 389/211/388 387/209/386 360/169/359
f 388/210/387 390/212/389 292/207/291
f 388/210/387 386/208/385 390/212/389
f 390/212/389 294/213/293 292/207/291
f 360/169/359 357/165/356 389/211/388
f 390/212/389 391/214/390 294/213/293
f 297/215/296 294/213/293 391/214/390
f 392/216/391 390/212/389 386/208/385
f 386/208/385 387/209/386 392/216/391
f 392/216/391 391/214/390 390/212/389
f 387/209/386 389/211/388 392/216/391
f 392/216/391 393/217/392 391/214/390
f 393/217/392 392/216/391 389/211/388
f 391/214/390 394/218/393 297/215/296
f 391/214/390 393/217/392 394/218/393
f 394/218/393 298/219/297 297/215/296
f 393/217/392 389/211/388 395/220/394
f 395/220/394 394/218/393 393/217/392
f 394/218/393 396/221/395 298/219/297
f 394/218/393 395/220/394 396/221/395
f 396/221/395 300/222/299 298/219/297
f 389/211/388 397/223/396 395/220/394
f 357/165/356 397/223/396 389/211/388
f 357/165/356 355/162/354 397/223/396
f 398/224/397 396/221/395 395/220/394
f 398/224/397 395/220/394 397/223/396
f 396/221/395 399/225/398 300/222/299
f 396/221/395 398/224/397 399/225/398
f 399/225/398 303/226/302 300/222/299
f 399/225/398 305/227/304 303/226/302
f 398/224/397 397/223/396 400/228/399
f 400/228/399 399/225/398 398/224/397
f 401/229/400 397/223/396 355/162/354
f 397/223/396 401/229/400 400/228/399
f 355/162/354 358/166/357 401/229/400
f 400/228/399 402/230/401 399/225/398
f 402/230/401 400/228/399 401/229/400
f 305/227/304 399/225/398 403/231/402
f 403/231/402 399/225/398 402/230/401
f 305/227/304 403/231/402 307/232/306
f 402/230/401 401/229/400 404/233/403
f 403/231/402 402/230/401 404/233/403
f 401/229/400 358/166/357 404/233/403
f 405/234/404 307/232/306 403/231/402
f 403/231/402 404/233/403 405/234/404
f 405/234/404 310/235/309 307/232/306
f 406/236/405 404/233/403 358/166/357
f 404/233/403 406/236/405 405/234/404
f 310/235/309 405/234/404 407/237/406
f 407/237/406 405/234/404 406/236/405
f 310/235/309 407/237/406 312/238/311
f 406/236/405 358/166/357 408/239/407
f 407/237/406 406/236/405 408/239/407
f 351/156/350 408/239/407 358/166/357
f 409/240/408 312/238/311 407/237/406
f 407/237/406 408/239/407 409/240/408
f 312/238/311 409/240/408 315/241/314
f 408/239/407 351/156/350 410/242/409
f 409/240/408 408/239/407 410/242/409
f 411/243/410 315/241/314 409/240/408
f 409/240/408 410/242/409 411/243/410
f 315/241/314 411/243/410 226/131/225
f 332/130/331 226/131/225 411/243/410
f 410/242/409 351/156/350 412/244/411
f 412/244/411 411/243/410 410/242/409
f 411/243/410 412/244/411 332/130/331
f 338/137/337 412/244/411 351/156/350
f 335/134/334 332/130/331 412/244/411
f 335/134/334 412/244/411 338/137/337
