# Blender 4.3.2
# www.blender.org
mtllib HeadandJaw.mtl
o Cube
v 14.414927 14.414927 -14.414927
v 14.414925 14.414927 14.414927
v -14.414927 14.414927 -14.414927
v -14.414927 14.414925 14.414927
v 16.517567 8.552375 -16.517565
v 17.573750 0.000000 -17.573751
v -17.573750 -0.000000 17.573751
v -16.517565 8.552375 16.517565
v 16.517565 8.552375 16.517567
v 17.573751 0.000000 17.573750
v -16.517565 8.552375 -16.517565
v -17.573751 -0.000000 -17.573750
v 8.552374 16.517565 16.517569
v -0.000000 17.573751 17.573751
v -8.552375 16.517565 16.517567
v 16.517565 16.517567 -8.552374
v 17.573750 17.573750 0.000000
v 16.517565 16.517565 8.552375
v -16.517565 16.517567 8.552374
v -17.573750 17.573750 -0.000000
v -16.517565 16.517565 -8.552374
v -8.552375 16.517567 -16.517565
v 0.000000 17.573750 -17.573750
v 8.552374 16.517565 -16.517565
v 9.114762 21.016668 -9.114763
v 0.000000 22.540007 -9.604390
v -9.114762 21.016670 -9.114761
v 9.604390 22.540005 0.000000
v -0.000000 24.202839 -0.000000
v -9.604390 22.540007 -0.000000
v 9.114761 21.016670 9.114762
v -0.000000 22.540007 9.604390
v -9.114761 21.016668 9.114762
v 9.604390 -0.000000 22.540007
v 9.114761 9.114762 21.016670
v 0.000000 0.000000 24.202839
v 0.000000 9.604390 22.540007
v -9.604390 0.000000 22.540007
v -9.114762 9.114761 21.016668
v -22.540007 -0.000000 9.604389
v -21.016670 9.114762 9.114761
v -24.202839 0.000000 -0.000000
v -22.540005 9.604389 0.000000
v -22.540007 0.000000 -9.604390
v -21.016668 9.114762 -9.114762
v 22.540007 -0.000000 -9.604390
v 21.016670 9.114762 -9.114761
v 24.202839 0.000000 -0.000000
v 22.540007 9.604390 -0.000000
v 22.540007 0.000000 9.604390
v 21.016668 9.114762 9.114762
v -9.604389 -0.000000 -22.540007
v -9.114761 9.114762 -21.016670
v 0.000000 0.000000 -24.202839
v -0.000000 9.604389 -22.540007
v 9.604390 0.000000 -22.540007
v 9.114762 9.114762 -21.016668
vn 0.3362 0.8797 -0.3362
vn -0.0000 0.9345 -0.3560
vn -0.0000 1.0000 -0.0000
vn 0.3560 0.9345 -0.0000
vn -0.3362 0.8797 -0.3362
vn -0.3560 0.9345 -0.0000
vn -0.0000 0.9345 0.3560
vn 0.3362 0.8797 0.3362
vn -0.3362 0.8797 0.3362
vn 0.5774 0.5774 -0.5774
vn 0.3157 0.6709 -0.6709
vn 0.6709 0.6709 -0.3157
vn -0.0000 0.7071 -0.7071
vn -0.3157 0.6709 -0.6709
vn -0.5774 0.5774 -0.5774
vn -0.6709 0.6709 -0.3157
vn -0.7071 0.7071 -0.0000
vn -0.6709 0.6709 0.3157
vn -0.5774 0.5774 0.5774
vn -0.3157 0.6709 0.6709
vn -0.0000 0.7071 0.7071
vn 0.3157 0.6709 0.6709
vn 0.6709 0.6709 0.3157
vn 0.5774 0.5774 0.5774
vn 0.7071 0.7071 -0.0000
vn 0.3507 0.1718 0.9206
vn 0.3362 0.3362 0.8797
vn -0.0000 0.3560 0.9345
vn -0.0000 0.1722 0.9851
vn -0.3362 0.3362 0.8797
vn -0.3507 0.1718 0.9206
vn 0.6966 0.1721 0.6966
vn 0.6709 0.3157 0.6709
vn -0.6709 0.3157 0.6709
vn -0.6966 0.1721 0.6966
vn -0.9206 0.1718 0.3507
vn -0.8797 0.3362 0.3362
vn -0.9345 0.3560 -0.0000
vn -0.9851 0.1722 -0.0000
vn -0.8797 0.3362 -0.3362
vn -0.9206 0.1718 -0.3507
vn -0.6709 0.3157 -0.6709
vn -0.6966 0.1721 -0.6966
vn 0.9206 0.1718 -0.3507
vn 0.8797 0.3362 -0.3362
vn 0.9345 0.3560 -0.0000
vn 0.9851 0.1722 -0.0000
vn 0.8797 0.3362 0.3362
vn 0.9206 0.1718 0.3507
vn 0.6966 0.1721 -0.6966
vn 0.6709 0.3157 -0.6709
vn -0.3507 0.1718 -0.9206
vn -0.3362 0.3362 -0.8797
vn -0.0000 0.3560 -0.9345
vn -0.0000 0.1722 -0.9851
vn 0.3362 0.3362 -0.8797
vn 0.3507 0.1718 -0.9206
vn -0.0000 -1.0000 -0.0000
vt 0.687500 0.562500
vt 0.750000 0.562500
vt 0.750000 0.625000
vt 0.687500 0.625000
vt 0.812500 0.562500
vt 0.812500 0.625000
vt 0.750000 0.687500
vt 0.687500 0.687500
vt 0.812500 0.687500
vt 0.625000 0.500000
vt 0.687500 0.500000
vt 0.625000 0.562500
vt 0.750000 0.500000
vt 0.812500 0.500000
vt 0.875000 0.500000
vt 0.875000 0.562500
vt 0.875000 0.625000
vt 0.875000 0.687500
vt 0.875000 0.750000
vt 0.812500 0.750000
vt 0.750000 0.750000
vt 0.687500 0.750000
vt 0.625000 0.687500
vt 0.625000 0.750000
vt 0.625000 0.625000
vt 0.500000 0.812500
vt 0.562500 0.812500
vt 0.562500 0.875000
vt 0.500000 0.875000
vt 0.562500 0.937500
vt 0.500000 0.937500
vt 0.500000 0.750000
vt 0.562500 0.750000
vt 0.625000 0.812500
vt 0.625000 0.875000
vt 0.625000 0.937500
vt 0.625000 1.000000
vt 0.562500 1.000000
vt 0.500000 1.000000
vt 0.500000 0.062500
vt 0.562500 0.062500
vt 0.562500 0.125000
vt 0.500000 0.125000
vt 0.562500 0.187500
vt 0.500000 0.187500
vt 0.500000 0.000000
vt 0.562500 0.000000
vt 0.625000 0.000000
vt 0.625000 0.062500
vt 0.625000 0.125000
vt 0.625000 0.187500
vt 0.625000 0.250000
vt 0.562500 0.250000
vt 0.500000 0.250000
vt 0.500000 0.562500
vt 0.562500 0.562500
vt 0.562500 0.625000
vt 0.500000 0.625000
vt 0.562500 0.687500
vt 0.500000 0.687500
vt 0.500000 0.500000
vt 0.562500 0.500000
vt 0.500000 0.312500
vt 0.562500 0.312500
vt 0.562500 0.375000
vt 0.500000 0.375000
vt 0.562500 0.437500
vt 0.500000 0.437500
vt 0.625000 0.312500
vt 0.625000 0.375000
vt 0.625000 0.437500
s 1
usemtl Material
f 25/1/1 26/2/2 29/3/3 28/4/4
f 26/2/2 27/5/5 30/6/6 29/3/3
f 28/4/4 29/3/3 32/7/7 31/8/8
f 29/3/3 30/6/6 33/9/9 32/7/7
f 1/10/10 24/11/11 25/1/1 16/12/12
f 24/11/11 23/13/13 26/2/2 25/1/1
f 23/13/13 22/14/14 27/5/5 26/2/2
f 22/14/14 3/15/15 21/16/16 27/5/5
f 27/5/5 21/16/16 20/17/17 30/6/6
f 30/6/6 20/17/17 19/18/18 33/9/9
f 33/9/9 19/18/18 4/19/19 15/20/20
f 32/7/7 33/9/9 15/20/20 14/21/21
f 31/8/8 32/7/7 14/21/21 13/22/22
f 18/23/23 31/8/8 13/22/22 2/24/24
f 17/25/25 28/4/4 31/8/8 18/23/23
f 16/12/12 25/1/1 28/4/4 17/25/25
f 34/26/26 35/27/27 37/28/28 36/29/29
f 36/29/29 37/28/28 39/30/30 38/31/31
f 10/32/32 9/33/33 35/27/27 34/26/26
f 9/33/33 2/24/24 13/34/22 35/27/27
f 35/27/27 13/34/22 14/35/21 37/28/28
f 37/28/28 14/35/21 15/36/20 39/30/30
f 39/30/30 15/36/20 4/37/19 8/38/34
f 38/31/31 39/30/30 8/38/34 7/39/35
f 40/40/36 41/41/37 43/42/38 42/43/39
f 42/43/39 43/42/38 45/44/40 44/45/41
f 7/46/35 8/47/34 41/41/37 40/40/36
f 8/47/34 4/48/19 19/49/18 41/41/37
f 41/41/37 19/49/18 20/50/17 43/42/38
f 43/42/38 20/50/17 21/51/16 45/44/40
f 45/44/40 21/51/16 3/52/15 11/53/42
f 44/45/41 45/44/40 11/53/42 12/54/43
f 46/55/44 47/56/45 49/57/46 48/58/47
f 48/58/47 49/57/46 51/59/48 50/60/49
f 6/61/50 5/62/51 47/56/45 46/55/44
f 5/62/51 1/10/10 16/12/12 47/56/45
f 47/56/45 16/12/12 17/25/25 49/57/46
f 49/57/46 17/25/25 18/23/23 51/59/48
f 51/59/48 18/23/23 2/24/24 9/33/33
f 50/60/49 51/59/48 9/33/33 10/32/32
f 52/63/52 53/64/53 55/65/54 54/66/55
f 54/66/55 55/65/54 57/67/56 56/68/57
f 12/54/43 11/53/42 53/64/53 52/63/52
f 11/53/42 3/52/15 22/69/14 53/64/53
f 53/64/53 22/69/14 23/70/13 55/65/54
f 55/65/54 23/70/13 24/71/11 57/67/56
f 57/67/56 24/71/11 1/10/10 5/62/51
f 56/68/57 57/67/56 5/62/51 6/61/50
f 34/26/58 36/29/58 38/31/58 7/46/58 40/40/58 42/43/58 44/45/58 12/54/58 52/63/58 54/66/58 56/68/58 6/61/58 46/55/58 48/58/58 50/60/58 10/32/58
