g Machine
v -0.01 -0.080328256 -0.01
v -0.01 0.01 -0.01
v -0.01 0.01 0.01
v -0.01 -0.080328256 0.01
v 0.0086312825 -0.080328256 0.0070156036
v 0.0008275139 -0.080328256 -0.01
v -0.01 -0.080328256 -0.01
v -0.01 -0.080328256 0.01
v 0.008875763 -0.080328256 0.008507802
v 0.008174981 -0.080328256 0.009600166
v 0.0067167077 -0.080328256 0.01
v -0.01 0.01 0.01
v -0.01 0.01 -0.01
v 0.0008275139 0.01 -0.01
v 0.008631283 0.01 0.0070156036
v 0.008875763 0.01 0.008507802
v 0.00817498 0.01 0.009600166
v 0.0067167077 0.01 0.01
v -0.01 0.01 -0.01
v -0.01 -0.080328256 -0.01
v 0.0008275139 -0.080328256 -0.01
v 0.0008275139 0.01 -0.01
v 0.0008275139 0.01 -0.01
v 0.0008275139 -0.080328256 -0.01
v 0.0086312825 -0.080328256 0.0070156036
v 0.008631283 0.01 0.0070156036
v 0.008875763 0.01 0.008507802
v 0.008875763 -0.080328256 0.008507802
v 0.00817498 0.01 0.009600166
v 0.008174981 -0.080328256 0.009600166
v 0.0067167077 0.01 0.01
v 0.00817498 0.01 0.009600166
v 0.008174981 -0.080328256 0.009600166
v 0.0067167077 -0.080328256 0.01
v -0.01 -0.080328256 0.01
v -0.01 0.01 0.01
v -0.004370007 0.04202099 0.15126702
v -0.0043683196 0.042019706 0.15126596
v -0.0043683196 -0.0514671 0.15126169
v -0.005493803 -0.0514671 0.15198636
v -0.005493803 0.0387324 0.15198636
v -0.08246932 -0.0514671 0.15198636
v -0.005493803 0.040805716 0.15158954
v -0.005493803 0.04232349 0.15050542
v -0.08246932 0.0387324 0.15198636
v -0.08246932 0.040805716 0.15158954
v -0.08246932 0.04232349 0.15050542
v -0.083593115 0.04202099 0.15126702
v -0.0835948 -0.0514671 0.15126169
v -0.0835948 0.042019706 0.15126596
v -0.077011175 0.034486916 -0.0854835
v -0.077011175 0.034486916 -0.07972495
v -0.010951948 0.034486916 -0.07972495
v -0.010951948 0.034486916 -0.0854835
v -0.010951948 0.034486916 -0.0854835
v -0.010951948 0.034486916 -0.07972495
v -0.010951948 -0.0514671 -0.07972495
v -0.010951948 -0.0514671 -0.0854835
v -0.010951948 -0.096487865 -0.07972495
v -0.010951948 -0.096487865 -0.0854835
v -0.08406099 0.02929984 0.12037803
v -0.079579145 0.02929984 0.12037803
v -0.079579145 0.02929984 -0.03228033
v -0.08406099 0.02929984 -0.03228033
v -0.005493803 -0.0514671 0.15198636
v -0.0043683196 -0.0514671 0.15126169
v -0.0043683196 -0.10402065 0.09932719
v -0.0043687155 -0.10402095 0.099327154
v -0.005493803 -0.10487999 0.096735016
v -0.005493803 -0.10487999 -0.083387814
v -0.0043683196 -0.10402065 -0.083387814
v -0.004574847 -0.103639945 -0.08459776
v -0.0054938006 -0.10402065 -0.08486969
v -0.08246932 -0.10402065 -0.08486969
v -0.08246932 -0.10487999 -0.083387814
v -0.08338827 -0.103639945 -0.08459776
v -0.0835948 -0.10402065 -0.083387814
v -0.08246932 -0.10487999 0.096735016
v -0.0835948 -0.10402065 0.09932719
v -0.0835944 -0.10402095 0.099327154
v -0.08246932 -0.10436321 0.0989994
v -0.08246932 -0.10311561 0.10095845
v -0.0835948 -0.0514671 0.15126169
v -0.08246932 -0.10311561 0.10095845
v -0.08246932 -0.0514671 0.15198636
v -0.005493803 -0.10311561 0.10095845
v -0.08246932 -0.10436321 0.0989994
v -0.005493803 -0.10436321 0.0989994
v -0.005493803 -0.10487999 0.096735016
v -0.005493803 -0.10436321 0.0989994
v -0.08246932 -0.10487999 0.096735016
v -0.005493803 -0.10487999 0.096735016
v -0.005493803 -0.10487999 -0.083387814
v -0.08246932 -0.10487999 -0.083387814
v -0.08406099 -0.005496454 0.120372504
v -0.079579145 -0.005496454 0.120372504
v -0.079579145 0.02929984 0.12037803
v -0.08406099 0.02929984 0.12037803
v -0.032101307 -0.07711427 -0.06587481
v -0.032101307 -0.078500815 -0.060700126
v -0.032101307 -0.078500815 -0.033206657
v -0.032101307 -0.07711427 -0.028031973
v -0.032101307 -0.07332614 -0.069662936
v -0.032101307 -0.07332614 -0.024243843
v -0.032101307 -0.06815145 -0.07104949
v -0.032101307 -0.06815145 -0.022857292
v -0.032101307 -0.025997462 -0.07104949
v -0.032101307 -0.025997462 -0.022857292
v -0.032101307 -0.020822782 -0.069662936
v -0.032101307 -0.020822782 -0.024243843
v -0.032101307 -0.017034654 -0.06587481
v -0.032101307 -0.017034654 -0.028031973
v -0.032101307 -0.015648099 -0.060700126
v -0.032101307 -0.015648099 -0.033206657
v -0.032101307 -0.020822782 -0.069662936
v -0.00390213 -0.020822782 -0.069662936
v -0.00390213 -0.025997462 -0.07104949
v -0.032101307 -0.025997462 -0.07104949
v -0.00390213 -0.0514671 -0.07104949
v -0.00390213 -0.06815145 -0.07104949
v -0.032101307 -0.06815145 -0.07104949
v -0.00390213 -0.07332614 -0.069662936
v -0.032101307 -0.07332614 -0.069662936
v -0.00390213 -0.07711427 -0.06587481
v -0.032101307 -0.07711427 -0.06587481
v -0.032101307 -0.017034654 -0.06587481
v -0.00390213 -0.020822782 -0.069662936
v -0.032101307 -0.020822782 -0.069662936
v -0.00390213 -0.017034654 -0.06587481
v -0.032101307 -0.015648099 -0.060700126
v -0.00390213 -0.015648099 -0.060700126
v -0.00390213 -0.015648099 -0.033206657
v -0.032101307 -0.015648099 -0.033206657
v -0.032101307 -0.017034654 -0.028031973
v -0.00390213 -0.017034654 -0.028031973
v -0.032101307 -0.020822782 -0.024243843
v -0.00390213 -0.020822782 -0.024243843
v -0.032101307 -0.025997462 -0.022857292
v -0.00390213 -0.020822782 -0.024243843
v -0.032101307 -0.020822782 -0.024243843
v -0.00390213 -0.025997462 -0.022857292
v -0.032101307 -0.06815145 -0.022857292
v -0.00390213 -0.0514671 -0.022857292
v -0.00390213 -0.06815145 -0.022857292
v -0.032101307 -0.07332614 -0.024243843
v -0.00390213 -0.07332614 -0.024243843
v -0.032101307 -0.07711427 -0.06587481
v -0.00390213 -0.07711427 -0.06587481
v -0.00390213 -0.078500815 -0.060700126
v -0.032101307 -0.078500815 -0.060700126
v -0.032101307 -0.078500815 -0.033206657
v -0.00390213 -0.078500815 -0.033206657
v -0.00390213 -0.07711427 -0.028031973
v -0.032101307 -0.07711427 -0.028031973
v -0.00390213 -0.07332614 -0.024243843
v -0.032101307 -0.07332614 -0.024243843
v -0.00390213 -0.081272066 0.023393793
v -0.00390213 -0.081272066 0.09270621
v -0.007067325 -0.081272066 0.09270621
v -0.007067325 -0.081272066 0.023393793
v -0.007067325 -0.07656338 0.0974149
v -0.00390213 -0.07656338 0.0974149
v -0.00390213 -0.0514671 0.0974149
v -0.00390213 0.012540784 0.0974149
v -0.007067325 0.012540784 0.0974149
v -0.007067325 -0.07656338 0.018685093
v -0.007067325 -0.081272066 0.023393793
v -0.007067325 -0.081272066 0.09270621
v -0.007067325 -0.07656338 0.0974149
v -0.007067325 0.012540784 0.018685093
v -0.007067325 0.012540784 0.0974149
v -0.007067325 0.017249484 0.023393793
v -0.007067325 0.017249484 0.09270621
v -0.00390213 0.017249484 0.09270621
v -0.00390213 0.017249484 0.023393793
v -0.007067325 0.017249484 0.023393793
v -0.007067325 0.017249484 0.09270621
v -0.007067325 0.017249484 0.023393793
v -0.00390213 0.017249484 0.023393793
v -0.00390213 0.012540784 0.018685093
v -0.007067325 0.012540784 0.018685093
v -0.007067325 0.012540784 0.0974149
v -0.00390213 0.012540784 0.0974149
v -0.00390213 0.017249484 0.09270621
v -0.007067325 0.017249484 0.09270621
v -0.007067325 -0.07656338 0.018685093
v -0.00390213 -0.07656338 0.018685093
v -0.00390213 -0.081272066 0.023393793
v -0.007067325 -0.081272066 0.023393793
v -0.007067325 -0.081272066 0.09270621
v -0.00390213 -0.081272066 0.09270621
v -0.00390213 -0.07656338 0.0974149
v -0.007067325 -0.07656338 0.0974149
v -0.007067325 0.012540784 0.018685093
v -0.00390213 0.012540784 0.018685093
v -0.00390213 -0.0514671 0.018685093
v -0.00390213 -0.07656338 0.018685093
v -0.007067325 -0.07656338 0.018685093
v -0.03231625 0.042879038 -0.023370055
v -0.029134436 0.042879038 -0.020758804
v -0.029134436 0.0464661 -0.020758804
v -0.03231625 0.0464661 -0.023370055
v -0.035946354 0.042879038 -0.025310384
v -0.035946354 0.0464661 -0.025310384
v -0.03988525 0.042879038 -0.026505236
v -0.03988525 0.0464661 -0.026505236
v -0.04398156 0.042879038 -0.026908688
v -0.04398156 0.0464661 -0.026908688
v -0.048077874 0.042879038 -0.026505236
v -0.048077874 0.0464661 -0.026505236
v -0.05201677 0.042879038 -0.025310388
v -0.05201677 0.0464661 -0.025310388
v -0.055646878 0.042879038 -0.023370055
v -0.055646878 0.0464661 -0.023370055
v -0.058828685 0.042879038 -0.020758804
v -0.058828685 0.0464661 -0.020758804
v -0.029134436 0.042879038 -0.020758804
v -0.02652319 0.0464661 -0.017576993
v -0.029134436 0.0464661 -0.020758804
v -0.02652319 0.042879038 -0.017576993
v -0.024582857 0.042879038 -0.013946888
v -0.024582857 0.0464661 -0.013946888
v -0.023388008 0.042879038 -0.010007994
v -0.023388008 0.0464661 -0.010007994
v -0.022984555 0.042879038 -0.0059116813
v -0.022984555 0.0464661 -0.0059116813
v -0.023388008 0.042879038 -0.0018153691
v -0.023388008 0.0464661 -0.0018153691
v -0.024582857 0.042879038 0.0021235251
v -0.024582857 0.0464661 0.0021235251
v -0.026523186 0.042879038 0.0057536312
v -0.026523186 0.0464661 0.0057536312
v -0.029134436 0.0464661 0.008935447
v -0.029134436 0.042879038 0.008935447
v -0.029134436 0.042879038 0.008935447
v -0.03231625 0.0464661 0.011546693
v -0.029134436 0.0464661 0.008935447
v -0.03231625 0.042879038 0.011546693
v -0.035946354 0.0464661 0.013487024
v -0.035946354 0.042879038 0.013487024
v -0.03988525 0.0464661 0.014681873
v -0.03988525 0.042879038 0.014681873
v -0.04398156 0.0464661 0.015085329
v -0.04398156 0.042879038 0.015085329
v -0.048077874 0.0464661 0.014681873
v -0.048077874 0.042879038 0.014681873
v -0.05201677 0.0464661 0.013487024
v -0.05201677 0.042879038 0.013487024
v -0.055646878 0.0464661 0.011546693
v -0.055646878 0.042879038 0.011546693
v -0.058828685 0.0464661 0.008935447
v -0.058828685 0.042879038 0.008935447
v -0.058828685 0.042879038 0.008935447
v -0.06143993 0.0464661 0.005753634
v -0.058828685 0.0464661 0.008935447
v -0.06143993 0.042879038 0.005753634
v -0.063380264 0.042879038 0.0021235298
v -0.063380264 0.0464661 0.0021235298
v -0.06457511 0.042879038 -0.0018153691
v -0.06457511 0.0464661 -0.0018153691
v -0.06497857 0.042879038 -0.0059116813
v -0.06497857 0.0464661 -0.0059116813
v -0.06457511 0.042879038 -0.010007996
v -0.06457511 0.0464661 -0.010007996
v -0.063380264 0.042879038 -0.013946892
v -0.063380264 0.0464661 -0.013946892
v -0.06143994 0.042879038 -0.01757699
v -0.06143994 0.0464661 -0.01757699
v -0.058828685 0.042879038 -0.020758804
v -0.058828685 0.0464661 -0.020758804
v -0.048077874 0.0464661 -0.026505236
v -0.04398156 0.0464661 -0.026908688
v -0.03988525 0.0464661 -0.026505236
v -0.05201677 0.0464661 -0.025310388
v -0.035946354 0.0464661 -0.025310384
v -0.055646878 0.0464661 -0.023370055
v -0.03231625 0.0464661 -0.023370055
v -0.058828685 0.0464661 -0.020758804
v -0.029134436 0.0464661 -0.020758804
v -0.06143994 0.0464661 -0.01757699
v -0.02652319 0.0464661 -0.017576993
v -0.024582857 0.0464661 -0.013946888
v -0.063380264 0.0464661 -0.013946892
v -0.06457511 0.0464661 -0.010007996
v -0.023388008 0.0464661 -0.010007994
v -0.06497857 0.0464661 -0.0059116813
v -0.022984555 0.0464661 -0.0059116813
v -0.06457511 0.0464661 -0.0018153691
v -0.023388008 0.0464661 -0.0018153691
v -0.063380264 0.0464661 0.0021235298
v -0.024582857 0.0464661 0.0021235251
v -0.026523186 0.0464661 0.0057536312
v -0.06143993 0.0464661 0.005753634
v -0.029134436 0.0464661 0.008935447
v -0.058828685 0.0464661 0.008935447
v -0.055646878 0.0464661 0.011546693
v -0.03231625 0.0464661 0.011546693
v -0.05201677 0.0464661 0.013487024
v -0.035946354 0.0464661 0.013487024
v -0.048077874 0.0464661 0.014681873
v -0.03988525 0.0464661 0.014681873
v -0.04398156 0.0464661 0.015085329
v -0.079579145 -0.021987451 -0.032280326
v -0.079579145 0.02929984 -0.03228033
v -0.079579145 0.02929984 0.12037803
v -0.079579145 -0.005496454 0.120372504
v -0.079579145 -0.032341495 -0.03228033
v -0.079579145 -0.032341495 0.09382746
v -0.08406099 0.02929984 -0.03228033
v -0.079579145 0.02929984 -0.03228033
v -0.079579145 -0.021987451 -0.032280326
v -0.08406099 -0.021987451 -0.032280326
v -0.079579145 -0.032341495 -0.03228033
v -0.08406099 -0.032341495 -0.03228033
v -0.08406099 -0.032341495 0.09382746
v -0.079579145 -0.005496454 0.120372504
v -0.08406099 -0.005496454 0.120372504
v -0.079579145 -0.032341495 0.09382746
v -0.08406099 -0.032341495 -0.03228033
v -0.079579145 -0.032341495 -0.03228033
v -0.077011175 0.034486916 -0.07972495
v -0.010951948 -0.0514671 -0.07972495
v -0.010951948 0.034486916 -0.07972495
v -0.077011175 -0.0514671 -0.07972495
v -0.010951948 -0.096487865 -0.07972495
v -0.077011175 -0.096487865 -0.07972495
v -0.010951948 -0.096487865 -0.0854835
v -0.010951948 -0.096487865 -0.07972495
v -0.077011175 -0.096487865 -0.07972495
v -0.077011175 -0.096487865 -0.0854835
v -0.077011175 -0.0514671 -0.0854835
v -0.077011175 0.034486916 -0.07972495
v -0.077011175 0.034486916 -0.0854835
v -0.077011175 -0.0514671 -0.07972495
v -0.077011175 -0.096487865 -0.0854835
v -0.077011175 -0.096487865 -0.07972495
v -0.086608656 0.03072169 -0.07297033
v -0.085532784 0.03072169 -0.07297033
v -0.085532784 -0.040096663 -0.07297033
v -0.086608656 -0.040096663 -0.07297033
v -0.086608656 0.032554172 -0.07478341
v -0.08303162 0.032554172 -0.07478341
v -0.08303162 0.032554172 -0.03308906
v -0.086608656 0.032554172 -0.03308906
v -0.08303162 0.032554172 -0.07478341
v -0.08303162 -0.04192915 -0.07478341
v -0.08303162 -0.04192915 -0.03308906
v -0.08303162 0.032554172 -0.03308906
v -0.08303162 -0.04192915 -0.07478341
v -0.086608656 -0.04192915 -0.07478341
v -0.086608656 -0.04192915 -0.03308906
v -0.08303162 -0.04192915 -0.03308906
v -0.086608656 0.032554172 -0.07478341
v -0.086608656 -0.04192915 -0.07478341
v -0.08303162 -0.04192915 -0.07478341
v -0.08303162 0.032554172 -0.07478341
v -0.08303162 0.032554172 -0.03308906
v -0.08303162 -0.04192915 -0.03308906
v -0.086608656 -0.04192915 -0.03308906
v -0.086608656 0.032554172 -0.03308906
v -0.085532784 -0.040096663 -0.07297033
v -0.085532784 0.03072169 -0.07297033
v -0.085532784 0.03072169 -0.034902133
v -0.085532784 -0.040096663 -0.034902133
v -0.086608656 0.03072169 -0.034902133
v -0.085532784 0.03072169 -0.034902133
v -0.085532784 0.03072169 -0.07297033
v -0.086608656 0.03072169 -0.07297033
v -0.086608656 -0.040096663 -0.07297033
v -0.085532784 -0.040096663 -0.07297033
v -0.085532784 -0.040096663 -0.034902133
v -0.086608656 -0.040096663 -0.034902133
v -0.086608656 -0.040096663 -0.034902133
v -0.085532784 -0.040096663 -0.034902133
v -0.085532784 0.03072169 -0.034902133
v -0.086608656 0.03072169 -0.034902133
v -0.0043683196 0.042019706 0.15126596
v -0.004370007 0.04202099 0.15126702
v -0.005493803 0.042879038 0.14902449
v -0.005493803 0.04232349 0.15050542
v -0.0043683196 0.0420197 -0.083387814
v -0.08246932 0.04232349 0.15050542
v -0.005493803 0.042879038 -0.083387814
v -0.004574847 0.041638996 -0.08459776
v -0.0054938006 0.0420197 -0.08486969
v -0.08246932 0.042879038 0.14902449
v -0.083593115 0.04202099 0.15126702
v -0.0835948 0.042019706 0.15126596
v -0.08246932 0.042879038 -0.083387814
v -0.08246932 0.0420197 -0.08486969
v -0.0835948 0.0420197 -0.083387814
v -0.08338827 0.041638996 -0.08459776
v -0.00390213 0.039945062 -0.083387814
v -0.004574847 0.041638996 -0.08459776
v -0.0043683196 0.039945066 -0.08486969
v -0.0043683196 0.0420197 -0.083387814
v -0.0043683196 -0.0514671 -0.08486969
v -0.00390213 0.039945062 0.14952669
v -0.00390213 -0.0514671 -0.083387814
v -0.0043683196 0.042019706 0.15126596
v -0.0043683196 -0.10194602 -0.08486969
v -0.00390213 -0.0514671 0.14951214
v -0.0043683196 -0.0514671 0.15126169
v -0.00390213 -0.10194601 0.09959736
v -0.0043683196 -0.10402065 0.09932719
v -0.00390213 -0.10194601 -0.083387814
v -0.004574847 -0.103639945 -0.08459776
v -0.0043683196 -0.10402065 -0.083387814
v -0.005493803 -0.10194601 -0.0854835
v -0.004574847 -0.103639945 -0.08459776
v -0.0043683196 -0.10194602 -0.08486969
v -0.0054938006 -0.10402065 -0.08486969
v -0.08246932 -0.10194601 -0.0854835
v -0.08246932 -0.10402065 -0.08486969
v -0.08338827 -0.103639945 -0.08459776
v -0.0043683196 -0.0514671 -0.08486969
v -0.0835948 -0.10194602 -0.08486969
v -0.005493803 -0.0514671 -0.0854835
v -0.0043683196 0.039945066 -0.08486969
v -0.005493803 0.039945062 -0.0854835
v -0.004574847 0.041638996 -0.08459776
v -0.0054938006 0.0420197 -0.08486969
v -0.08246932 0.0420197 -0.08486969
v -0.08246932 0.039945062 -0.0854835
v -0.08338827 0.041638996 -0.08459776
v -0.0835948 0.039945066 -0.08486969
v -0.0835948 -0.0514671 -0.08486969
v -0.08246932 -0.0514671 -0.0854835
v -0.077011175 -0.096487865 -0.0854835
v -0.010951948 -0.096487865 -0.0854835
v -0.077011175 -0.0514671 -0.0854835
v -0.010951948 -0.0514671 -0.0854835
v -0.077011175 0.034486916 -0.0854835
v -0.010951948 0.034486916 -0.0854835
v -0.08406099 -0.10194601 -0.083387814
v -0.08338827 -0.103639945 -0.08459776
v -0.0835948 -0.10194602 -0.08486969
v -0.0835948 -0.10402065 -0.083387814
v -0.0835948 -0.0514671 -0.08486969
v -0.08406099 -0.10194601 0.09959736
v -0.08406099 -0.0514671 -0.083387814
v -0.0835948 -0.10402065 0.09932719
v -0.0835948 0.039945066 -0.08486969
v -0.08406099 -0.0514671 0.14951214
v -0.0835948 -0.0514671 0.15126169
v -0.08406099 0.039945062 0.14952669
v -0.0835948 0.042019706 0.15126596
v -0.08406099 0.039945062 -0.083387814
v -0.08338827 0.041638996 -0.08459776
v -0.0835948 0.0420197 -0.083387814
v -0.005493803 0.042879038 0.14902449
v -0.035946354 0.042879038 0.013487024
v -0.03231625 0.042879038 0.011546693
v -0.029134436 0.042879038 0.008935447
v -0.03988525 0.042879038 0.014681873
v -0.026523186 0.042879038 0.0057536312
v -0.024582857 0.042879038 0.0021235251
v -0.023388008 0.042879038 -0.0018153691
v -0.022984555 0.042879038 -0.0059116813
v -0.04398156 0.042879038 0.015085329
v -0.023388008 0.042879038 -0.010007994
v -0.08246932 0.042879038 0.14902449
v -0.048077874 0.042879038 0.014681873
v -0.05201677 0.042879038 0.013487024
v -0.055646878 0.042879038 0.011546693
v -0.005493803 0.042879038 -0.083387814
v -0.024582857 0.042879038 -0.013946888
v -0.02652319 0.042879038 -0.017576993
v -0.029134436 0.042879038 -0.020758804
v -0.03231625 0.042879038 -0.023370055
v -0.058828685 0.042879038 0.008935447
v -0.035946354 0.042879038 -0.025310384
v -0.06143993 0.042879038 0.005753634
v -0.03988525 0.042879038 -0.026505236
v -0.063380264 0.042879038 0.0021235298
v -0.04398156 0.042879038 -0.026908688
v -0.06457511 0.042879038 -0.0018153691
v -0.06497857 0.042879038 -0.0059116813
v -0.06457511 0.042879038 -0.010007996
v -0.048077874 0.042879038 -0.026505236
v -0.05201677 0.042879038 -0.025310388
v -0.055646878 0.042879038 -0.023370055
v -0.08246932 0.042879038 -0.083387814
v -0.063380264 0.042879038 -0.013946892
v -0.058828685 0.042879038 -0.020758804
v -0.06143994 0.042879038 -0.01757699
v -0.00390213 -0.0514671 0.14951214
v -0.00390213 -0.07656338 0.0974149
v -0.00390213 -0.081272066 0.09270621
v -0.00390213 -0.0514671 0.0974149
v -0.00390213 0.012540784 0.0974149
v -0.00390213 0.039945062 0.14952669
v -0.00390213 0.017249484 0.09270621
v -0.00390213 0.039945062 -0.083387814
v -0.00390213 0.017249484 0.023393793
v -0.00390213 0.012540784 0.018685093
v -0.00390213 -0.10194601 0.09959736
v -0.00390213 -0.081272066 0.023393793
v -0.00390213 -0.078500815 -0.060700126
v -0.00390213 -0.10194601 -0.083387814
v -0.00390213 -0.078500815 -0.033206657
v -0.00390213 -0.07711427 -0.06587481
v -0.00390213 -0.07332614 -0.069662936
v -0.00390213 -0.07656338 0.018685093
v -0.00390213 -0.07711427 -0.028031973
v -0.00390213 -0.07332614 -0.024243843
v -0.00390213 -0.0514671 -0.083387814
v -0.00390213 -0.06815145 -0.07104949
v -0.00390213 -0.0514671 -0.07104949
v -0.00390213 -0.0514671 0.018685093
v -0.00390213 -0.025997462 -0.07104949
v -0.00390213 -0.06815145 -0.022857292
v -0.00390213 -0.0514671 -0.022857292
v -0.00390213 -0.025997462 -0.022857292
v -0.00390213 -0.020822782 -0.069662936
v -0.00390213 -0.017034654 -0.06587481
v -0.00390213 -0.015648099 -0.060700126
v -0.00390213 -0.015648099 -0.033206657
v -0.00390213 -0.020822782 -0.024243843
v -0.00390213 -0.017034654 -0.028031973
v -0.086608656 0.03072169 -0.034902133
v -0.086608656 0.032554172 -0.03308906
v -0.086608656 -0.04192915 -0.03308906
v -0.086608656 -0.040096663 -0.034902133
v -0.086608656 0.03072169 -0.07297033
v -0.086608656 -0.04192915 -0.07478341
v -0.086608656 0.032554172 -0.07478341
v -0.086608656 -0.040096663 -0.07297033
v -0.08406099 0.02929984 0.12037803
v -0.08406099 -0.0514671 0.14951214
v -0.08406099 -0.005496454 0.120372504
v -0.08406099 0.039945062 0.14952669
v -0.08406099 -0.10194601 0.09959736
v -0.08406099 0.02929984 -0.03228033
v -0.08406099 -0.032341495 0.09382746
v -0.08406099 0.039945062 -0.083387814
v -0.08406099 -0.10194601 -0.083387814
v -0.08406099 -0.021987451 -0.032280326
v -0.08406099 -0.032341495 -0.03228033
v -0.08406099 -0.0514671 -0.083387814
vt 0.38378906 0.7866211
vt 0.38378906 0.8671875
vt 0.40161133 0.8671875
vt 0.40161133 0.7866211
vt 0.4658203 0.9550781
vt 0.45874023 0.9399414
vt 0.44921875 0.9399414
vt 0.44921875 0.95751953
vt 0.46606445 0.95654297
vt 0.46533203 0.95751953
vt 0.46411133 0.95751953
vt 0.024551392 0.96728516
vt 0.024551392 0.94970703
vt 0.014877319 0.94970703
vt 0.0079193115 0.96435547
vt 0.007698059 0.9658203
vt 0.008323669 0.9667969
vt 0.009628296 0.96728516
vt 0.38378906 0.8823242
vt 0.38378906 0.9628906
vt 0.3935547 0.9628906
vt 0.3935547 0.8823242
vt 0.4165039 0.7866211
vt 0.4165039 0.8671875
vt 0.43188477 0.8671875
vt 0.43188477 0.7866211
vt 0.4333496 0.7866211
vt 0.4333496 0.8671875
vt 0.43432617 0.7866211
vt 0.43432617 0.8671875
vt 0.15429688 0.87841797
vt 0.1529541 0.87841797
vt 0.1529541 0.9580078
vt 0.15429688 0.9584961
vt 0.16918945 0.9580078
vt 0.16918945 0.87841797
vt 0.45458984 0.6928711
vt 0.45458984 0.6928711
vt 0.45458984 0.61083984
vt 0.45361328 0.61035156
vt 0.45361328 0.6899414
vt 0.38476562 0.61083984
vt 0.45361328 0.69189453
vt 0.45361328 0.6933594
vt 0.38476562 0.6904297
vt 0.38476562 0.69189453
vt 0.38476562 0.6933594
vt 0.38378906 0.6933594
vt 0.38378906 0.61083984
vt 0.38378906 0.6933594
vt 0.4326172 0.7675781
vt 0.43774414 0.7675781
vt 0.43774414 0.7084961
vt 0.4326172 0.7084961
vt 0.46948242 0.72753906
vt 0.47460938 0.72753906
vt 0.47460938 0.6508789
vt 0.46948242 0.6508789
vt 0.47460938 0.61035156
vt 0.46948242 0.61035156
vt 0.46801758 0.92285156
vt 0.47216797 0.92285156
vt 0.47216797 0.7866211
vt 0.46801758 0.7866211
vt 0.36791992 0.7167969
vt 0.36889648 0.7158203
vt 0.36889648 0.671875
vt 0.36889648 0.671875
vt 0.36791992 0.6694336
vt 0.36791992 0.50927734
vt 0.36889648 0.50878906
vt 0.36865234 0.5078125
vt 0.36791992 0.5078125
vt 0.2993164 0.5078125
vt 0.2993164 0.50927734
vt 0.29833984 0.5078125
vt 0.2980957 0.50878906
vt 0.2993164 0.6694336
vt 0.2980957 0.671875
vt 0.2980957 0.671875
vt 0.2993164 0.671875
vt 0.2993164 0.67333984
vt 0.2980957 0.7158203
vt 0.2993164 0.67333984
vt 0.2993164 0.7167969
vt 0.36791992 0.67333984
vt 0.2993164 0.671875
vt 0.36791992 0.671875
vt 0.36791992 0.67089844
vt 0.36791992 0.671875
vt 0.2993164 0.6694336
vt 0.36791992 0.6694336
vt 0.36791992 0.50927734
vt 0.2993164 0.50927734
vt 0.33447266 0.98535156
vt 0.3383789 0.98535156
vt 0.3383789 0.95410156
vt 0.33447266 0.95410156
vt 0.082214355 0.9199219
vt 0.08685303 0.9213867
vt 0.11138916 0.9213867
vt 0.11602783 0.9199219
vt 0.07885742 0.9165039
vt 0.119384766 0.9165039
vt 0.07763672 0.9121094
vt 0.12060547 0.9121094
vt 0.07763672 0.8745117
vt 0.12060547 0.8745117
vt 0.07885742 0.8696289
vt 0.119384766 0.8696289
vt 0.082214355 0.86621094
vt 0.11602783 0.86621094
vt 0.08685303 0.8652344
vt 0.11138916 0.8652344
vt 0.03289795 0.88427734
vt 0.0077438354 0.88427734
vt 0.007724762 0.8886719
vt 0.03289795 0.8886719
vt 0.007709503 0.9111328
vt 0.007698059 0.92626953
vt 0.03286743 0.92578125
vt 0.007709503 0.93066406
vt 0.03286743 0.93066406
vt 0.0077438354 0.9345703
vt 0.03289795 0.9345703
vt 0.18408203 0.93408203
vt 0.20922852 0.93066406
vt 0.18408203 0.93066406
vt 0.20922852 0.93408203
vt 0.18408203 0.93847656
vt 0.20922852 0.93847656
vt 0.20922852 0.9628906
vt 0.18408203 0.9628906
vt 0.18408203 0.96777344
vt 0.20922852 0.96777344
vt 0.18408203 0.9711914
vt 0.20922852 0.9711914
vt 0.26342773 0.93847656
vt 0.23840332 0.9428711
vt 0.26342773 0.9428711
vt 0.23828125 0.93847656
vt 0.26342773 0.9008789
vt 0.23828125 0.91552734
vt 0.23828125 0.9008789
vt 0.26342773 0.8959961
vt 0.23840332 0.8959961
vt 0.1027832 0.93603516
vt 0.07763672 0.93603516
vt 0.07763672 0.9404297
vt 0.1027832 0.9404297
vt 0.1027832 0.96484375
vt 0.07763672 0.96484375
vt 0.07763672 0.9692383
vt 0.1027832 0.9692383
vt 0.07763672 0.97314453
vt 0.1027832 0.97314453
vt 0.48950195 0.61035156
vt 0.48950195 0.6713867
vt 0.4921875 0.6713867
vt 0.4921875 0.61035156
vt 0.047821045 0.9638672
vt 0.050628662 0.9638672
vt 0.050628662 0.94140625
vt 0.050628662 0.88427734
vt 0.047821045 0.88427734
vt 0.38378906 0.5913086
vt 0.38793945 0.5957031
vt 0.44995117 0.5957031
vt 0.45410156 0.5913086
vt 0.38378906 0.51171875
vt 0.45410156 0.51171875
vt 0.38793945 0.5078125
vt 0.44995117 0.5078125
vt 0.28125 0.96191406
vt 0.28125 0.89990234
vt 0.2783203 0.89990234
vt 0.2783203 0.96191406
vt 0.2783203 0.89990234
vt 0.28125 0.89990234
vt 0.28125 0.8959961
vt 0.2783203 0.8959961
vt 0.2783203 0.9663086
vt 0.28125 0.9663086
vt 0.28125 0.96191406
vt 0.2783203 0.96191406
vt 0.4194336 0.9609375
vt 0.4165039 0.9609375
vt 0.4165039 0.9658203
vt 0.4194336 0.9658203
vt 0.4921875 0.6713867
vt 0.48950195 0.6713867
vt 0.48950195 0.67626953
vt 0.4921875 0.67626953
vt 0.4194336 0.8823242
vt 0.4165039 0.8823242
vt 0.4165039 0.93847656
vt 0.4165039 0.9609375
vt 0.4194336 0.9609375
vt 0.48754883 0.7675781
vt 0.48754883 0.7709961
vt 0.49072266 0.7709961
vt 0.49072266 0.7675781
vt 0.48754883 0.76464844
vt 0.49072266 0.76464844
vt 0.48754883 0.7607422
vt 0.49072266 0.7607422
vt 0.48754883 0.7573242
vt 0.49072266 0.7573242
vt 0.48754883 0.75341797
vt 0.49072266 0.75341797
vt 0.48754883 0.75
vt 0.49072266 0.75
vt 0.48754883 0.7470703
vt 0.49072266 0.7470703
vt 0.48754883 0.7446289
vt 0.49072266 0.7446289
vt 0.24157715 0.984375
vt 0.23828125 0.9814453
vt 0.23840332 0.984375
vt 0.24157715 0.9814453
vt 0.24157715 0.97802734
vt 0.23828125 0.97802734
vt 0.24145508 0.9746094
vt 0.23828125 0.9746094
vt 0.24145508 0.9707031
vt 0.23828125 0.9707031
vt 0.24145508 0.96728516
vt 0.23828125 0.96728516
vt 0.24157715 0.9638672
vt 0.23828125 0.9638672
vt 0.24157715 0.9604492
vt 0.23828125 0.9604492
vt 0.23840332 0.9580078
vt 0.24157715 0.9580078
vt 0.46948242 0.7446289
vt 0.47216797 0.7470703
vt 0.47265625 0.7446289
vt 0.46899414 0.7470703
vt 0.47192383 0.7504883
vt 0.46875 0.7504883
vt 0.47192383 0.75390625
vt 0.46875 0.75390625
vt 0.4716797 0.7578125
vt 0.46850586 0.7578125
vt 0.47192383 0.76123047
vt 0.46875 0.76123047
vt 0.47192383 0.7651367
vt 0.46875 0.7651367
vt 0.47216797 0.7680664
vt 0.46899414 0.7680664
vt 0.47265625 0.7709961
vt 0.46948242 0.7709961
vt 0.25976562 0.984375
vt 0.2565918 0.9814453
vt 0.2565918 0.984375
vt 0.25976562 0.9814453
vt 0.25976562 0.9785156
vt 0.2565918 0.9785156
vt 0.25976562 0.97509766
vt 0.2565918 0.97509766
vt 0.25976562 0.9711914
vt 0.25634766 0.9711914
vt 0.25976562 0.96777344
vt 0.2565918 0.96777344
vt 0.25976562 0.9638672
vt 0.2565918 0.9638672
vt 0.25976562 0.9609375
vt 0.2565918 0.9609375
vt 0.25976562 0.9580078
vt 0.2565918 0.9580078
vt 0.18481445 0.89160156
vt 0.18408203 0.8955078
vt 0.18408203 0.8989258
vt 0.18615723 0.8881836
vt 0.18481445 0.90283203
vt 0.18823242 0.8852539
vt 0.18615723 0.90625
vt 0.1907959 0.8828125
vt 0.18823242 0.9091797
vt 0.19372559 0.8808594
vt 0.1907959 0.9116211
vt 0.19372559 0.9135742
vt 0.19714355 0.87939453
vt 0.2006836 0.87841797
vt 0.19714355 0.91503906
vt 0.20422363 0.87841797
vt 0.2006836 0.9160156
vt 0.20776367 0.87939453
vt 0.20422363 0.9160156
vt 0.21118164 0.8808594
vt 0.20776367 0.91503906
vt 0.21118164 0.9135742
vt 0.21411133 0.8828125
vt 0.21411133 0.9116211
vt 0.2166748 0.8852539
vt 0.21875 0.8881836
vt 0.2166748 0.9091797
vt 0.22009277 0.89160156
vt 0.21875 0.9057617
vt 0.2208252 0.8955078
vt 0.22009277 0.90283203
vt 0.2208252 0.8989258
vt 0.016937256 0.8696289
vt 0.062683105 0.8696289
vt 0.062683105 0.73339844
vt 0.03164673 0.73339844
vt 0.007698059 0.8696289
vt 0.007698059 0.75683594
vt 0.11767578 0.99072266
vt 0.1217041 0.99072266
vt 0.1217041 0.9453125
vt 0.11767578 0.9453125
vt 0.1217041 0.93603516
vt 0.11767578 0.93603516
vt 0.453125 0.89746094
vt 0.44921875 0.9248047
vt 0.453125 0.9248047
vt 0.44921875 0.89746094
vt 0.453125 0.7866211
vt 0.44921875 0.7866211
vt 0.07763672 0.73339844
vt 0.13635254 0.8100586
vt 0.13635254 0.73339844
vt 0.07763672 0.8100586
vt 0.13635254 0.85009766
vt 0.07763672 0.85009766
vt 0.46899414 0.56689453
vt 0.4741211 0.56689453
vt 0.4741211 0.5078125
vt 0.46899414 0.5078125
vt 0.4921875 0.82666016
vt 0.48706055 0.9033203
vt 0.4921875 0.9033203
vt 0.48706055 0.82666016
vt 0.4921875 0.7866211
vt 0.48706055 0.7866211
vt 0.45361328 0.7084961
vt 0.45263672 0.7084961
vt 0.45263672 0.7709961
vt 0.45361328 0.7709961
vt 0.31958008 0.95410156
vt 0.31640625 0.95410156
vt 0.31640625 0.99072266
vt 0.31958008 0.99072266
vt 0.23828125 0.8144531
vt 0.23828125 0.88134766
vt 0.27539062 0.88134766
vt 0.27539062 0.8149414
vt 0.30126953 0.95410156
vt 0.2980957 0.95410156
vt 0.2980957 0.99121094
vt 0.30126953 0.99121094
vt 0.48706055 0.91845703
vt 0.48706055 0.9848633
vt 0.49023438 0.9848633
vt 0.49023438 0.91845703
vt 0.48901367 0.5078125
vt 0.48901367 0.5732422
vt 0.4921875 0.5732422
vt 0.4921875 0.5078125
vt 0.4177246 0.7714844
vt 0.4177246 0.7084961
vt 0.38378906 0.7084961
vt 0.38378906 0.7714844
vt 0.35327148 0.98779297
vt 0.35424805 0.98779297
vt 0.35424805 0.95410156
vt 0.35327148 0.95410156
vt 0.13806152 0.95654297
vt 0.13708496 0.95654297
vt 0.13708496 0.9902344
vt 0.13806152 0.9902344
vt 0.13708496 0.94189453
vt 0.13806152 0.94189453
vt 0.13806152 0.87841797
vt 0.13708496 0.87841797
vt 0.2980957 0.93896484
vt 0.2980957 0.93896484
vt 0.2993164 0.9375
vt 0.2993164 0.93847656
vt 0.2980957 0.73291016
vt 0.36791992 0.93847656
vt 0.2993164 0.73291016
vt 0.29833984 0.7319336
vt 0.2993164 0.7314453
vt 0.36791992 0.9375
vt 0.36889648 0.93896484
vt 0.36889648 0.93896484
vt 0.36791992 0.73291016
vt 0.36791992 0.7314453
vt 0.36889648 0.73291016
vt 0.36865234 0.7319336
vt 0.15478516 0.71728516
vt 0.15332031 0.7182617
vt 0.15478516 0.7182617
vt 0.1529541 0.71728516
vt 0.23632812 0.7182617
vt 0.15478516 0.50927734
vt 0.23632812 0.7167969
vt 0.1529541 0.5078125
vt 0.28149414 0.7182617
vt 0.23632812 0.50927734
vt 0.23632812 0.5078125
vt 0.28149414 0.55371094
vt 0.28320312 0.5541992
vt 0.28149414 0.7167969
vt 0.28295898 0.7182617
vt 0.28320312 0.7167969
vt 0.22229004 0.8618164
vt 0.2232666 0.86328125
vt 0.22338867 0.8618164
vt 0.22241211 0.86376953
vt 0.15393066 0.8618164
vt 0.15393066 0.86376953
vt 0.15319824 0.86328125
vt 0.22338867 0.81689453
vt 0.1529541 0.8618164
vt 0.22229004 0.81689453
vt 0.22338867 0.73535156
vt 0.22229004 0.73535156
vt 0.2232666 0.73339844
vt 0.22241211 0.73339844
vt 0.15393066 0.73339844
vt 0.15393066 0.73535156
vt 0.15319824 0.73339844
vt 0.1529541 0.73535156
vt 0.1529541 0.81689453
vt 0.15393066 0.81689453
vt 0.15881348 0.8569336
vt 0.2175293 0.8569336
vt 0.15881348 0.81689453
vt 0.2175293 0.81689453
vt 0.15881348 0.7402344
vt 0.2175293 0.7402344
vt 0.13623047 0.50927734
vt 0.13769531 0.5078125
vt 0.13623047 0.5078125
vt 0.13806152 0.50927734
vt 0.09112549 0.5078125
vt 0.13623047 0.6723633
vt 0.09112549 0.50927734
vt 0.13806152 0.671875
vt 0.009552002 0.5078125
vt 0.09112549 0.7167969
vt 0.09112549 0.7182617
vt 0.009544373 0.7167969
vt 0.007698059 0.7182617
vt 0.009544373 0.50878906
vt 0.008041382 0.5078125
vt 0.007698059 0.50878906
vt 0.2993164 0.9375
vt 0.32641602 0.8183594
vt 0.3232422 0.81640625
vt 0.3203125 0.81396484
vt 0.32983398 0.81933594
vt 0.3178711 0.81152344
vt 0.3161621 0.80810547
vt 0.31518555 0.8046875
vt 0.31469727 0.80126953
vt 0.3334961 0.8198242
vt 0.31518555 0.7973633
vt 0.36791992 0.9375
vt 0.3371582 0.81933594
vt 0.3408203 0.8183594
vt 0.34399414 0.81640625
vt 0.2993164 0.73291016
vt 0.3161621 0.7939453
vt 0.3178711 0.7910156
vt 0.3203125 0.78808594
vt 0.3232422 0.78564453
vt 0.34692383 0.81396484
vt 0.32641602 0.7841797
vt 0.3491211 0.81152344
vt 0.32983398 0.7832031
vt 0.35083008 0.80810547
vt 0.3334961 0.78271484
vt 0.35205078 0.8046875
vt 0.35229492 0.80126953
vt 0.35205078 0.7973633
vt 0.3371582 0.7832031
vt 0.3408203 0.7841797
vt 0.34399414 0.78564453
vt 0.36791992 0.73291016
vt 0.35083008 0.7939453
vt 0.34692383 0.78808594
vt 0.3491211 0.7910156
vt 0.23632812 0.50927734
vt 0.25878906 0.55566406
vt 0.26293945 0.5600586
vt 0.23632812 0.55566406
vt 0.17919922 0.55566406
vt 0.15478516 0.50927734
vt 0.17504883 0.5600586
vt 0.15478516 0.71728516
vt 0.17504883 0.62158203
vt 0.17919922 0.62597656
vt 0.28149414 0.55371094
vt 0.26293945 0.62158203
vt 0.26049805 0.69677734
vt 0.28149414 0.7167969
vt 0.26049805 0.6723633
vt 0.25927734 0.7011719
vt 0.25585938 0.70458984
vt 0.25878906 0.62597656
vt 0.25927734 0.66748047
vt 0.25585938 0.6640625
vt 0.23632812 0.7167969
vt 0.2512207 0.7060547
vt 0.23632812 0.7060547
vt 0.23632812 0.62597656
vt 0.21362305 0.7060547
vt 0.2512207 0.66308594
vt 0.23632812 0.66308594
vt 0.21362305 0.66308594
vt 0.20898438 0.70458984
vt 0.20568848 0.70166016
vt 0.20446777 0.69677734
vt 0.20446777 0.6723633
vt 0.20898438 0.6640625
vt 0.20568848 0.66748047
vt 0.23986816 0.7348633
vt 0.23828125 0.73339844
vt 0.23828125 0.7998047
vt 0.23986816 0.79833984
vt 0.27392578 0.7348633
vt 0.27539062 0.7998047
vt 0.27539062 0.73339844
vt 0.27392578 0.79833984
vt 0.019042969 0.69091797
vt 0.09112549 0.7167969
vt 0.050109863 0.69091797
vt 0.009544373 0.7167969
vt 0.13623047 0.6723633
vt 0.019042969 0.5546875
vt 0.074035645 0.6669922
vt 0.009544373 0.50878906
vt 0.13623047 0.50927734
vt 0.064819336 0.5546875
vt 0.074035645 0.5546875
vt 0.09112549 0.50927734
vn -1 0 0
vn -1 0 0
vn -1 0 0
vn -1 0 0
vn -0 -1 0
vn -0 -1 0
vn -0 -1 0
vn -0 -1 0
vn -0 -1 0
vn -0 -1 0
vn -0 -1 0
vn -0 1 0
vn -0 1 0
vn -0 1 0
vn -0 1 0
vn -0 1 0
vn -0 1 0
vn -0 1 0
vn -0 0 -1
vn -0 0 -1
vn -0 0 -1
vn -0 0 -1
vn 0.9091797 0 -0.4169922
vn 0.9091797 0 -0.4169922
vn 0.95654297 0 -0.2919922
vn 0.95654297 0 -0.2919922
vn 0.9794922 0 0.20263672
vn 0.9794922 0 0.20263672
vn 0.59228516 0 0.80566406
vn 0.59228516 0 0.80566406
vn 0.13342285 0 0.99121094
vn 0.59228516 0 0.80566406
vn 0.59228516 0 0.80566406
vn 0.13342285 0 0.99121094
vn -0 0 1
vn -0 0 1
vn 0.33374023 0.64746094 0.6850586
vn 0.8261719 0.37939453 0.41601562
vn 0.7480469 -0.27441406 0.6040039
vn 0.25390625 -0.35083008 0.9013672
vn 0.2541504 0.0597229 0.96533203
vn -0.25390625 -0.35083008 0.9013672
vn -0.01701355 0.3400879 0.9404297
vn -0.058654785 0.8261719 0.5600586
vn -0.2541504 0.0597229 0.96533203
vn 0.01701355 0.3400879 0.9404297
vn 0.058654785 0.8261719 0.5600586
vn -0.3334961 0.6479492 0.6850586
vn -0.7480469 -0.27441406 0.6040039
vn -0.8261719 0.37939453 0.41625977
vn -0 -1 0
vn -0 -1 0
vn -0 -1 0
vn -0 -1 0
vn -1 0 0
vn -1 0 0
vn -1 0 0
vn -1 0 0
vn -1 0 0
vn -1 0 0
vn -0 -1 0
vn -0 -1 0
vn -0 -1 0
vn -0 -1 0
vn 0.25390625 -0.35083008 0.9013672
vn 0.7480469 -0.27441406 0.6040039
vn 0.76708984 -0.5751953 0.28466797
vn 0.41186523 -0.8388672 0.35546875
vn 0.28955078 -0.95410156 0.074645996
vn 0.38916016 -0.8671875 -0.3112793
vn 0.81640625 -0.55029297 -0.17529297
vn 0.7011719 -0.4267578 -0.57128906
vn 0.2487793 -0.61035156 -0.7519531
vn -0.2487793 -0.61035156 -0.7519531
vn -0.38916016 -0.8671875 -0.3112793
vn -0.7011719 -0.4267578 -0.57128906
vn -0.81640625 -0.55029297 -0.17529297
vn -0.28955078 -0.95410156 0.074645996
vn -0.76708984 -0.57470703 0.2841797
vn -0.41186523 -0.8388672 0.3557129
vn -0.08959961 -0.92626953 0.36645508
vn -0.18457031 -0.74365234 0.6425781
vn -0.7480469 -0.27441406 0.6040039
vn -0.18457031 -0.74365234 0.6425781
vn -0.25390625 -0.35083008 0.9013672
vn 0.18457031 -0.74365234 0.6425781
vn -0.08959961 -0.92626953 0.36645508
vn 0.08959961 -0.92626953 0.36645508
vn 0.28955078 -0.95410156 0.074645996
vn 0.08959961 -0.92626953 0.36645508
vn -0.28955078 -0.95410156 0.074645996
vn 0.28955078 -0.95410156 0.074645996
vn -0 -1 0
vn -0 -1 0
vn -0 0.38012695 -0.9248047
vn -0 0.38012695 -0.9248047
vn -0 0.00015890598 -1
vn -0 0.00015890598 -1
vn 1 0 0
vn 1 0 0
vn 1 0 0
vn 1 0 0
vn 1 0 0
vn 1 0 0
vn 1 0 0
vn 1 0 0
vn 1 0 0
vn 1 0 0
vn 1 0 0
vn 1 0 0
vn 1 0 0
vn 1 0 0
vn 1 0 0
vn 1 0 0
vn -0 -0.5 0.86621094
vn -0 -0.5 0.86621094
vn -0 -0.13049316 0.99121094
vn -0 -0.13049316 0.99121094
vn -1.7881393E-07 0 1
vn -0 0.13049316 0.99121094
vn -0 0.13049316 0.99121094
vn -0 0.5 0.86621094
vn -0 0.5 0.86621094
vn -0 0.86621094 0.5
vn -0 0.86621094 0.5
vn -0 -0.86621094 0.5
vn -0 -0.5 0.86621094
vn -0 -0.5 0.86621094
vn -0 -0.86621094 0.5
vn -0 -0.99121094 0.13049316
vn -0 -0.99121094 0.13049316
vn -0 -0.99121094 -0.13049316
vn -0 -0.99121094 -0.13049316
vn -0 -0.86621094 -0.5
vn -0 -0.86621094 -0.5
vn -0 -0.5 -0.86621094
vn -0 -0.5 -0.86621094
vn -0 -0.13049316 -0.99121094
vn -0 -0.5 -0.86621094
vn -0 -0.5 -0.86621094
vn -0 -0.13049316 -0.99121094
vn -0 0.13049316 -0.99121094
vn -0 0 -1
vn -0 0.13049316 -0.99121094
vn -0 0.5 -0.86621094
vn -0 0.5 -0.86621094
vn -0 0.86621094 0.5
vn -0 0.86621094 0.5
vn -0 0.99121094 0.13049316
vn -0 0.99121094 0.13049316
vn -0 0.99121094 -0.13049316
vn -0 0.99121094 -0.13049316
vn -0 0.86621094 -0.5
vn -0 0.86621094 -0.5
vn -0 0.5 -0.86621094
vn -0 0.5 -0.86621094
vn -0 1 0
vn -0 1 0
vn -0 1 0
vn -0 1 0
vn -0 0 -1
vn -0 0 -1
vn -0 0 -1
vn -0 0 -1
vn -0 0 -1
vn 1 0 0
vn 1 0 0
vn 1 0 0
vn 1 0 0
vn 1 0 0
vn 1 0 0
vn 1 0 0
vn 1 0 0
vn -0 -1 0
vn -0 -1 0
vn -0 -1 0
vn -0 -1 0
vn -0 -0.70703125 0.70703125
vn -0 -0.70703125 0.70703125
vn -0 -0.70703125 0.70703125
vn -0 -0.70703125 0.70703125
vn -0 -0.70703125 -0.70703125
vn -0 -0.70703125 -0.70703125
vn -0 -0.70703125 -0.70703125
vn -0 -0.70703125 -0.70703125
vn -0 0.70703125 0.70703125
vn -0 0.70703125 0.70703125
vn -0 0.70703125 0.70703125
vn -0 0.70703125 0.70703125
vn -0 0.70703125 -0.70703125
vn -0 0.70703125 -0.70703125
vn -0 0.70703125 -0.70703125
vn -0 0.70703125 -0.70703125
vn 1.7881393E-07 0 1
vn 1.7881393E-07 0 1
vn 1.7881393E-07 0 1
vn 1.7881393E-07 0 1
vn 1.7881393E-07 0 1
vn 0.55566406 0 -0.83154297
vn 0.70703125 0 -0.70703125
vn 0.70703125 0 -0.70703125
vn 0.55566406 0 -0.83154297
vn 0.38256836 0 -0.9238281
vn 0.38256836 0 -0.9238281
vn 0.19506836 0 -0.98095703
vn 0.19506836 0 -0.98095703
vn -0 0 -1
vn -0 0 -1
vn -0.19506836 0 -0.98095703
vn -0.19506836 0 -0.98095703
vn -0.38256836 0 -0.9238281
vn -0.38256836 0 -0.9238281
vn -0.55566406 0 -0.83154297
vn -0.55566406 0 -0.83154297
vn -0.70703125 0 -0.70703125
vn -0.70703125 0 -0.70703125
vn 0.70703125 0 -0.70703125
vn 0.83154297 0 -0.55566406
vn 0.70703125 0 -0.70703125
vn 0.83154297 0 -0.55566406
vn 0.9238281 0 -0.38256836
vn 0.9238281 0 -0.38256836
vn 0.98095703 0 -0.19506836
vn 0.98095703 0 -0.19506836
vn 1 0 0
vn 1 0 0
vn 0.98095703 0 0.19506836
vn 0.98095703 0 0.19506836
vn 0.9238281 0 0.38256836
vn 0.9238281 0 0.38256836
vn 0.83154297 0 0.55566406
vn 0.83154297 0 0.55566406
vn 0.70703125 0 0.70703125
vn 0.70703125 0 0.70703125
vn 0.70703125 0 0.70703125
vn 0.55566406 0 0.83154297
vn 0.70703125 0 0.70703125
vn 0.55566406 0 0.83154297
vn 0.38256836 0 0.9238281
vn 0.38256836 0 0.9238281
vn 0.19506836 0 0.98095703
vn 0.19506836 0 0.98095703
vn -0 0 1
vn -0 0 1
vn -0.19506836 0 0.98095703
vn -0.19506836 0 0.98095703
vn -0.38256836 0 0.9238281
vn -0.38256836 0 0.9238281
vn -0.55566406 0 0.83154297
vn -0.55566406 0 0.83154297
vn -0.70703125 0 0.70703125
vn -0.70703125 0 0.70703125
vn -0.70703125 0 0.70703125
vn -0.83154297 0 0.55566406
vn -0.70703125 0 0.70703125
vn -0.83154297 0 0.55566406
vn -0.9238281 0 0.38256836
vn -0.9238281 0 0.38256836
vn -0.98095703 0 0.19506836
vn -0.98095703 0 0.19506836
vn -1 0 0
vn -1 0 0
vn -0.98095703 0 -0.19506836
vn -0.98095703 0 -0.19506836
vn -0.9238281 0 -0.38256836
vn -0.9238281 0 -0.38256836
vn -0.83154297 0 -0.55566406
vn -0.83154297 0 -0.55566406
vn -0.70703125 0 -0.70703125
vn -0.70703125 0 -0.70703125
vn -0 1 0
vn -0 1 0
vn -0 1 0
vn -0 1 0
vn -0 1 0
vn -0 1 0
vn -0 1 0
vn -0 1 0
vn -0 1 0
vn -0 1 0
vn -0 1 0
vn -0 1 0
vn -0 1 0
vn -0 1 0
vn -0 1 0
vn -0 1 0
vn -0 1 0
vn -0 1 0
vn -0 1 0
vn -0 1 0
vn -0 1 0
vn -0 1 0
vn -0 1 0
vn -0 1 0
vn -0 1 0
vn -0 1 0
vn -0 1 0
vn -0 1 0
vn -0 1 0
vn -0 1 0
vn -0 1 0
vn -0 1 0
vn -1 0 0
vn -1 0 0
vn -1 0 0
vn -1 0 0
vn -1 0 0
vn -1 0 0
vn -0 0 1
vn -0 0 1
vn -0 -1.7881393E-07 1
vn -0 -1.7881393E-07 1
vn -0 -4.7683716E-07 1
vn -0 -4.7683716E-07 1
vn -0 0.92285156 -0.3852539
vn -0 0.38012695 -0.9248047
vn -0 0.38012695 -0.9248047
vn -0 0.92285156 -0.3852539
vn -0 1 0
vn -0 1 0
vn -0 0 -1
vn -0 0 -1
vn -0 0 -1
vn -0 0 -1
vn -0 0 -1
vn -0 0 -1
vn -0 1 0
vn -0 1 0
vn -0 1 0
vn -0 1 0
vn 1 0 0
vn 1 0 0
vn 1 0 0
vn 1 0 0
vn 1 0 0
vn 1 0 0
vn -0 0 1
vn -0 0 1
vn -0 0 1
vn -0 0 1
vn -0 1 0
vn -0 1 0
vn -0 1 0
vn -0 1 0
vn 1 0 0
vn 1 0 0
vn 1 0 0
vn 1 0 0
vn -0 -1 0
vn -0 -1 0
vn -0 -1 0
vn -0 -1 0
vn -0 0 -1
vn -0 0 -1
vn -0 0 -1
vn -0 0 -1
vn -0 0 1
vn -0 0 1
vn -0 0 1
vn -0 0 1
vn -1 0 0
vn -1 0 0
vn -1 0 0
vn -1 0 0
vn -0 -1 0
vn -0 -1 0
vn -0 -1 0
vn -0 -1 0
vn -0 1 0
vn -0 1 0
vn -0 1 0
vn -0 1 0
vn -0 0 -1
vn -0 0 -1
vn -0 0 -1
vn -0 0 -1
vn 0.8261719 0.37939453 0.41601562
vn 0.33374023 0.64746094 0.6850586
vn 0.36621094 0.9160156 0.16442871
vn -0.058654785 0.8261719 0.5600586
vn 0.81640625 0.55029297 -0.17529297
vn 0.058654785 0.8261719 0.5600586
vn 0.38916016 0.8671875 -0.3112793
vn 0.7011719 0.4267578 -0.57128906
vn 0.2487793 0.61035156 -0.7519531
vn -0.36621094 0.9160156 0.16442871
vn -0.3334961 0.6479492 0.6850586
vn -0.8261719 0.37939453 0.41625977
vn -0.38916016 0.8671875 -0.3112793
vn -0.2487793 0.61035156 -0.7519531
vn -0.81640625 0.55029297 -0.17529297
vn -0.7011719 0.4267578 -0.57128906
vn 0.97216797 0.13684082 -0.18933105
vn 0.7011719 0.4267578 -0.57128906
vn 0.76171875 0.111572266 -0.6381836
vn 0.81640625 0.55029297 -0.17529297
vn 0.77246094 0 -0.6352539
vn 0.9848633 0.107177734 0.13574219
vn 0.95410156 0 -0.30004883
vn 0.8261719 0.37939453 0.41601562
vn 0.76171875 -0.111572266 -0.6381836
vn 0.9560547 -0.14697266 0.2536621
vn 0.7480469 -0.27441406 0.6040039
vn 0.9584961 -0.23706055 0.15722656
vn 0.76708984 -0.5751953 0.28466797
vn 0.97216797 -0.13684082 -0.18933105
vn 0.7011719 -0.4267578 -0.57128906
vn 0.81640625 -0.55029297 -0.17529297
vn 0.22924805 -0.1307373 -0.96435547
vn 0.7011719 -0.4267578 -0.57128906
vn 0.76171875 -0.111572266 -0.6381836
vn 0.2487793 -0.61035156 -0.7519531
vn -0.22924805 -0.1307373 -0.96435547
vn -0.2487793 -0.61035156 -0.7519531
vn -0.7011719 -0.4267578 -0.57128906
vn 0.77246094 0 -0.6352539
vn -0.76171875 -0.111572266 -0.6381836
vn 0.24707031 0 -0.9692383
vn 0.76171875 0.111572266 -0.6381836
vn 0.22924805 0.1307373 -0.96435547
vn 0.7011719 0.4267578 -0.57128906
vn 0.2487793 0.61035156 -0.7519531
vn -0.2487793 0.61035156 -0.7519531
vn -0.22924805 0.1307373 -0.96435547
vn -0.7011719 0.4267578 -0.57128906
vn -0.76171875 0.111572266 -0.6381836
vn -0.77246094 0 -0.6352539
vn -0.24707031 0 -0.9692383
vn -0 0 -1
vn -0 0 -1
vn -7.748604E-07 0 -1
vn 7.748604E-07 0 -1
vn -7.748604E-07 0 -1
vn 7.748604E-07 0 -1
vn -0.97216797 -0.13684082 -0.18933105
vn -0.7011719 -0.4267578 -0.57128906
vn -0.76171875 -0.111572266 -0.6381836
vn -0.81640625 -0.55029297 -0.17529297
vn -0.77246094 0 -0.6352539
vn -0.9584961 -0.23706055 0.15722656
vn -0.95410156 0 -0.30004883
vn -0.76708984 -0.57470703 0.2841797
vn -0.76171875 0.111572266 -0.6381836
vn -0.9560547 -0.14697266 0.2536621
vn -0.7480469 -0.27441406 0.6040039
vn -0.9848633 0.107177734 0.13574219
vn -0.8261719 0.37939453 0.41625977
vn -0.97216797 0.13684082 -0.18933105
vn -0.7011719 0.4267578 -0.57128906
vn -0.81640625 0.55029297 -0.17529297
vn -0 1 0
vn -0 1 0
vn -0 1 0
vn -0 1 0
vn -0 1 0
vn -0 1 0
vn -0 1 0
vn -0 1 0
vn -0 1 0
vn -0 1 0
vn -0 1 0
vn -0 1 0
vn -0 1 0
vn -0 1 0
vn -0 1 0
vn -0 1 0
vn -0 1 0
vn -0 1 0
vn -0 1 0
vn -0 1 0
vn -0 1 0
vn -0 1 0
vn -0 1 0
vn -0 1 0
vn -0 1 0
vn -0 1 0
vn -0 1 0
vn -0 1 0
vn -0 1 0
vn -0 1 0
vn -0 1 0
vn -0 1 0
vn -0 1 0
vn -0 1 0
vn -0 1 0
vn -0 1 0
vn 1 0 0
vn 1 0 0
vn 1 0 0
vn 1 0 0
vn 1 0 0
vn 1 0 0
vn 1 0 0
vn 1 0 0
vn 1 0 0
vn 1 0 0
vn 1 0 0
vn 1 0 0
vn 1 0 0
vn 1 0 0
vn 1 0 0
vn 1 0 0
vn 1 0 0
vn 1 0 0
vn 1 0 0
vn 1 0 0
vn 1 0 0
vn 1 0 0
vn 1 0 0
vn 1 0 0
vn 1 0 0
vn 1 0 0
vn 1 0 0
vn 1 0 0
vn 1 0 0
vn 1 0 0
vn 1 0 0
vn 1 0 0
vn 1 0 0
vn 1 0 0
vn -1 0 0
vn -1 0 0
vn -1 0 0
vn -1 0 0
vn -1 0 0
vn -1 0 0
vn -1 0 0
vn -1 0 0
vn -1 0 0
vn -1 -1.1920929E-07 0
vn -1 0 0
vn -1 0 0
vn -1 0 0
vn -1 0 0
vn -1 0 0
vn -1 0 0
vn -1 0 0
vn -1 0 0
vn -1 0 0
vn -1 0 0
g Machine_0
f 3/3/3 2/2/2 1/1/1
f 4/4/4 3/3/3 1/1/1
f 7/7/7 6/6/6 5/5/5
f 5/5/5 8/8/8 7/7/7
f 5/5/5 9/9/9 8/8/8
f 9/9/9 10/10/10 8/8/8
f 10/10/10 11/11/11 8/8/8
f 14/14/14 13/13/13 12/12/12
f 12/12/12 15/15/15 14/14/14
f 12/12/12 16/16/16 15/15/15
f 12/12/12 17/17/17 16/16/16
f 12/12/12 18/18/18 17/17/17
f 21/21/21 20/20/20 19/19/19
f 22/22/22 21/21/21 19/19/19
f 25/25/25 24/24/24 23/23/23
f 26/26/26 25/25/25 23/23/23
f 25/25/25 26/26/26 27/27/27
f 28/28/28 25/25/25 27/27/27
f 28/28/28 27/27/27 29/29/29
f 30/30/30 28/28/28 29/29/29
f 33/33/33 32/32/32 31/31/31
f 34/34/34 33/33/33 31/31/31
f 35/35/35 34/34/34 31/31/31
f 36/36/36 35/35/35 31/31/31
f 39/39/39 38/38/38 37/37/37
f 37/37/37 40/40/40 39/39/39
f 37/37/37 41/41/41 40/40/40
f 42/42/42 40/40/40 41/41/41
f 41/41/41 37/37/37 43/43/43
f 43/43/43 37/37/37 44/44/44
f 45/45/45 42/42/42 41/41/41
f 41/41/41 43/43/43 45/45/45
f 43/43/43 44/44/44 46/46/46
f 43/43/43 46/46/46 45/45/45
f 44/44/44 47/47/47 46/46/46
f 47/47/47 48/48/48 46/46/46
f 46/46/46 48/48/48 45/45/45
f 42/42/42 45/45/45 48/48/48
f 48/48/48 49/49/49 42/42/42
f 48/48/48 50/50/50 49/49/49
f 53/53/53 52/52/52 51/51/51
f 54/54/54 53/53/53 51/51/51
f 57/57/57 56/56/56 55/55/55
f 58/58/58 57/57/57 55/55/55
f 59/59/59 57/57/57 58/58/58
f 60/60/60 59/59/59 58/58/58
f 63/63/63 62/62/62 61/61/61
f 64/64/64 63/63/63 61/61/61
f 67/67/67 66/66/66 65/65/65
f 65/65/65 68/68/68 67/67/67
f 67/67/67 68/68/68 69/69/69
f 67/67/67 69/69/69 70/70/70
f 70/70/70 71/71/71 67/67/67
f 72/72/72 71/71/71 70/70/70
f 73/73/73 72/72/72 70/70/70
f 73/73/73 70/70/70 74/74/74
f 70/70/70 75/75/75 74/74/74
f 76/76/76 74/74/74 75/75/75
f 77/77/77 76/76/76 75/75/75
f 77/77/77 75/75/75 78/78/78
f 78/78/78 79/79/79 77/77/77
f 78/78/78 80/80/80 79/79/79
f 81/81/81 80/80/80 78/78/78
f 82/82/82 80/80/80 81/81/81
f 83/83/83 79/79/79 80/80/80
f 83/83/83 80/80/80 84/84/84
f 84/84/84 85/85/85 83/83/83
f 85/85/85 84/84/84 65/65/65
f 84/84/84 86/86/86 65/65/65
f 65/65/65 86/86/86 68/68/68
f 86/86/86 84/84/84 87/87/87
f 88/88/88 68/68/68 86/86/86
f 89/89/89 68/68/68 88/88/88
f 90/90/90 86/86/86 87/87/87
f 90/90/90 87/87/87 91/91/91
f 92/92/92 90/90/90 91/91/91
f 92/92/92 91/91/91 93/93/93
f 91/91/91 94/94/94 93/93/93
f 97/97/97 96/96/96 95/95/95
f 98/98/98 97/97/97 95/95/95
f 101/101/101 100/100/100 99/99/99
f 99/99/99 102/102/102 101/101/101
f 99/99/99 103/103/103 102/102/102
f 103/103/103 104/104/104 102/102/102
f 103/103/103 105/105/105 104/104/104
f 105/105/105 106/106/106 104/104/104
f 105/105/105 107/107/107 106/106/106
f 107/107/107 108/108/108 106/106/106
f 107/107/107 109/109/109 108/108/108
f 109/109/109 110/110/110 108/108/108
f 109/109/109 111/111/111 110/110/110
f 111/111/111 112/112/112 110/110/110
f 111/111/111 113/113/113 112/112/112
f 113/113/113 114/114/114 112/112/112
f 117/117/117 116/116/116 115/115/115
f 118/118/118 117/117/117 115/115/115
f 119/119/119 117/117/117 118/118/118
f 118/118/118 120/120/120 119/119/119
f 118/118/118 121/121/121 120/120/120
f 122/122/122 120/120/120 121/121/121
f 123/123/123 122/122/122 121/121/121
f 124/124/124 122/122/122 123/123/123
f 125/125/125 124/124/124 123/123/123
f 128/128/128 127/127/127 126/126/126
f 127/127/127 129/129/129 126/126/126
f 126/126/126 129/129/129 130/130/130
f 129/129/129 131/131/131 130/130/130
f 130/130/130 131/131/131 132/132/132
f 133/133/133 130/130/130 132/132/132
f 133/133/133 132/132/132 134/134/134
f 132/132/132 135/135/135 134/134/134
f 134/134/134 135/135/135 136/136/136
f 135/135/135 137/137/137 136/136/136
f 140/140/140 139/139/139 138/138/138
f 139/139/139 141/141/141 138/138/138
f 142/142/142 138/138/138 141/141/141
f 142/142/142 141/141/141 143/143/143
f 143/143/143 144/144/144 142/142/142
f 142/142/142 144/144/144 145/145/145
f 144/144/144 146/146/146 145/145/145
f 149/149/149 148/148/148 147/147/147
f 150/150/150 149/149/149 147/147/147
f 150/150/150 151/151/151 149/149/149
f 151/151/151 152/152/152 149/149/149
f 153/153/153 152/152/152 151/151/151
f 154/154/154 153/153/153 151/151/151
f 155/155/155 153/153/153 154/154/154
f 156/156/156 155/155/155 154/154/154
f 159/159/159 158/158/158 157/157/157
f 160/160/160 159/159/159 157/157/157
f 163/163/163 162/162/162 161/161/161
f 161/161/161 164/164/164 163/163/163
f 161/161/161 165/165/165 164/164/164
f 168/168/168 167/167/167 166/166/166
f 166/166/166 169/169/169 168/168/168
f 166/166/166 170/170/170 169/169/169
f 170/170/170 171/171/171 169/169/169
f 170/170/170 172/172/172 171/171/171
f 172/172/172 173/173/173 171/171/171
f 176/176/176 175/175/175 174/174/174
f 177/177/177 176/176/176 174/174/174
f 180/180/180 179/179/179 178/178/178
f 181/181/181 180/180/180 178/178/178
f 184/184/184 183/183/183 182/182/182
f 185/185/185 184/184/184 182/182/182
f 188/188/188 187/187/187 186/186/186
f 189/189/189 188/188/188 186/186/186
f 192/192/192 191/191/191 190/190/190
f 193/193/193 192/192/192 190/190/190
f 196/196/196 195/195/195 194/194/194
f 194/194/194 197/197/197 196/196/196
f 194/194/194 198/198/198 197/197/197
f 201/201/201 200/200/200 199/199/199
f 202/202/202 201/201/201 199/199/199
f 202/202/202 199/199/199 203/203/203
f 204/204/204 202/202/202 203/203/203
f 204/204/204 203/203/203 205/205/205
f 206/206/206 204/204/204 205/205/205
f 206/206/206 205/205/205 207/207/207
f 208/208/208 206/206/206 207/207/207
f 208/208/208 207/207/207 209/209/209
f 210/210/210 208/208/208 209/209/209
f 210/210/210 209/209/209 211/211/211
f 212/212/212 210/210/210 211/211/211
f 212/212/212 211/211/211 213/213/213
f 214/214/214 212/212/212 213/213/213
f 214/214/214 213/213/213 215/215/215
f 216/216/216 214/214/214 215/215/215
f 219/219/219 218/218/218 217/217/217
f 218/218/218 220/220/220 217/217/217
f 221/221/221 220/220/220 218/218/218
f 222/222/222 221/221/221 218/218/218
f 223/223/223 221/221/221 222/222/222
f 224/224/224 223/223/223 222/222/222
f 225/225/225 223/223/223 224/224/224
f 226/226/226 225/225/225 224/224/224
f 227/227/227 225/225/225 226/226/226
f 228/228/228 227/227/227 226/226/226
f 229/229/229 227/227/227 228/228/228
f 230/230/230 229/229/229 228/228/228
f 231/231/231 229/229/229 230/230/230
f 232/232/232 231/231/231 230/230/230
f 232/232/232 233/233/233 231/231/231
f 233/233/233 234/234/234 231/231/231
f 237/237/237 236/236/236 235/235/235
f 236/236/236 238/238/238 235/235/235
f 236/236/236 239/239/239 238/238/238
f 239/239/239 240/240/240 238/238/238
f 239/239/239 241/241/241 240/240/240
f 241/241/241 242/242/242 240/240/240
f 241/241/241 243/243/243 242/242/242
f 243/243/243 244/244/244 242/242/242
f 243/243/243 245/245/245 244/244/244
f 245/245/245 246/246/246 244/244/244
f 245/245/245 247/247/247 246/246/246
f 247/247/247 248/248/248 246/246/246
f 247/247/247 249/249/249 248/248/248
f 249/249/249 250/250/250 248/248/248
f 249/249/249 251/251/251 250/250/250
f 251/251/251 252/252/252 250/250/250
f 255/255/255 254/254/254 253/253/253
f 254/254/254 256/256/256 253/253/253
f 257/257/257 256/256/256 254/254/254
f 258/258/258 257/257/257 254/254/254
f 259/259/259 257/257/257 258/258/258
f 260/260/260 259/259/259 258/258/258
f 261/261/261 259/259/259 260/260/260
f 262/262/262 261/261/261 260/260/260
f 263/263/263 261/261/261 262/262/262
f 264/264/264 263/263/263 262/262/262
f 265/265/265 263/263/263 264/264/264
f 266/266/266 265/265/265 264/264/264
f 267/267/267 265/265/265 266/266/266
f 268/268/268 267/267/267 266/266/266
f 269/269/269 267/267/267 268/268/268
f 270/270/270 269/269/269 268/268/268
f 273/273/273 272/272/272 271/271/271
f 271/271/271 274/274/274 273/273/273
f 274/274/274 275/275/275 273/273/273
f 274/274/274 276/276/276 275/275/275
f 276/276/276 277/277/277 275/275/275
f 276/276/276 278/278/278 277/277/277
f 278/278/278 279/279/279 277/277/277
f 278/278/278 280/280/280 279/279/279
f 280/280/280 281/281/281 279/279/279
f 280/280/280 282/282/282 281/281/281
f 280/280/280 283/283/283 282/282/282
f 283/283/283 284/284/284 282/282/282
f 284/284/284 285/285/285 282/282/282
f 284/284/284 286/286/286 285/285/285
f 286/286/286 287/287/287 285/285/285
f 286/286/286 288/288/288 287/287/287
f 288/288/288 289/289/289 287/287/287
f 288/288/288 290/290/290 289/289/289
f 290/290/290 291/291/291 289/289/289
f 290/290/290 292/292/292 291/291/291
f 290/290/290 293/293/293 292/292/292
f 293/293/293 294/294/294 292/292/292
f 293/293/293 295/295/295 294/294/294
f 295/295/295 296/296/296 294/294/294
f 296/296/296 297/297/297 294/294/294
f 296/296/296 298/298/298 297/297/297
f 298/298/298 299/299/299 297/297/297
f 298/298/298 300/300/300 299/299/299
f 300/300/300 301/301/301 299/299/299
f 300/300/300 302/302/302 301/301/301
f 305/305/305 304/304/304 303/303/303
f 306/306/306 305/305/305 303/303/303
f 306/306/306 303/303/303 307/307/307
f 308/308/308 306/306/306 307/307/307
f 311/311/311 310/310/310 309/309/309
f 312/312/312 311/311/311 309/309/309
f 313/313/313 311/311/311 312/312/312
f 314/314/314 313/313/313 312/312/312
f 317/317/317 316/316/316 315/315/315
f 316/316/316 318/318/318 315/315/315
f 315/315/315 318/318/318 319/319/319
f 318/318/318 320/320/320 319/319/319
f 323/323/323 322/322/322 321/321/321
f 322/322/322 324/324/324 321/321/321
f 322/322/322 325/325/325 324/324/324
f 325/325/325 326/326/326 324/324/324
f 329/329/329 328/328/328 327/327/327
f 330/330/330 329/329/329 327/327/327
f 333/333/333 332/332/332 331/331/331
f 332/332/332 334/334/334 331/331/331
f 331/331/331 334/334/334 335/335/335
f 334/334/334 336/336/336 335/335/335
f 339/339/339 338/338/338 337/337/337
f 340/340/340 339/339/339 337/337/337
f 343/343/343 342/342/342 341/341/341
f 344/344/344 343/343/343 341/341/341
f 347/347/347 346/346/346 345/345/345
f 348/348/348 347/347/347 345/345/345
f 351/351/351 350/350/350 349/349/349
f 352/352/352 351/351/351 349/349/349
f 355/355/355 354/354/354 353/353/353
f 356/356/356 355/355/355 353/353/353
f 359/359/359 358/358/358 357/357/357
f 360/360/360 359/359/359 357/357/357
f 363/363/363 362/362/362 361/361/361
f 364/364/364 363/363/363 361/361/361
f 367/367/367 366/366/366 365/365/365
f 368/368/368 367/367/367 365/365/365
f 371/371/371 370/370/370 369/369/369
f 372/372/372 371/371/371 369/369/369
f 375/375/375 374/374/374 373/373/373
f 376/376/376 375/375/375 373/373/373
f 379/379/379 378/378/378 377/377/377
f 380/380/380 378/378/378 379/379/379
f 379/379/379 377/377/377 381/381/381
f 380/380/380 379/379/379 382/382/382
f 381/381/381 383/383/383 379/379/379
f 381/381/381 384/384/384 383/383/383
f 384/384/384 385/385/385 383/383/383
f 379/379/379 386/386/386 382/382/382
f 386/386/386 387/387/387 382/382/382
f 388/388/388 387/387/387 386/386/386
f 389/389/389 383/383/383 385/385/385
f 388/388/388 386/386/386 389/389/389
f 390/390/390 389/389/389 385/385/385
f 389/389/389 391/391/391 388/388/388
f 390/390/390 392/392/392 389/389/389
f 392/392/392 391/391/391 389/389/389
f 395/395/395 394/394/394 393/393/393
f 394/394/394 396/396/396 393/393/393
f 395/395/395 393/393/393 397/397/397
f 393/393/393 396/396/396 398/398/398
f 393/393/393 399/399/399 397/397/397
f 396/396/396 400/400/400 398/398/398
f 397/397/397 399/399/399 401/401/401
f 402/402/402 398/398/398 400/400/400
f 403/403/403 402/402/402 400/400/400
f 404/404/404 402/402/402 403/403/403
f 405/405/405 404/404/404 403/403/403
f 399/399/399 406/406/406 401/401/401
f 406/406/406 404/404/404 405/405/405
f 407/407/407 401/401/401 406/406/406
f 408/408/408 406/406/406 405/405/405
f 408/408/408 407/407/407 406/406/406
f 411/411/411 410/410/410 409/409/409
f 410/410/410 412/412/412 409/409/409
f 409/409/409 412/412/412 413/413/413
f 412/412/412 414/414/414 413/413/413
f 414/414/414 415/415/415 413/413/413
f 416/416/416 411/411/411 409/409/409
f 415/415/415 417/417/417 413/413/413
f 418/418/418 416/416/416 409/409/409
f 419/419/419 416/416/416 418/418/418
f 420/420/420 419/419/419 418/418/418
f 421/421/421 419/419/419 420/420/420
f 422/422/422 421/421/421 420/420/420
f 423/423/423 422/422/422 420/420/420
f 424/424/424 423/423/423 420/420/420
f 425/425/425 423/423/423 424/424/424
f 426/426/426 425/425/425 424/424/424
f 427/427/427 426/426/426 424/424/424
f 417/417/417 427/427/427 428/428/428
f 413/413/413 417/417/417 428/428/428
f 428/428/428 427/427/427 424/424/424
f 409/409/409 413/413/413 429/429/429
f 430/430/430 409/409/409 429/429/429
f 418/418/418 409/409/409 430/430/430
f 429/429/429 413/413/413 431/431/431
f 413/413/413 428/428/428 431/431/431
f 432/432/432 418/418/418 430/430/430
f 420/420/420 418/418/418 432/432/432
f 431/431/431 428/428/428 433/433/433
f 428/428/428 424/424/424 433/433/433
f 434/434/434 420/420/420 432/432/432
f 433/433/433 424/424/424 434/434/434
f 424/424/424 420/420/420 434/434/434
f 437/437/437 436/436/436 435/435/435
f 436/436/436 438/438/438 435/435/435
f 437/437/437 435/435/435 439/439/439
f 440/440/440 435/435/435 438/438/438
f 435/435/435 441/441/441 439/439/439
f 442/442/442 440/440/440 438/438/438
f 439/439/439 441/441/441 443/443/443
f 444/444/444 440/440/440 442/442/442
f 445/445/445 444/444/444 442/442/442
f 446/446/446 444/444/444 445/445/445
f 447/447/447 446/446/446 445/445/445
f 441/441/441 448/448/448 443/443/443
f 448/448/448 446/446/446 447/447/447
f 449/449/449 443/443/443 448/448/448
f 450/450/450 448/448/448 447/447/447
f 450/450/450 449/449/449 448/448/448
f 453/453/453 452/452/452 451/451/451
f 454/454/454 453/453/453 451/451/451
f 452/452/452 455/455/455 451/451/451
f 456/456/456 454/454/454 451/451/451
f 457/457/457 456/456/456 451/451/451
f 458/458/458 457/457/457 451/451/451
f 459/459/459 458/458/458 451/451/451
f 455/455/455 460/460/460 451/451/451
f 461/461/461 459/459/459 451/451/451
f 460/460/460 462/462/462 451/451/451
f 462/462/462 460/460/460 463/463/463
f 462/462/462 463/463/463 464/464/464
f 462/462/462 464/464/464 465/465/465
f 461/461/461 451/451/451 466/466/466
f 466/466/466 467/467/467 461/461/461
f 466/466/466 468/468/468 467/467/467
f 466/466/466 469/469/469 468/468/468
f 466/466/466 470/470/470 469/469/469
f 462/462/462 465/465/465 471/471/471
f 472/472/472 470/470/470 466/466/466
f 462/462/462 471/471/471 473/473/473
f 466/466/466 474/474/474 472/472/472
f 462/462/462 473/473/473 475/475/475
f 466/466/466 476/476/476 474/474/474
f 462/462/462 475/475/475 477/477/477
f 462/462/462 477/477/477 478/478/478
f 462/462/462 478/478/478 479/479/479
f 480/480/480 476/476/476 466/466/466
f 481/481/481 480/480/480 466/466/466
f 482/482/482 481/481/481 466/466/466
f 483/483/483 462/462/462 479/479/479
f 466/466/466 483/483/483 482/482/482
f 483/483/483 479/479/479 484/484/484
f 485/485/485 482/482/482 483/483/483
f 483/483/483 484/484/484 486/486/486
f 483/483/483 486/486/486 485/485/485
f 489/489/489 488/488/488 487/487/487
f 488/488/488 490/490/490 487/487/487
f 487/487/487 490/490/490 491/491/491
f 491/491/491 492/492/492 487/487/487
f 491/491/491 493/493/493 492/492/492
f 493/493/493 494/494/494 492/492/492
f 494/494/494 493/493/493 495/495/495
f 494/494/494 495/495/495 496/496/496
f 489/489/489 487/487/487 497/497/497
f 497/497/497 498/498/498 489/489/489
f 499/499/499 498/498/498 497/497/497
f 499/499/499 497/497/497 500/500/500
f 498/498/498 499/499/499 501/501/501
f 500/500/500 502/502/502 499/499/499
f 500/500/500 503/503/503 502/502/502
f 501/501/501 504/504/504 498/498/498
f 501/501/501 505/505/505 504/504/504
f 505/505/505 506/506/506 504/504/504
f 500/500/500 507/507/507 503/503/503
f 507/507/507 508/508/508 503/503/503
f 507/507/507 509/509/509 508/508/508
f 509/509/509 507/507/507 494/494/494
f 506/506/506 510/510/510 504/504/504
f 494/494/494 511/511/511 509/509/509
f 506/506/506 512/512/512 510/510/510
f 512/512/512 513/513/513 510/510/510
f 510/510/510 513/513/513 514/514/514
f 494/494/494 515/515/515 511/511/511
f 514/514/514 496/496/496 510/510/510
f 494/494/494 516/516/516 515/515/515
f 494/494/494 517/517/517 516/516/516
f 494/494/494 518/518/518 517/517/517
f 494/494/494 496/496/496 518/518/518
f 514/514/514 519/519/519 496/496/496
f 520/520/520 518/518/518 496/496/496
f 519/519/519 520/520/520 496/496/496
f 523/523/523 522/522/522 521/521/521
f 524/524/524 523/523/523 521/521/521
f 521/521/521 522/522/522 525/525/525
f 526/526/526 523/523/523 524/524/524
f 522/522/522 527/527/527 525/525/525
f 528/528/528 526/526/526 524/524/524
f 525/525/525 527/527/527 528/528/528
f 527/527/527 526/526/526 528/528/528
f 531/531/531 530/530/530 529/529/529
f 530/530/530 532/532/532 529/529/529
f 533/533/533 530/530/530 531/531/531
f 529/529/529 532/532/532 534/534/534
f 535/535/535 533/533/533 531/531/531
f 532/532/532 536/536/536 534/534/534
f 537/537/537 533/533/533 535/535/535
f 534/534/534 536/536/536 538/538/538
f 539/539/539 537/537/537 535/535/535
f 536/536/536 540/540/540 538/538/538
f 540/540/540 537/537/537 539/539/539
f 538/538/538 540/540/540 539/539/539
