# Blender 4.3.2
# www.blender.org
mtllib Hair_00.mtl
o _impHair_hair00
v 0.365231 0.718953 0.378595
v 0.339833 0.701748 0.488124
v 0.243287 0.714919 0.529339
v 0.217070 0.667213 0.474890
v 0.303030 0.656437 0.437960
v 0.379221 0.639736 0.400148
v 0.482574 0.461579 0.469344
v 0.354832 0.457860 0.554106
v 0.256395 0.455340 0.614794
v 0.557883 -0.396818 0.247324
v 0.479549 -0.434315 0.373176
v 0.470537 -0.267879 0.418298
v 0.602627 0.059195 0.272532
v 0.604707 -0.393226 0.034254
v 0.506207 -0.049955 0.433675
v 0.658715 0.066884 0.036774
v 0.571180 -0.395810 -0.187136
v 0.615672 0.262246 0.287972
v 0.610883 0.071988 -0.203962
v 0.484402 -0.411564 -0.369516
v 0.579373 0.519242 0.288098
v 0.362458 0.785061 0.282931
v 0.679827 0.278316 0.039421
v 0.624873 0.537203 0.042635
v 0.300320 0.976138 0.025557
v 0.486229 0.076526 -0.409219
v 0.239001 -0.404317 -0.489380
v 0.629159 0.280018 -0.208752
v 0.582272 0.528569 -0.193438
v 0.475138 0.746871 -0.177179
v 0.249274 0.078669 -0.530469
v 0.000218 -0.394234 -0.536015
v 0.502362 0.280963 -0.422075
v 0.475201 0.516721 -0.392203
v 0.257025 0.286320 -0.544775
v 0.000218 0.083647 -0.585108
v 0.428503 0.699795 -0.344686
v 0.254063 0.861315 -0.189531
v 0.244862 0.533989 -0.495493
v 0.231124 0.750211 -0.388926
v 0.000218 0.910975 -0.199992
v 0.000218 0.294575 -0.598153
v -0.248774 0.078669 -0.530469
v -0.238502 -0.399276 -0.489380
v 0.000218 0.548168 -0.540364
v 0.000218 0.776238 -0.411740
v -0.230687 0.750211 -0.388926
v -0.253627 0.861315 -0.189531
v -0.256526 0.286320 -0.544775
v -0.244363 0.533989 -0.495493
v -0.428066 0.699795 -0.344686
v -0.474638 0.746871 -0.177179
v -0.474764 0.516721 -0.392203
v -0.581835 0.528569 -0.193438
v -0.501863 0.280963 -0.422075
v -0.485730 0.076526 -0.409219
v -0.483965 -0.410745 -0.369516
v -0.628659 0.280018 -0.208752
v -0.624437 0.537203 0.042635
v -0.610446 0.071988 -0.203962
v -0.570681 -0.398268 -0.187136
v -0.679327 0.278316 0.039421
v -0.578873 0.519242 0.288098
v -0.658215 0.066884 0.036774
v -0.604270 -0.393667 0.034254
v -0.615236 0.262246 0.287972
v -0.602191 0.059195 0.272532
v -0.555619 -0.396188 0.246883
v -0.470038 -0.267879 0.418298
v -0.468273 -0.430660 0.370466
v -0.505770 -0.049955 0.433675
v -0.482137 0.461579 0.469344
v -0.500476 0.645534 0.438212
v -0.459702 0.725002 0.274549
v -0.190543 1.026491 -0.015658
v 0.265407 0.903538 0.047173
v 0.000218 0.881671 0.299190
v 0.252677 0.838565 0.288098
v -0.007407 0.739308 0.584734
v 0.093425 0.715676 0.595258
v 0.204466 0.428745 0.625004
v 0.088635 0.452756 0.686763
v -0.003122 0.450550 0.715438
v -0.121789 0.730422 0.553980
v -0.108932 0.435804 0.667605
v -0.225205 0.455340 0.617819
v -0.258983 0.715676 0.530095
v -0.252240 0.838565 0.288098
v -0.336939 0.699542 0.490204
v -0.241023 0.455340 0.617819
v -0.354333 0.458302 0.547993
v -0.264907 0.903538 0.047173
v -0.712098 0.800248 -0.009167
v 0.459761 0.324762 0.487557
v 0.386468 0.310772 0.534696
v 0.256395 0.309448 0.614794
v -0.241023 0.309448 0.617819
v -0.370025 0.310709 0.537217
v -0.487620 0.311906 0.463798
v 0.201189 0.304911 0.622609
v 0.067209 0.304659 0.673025
v -0.006651 0.304344 0.706426
v -0.117062 0.304785 0.664139
v -0.225205 0.305163 0.617819
v 0.427747 0.448849 0.416785
v 0.315382 0.447525 0.488880
v 0.218079 0.445067 0.548749
v 0.345127 0.310205 0.469722
v 0.417600 0.323754 0.423150
v 0.215999 0.309448 0.549191
v 0.487237 -0.388310 0.217894
v 0.404492 -0.259245 0.379604
v 0.414071 -0.426059 0.333473
v 0.530847 0.068144 0.246253
v 0.528201 -0.384907 0.032426
v 0.438523 -0.042078 0.397879
v 0.582146 0.074698 0.035136
v 0.498833 -0.389319 -0.161550
v 0.544901 0.260482 0.257723
v 0.538977 0.078858 -0.177368
v 0.430771 -0.405704 -0.314563
v 0.510744 0.495673 0.262197
v 0.602942 0.274535 0.037972
v 0.433859 0.083080 -0.353131
v 0.213730 -0.397637 -0.416970
v 0.557253 0.276299 -0.181401
v 0.553724 0.507898 0.040366
v 0.408147 0.673704 0.250286
v 0.233897 0.770629 0.257155
v 0.264146 0.908202 0.028960
v -0.000286 0.811277 0.267932
v 0.073006 0.683409 0.501799
v -0.000979 0.686371 0.517365
v -0.105025 0.680258 0.498018
v 0.248706 0.828544 0.041816
v -0.231254 0.668789 0.475646
v -0.172898 0.951875 -0.008726
v -0.228166 0.772835 0.256084
v 0.236228 0.793758 -0.157202
v -0.298623 0.655176 0.440292
v -0.001546 0.841526 -0.166781
v -0.378595 0.639988 0.400148
v -0.411429 0.676225 0.239636
v -0.647943 0.758025 -0.004315
v -0.234784 0.832893 0.041627
v -0.510812 0.504747 0.255139
v -0.428822 0.697715 -0.139682
v -0.428318 0.450046 0.415525
v -0.228166 0.797791 -0.154177
v -0.544401 0.260482 0.257723
v -0.438023 -0.042078 0.397879
v -0.602443 0.274535 0.037972
v -0.548182 0.526741 0.040555
v -0.530411 0.068333 0.246127
v -0.404308 -0.257922 0.379414
v -0.485162 -0.386798 0.217264
v -0.403173 -0.420829 0.330574
v -0.527701 -0.385285 0.032363
v -0.581646 0.074698 0.035073
v -0.498334 -0.391776 -0.161613
v -0.538477 0.078858 -0.177368
v -0.430146 -0.404822 -0.314689
v -0.556753 0.276299 -0.181401
v -0.513458 0.514011 -0.161109
v -0.433423 0.083080 -0.353131
v -0.213294 -0.392533 -0.416970
v -0.449430 0.277497 -0.365861
v -0.223629 0.084971 -0.457996
v 0.000155 -0.386861 -0.459320
v -0.424285 0.494664 -0.338384
v -0.231444 0.281782 -0.472113
v 0.000281 0.089949 -0.508412
v -0.384897 0.656248 -0.298114
v -0.222180 0.509978 -0.425730
v -0.209954 0.699227 -0.335107
v 0.000218 0.288841 -0.521332
v 0.224066 0.084971 -0.457996
v 0.000218 0.521574 -0.468080
v 0.000218 0.723175 -0.355904
v 0.210390 0.699227 -0.335107
v 0.231943 0.281782 -0.472113
v 0.449867 0.277497 -0.365861
v 0.222679 0.509978 -0.425730
v 0.385334 0.656248 -0.298114
v 0.422012 0.695887 -0.154618
v 0.424785 0.494664 -0.338384
v 0.513202 0.502857 -0.171255
v -0.314693 0.449353 0.482641
v -0.329440 0.311213 0.471802
v -0.447035 0.312599 0.398320
v -0.201257 0.446958 0.552405
v -0.200438 0.309700 0.552405
v 0.180960 0.416771 0.552657
v 0.057125 0.413305 0.597968
v 0.038408 0.305982 0.601623
v 0.174406 0.306675 0.550451
v -0.007974 0.410343 0.630549
v -0.008289 0.304911 0.629478
v -0.088136 0.304848 0.592800
v -0.084607 0.422695 0.595762
v -0.200501 0.441286 0.546229
v -0.194892 0.305163 0.547048
vn 0.6631 0.5514 0.5063
vn 0.3810 0.5827 0.7178
vn 0.6004 0.4104 0.6864
vn 0.2713 -0.5612 0.7819
vn 0.7806 0.2066 0.5899
vn 0.5769 0.2145 0.7882
vn 0.4907 0.1596 0.8566
vn 0.9373 -0.1146 0.3291
vn 0.8590 -0.1146 0.4990
vn 0.8511 -0.1068 0.5140
vn 0.9452 -0.1146 0.3059
vn 0.9922 -0.1068 0.0649
vn 0.8746 -0.0833 0.4776
vn 0.9373 -0.0833 -0.3384
vn 0.9060 0.0342 0.4219
vn 0.9373 -0.0911 -0.3364
vn 0.6709 -0.0754 -0.7377
vn 0.8511 0.3790 0.3632
vn 0.7101 0.6376 0.2988
vn 0.9979 0.0654 -0.0000
vn 0.8981 0.4338 0.0716
vn 0.6631 0.7472 0.0440
vn 0.6631 -0.0833 -0.7439
vn 0.3340 -0.0833 -0.9389
vn 0.9373 0.0578 -0.3436
vn 0.8981 0.3555 -0.2588
vn 0.7493 0.6297 -0.2050
vn 0.3262 -0.0833 -0.9416
vn 0.0049 -0.0989 -0.9951
vn 0.6709 0.0577 -0.7393
vn 0.6474 0.2693 -0.7130
vn 0.3262 0.0734 -0.9425
vn -0.0029 -0.0911 -0.9958
vn 0.5534 0.5670 -0.6101
vn 0.2400 0.8883 -0.3916
vn 0.2870 0.3007 -0.9095
vn 0.2557 0.6611 -0.7054
vn 0.0754 0.9118 -0.4037
vn -0.0029 0.0891 -0.9960
vn -0.3320 -0.0833 -0.9396
vn -0.3320 -0.0911 -0.9389
vn -0.0029 0.3398 -0.9405
vn -0.0029 0.6846 -0.7290
vn -0.2536 0.6611 -0.7062
vn -0.3085 0.8413 -0.4440
vn -0.3241 0.0734 -0.9432
vn -0.2850 0.3006 -0.9102
vn -0.5514 0.5670 -0.6119
vn -0.5513 0.6767 -0.4879
vn -0.6454 0.2693 -0.7148
vn -0.8961 0.1753 -0.4077
vn -0.6689 0.0577 -0.7411
vn -0.6610 -0.0833 -0.7457
vn -0.6767 -0.0755 -0.7323
vn -0.9353 0.0577 -0.3492
vn -0.9901 0.1361 0.0332
vn -0.9353 -0.0911 -0.3419
vn -0.9431 -0.0833 -0.3218
vn -0.9978 0.0656 -0.0000
vn -0.9040 0.1362 0.4054
vn -0.9943 -0.1064 -0.0000
vn -0.9901 -0.1068 0.0907
vn -0.9118 0.0342 0.4092
vn -0.9431 -0.1146 0.3121
vn -0.9353 -0.1225 0.3320
vn -0.8491 -0.1303 0.5119
vn -0.8726 -0.0833 0.4812
vn -0.7472 0.1048 0.6562
vn -0.7316 0.3868 0.5614
vn -0.5984 0.6689 0.4410
vn -0.1045 0.9945 -0.0000
vn 0.1928 0.9812 0.0001
vn 0.0597 0.9275 0.3691
vn 0.1852 0.9118 0.3666
vn -0.0656 0.6611 0.7474
vn 0.3105 0.3712 0.8751
vn 0.4359 0.1518 0.8871
vn 0.3340 0.1988 0.9214
vn -0.1204 0.2458 0.9618
vn -0.2771 0.5671 0.7757
vn -0.3398 0.2145 0.9157
vn -0.2928 0.2380 0.9261
vn -0.3398 0.5357 0.7730
vn -0.3163 0.8570 0.4069
vn -0.4730 0.4887 0.7331
vn -0.5122 0.1282 0.8492
vn -0.4887 0.1283 0.8630
vn -0.3712 0.9196 0.1286
vn -0.8256 -0.0050 -0.5642
vn -0.5984 0.7629 0.2447
vn 0.5377 0.0107 0.8431
vn 0.5455 0.0107 0.8380
vn 0.5221 0.0029 0.8529
vn -0.5278 -0.0050 0.8493
vn -0.5279 -0.0049 0.8493
vn -0.5279 -0.0128 0.8492
vn 0.3810 -0.0990 0.9193
vn 0.4045 -0.0911 0.9100
vn -0.0656 -0.0598 0.9961
vn -0.3869 -0.0128 0.9220
vn -0.3947 0.0029 0.9188
vn -0.7786 -0.1303 -0.6139
vn -0.4809 -0.2400 -0.8433
vn -0.6610 -0.4907 -0.5676
vn -0.5044 -0.1381 -0.8524
vn -0.4573 -0.2635 -0.8494
vn -0.4965 -0.1381 -0.8570
vn -0.5357 0.0029 -0.8444
vn -0.5435 0.0029 -0.8394
vn -0.5278 0.0029 -0.8493
vn -0.9353 0.1126 -0.3355
vn -0.8491 0.1047 -0.5177
vn -0.8491 0.1126 -0.5161
vn -0.9431 0.1126 -0.3128
vn -0.9901 0.1048 -0.0930
vn -0.8726 0.0891 -0.4802
vn -0.9945 0.1044 -0.0000
vn -0.9431 0.0813 0.3224
vn -0.9040 -0.0284 -0.4267
vn -0.9431 0.0891 0.3203
vn -0.6689 0.0813 0.7389
vn -0.8961 -0.3105 -0.3171
vn -0.9980 -0.0598 -0.0219
vn -0.6532 0.0813 0.7528
vn -0.3320 0.0891 0.9391
vn -0.9353 -0.0598 0.3488
vn -0.9118 -0.4045 -0.0708
vn -0.7707 -0.5926 -0.2341
vn -0.2145 -0.9060 -0.3650
vn -0.6688 -0.7415 -0.0535
vn -0.2693 -0.6474 -0.7130
vn -0.0656 -0.9216 -0.3825
vn -0.2536 -0.5456 -0.7988
vn 0.0128 -0.5612 -0.8276
vn 0.2400 -0.5612 -0.7921
vn -0.2145 -0.9765 -0.0218
vn 0.3418 -0.5221 -0.7814
vn 0.0990 -0.9922 -0.0763
vn 0.3027 -0.8511 -0.4289
vn -0.2301 -0.8903 0.3929
vn 0.4907 -0.4281 -0.7589
vn -0.0812 -0.9060 0.4155
vn 0.6787 -0.4594 -0.5730
vn 0.5848 -0.6552 -0.4783
vn 0.5691 -0.7806 -0.2585
vn 0.3654 -0.9216 -0.1307
vn 0.8903 -0.1460 -0.4313
vn 0.5377 -0.6709 0.5106
vn 0.7649 -0.1224 -0.6324
vn 0.3027 -0.8355 0.4587
vn 0.9060 -0.0363 -0.4218
vn 0.8746 0.0891 -0.4765
vn 0.9982 -0.0597 -0.0000
vn 0.9922 -0.1146 -0.0498
vn 0.9451 0.1204 -0.3037
vn 0.8511 0.1283 -0.5090
vn 0.9295 0.1204 -0.3487
vn 0.8433 0.1283 -0.5219
vn 0.9922 0.1126 -0.0542
vn 0.9922 0.1048 -0.0681
vn 0.9452 0.0813 0.3164
vn 0.9373 0.0891 0.3369
vn 0.6709 0.0813 0.7371
vn 0.9373 -0.0598 0.3433
vn 0.8981 -0.1695 0.4058
vn 0.6552 0.0813 0.7510
vn 0.3262 0.0891 0.9411
vn 0.6709 -0.0519 0.7397
vn -0.0029 0.0970 0.9953
vn 0.6474 -0.2635 0.7151
vn 0.3183 -0.0676 0.9456
vn -0.0029 0.0890 0.9960
vn 0.5456 -0.5691 0.6152
vn 0.2792 -0.2948 0.9139
vn 0.2557 -0.6631 0.7035
vn -0.0029 -0.0833 0.9965
vn -0.3241 0.0812 0.9425
vn -0.0029 -0.3340 0.9426
vn -0.0029 -0.6866 0.7270
vn -0.2536 -0.6631 0.7043
vn -0.3241 -0.0676 0.9436
vn -0.6689 -0.0519 0.7415
vn -0.2771 -0.2948 0.9145
vn -0.5514 -0.5612 0.6173
vn -0.7551 -0.6161 0.2243
vn -0.6376 -0.2635 0.7239
vn -0.9040 -0.3497 0.2462
vn 0.5142 -0.1068 -0.8510
vn 0.5221 0.0186 -0.8527
vn 0.5221 0.0264 -0.8525
vn 0.5142 -0.0989 -0.8519
vn 0.5299 0.0107 -0.8480
vn 0.8041 0.0656 0.5908
vn -0.2850 -0.2086 -0.9356
vn -0.3163 -0.2086 -0.9254
vn -0.3947 0.0342 -0.9182
vn -0.3477 0.0343 -0.9370
vn 0.0206 -0.2478 -0.9686
vn 0.0597 0.0186 -0.9980
vn 0.4045 0.0108 -0.9145
vn 0.3105 -0.2243 -0.9237
vn 0.3027 -0.2165 -0.9282
vn 0.3967 0.0107 -0.9179
vn -0.5514 -0.0441 0.8331
vn -0.5827 -0.0676 0.8098
vn -0.5827 -0.0676 0.8099
vn -0.5513 -0.0441 0.8331
vn -0.5044 -0.1068 0.8569
vn -0.5200 -0.2557 0.8150
vn -0.8883 0.0734 0.4534
vn -0.8961 0.1126 0.4293
vn -0.8570 0.0108 0.5153
vn -0.8569 0.0107 0.5153
vn -0.0499 -0.9843 -0.1691
vn 0.0284 -0.9608 -0.2757
vn -0.0499 -0.9922 -0.1146
vn -0.0969 -0.9922 -0.0789
vn -0.0656 -0.9922 0.1064
vn -0.0499 -0.9922 0.1146
vn -0.0656 -0.9922 0.1063
vn -0.0107 -0.9999 -0.0000
vn 0.0598 -0.9922 0.1097
vn 0.0598 -0.9922 0.1098
vn 0.0676 -0.9922 0.1051
vn 0.1068 -0.9922 0.0649
vn 0.0676 -0.9922 -0.1051
vn 0.0598 -0.9843 -0.1659
vn -0.0029 -0.9608 -0.2772
vn 0.5926 -0.0598 0.8033
vn 0.5612 -0.0441 0.8265
vn 0.5612 -0.0363 0.8269
vn 0.5064 -0.0989 0.8566
vn 0.5299 -0.2400 0.8134
vn -0.9353 -0.1459 -0.3224
vn -0.9353 -0.2165 -0.2799
vn -0.9353 -0.1381 -0.3258
vn -0.9353 -0.0206 -0.3533
vn 0.8903 0.2223 0.3974
vn 0.8825 0.1439 0.4478
vn 0.8511 0.0029 0.5250
vn 0.8511 0.0029 0.5249
vn 0.9373 -0.2165 -0.2731
vn 0.9451 -0.1616 -0.2838
vn 0.9451 -0.0363 -0.3246
vn 0.0519 -0.9987 -0.0000
vn 0.0049 -1.0000 -0.0000
vn 0.1381 -0.9843 -0.1096
vn -0.0029 -1.0000 -0.0000
vn 0.7728 -0.1538 -0.6158
vn -0.7708 0.1126 -0.6271
vn -0.7707 0.1126 -0.6271
vn -0.0029 -1.0000 -0.0001
vt 0.206301 0.544494
vt 0.368714 0.617346
vt 0.285168 0.578581
vt 0.412826 0.760376
vt 0.356683 0.732305
vt 0.387428 0.747677
vt 0.068618 0.686856
vt 0.174888 0.767728
vt 0.255760 0.827213
vt -0.038989 0.473647
vt -0.057703 0.587938
vt -0.150606 0.506397
vt 0.124761 0.597295
vt 0.039210 0.377403
vt 0.033863 0.650096
vt 0.183577 0.512413
vt 0.130108 0.289179
vt 0.196276 0.640070
vt 0.261107 0.774412
vt 0.250413 0.444908
vt 0.232368 0.220337
vt 0.286505 0.670147
vt 0.362030 0.675494
vt 0.243730 0.555856
vt 0.311235 0.591280
vt 0.398791 0.607320
vt 0.320592 0.397454
vt 0.352005 0.142138
vt 0.293189 0.492362
vt 0.341311 0.535805
vt 0.386092 0.562540
vt 0.401464 0.366041
vt 0.484341 0.163526
vt 0.350000 0.450255
vt 0.378071 0.497040
vt 0.415500 0.422852
vt 0.483005 0.357352
vt 0.399459 0.529122
vt 0.434882 0.571897
vt 0.430204 0.479663
vt 0.438892 0.527117
vt 0.483005 0.571897
vt 0.483005 0.416836
vt 0.563877 0.366041
vt 0.609994 0.168873
vt 0.483005 0.475653
vt 0.483005 0.526448
vt 0.527785 0.527117
vt 0.531127 0.573902
vt 0.549841 0.422852
vt 0.535805 0.479663
vt 0.566550 0.529790
vt 0.580586 0.562540
vt 0.587938 0.497040
vt 0.624698 0.534469
vt 0.615341 0.450255
vt 0.644081 0.397454
vt 0.728295 0.226352
vt 0.671484 0.490357
vt 0.656111 0.587269
vt 0.712922 0.442234
vt 0.831223 0.283832
vt 0.720943 0.550509
vt 0.683514 0.662795
vt 0.777754 0.507066
vt 0.918110 0.370719
vt 0.769733 0.630045
vt 0.837238 0.586601
vt 0.994972 0.463622
vt 1.014355 0.574571
vt 1.103916 0.493698
vt 0.926799 0.636060
vt 0.713591 0.760376
vt 0.620019 0.726289
vt 0.612667 0.671484
vt 0.611999 0.360025
vt 0.660121 0.360694
vt 0.690866 0.393444
vt 0.607320 0.410821
vt 0.668142 0.478994
vt 0.601974 0.472311
vt 0.390770 0.382750
vt 0.184914 0.390770
vt 0.612667 0.402801
vt 0.580586 0.668810
vt 0.495035 0.674825
vt 0.337301 0.884692
vt 0.454265 0.906748
vt 0.535805 0.932146
vt 0.678836 0.670815
vt 0.640070 0.941503
vt 0.750351 0.920784
vt 0.798473 0.682846
vt 0.834565 0.447581
vt 0.876003 0.670815
vt 0.827881 0.922120
vt 0.936825 0.880013
vt 1.059135 0.833228
vt 0.964227 0.657448
vt 1.030396 0.515754
vt 0.418173 0.252419
vt 0.466964 0.261776
vt 0.462285 0.311903
vt 0.430872 0.297199
vt 0.456938 0.373393
vt 0.394112 0.365372
vt 0.742999 0.133450
vt 0.725621 0.164194
vt 0.694876 0.131444
vt 0.749682 0.182240
vt 0.702897 0.250413
vt 0.762381 0.241056
vt 0.639402 0.293857
vt 0.618683 0.358020
vt 0.595290 0.321260
vt 0.670815 0.345990
vt 0.674157 0.375398
vt 0.631382 0.435551
vt 0.624698 0.386760
vt 0.696881 0.412158
vt 0.644081 0.495035
vt 0.706239 0.484341
vt 0.627371 0.430204
vt 0.698218 0.421515
vt 0.713591 0.806493
vt 0.732305 0.866646
vt 0.666805 0.844590
vt 0.785774 0.833896
vt 0.835901 0.853279
vt 0.808498 0.892044
vt 1.055125 0.848600
vt 1.155380 0.858626
vt 1.087207 0.886029
vt 1.107258 0.825208
vt 1.166074 0.798473
vt 1.217538 0.834565
vt 0.894718 0.900064
vt 0.899396 0.860631
vt 0.947518 0.866646
vt 0.950192 0.904743
vt 1.015023 0.896054
vt 0.994304 0.858626
vt 0.261107 0.806493
vt 0.387428 0.792458
vt 0.356683 0.783769
vt 0.333291 0.833896
vt 0.412826 0.799141
vt 0.382750 0.853279
vt 0.279153 0.866646
vt 0.214322 0.844590
vt 0.356015 0.892044
vt 0.424857 0.683514
vt 0.491025 0.690866
vt 0.462285 0.771070
vt 0.491693 0.777085
vt 0.527117 0.767728
vt 0.430204 0.622024
vt 0.567219 0.757034
vt 0.513749 0.604647
vt 0.550509 0.681509
vt 0.591948 0.742330
vt 0.603979 0.599300
vt 0.537810 0.622693
vt 0.713591 0.798473
vt 0.620019 0.780427
vt 0.591948 0.789116
vt 0.654774 0.825208
vt 0.702897 0.858626
vt 0.765055 0.834565
vt 0.601974 0.848600
vt 0.567219 0.797136
vt 0.634723 0.886029
vt 0.462285 0.804488
vt 0.446913 0.860631
vt 0.491693 0.807830
vt 0.441566 0.900064
vt 0.494367 0.866646
vt 0.497709 0.904743
vt 0.527117 0.802483
vt 0.562540 0.896054
vt 0.541152 0.858626
vt 0.810503 0.104041
vt 0.843922 0.122087
vt 0.797136 0.094684
vt 0.783769 0.082654
vt 0.861299 0.133450
vt 0.865978 0.125429
vt 0.857289 0.139465
vt 0.799810 0.077975
vt 0.811172 0.063940
vt 0.824539 0.051241
vt 0.839243 0.041215
vt 0.857289 0.029853
vt 0.876672 0.032526
vt 0.894718 0.033195
vt 0.912095 0.041883
vt 0.926799 0.050572
vt 0.939498 0.063271
vt 0.950860 0.076638
vt 0.966901 0.081317
vt 0.910090 0.120082
vt 0.940835 0.102036
vt 0.953534 0.092679
vt 0.893381 0.132781
vt 0.888702 0.125429
vt 0.898059 0.138128
vt 0.846595 0.135455
vt 0.836570 0.132113
vt 0.908085 0.134118
vt 0.917442 0.130776
vt 0.843922 0.126766
vt 0.910090 0.125429
vt 0.869988 0.140133
vt 0.878008 0.140802
vt 0.888034 0.139465
s 1
usemtl Default_Material
f 1/1/1 3/2/2 2/3/3
f 4/4/4 6/5/4 5/6/4
f 7/7/5 1/1/1 2/3/3
f 7/7/5 2/3/3 8/8/6
f 8/8/6 2/3/3 3/2/2
f 8/8/6 3/2/2 9/9/7
f 10/10/8 12/11/9 11/12/10
f 10/10/8 13/13/11 12/11/9
f 14/14/12 13/13/11 10/10/8
f 13/13/11 15/15/13 12/11/9
f 14/14/12 16/16/12 13/13/11
f 17/17/14 16/16/12 14/14/12
f 13/13/11 18/18/15 15/15/13
f 16/16/12 18/18/15 13/13/11
f 18/18/15 7/19/5 15/15/13
f 17/17/14 19/20/16 16/16/12
f 20/21/17 19/20/16 17/17/14
f 18/18/15 21/22/18 7/19/5
f 21/22/18 1/5/1 7/19/5
f 21/22/18 22/23/19 1/5/1
f 16/16/12 23/24/20 18/18/15
f 23/24/20 21/22/18 18/18/15
f 19/20/16 23/24/20 16/16/12
f 24/25/21 22/23/19 21/22/18
f 23/24/20 24/25/21 21/22/18
f 24/25/21 25/26/22 22/23/19
f 20/21/17 26/27/23 19/20/16
f 27/28/24 26/27/23 20/21/17
f 19/20/16 28/29/25 23/24/20
f 28/29/25 24/25/21 23/24/20
f 26/27/23 28/29/25 19/20/16
f 29/30/26 25/26/22 24/25/21
f 28/29/25 29/30/26 24/25/21
f 29/30/26 30/31/27 25/26/22
f 27/28/24 31/32/28 26/27/23
f 32/33/29 31/32/28 27/28/24
f 26/27/23 33/34/30 28/29/25
f 33/34/30 29/30/26 28/29/25
f 31/32/28 33/34/30 26/27/23
f 34/35/31 30/31/27 29/30/26
f 33/34/30 34/35/31 29/30/26
f 31/32/28 35/36/32 33/34/30
f 35/36/32 34/35/31 33/34/30
f 32/33/29 36/37/33 31/32/28
f 36/37/33 35/36/32 31/32/28
f 34/35/31 37/38/34 30/31/27
f 37/38/34 38/39/35 30/31/27
f 35/36/32 39/40/36 34/35/31
f 39/40/36 37/38/34 34/35/31
f 37/38/34 40/41/37 38/39/35
f 39/40/36 40/41/37 37/38/34
f 40/41/37 41/42/38 38/39/35
f 42/43/39 39/40/36 35/36/32
f 36/37/33 42/43/39 35/36/32
f 32/33/29 43/44/40 36/37/33
f 32/33/29 44/45/41 43/44/40
f 45/46/42 40/41/37 39/40/36
f 42/43/39 45/46/42 39/40/36
f 40/41/37 46/47/43 41/42/38
f 45/46/42 46/47/43 40/41/37
f 47/48/44 41/42/38 46/47/43
f 45/46/42 47/48/44 46/47/43
f 47/48/44 48/49/45 41/42/38
f 36/37/33 49/50/46 42/43/39
f 36/37/33 43/44/40 49/50/46
f 42/43/39 50/51/47 45/46/42
f 45/46/42 50/51/47 47/48/44
f 42/43/39 49/50/46 50/51/47
f 51/52/48 48/49/45 47/48/44
f 50/51/47 51/52/48 47/48/44
f 51/52/48 52/53/49 48/49/45
f 50/51/47 53/54/50 51/52/48
f 53/54/50 52/53/49 51/52/48
f 49/50/46 53/54/50 50/51/47
f 53/54/50 54/55/51 52/53/49
f 49/50/46 55/56/52 53/54/50
f 43/44/40 55/56/52 49/50/46
f 55/56/52 54/55/51 53/54/50
f 43/44/40 56/57/53 55/56/52
f 44/45/41 56/57/53 43/44/40
f 44/45/41 57/58/54 56/57/53
f 55/56/52 58/59/55 54/55/51
f 56/57/53 58/59/55 55/56/52
f 58/59/55 59/60/56 54/55/51
f 57/58/54 60/61/57 56/57/53
f 56/57/53 60/61/57 58/59/55
f 57/58/54 61/62/58 60/61/57
f 58/59/55 62/63/59 59/60/56
f 60/61/57 62/63/59 58/59/55
f 62/63/59 63/64/60 59/60/56
f 61/62/58 64/65/61 60/61/57
f 60/61/57 64/65/61 62/63/59
f 61/62/58 65/66/62 64/65/61
f 64/65/61 66/67/63 62/63/59
f 62/63/59 66/67/63 63/64/60
f 65/66/62 67/68/64 64/65/61
f 64/65/61 67/68/64 66/67/63
f 65/66/62 68/69/65 67/68/64
f 68/69/65 69/70/66 67/68/64
f 68/69/65 70/71/66 69/70/66
f 67/68/64 69/70/66 71/72/67
f 67/68/64 71/72/67 66/67/63
f 66/67/63 71/72/67 72/73/68
f 66/67/63 72/73/68 63/64/60
f 63/64/60 72/73/68 73/74/69
f 63/64/60 73/74/69 74/75/70
f 38/76/35 41/77/38 75/78/71
f 38/76/35 75/78/71 76/79/72
f 76/79/72 75/78/71 77/80/73
f 76/79/72 77/80/73 78/81/74
f 78/82/74 1/1/1 22/83/19
f 1/1/1 78/82/74 3/2/2
f 77/84/73 3/2/2 78/82/74
f 3/2/2 77/84/73 79/85/75
f 3/2/2 79/85/75 80/86/76
f 81/87/77 3/2/2 80/86/76
f 81/87/77 80/86/76 82/88/78
f 82/88/78 80/86/76 79/85/75
f 82/88/78 79/85/75 83/89/79
f 84/90/80 83/89/79 79/85/75
f 77/84/73 84/90/80 79/85/75
f 84/90/80 85/91/81 83/89/79
f 86/92/82 85/91/81 84/90/80
f 86/92/82 84/90/80 87/93/83
f 77/84/73 87/93/83 84/90/80
f 87/93/83 77/84/73 88/94/84
f 88/94/84 89/95/85 87/93/83
f 89/95/85 90/96/86 87/93/83
f 89/95/85 91/97/87 90/96/86
f 72/98/68 91/97/87 89/95/85
f 72/98/68 89/95/85 73/99/69
f 88/94/84 73/99/69 89/95/85
f 73/99/69 88/94/84 74/100/70
f 30/101/27 38/102/35 76/103/72
f 30/101/27 76/103/72 25/104/22
f 25/104/22 76/103/72 78/105/74
f 25/104/22 78/105/74 22/106/19
f 48/107/45 75/108/71 41/109/38
f 48/107/45 92/110/88 75/108/71
f 92/110/88 77/111/73 75/108/71
f 92/110/88 88/112/84 77/111/73
f 54/113/51 93/114/89 52/115/49
f 54/113/51 59/116/56 93/114/89
f 52/117/49 92/118/88 48/119/45
f 52/117/49 93/120/90 92/118/88
f 93/120/90 88/121/84 92/118/88
f 93/120/90 74/122/70 88/121/84
f 59/116/56 74/123/70 93/114/90
f 59/116/56 63/124/60 74/123/70
f 7/125/5 95/126/91 94/127/92
f 7/125/5 8/128/6 95/126/91
f 95/126/91 8/128/6 9/129/7
f 95/126/91 9/129/7 96/130/93
f 90/131/86 98/132/94 97/133/95
f 90/131/86 91/134/87 98/132/94
f 98/132/94 91/134/87 72/135/68
f 98/132/94 72/135/68 99/136/96
f 81/129/77 101/137/97 100/130/98
f 81/129/77 82/138/78 101/137/97
f 101/137/97 82/138/78 83/139/79
f 101/137/97 83/139/79 102/140/99
f 83/139/79 103/141/100 102/140/99
f 83/139/79 85/142/81 103/141/100
f 103/141/100 85/142/81 86/131/82
f 103/141/100 86/131/82 104/133/101
f 105/143/102 5/144/103 6/145/104
f 105/143/102 106/146/105 5/144/103
f 106/146/105 4/147/106 5/144/103
f 106/146/105 107/148/107 4/147/106
f 105/143/102 108/149/108 106/146/105
f 108/149/108 107/148/107 106/146/105
f 105/143/102 109/150/109 108/149/108
f 108/149/108 110/151/110 107/148/107
f 111/10/111 113/12/112 112/11/113
f 111/10/111 112/11/113 114/13/114
f 115/14/115 111/10/111 114/13/114
f 114/13/114 112/11/113 116/15/116
f 115/14/115 114/13/114 117/16/117
f 118/17/118 115/14/115 117/16/117
f 114/13/114 116/15/116 119/18/119
f 117/16/117 114/13/114 119/18/119
f 119/18/119 116/15/116 105/19/102
f 118/17/118 117/16/117 120/20/120
f 121/21/121 118/17/118 120/20/120
f 119/18/119 105/19/102 122/22/122
f 122/22/122 105/19/102 6/5/104
f 117/16/117 119/18/119 123/24/123
f 120/20/120 117/16/117 123/24/123
f 123/24/123 119/18/119 122/22/122
f 121/21/121 120/20/120 124/27/124
f 125/28/125 121/21/121 124/27/124
f 120/20/120 123/24/123 126/29/126
f 124/27/124 120/20/120 126/29/126
f 123/24/123 122/22/122 127/25/127
f 126/29/126 123/24/123 127/25/127
f 122/22/122 6/5/104 128/23/128
f 127/25/127 122/22/122 128/23/128
f 6/5/104 129/152/129 128/23/128
f 127/25/127 128/23/128 130/26/130
f 129/152/129 6/5/104 4/4/131
f 4/4/131 131/153/132 129/152/129
f 131/153/132 4/4/131 132/154/133
f 131/153/132 132/154/133 133/155/134
f 134/156/135 131/153/132 133/155/134
f 135/157/136 129/152/129 131/153/132
f 136/158/137 131/153/132 134/156/135
f 135/157/136 131/153/132 137/159/138
f 131/153/132 136/158/137 138/160/139
f 139/39/140 135/157/136 137/159/138
f 140/161/141 138/160/139 136/158/137
f 139/39/140 137/159/138 141/42/142
f 142/74/143 138/160/139 140/161/141
f 138/160/139 142/74/143 143/75/144
f 144/162/145 138/160/139 143/75/144
f 144/162/145 145/163/146 138/160/139
f 146/64/147 143/75/144 142/74/143
f 147/53/148 145/163/146 144/162/145
f 146/64/147 142/74/143 148/73/149
f 147/53/148 149/49/150 145/163/146
f 150/67/151 146/64/147 148/73/149
f 150/67/151 148/73/149 151/72/152
f 152/63/153 146/64/147 150/67/151
f 152/63/153 153/60/154 146/64/147
f 154/68/155 150/67/151 151/72/152
f 154/68/155 151/72/152 155/70/156
f 156/69/157 154/68/155 155/70/156
f 156/69/157 155/70/156 157/71/158
f 158/66/159 154/68/155 156/69/157
f 159/65/160 150/67/151 154/68/155
f 158/66/159 159/65/160 154/68/155
f 159/65/160 152/63/153 150/67/151
f 160/62/161 159/65/160 158/66/159
f 160/62/161 161/61/162 159/65/160
f 161/61/162 152/63/153 159/65/160
f 162/58/163 161/61/162 160/62/161
f 163/59/164 153/60/154 152/63/153
f 161/61/162 163/59/164 152/63/153
f 163/59/164 164/55/165 153/60/154
f 162/58/163 165/57/166 161/61/162
f 165/57/166 163/59/164 161/61/162
f 166/45/167 165/57/166 162/58/163
f 167/56/168 164/55/165 163/59/164
f 165/57/166 167/56/168 163/59/164
f 166/45/167 168/44/167 165/57/166
f 168/44/167 167/56/168 165/57/166
f 169/33/169 168/44/167 166/45/167
f 167/56/168 170/54/170 164/55/165
f 170/54/170 147/53/148 164/55/165
f 168/44/167 171/50/171 167/56/168
f 171/50/171 170/54/170 167/56/168
f 169/33/169 172/37/172 168/44/167
f 172/37/172 171/50/171 168/44/167
f 170/54/170 173/52/173 147/53/148
f 173/52/173 149/49/150 147/53/148
f 171/50/171 174/51/174 170/54/170
f 174/51/174 173/52/173 170/54/170
f 173/52/173 175/48/175 149/49/150
f 174/51/174 175/48/175 173/52/173
f 175/48/175 141/42/142 149/49/150
f 176/43/176 174/51/174 171/50/171
f 172/37/172 176/43/176 171/50/171
f 169/33/169 177/32/177 172/37/172
f 169/33/169 125/28/125 177/32/177
f 125/28/125 124/27/124 177/32/177
f 178/46/178 175/48/175 174/51/174
f 176/43/176 178/46/178 174/51/174
f 175/48/175 179/47/179 141/42/142
f 178/46/178 179/47/179 175/48/175
f 180/41/180 141/42/142 179/47/179
f 178/46/178 180/41/180 179/47/179
f 180/41/180 139/39/140 141/42/142
f 172/37/172 181/36/181 176/43/176
f 172/37/172 177/32/177 181/36/181
f 177/32/177 124/27/124 182/34/182
f 177/32/177 182/34/182 181/36/181
f 124/27/124 126/29/126 182/34/182
f 176/43/176 183/40/183 178/46/178
f 178/46/178 183/40/183 180/41/180
f 176/43/176 181/36/181 183/40/183
f 184/38/184 139/39/140 180/41/180
f 183/40/183 184/38/184 180/41/180
f 184/38/184 185/31/185 139/39/140
f 181/36/181 186/35/186 183/40/183
f 183/40/183 186/35/186 184/38/184
f 181/36/181 182/34/182 186/35/186
f 186/35/186 185/31/185 184/38/184
f 182/34/182 126/29/126 187/30/187
f 182/34/182 187/30/187 186/35/186
f 186/35/186 187/30/187 185/31/185
f 126/29/126 127/25/127 187/30/187
f 187/30/187 130/26/130 185/31/185
f 187/30/187 127/25/127 130/26/130
f 148/164/149 142/165/143 140/166/141
f 148/164/149 140/166/141 188/167/188
f 189/168/189 148/164/149 188/167/188
f 189/168/189 190/169/190 148/164/149
f 140/166/141 191/170/191 188/167/188
f 191/170/191 189/168/189 188/167/188
f 140/166/141 136/171/137 191/170/191
f 191/170/191 192/172/192 189/168/189
f 185/101/185 135/103/136 139/102/140
f 185/101/185 130/104/130 135/103/136
f 130/104/130 129/105/129 135/103/136
f 130/104/130 128/106/128 129/105/129
f 149/107/150 141/109/142 137/108/138
f 149/107/150 137/108/138 145/110/146
f 145/110/146 137/108/138 131/111/132
f 145/110/146 131/111/132 138/112/139
f 164/113/165 144/114/193 153/116/154
f 164/113/165 147/115/148 144/114/193
f 153/116/154 143/123/144 146/124/147
f 153/116/154 144/114/145 143/123/144
f 193/148/194 132/173/133 4/147/131
f 193/148/194 194/174/195 132/173/133
f 194/174/195 133/175/134 132/173/133
f 193/148/194 195/176/196 194/174/195
f 193/148/194 196/151/197 195/176/196
f 194/174/195 197/177/198 133/175/134
f 195/176/196 197/177/198 194/174/195
f 195/176/196 198/178/199 197/177/198
f 134/179/135 133/175/134 197/177/198
f 197/177/198 198/178/199 199/180/200
f 134/179/135 197/177/198 200/181/201
f 197/177/198 199/180/200 200/181/201
f 201/170/202 134/179/135 200/181/201
f 199/180/200 201/170/202 200/181/201
f 201/170/202 136/171/137 134/179/135
f 199/180/200 202/172/203 201/170/202
f 15/182/204 7/183/205 105/183/206
f 15/182/204 105/183/206 116/182/207
f 12/184/208 15/182/204 116/182/207
f 12/184/208 116/182/207 112/184/208
f 11/185/209 12/184/208 112/184/208
f 11/185/209 112/184/208 113/185/209
f 9/186/210 3/187/211 4/187/211
f 9/186/210 4/187/211 107/186/210
f 96/188/212 9/186/210 107/186/210
f 96/188/212 107/186/210 110/188/213
f 10/189/214 11/185/215 113/185/215
f 10/189/214 113/185/215 111/189/216
f 14/190/217 10/189/214 111/189/216
f 14/190/217 111/189/216 115/190/217
f 17/191/218 14/190/217 115/190/217
f 17/191/218 115/190/217 118/191/218
f 20/192/219 17/191/218 118/191/218
f 20/192/219 118/191/218 121/192/219
f 27/193/220 20/192/219 121/192/219
f 27/193/220 121/192/219 125/193/218
f 32/194/221 27/193/220 125/193/218
f 32/194/221 125/193/218 169/194/221
f 44/195/222 32/194/221 169/194/221
f 44/195/222 169/194/221 166/195/222
f 57/196/223 44/195/222 166/195/222
f 57/196/223 166/195/222 162/196/222
f 61/197/224 57/196/223 162/196/222
f 61/197/224 162/196/222 160/197/224
f 65/198/225 61/197/224 160/197/224
f 65/198/225 160/197/224 158/198/225
f 68/199/226 65/198/225 158/198/225
f 68/199/226 158/198/225 156/199/227
f 70/200/228 68/199/226 156/199/227
f 70/200/228 156/199/227 157/200/228
f 72/201/229 151/202/230 148/201/229
f 72/201/229 71/202/231 151/202/230
f 71/202/231 155/203/232 151/202/230
f 71/202/231 69/203/232 155/203/232
f 69/203/232 157/200/233 155/203/232
f 69/203/232 70/200/233 157/200/233
f 86/204/234 87/205/235 136/205/235
f 86/204/234 136/205/235 201/204/236
f 104/206/237 86/204/234 201/204/236
f 104/206/237 201/204/236 202/206/237
f 87/205/238 191/204/239 136/205/238
f 87/205/238 90/204/239 191/204/239
f 90/204/239 192/206/240 191/204/239
f 90/204/239 97/206/241 192/206/240
f 3/187/242 193/186/243 4/187/242
f 3/187/242 81/186/243 193/186/243
f 81/186/243 196/188/244 193/186/243
f 81/186/243 100/188/244 196/188/244
f 95/207/245 96/188/246 110/188/246
f 95/207/245 110/188/246 108/207/245
f 94/208/247 95/207/245 108/207/245
f 94/208/247 108/207/245 109/208/247
f 97/206/248 189/209/248 192/206/248
f 97/206/248 98/209/248 189/209/248
f 98/209/248 190/210/248 189/209/248
f 98/209/248 99/210/248 190/210/248
f 7/211/249 109/208/249 105/211/249
f 7/211/249 94/208/249 109/208/249
f 99/210/250 148/212/251 190/210/250
f 99/210/250 72/212/251 148/212/251
f 100/188/248 195/213/248 196/188/248
f 100/188/248 101/213/248 195/213/248
f 101/213/248 198/214/246 195/213/248
f 101/213/248 102/214/246 198/214/246
f 102/214/246 199/215/248 198/214/246
f 102/214/246 103/215/252 199/215/248
f 103/215/252 202/206/248 199/215/248
f 103/215/252 104/206/252 202/206/248
