# Blender 4.3.2
# www.blender.org
mtllib Hair_Shaggy.mtl
o _impHair_shaggyHair
v 0.254396 0.794256 0.076846
v -0.003697 0.796050 0.316031
v -0.003697 1.019363 0.451910
v 0.264679 0.753333 0.311408
v -0.003697 0.719036 1.041799
v 0.249773 0.617938 0.482067
v 0.452521 0.699921 0.046413
v 0.476191 0.644299 0.254268
v 0.411116 0.717932 -0.120933
v 0.232866 0.802951 -0.207471
v -0.003697 0.819444 -0.222445
v -0.003697 1.067669 -0.463425
v 0.245494 0.649751 -0.390896
v 0.452797 0.581501 -0.241492
v 0.777829 0.525880 -0.368813
v 0.586468 0.449832 0.152204
v 0.586398 0.323270 -0.179729
v 0.438098 0.525880 0.437142
v 0.255708 0.468188 -0.541198
v -0.003697 0.489443 -0.580602
v -0.003697 0.328721 -0.672936
v 0.475501 0.399110 -0.366053
v 0.276962 0.240597 -0.568870
v 0.914191 -0.280904 -0.695019
v -0.003697 0.167033 -0.692120
v 0.298286 0.013005 -0.596543
v -0.000523 -0.521745 -0.836142
v 0.188355 -0.437899 -0.537402
v 0.461009 -0.179668 -0.488268
v 0.411323 -0.508495 -0.418914
v 0.566248 -0.282077 -0.295526
v 0.750709 -0.588063 -0.377094
v 0.621662 0.156061 -0.005481
v 0.607032 0.077529 -0.053235
v 0.628770 0.194637 0.016740
v 0.576323 0.020596 -0.237627
v 0.573839 0.029706 0.259582
v 0.570733 -0.084090 0.267863
v 0.566041 -0.363301 0.284701
v 0.455143 -0.118457 0.366891
v 0.460526 -0.329279 0.297675
v 0.635947 0.233213 0.038892
v 0.576944 0.143432 0.251301
v 0.544648 0.349700 0.365166
v 0.489993 -0.278282 0.507324
v 0.428023 -0.265101 0.492902
v 0.398349 -0.094028 0.347638
v 0.488337 0.299875 0.440455
v 0.403870 0.444587 0.476408
v 0.436787 0.259229 0.568949
v -0.003697 0.423264 0.689646
v -0.261722 0.794256 0.076846
v -0.272004 0.753333 0.311408
v -0.250887 0.627875 0.534997
v -0.459915 0.699921 0.046413
v -0.483516 0.644299 0.254268
v -0.418441 0.717932 -0.120933
v -0.240191 0.802951 -0.207471
v -0.252820 0.649751 -0.390896
v -0.460122 0.581501 -0.241492
v -0.785155 0.525880 -0.368813
v -0.593793 0.449832 0.152204
v -0.593724 0.323270 -0.179729
v -0.445424 0.525880 0.437142
v -0.263033 0.468188 -0.541198
v -0.482826 0.399110 -0.366053
v -0.284288 0.240597 -0.568870
v -0.921516 -0.280904 -0.695019
v -0.305611 0.013005 -0.596543
v -0.194162 -0.437830 -0.537540
v -0.468334 -0.179668 -0.488268
v -0.418096 -0.508288 -0.419259
v -0.573573 -0.282077 -0.295526
v -0.758034 -0.588063 -0.377094
v -0.628987 0.156061 -0.005481
v -0.614357 0.077529 -0.053235
v -0.636095 0.194637 0.016740
v -0.583649 0.020596 -0.237627
v -0.581164 0.029706 0.259582
v -0.578059 -0.084090 0.267863
v -0.573366 -0.322999 0.285323
v -0.462469 -0.106725 0.367029
v -0.449978 -0.164624 0.296640
v -0.474959 -0.186085 0.607318
v -0.584270 0.143432 0.251301
v -0.495662 0.300359 0.407261
v -0.643272 0.233213 0.038892
v -0.551973 0.349700 0.365166
v -0.411195 0.444587 0.476408
v 0.012865 0.169035 0.750719
v -0.421753 -0.124460 0.153929
v 0.414428 -0.124460 0.153929
v 0.209748 0.583295 0.446320
v 0.030048 0.677079 0.905575
v 0.030669 0.432787 0.551214
v 0.316780 0.318922 0.528027
v 0.394968 0.499380 0.397945
v 0.367019 0.426507 0.427688
v 0.486750 0.340867 0.337493
v 0.433751 0.295666 0.406157
v 0.514008 0.146883 0.234946
v 0.511455 0.044612 0.248748
v 0.261642 -0.028952 0.167455
v 0.261642 0.024047 0.169180
v 0.257433 0.106029 0.203754
v 0.196636 0.181180 0.251439
v 0.107752 0.226864 0.273729
v 0.001686 0.266337 0.381038
v 0.086222 0.180559 0.184155
v 0.002859 0.207542 0.213691
v 0.168342 0.134599 0.146269
v 0.219685 0.080841 0.098860
v 0.212232 0.006242 0.072499
v 0.223825 -0.106932 0.054143
v 0.080701 0.164618 0.076294
v 0.002859 0.207058 0.084644
v 0.002859 0.183250 -0.008035
v 0.140808 0.141431 0.097618
v 0.083737 0.143708 0.011012
v 0.002859 0.090641 -0.054547
v 0.167721 0.098576 0.052555
v 0.089741 0.055446 -0.031567
v 0.003342 -0.000383 -0.066761
v 0.186975 0.007968 0.003421
v 0.122934 -0.046411 -0.059101
v 0.225344 -0.119078 -0.033361
v 0.186975 -0.186293 0.021777
v 0.275099 -0.224386 0.066150
v 0.312433 -0.050966 0.197060
v 0.004929 -0.094580 -0.037225
v -0.116596 -0.045997 -0.059584
v 0.096435 -0.112729 -0.009760
v -0.087888 -0.111211 -0.011899
v -0.219488 -0.118526 -0.034120
v -0.180843 -0.183670 0.018120
v 0.003825 -0.355503 -0.165789
v 0.106372 -0.333765 -0.134942
v 0.288487 -0.419957 -0.103405
v 0.701574 -0.606971 -0.215889
v -0.170216 0.581846 0.392217
v 0.093882 0.162203 0.596829
v -0.360266 0.489719 0.292016
v -0.334319 0.424506 0.319413
v -0.494834 0.341488 0.335837
v -0.442180 0.296701 0.371308
v -0.521264 0.146331 0.235222
v -0.412644 -0.173595 0.593448
v -0.518918 0.045164 0.248886
v -0.406157 -0.081468 0.347638
v -0.524301 -0.067942 0.235981
v -0.444526 -0.136744 0.240398
v -0.313271 0.007899 0.168490
v -0.257857 0.023978 0.169249
v -0.253717 0.106098 0.203616
v -0.192506 0.181801 0.251577
v -0.103001 0.228727 0.281941
v -0.080435 0.180490 0.184224
v -0.162487 0.134599 0.146338
v -0.213898 0.080841 0.098860
v -0.206445 0.006242 0.072499
v -0.218453 -0.106311 0.053245
v -0.074914 0.164618 0.076294
v -0.135021 0.141431 0.097618
v -0.077951 0.143708 0.011012
v -0.161935 0.098576 0.052555
v -0.083955 0.055446 -0.031567
v -0.181188 0.007968 0.003421
v -0.329488 -0.183877 0.062148
v -0.565499 0.186977 0.146684
v -0.713247 -0.479098 -0.242389
v -0.561704 0.088294 0.131847
v -0.289601 -0.417335 -0.107960
v -0.101414 -0.332937 -0.136460
v -0.550317 -0.294291 0.233842
v -0.452807 -0.098375 0.105071
v 0.548858 0.076839 0.147857
v 0.516768 -0.068425 0.236119
v 0.541129 -0.338664 0.231979
v 0.447276 -0.102447 0.104174
v 0.436718 -0.138331 0.239708
vn 0.4111 0.9116 -0.0000
vn 0.6539 0.2856 0.7005
vn 0.0119 0.8963 0.4433
vn 0.5286 0.7711 0.3550
vn 0.0041 0.9746 0.2238
vn 0.6383 0.5439 0.5447
vn 0.6383 0.7554 0.1483
vn 0.7087 0.6223 0.3323
vn 0.4034 0.8650 -0.2984
vn 0.4660 0.8728 -0.1448
vn -0.0037 0.9824 -0.1865
vn -0.0000 0.9981 -0.0614
vn 0.6383 0.7476 0.1837
vn 0.5756 0.5048 -0.6432
vn 0.4347 0.6458 -0.6277
vn 0.9123 0.4031 0.0723
vn 0.9280 0.2621 0.2649
vn 0.9906 0.0585 0.1235
vn 0.6774 0.4735 0.5629
vn 0.4347 0.4109 -0.8014
vn -0.0037 0.3326 -0.9431
vn -0.0037 0.3404 -0.9403
vn -0.0037 0.2387 -0.9711
vn 0.4112 0.4265 -0.8056
vn 0.0746 -0.1920 -0.9786
vn 0.0745 -0.1920 -0.9786
vn 0.3095 0.3326 -0.8909
vn 0.3877 0.5048 -0.7712
vn -0.0037 0.0508 -0.9987
vn 0.2781 -0.1372 -0.9507
vn 0.6226 -0.0041 -0.7825
vn 0.5522 -0.0746 -0.8304
vn 0.1059 -0.2234 -0.9690
vn 0.4425 -0.0511 -0.8953
vn 0.5209 0.2699 -0.8098
vn 0.4973 0.1995 -0.8443
vn 0.9984 -0.0276 -0.0485
vn 0.4581 0.4579 -0.7619
vn 0.9984 -0.0276 -0.0484
vn 0.9671 0.2386 0.0879
vn 0.9593 -0.2781 0.0490
vn 0.9515 -0.0902 0.2943
vn 0.9983 -0.0589 -0.0000
vn 0.6696 -0.1294 0.7314
vn 0.9828 -0.1293 0.1319
vn 0.9515 -0.0041 0.3077
vn 0.9201 0.3169 0.2300
vn 0.9201 0.3170 0.2300
vn 0.9123 0.1290 0.3887
vn 0.9515 -0.3016 0.0612
vn 0.5208 -0.6226 -0.5840
vn 0.0119 -0.6539 -0.7565
vn 0.8810 0.0351 0.4718
vn 0.5522 0.3091 0.7743
vn 0.6696 -0.0667 0.7397
vn 0.6775 -0.1059 0.7279
vn 0.6774 -0.1059 0.7279
vn -0.4108 0.9117 -0.0000
vn -0.6536 0.2857 0.7009
vn -0.5204 0.7789 0.3499
vn -0.6066 0.5753 0.5487
vn -0.6379 0.7554 0.1497
vn -0.7162 0.6223 0.3158
vn -0.4031 0.8650 -0.2989
vn -0.4657 0.8728 -0.1459
vn -0.6379 0.7476 0.1849
vn -0.5753 0.5048 -0.6435
vn -0.4344 0.6458 -0.6279
vn -0.9120 0.4031 0.0764
vn -0.9276 0.2621 0.2660
vn -0.9903 0.0585 0.1261
vn -0.6536 0.3795 0.6548
vn -0.4344 0.4109 -0.8016
vn -0.4109 0.4265 -0.8058
vn -0.0742 -0.1920 -0.9786
vn -0.3091 0.3326 -0.8910
vn -0.3874 0.5049 -0.7714
vn -0.2778 -0.1372 -0.9508
vn -0.6223 -0.0041 -0.7827
vn -0.5518 -0.0746 -0.8306
vn -0.1056 -0.2233 -0.9690
vn -0.4422 -0.0511 -0.8955
vn -0.5283 0.2696 -0.8051
vn -0.4970 0.1995 -0.8445
vn -0.9981 -0.0354 -0.0503
vn -0.4579 0.4579 -0.7620
vn -0.9981 -0.0276 -0.0550
vn -0.9668 0.2386 0.0915
vn -0.9511 -0.2937 0.0952
vn -0.9746 -0.1137 0.1929
vn -0.9978 -0.0667 -0.0000
vn -0.8885 -0.4269 0.1684
vn -0.6536 -0.3095 0.6907
vn -0.9433 -0.1137 0.3118
vn -0.9511 -0.0041 0.3088
vn -0.8650 0.0664 0.4974
vn -0.9903 -0.1293 0.0512
vn -0.9041 0.1447 0.4020
vn -0.5048 0.1290 0.8535
vn -0.9198 0.3169 0.2313
vn -0.6301 -0.1450 0.7629
vn -0.6927 -0.3564 0.6270
vn -0.6928 -0.3564 0.6269
vn 0.4660 -0.4190 0.7792
vn 0.4660 -0.4191 0.7792
vn 0.4660 -0.4190 0.7793
vn -0.1916 -0.8105 0.5534
vn -0.1916 -0.8105 0.5535
vn -0.1918 -0.8105 0.5535
vn -0.1917 -0.8105 0.5535
vn -0.4735 -0.7792 0.4106
vn 0.2860 -0.3016 -0.9095
vn 0.4739 -0.7792 0.4102
vn 0.4738 -0.7792 0.4103
vn -0.2856 -0.3016 -0.9096
vn -0.6301 0.1603 -0.7598
vn -0.6379 0.2543 -0.7269
vn -0.6380 0.2543 -0.7269
vn -0.4966 -0.6136 -0.6139
vn -0.5283 -0.3172 -0.7875
vn -0.4109 -0.3721 -0.8323
vn -0.8806 -0.0432 -0.4718
vn -0.8885 -0.0354 -0.4576
vn -0.9120 -0.0198 -0.4097
vn -0.4970 0.2856 0.8194
vn -0.7006 0.5518 0.4524
vn -0.7005 0.5519 0.4524
vn -0.1525 -0.2859 0.9460
vn -0.6301 -0.1372 0.7643
vn -0.3953 -0.1998 0.8966
vn -0.0273 -0.4347 0.9002
vn -0.1212 -0.4817 0.8679
vn 0.0041 -0.4347 0.9006
vn -0.0507 -0.4974 0.8660
vn 0.5600 -0.5521 0.6177
vn 0.3642 -0.6226 0.6926
vn 0.6853 -0.5522 0.4749
vn -0.0664 -0.7323 0.6778
vn -0.2699 -0.9123 0.3079
vn 0.0041 -0.9593 0.2824
vn -0.4500 -0.8105 0.3748
vn -0.7789 -0.4425 0.4444
vn -0.9041 -0.1920 0.3816
vn -0.8572 -0.2233 0.4641
vn -0.4422 -0.8810 0.1682
vn -0.0037 -0.9906 0.1366
vn -0.0037 -0.7636 0.6457
vn -0.4970 -0.8340 0.2396
vn -0.4892 -0.6148 0.6186
vn -0.0037 -0.3642 0.9313
vn -0.6301 -0.5443 0.5538
vn -0.4031 -0.3643 0.8396
vn -0.0037 0.0272 0.9996
vn -0.7006 -0.3642 0.6136
vn -0.2230 0.0351 0.9742
vn -0.8259 -0.1998 0.5273
vn -0.8102 0.1447 0.5681
vn -0.7710 -0.2233 0.5963
vn -0.4344 -0.1137 0.8935
vn -0.0116 -0.2076 0.9781
vn 0.2233 0.0351 0.9741
vn -0.2542 -0.2155 0.9428
vn 0.2390 -0.2311 0.9431
vn -0.1682 0.5440 0.8221
vn -0.0037 -0.9280 0.3726
vn -0.2543 -0.8732 0.4159
vn -0.3405 -0.5835 0.7373
vn -0.3404 -0.8497 0.4027
vn 0.1293 -0.5287 0.8389
vn -0.1760 -0.9123 0.3697
vn -0.3639 -0.9280 0.0802
vn -0.3324 -0.9431 -0.0000
vn 0.6305 0.1212 -0.7667
vn 0.7322 0.4109 -0.5431
vn 0.8497 0.3952 -0.3491
vn 0.9515 0.2308 -0.2035
vn 0.9123 0.2151 0.3484
vn 0.4582 -0.1529 -0.8756
vn 0.4504 -0.1607 -0.8783
vn 0.7949 -0.1607 -0.5851
vn 0.8497 -0.1215 -0.5131
vn 0.9280 0.0116 -0.3725
vn 0.9436 0.1134 -0.3109
vn 0.8888 0.4500 -0.0863
vn 0.8810 0.4423 -0.1682
vn 0.6696 0.3091 -0.6753
vn 0.6696 0.3091 -0.6754
vn 0.0276 -0.3643 0.9309
vn 0.0902 -0.3721 0.9238
vn 0.2938 -0.0275 0.9555
vn 0.3643 -0.3643 0.8571
vn 0.1372 -0.2625 0.9551
vn 0.1764 -0.3877 0.9047
vn -0.0899 -0.2625 0.9608
vn 0.0119 -0.3408 0.9401
vn -0.6771 -0.4190 0.6049
vn -0.5127 -0.5052 0.6942
vn -0.7632 -0.4347 0.4780
vn 0.2625 -0.9201 0.2906
vn 0.4425 -0.8184 0.3666
vn 0.7714 -0.4425 0.4573
vn 0.8184 -0.3094 0.4843
vn 0.2546 -0.4504 0.8557
vn 0.4425 -0.8810 0.1673
vn 0.4974 -0.8340 0.2389
vn 0.4895 -0.6148 0.6184
vn 0.6304 -0.5443 0.5534
vn 0.4034 -0.3642 0.8394
vn 0.7009 -0.3642 0.6132
vn 0.7714 -0.2390 0.5898
vn 0.1842 -0.5600 0.8078
vn -0.1603 -0.5052 0.8480
vn -0.2386 -0.4504 0.8604
vn 0.0197 -0.8183 0.5744
vn -0.2621 -0.4425 0.8576
vn 0.1842 -0.8262 0.5324
vn 0.1293 -0.9201 0.3696
vn 0.2546 -0.9358 0.2437
vn 0.2390 -0.8732 0.4248
vn 0.0980 -0.9750 0.1996
vn 0.8967 -0.1215 -0.4257
vn 0.9202 -0.0432 -0.3892
vn 0.9201 -0.0432 -0.3892
vn 0.8419 -0.3094 -0.4422
vn 0.8497 -0.2860 -0.4429
vn 0.8810 -0.1920 -0.4324
vn 0.6226 -0.6618 -0.4176
vn 0.6226 -0.6618 -0.4177
vn -0.7084 0.4970 -0.5012
vn -0.7083 0.4971 -0.5012
vn -0.7711 -0.2546 -0.5836
vn -0.3953 -0.4112 -0.8214
vn -0.3952 -0.4112 -0.8214
vn -0.8415 -0.2938 -0.4534
vn -0.8729 -0.1763 -0.4550
vn -0.8650 -0.2625 -0.4276
vn -0.8885 -0.4190 -0.1871
vn -0.9668 -0.2547 -0.0220
vn -0.9668 -0.0980 0.2360
vn -0.9590 -0.1842 0.2156
vn -0.9433 -0.2859 0.1686
vn -0.9433 -0.2860 0.1686
vn 0.7557 0.4109 -0.5100
vn 0.2468 -0.4582 0.8539
vn -0.0429 -0.5913 -0.8053
vn -0.0428 -0.5914 -0.8053
vn -0.2543 0.0116 0.9671
vn 0.1763 0.5518 0.8151
vn -0.6849 0.3091 -0.6598
vn -0.3717 0.1290 0.9193
vn -0.4344 -0.0120 0.9006
vn -0.4187 0.0194 0.9079
vn -0.5440 -0.4425 0.7129
vn -0.5440 -0.4426 0.7129
vn 0.3095 -0.5365 -0.7851
vn -0.1447 -0.8810 -0.4505
vn -0.1055 -0.9750 0.1958
vn -0.0037 -0.9671 0.2543
vn 0.9593 0.0664 0.2745
vn 0.3408 0.3952 0.8530
vn 0.3407 0.3952 0.8531
vn -0.4500 -0.8810 -0.1460
vn 0.6774 -0.5130 0.5272
vn 0.6775 -0.5130 0.5272
vn -0.9590 0.0821 0.2714
vn -0.9590 0.0820 0.2714
vn -0.3796 -0.9123 -0.1536
vn 0.5678 0.7789 0.2663
vn 0.5679 0.7788 0.2664
vn 0.3486 -0.9123 -0.2148
vn 0.7870 -0.5679 0.2411
vn 0.7871 -0.5678 0.2411
vn 0.4269 -0.8888 -0.1666
vn 0.2076 -0.9280 -0.3094
vt 0.549551 0.419552
vt 0.694253 0.423421
vt 0.631575 0.380088
vt 0.606039 0.389373
vt 0.810324 0.297290
vt 0.636218 0.342171
vt 0.522468 0.412588
vt 0.567349 0.383183
vt 0.483778 0.428838
vt 0.475266 0.446635
vt 0.483778 0.438123
vt 0.436576 0.530980
vt 0.411040 0.426516
vt 0.438897 0.410266
vt 0.426516 0.416457
vt 0.520147 0.356874
vt 0.429611 0.356874
vt 0.602944 0.339850
vt 0.355326 0.397112
vt 0.349909 0.387052
vt 0.310445 0.356100
vt 0.391695 0.380862
vt 0.330564 0.347588
vt 0.264017 0.297290
vt 0.292648 0.318183
vt 0.306576 0.301159
vt 0.258600 0.188958
vt 0.294195 0.229195
vt 0.319731 0.266338
vt 0.317409 0.224553
vt 0.358421 0.241576
vt 0.318183 0.206755
vt 0.457468 0.311219
vt 0.440445 0.298064
vt 0.465206 0.317409
vt 0.393242 0.297290
vt 0.510087 0.263243
vt 0.503123 0.240029
vt 0.484552 0.186636
vt 0.527885 0.216815
vt 0.508540 0.211398
vt 0.472945 0.324374
vt 0.517825 0.285683
vt 0.563480 0.316636
vt 0.558063 0.193600
vt 0.558837 0.191279
vt 0.579730 0.296517
vt 0.606813 0.317409
vt 0.621515 0.280267
vt 0.686515 0.260148
vt 0.582825 0.383183
vt 0.647051 0.348362
vt 0.692706 0.297290
vt 0.577408 0.342945
vt 0.635444 0.305029
vt 0.524790 0.369254
vt 0.497706 0.415683
vt 0.427290 0.391695
vt 0.474492 0.339850
vt 0.487647 0.290326
vt 0.589789 0.252410
vt 0.472945 0.250862
vt 0.670265 0.260922
vt 0.364612 0.357647
vt 0.418004 0.301159
vt 0.336755 0.299612
vt 0.254731 0.098422
vt 0.309671 0.243898
vt 0.295743 0.189731
vt 0.328243 0.169612
vt 0.323600 0.133243
vt 0.378540 0.115446
vt 0.330564 0.025684
vt 0.510087 0.187410
vt 0.486873 0.174255
vt 0.521694 0.194374
vt 0.424195 0.181219
vt 0.571992 0.140208
vt 0.561158 0.113898
vt 0.540266 0.061279
vt 0.578956 0.116994
vt 0.552647 0.111577
vt 0.635444 0.079851
vt 0.582051 0.167291
vt 0.638539 0.202886
vt 0.533301 0.201338
vt 0.636992 0.211398
vt 0.668718 0.241576
vt 0.672587 0.202112
vt 0.516278 0.135565
vt 0.479135 0.226874
vt 0.626158 0.334433
vt 0.674908 0.270207
vt 0.792527 0.295743
vt 0.612230 0.279493
vt 0.593658 0.334433
vt 0.595206 0.314314
vt 0.558837 0.312767
vt 0.574313 0.293421
vt 0.517052 0.282588
vt 0.511635 0.261695
vt 0.467528 0.313540
vt 0.474492 0.321278
vt 0.517052 0.351457
vt 0.561158 0.373897
vt 0.596754 0.378540
vt 0.615325 0.371576
vt 0.544909 0.404076
vt 0.679551 0.411814
vt 0.518599 0.398659
vt 0.432707 0.407171
vt 0.434254 0.351457
vt 0.394016 0.292648
vt 0.474492 0.430385
vt 0.476814 0.421100
vt 0.439671 0.512409
vt 0.484552 0.412588
vt 0.419552 0.412588
vt 0.365385 0.376993
vt 0.447409 0.395564
vt 0.367707 0.384731
vt 0.326695 0.346814
vt 0.400981 0.368481
vt 0.344493 0.337528
vt 0.272529 0.294969
vt 0.379314 0.249314
vt 0.412588 0.219136
vt 0.500802 0.297290
vt 0.352231 0.293421
vt 0.352231 0.291874
vt 0.366159 0.280267
vt 0.375445 0.225326
vt 0.267886 0.108482
vt 0.395564 0.160327
vt 0.298838 0.171160
vt 0.331338 0.212172
vt 0.353005 0.207529
vt 0.353778 0.188184
vt 0.674134 0.296517
vt 0.658658 0.211398
vt 0.652468 0.264017
vt 0.650146 0.248541
vt 0.623063 0.219136
vt 0.623837 0.211398
vt 0.573539 0.178124
vt 0.628480 0.092232
vt 0.565801 0.153362
vt 0.572766 0.131696
vt 0.550325 0.127827
vt 0.540266 0.122410
vt 0.518599 0.202886
vt 0.527885 0.211398
vt 0.578182 0.257053
vt 0.619968 0.301159
vt 0.631575 0.342171
vt 0.573539 0.370802
vt 0.567349 0.333659
vt 0.489968 0.288779
vt 0.473718 0.257053
vt 0.421100 0.189731
vt 0.493064 0.403302
vt 0.522468 0.355326
vt 0.432707 0.382409
vt 0.481456 0.329790
vt 0.376993 0.348362
vt 0.426516 0.294969
vt 0.439671 0.106160
vt 0.555742 0.189731
vt 0.373897 0.018720
vt 0.540266 0.168065
vt 0.363064 0.127053
vt 0.333659 0.179672
vt 0.527885 0.074434
vt 0.506992 0.140982
vt 0.489194 0.277945
vt 0.499254 0.240803
vt 0.476040 0.192827
vt 0.468302 0.237707
vt 0.497706 0.219910
s 1
usemtl Default_Material
f 1/1/1 3/2/2 2/3/3
f 1/1/1 2/3/3 4/4/4
f 4/4/4 2/3/3 5/5/5
f 4/4/4 5/5/5 6/6/6
f 7/7/7 1/1/1 4/4/4
f 8/8/8 4/4/4 6/6/6
f 7/7/7 4/4/4 8/8/8
f 9/9/9 1/1/1 7/7/7
f 9/9/9 10/10/10 1/1/1
f 10/10/10 3/2/11 1/1/1
f 10/10/10 11/11/12 3/2/11
f 12/12/13 11/11/12 10/10/10
f 12/12/13 10/10/10 13/13/14
f 13/13/14 10/10/10 9/9/9
f 14/14/15 9/9/9 7/7/7
f 13/13/14 9/9/9 14/14/15
f 15/15/16 7/7/7 8/8/8
f 14/14/15 7/7/7 15/15/16
f 15/15/16 8/8/8 16/16/17
f 17/17/18 15/15/16 16/16/17
f 8/8/8 6/6/6 18/18/19
f 16/16/17 8/8/8 18/18/19
f 19/19/20 13/13/14 14/14/15
f 20/20/21 13/13/14 19/19/20
f 20/20/21 12/12/22 13/13/14
f 21/21/23 20/20/21 19/19/20
f 19/19/20 14/14/15 22/22/24
f 22/22/24 14/14/15 15/15/25
f 22/22/24 15/15/25 17/17/26
f 21/21/23 19/19/20 23/23/27
f 23/23/27 19/19/20 22/22/24
f 23/23/27 22/22/24 24/24/28
f 25/25/29 21/21/23 23/23/27
f 25/25/29 23/23/27 26/26/30
f 27/27/31 25/25/29 26/26/30
f 27/27/31 26/26/30 28/28/32
f 28/28/32 26/26/30 29/29/33
f 28/28/32 29/29/33 30/30/34
f 30/30/34 29/29/33 31/31/35
f 30/30/34 31/31/35 32/32/36
f 32/32/36 31/31/35 33/33/37
f 32/32/36 33/33/37 34/34/38
f 31/31/35 35/35/39 33/33/37
f 31/31/35 36/36/40 35/35/39
f 33/33/37 35/35/39 37/37/41
f 33/33/37 37/37/41 38/38/42
f 34/34/43 33/33/37 38/38/42
f 34/34/43 38/38/42 39/39/43
f 38/38/42 37/37/41 40/40/44
f 38/38/42 40/40/44 41/41/44
f 36/36/40 42/42/45 35/35/39
f 35/35/39 43/43/46 37/37/41
f 35/35/39 42/42/45 43/43/46
f 36/36/40 17/17/18 42/42/45
f 24/24/47 17/17/18 36/36/40
f 24/24/47 22/22/48 17/17/18
f 17/17/18 16/16/17 42/42/45
f 42/42/45 16/16/17 44/44/49
f 42/42/45 44/44/49 43/43/46
f 16/16/17 18/18/19 44/44/49
f 37/37/41 43/43/46 45/45/50
f 37/37/41 45/45/50 40/40/51
f 40/40/51 45/45/50 46/46/52
f 40/40/51 46/46/52 47/40/52
f 43/43/46 48/47/53 45/45/50
f 43/43/46 44/44/49 48/47/53
f 44/44/49 49/48/54 48/47/53
f 44/44/49 18/18/19 49/48/54
f 18/18/19 50/49/55 49/48/54
f 18/18/19 6/6/6 50/49/55
f 6/6/6 51/50/56 50/49/55
f 6/6/6 5/5/57 51/50/56
f 52/51/58 2/3/3 3/2/59
f 52/51/58 53/52/60 2/3/3
f 53/52/60 5/5/5 2/3/3
f 53/52/60 54/53/61 5/5/5
f 55/54/62 53/52/60 52/51/58
f 56/55/63 54/53/61 53/52/60
f 55/54/62 56/55/63 53/52/60
f 57/56/64 55/54/62 52/51/58
f 57/56/64 52/51/58 58/57/65
f 58/57/65 52/51/58 3/2/11
f 58/57/65 3/2/11 11/11/12
f 12/12/66 58/57/65 11/11/12
f 12/12/66 59/58/67 58/57/65
f 59/58/67 57/56/64 58/57/65
f 60/59/68 55/54/62 57/56/64
f 59/58/67 60/59/68 57/56/64
f 61/60/69 56/55/63 55/54/62
f 60/59/68 61/60/69 55/54/62
f 61/60/69 62/61/70 56/55/63
f 63/62/71 62/61/70 61/60/69
f 56/55/63 64/63/72 54/53/61
f 62/61/70 64/63/72 56/55/63
f 65/64/73 60/59/68 59/58/67
f 20/20/21 65/64/73 59/58/67
f 20/20/21 59/58/67 12/12/22
f 21/21/23 65/64/73 20/20/21
f 65/64/73 66/65/74 60/59/68
f 66/65/74 61/60/75 60/59/68
f 66/65/74 63/62/75 61/60/75
f 21/21/23 67/66/76 65/64/73
f 67/66/76 66/65/74 65/64/73
f 67/66/76 68/67/77 66/65/74
f 25/25/29 67/66/76 21/21/23
f 25/25/29 69/68/78 67/66/76
f 27/27/79 69/68/78 25/25/29
f 27/27/79 70/69/80 69/68/78
f 70/69/80 71/70/81 69/68/78
f 70/69/80 72/71/82 71/70/81
f 72/71/82 73/72/83 71/70/81
f 72/71/82 74/73/84 73/72/83
f 74/73/84 75/74/85 73/72/83
f 74/73/84 76/75/86 75/74/85
f 73/72/83 75/74/85 77/76/87
f 73/72/83 77/76/87 78/77/88
f 75/74/85 79/78/89 77/76/87
f 75/74/85 80/79/90 79/78/89
f 76/75/91 80/79/90 75/74/85
f 76/75/91 81/80/91 80/79/90
f 80/79/90 82/81/92 79/78/89
f 80/79/90 83/82/93 82/81/92
f 79/78/89 82/81/92 84/83/94
f 79/78/89 84/83/94 85/84/95
f 77/76/87 79/78/89 85/84/95
f 85/84/95 84/83/94 86/85/96
f 78/77/88 77/76/87 87/86/97
f 77/76/87 85/84/95 87/86/97
f 85/84/95 86/85/96 88/87/98
f 87/86/97 85/84/95 88/87/98
f 88/87/98 86/85/96 89/88/99
f 78/77/88 87/86/97 63/62/71
f 68/67/100 78/77/88 63/62/71
f 68/67/100 63/62/71 66/65/100
f 63/62/71 87/86/97 62/61/70
f 87/86/97 88/87/98 62/61/70
f 62/61/70 88/87/98 64/63/72
f 88/87/98 89/88/99 64/63/72
f 64/63/72 89/88/99 90/89/101
f 64/63/72 90/89/101 54/53/61
f 54/53/61 90/89/101 51/50/102
f 54/53/61 51/50/102 5/5/103
f 81/80/104 83/82/105 80/79/104
f 81/80/104 91/90/106 83/82/105
f 39/39/107 41/41/108 92/91/109
f 39/39/107 38/38/110 41/41/108
f 71/70/111 78/77/111 68/67/111
f 71/70/111 73/72/111 78/77/111
f 69/68/78 68/67/112 67/66/76
f 69/68/78 71/70/81 68/67/112
f 29/29/113 36/36/113 31/31/113
f 29/29/113 24/24/114 36/36/113
f 26/26/30 24/24/115 29/29/33
f 26/26/30 23/23/27 24/24/115
f 93/92/116 95/93/117 94/94/118
f 93/92/116 96/95/119 95/93/117
f 97/96/120 96/95/119 93/92/116
f 97/96/120 98/97/121 96/95/119
f 99/98/122 98/97/121 97/96/120
f 99/98/122 100/99/123 98/97/121
f 101/100/124 100/99/123 99/98/122
f 101/100/124 46/46/124 100/99/123
f 102/101/125 47/40/126 46/46/127
f 102/101/125 46/46/127 101/100/128
f 103/102/129 102/101/125 101/100/128
f 103/102/129 101/100/128 104/103/130
f 104/103/130 101/100/128 99/98/131
f 104/103/130 99/98/131 105/104/132
f 105/104/132 99/98/131 97/96/133
f 105/104/132 97/96/133 106/105/134
f 106/105/134 97/96/133 93/92/135
f 106/105/134 93/92/135 107/106/136
f 107/106/136 93/92/135 94/94/137
f 107/106/136 94/94/137 108/107/138
f 109/108/139 107/106/136 108/107/138
f 109/108/139 108/107/138 110/109/140
f 111/110/141 106/105/134 107/106/136
f 111/110/141 107/106/136 109/108/139
f 112/111/142 105/104/132 106/105/134
f 112/111/142 106/105/134 111/110/141
f 113/112/143 104/103/130 105/104/132
f 113/112/143 105/104/132 112/111/142
f 114/113/144 103/102/129 104/103/130
f 114/113/144 104/103/130 113/112/143
f 115/114/145 109/108/139 110/109/140
f 115/114/145 110/109/140 116/115/146
f 117/116/147 115/114/145 116/115/146
f 118/117/148 111/110/141 109/108/139
f 118/117/148 109/108/139 115/114/145
f 117/116/147 119/118/149 115/114/145
f 119/118/149 118/117/148 115/114/145
f 120/119/150 119/118/149 117/116/147
f 121/120/151 111/110/141 118/117/148
f 121/120/151 112/111/142 111/110/141
f 119/118/149 121/120/151 118/117/148
f 120/119/150 122/121/152 119/118/149
f 122/121/152 121/120/151 119/118/149
f 123/122/153 122/121/152 120/119/150
f 124/123/154 112/111/142 121/120/151
f 124/123/154 113/112/143 112/111/142
f 122/121/152 124/123/154 121/120/151
f 123/122/153 125/124/155 122/121/152
f 125/124/155 124/123/154 122/121/152
f 126/125/156 113/112/143 124/123/154
f 125/124/155 126/125/156 124/123/154
f 126/125/156 114/113/144 113/112/143
f 127/126/157 114/113/144 126/125/156
f 127/126/157 128/127/158 114/113/144
f 128/127/158 103/102/129 114/113/144
f 128/127/158 129/128/159 103/102/129
f 130/129/160 125/124/155 123/122/153
f 130/129/160 123/122/153 131/130/161
f 130/129/160 132/131/162 125/124/155
f 130/129/160 131/130/161 133/132/163
f 133/132/163 131/130/161 134/133/164
f 133/132/163 134/133/164 135/134/164
f 136/135/165 132/131/162 130/129/160
f 136/135/165 137/136/166 132/131/162
f 137/136/166 127/126/167 132/131/162
f 137/136/166 138/137/168 127/126/167
f 138/137/168 128/127/169 127/126/167
f 138/137/168 139/138/170 128/127/169
f 30/30/171 139/138/170 138/137/168
f 30/30/171 32/32/172 139/138/170
f 140/139/173 94/94/174 95/93/175
f 140/139/173 95/93/175 141/140/176
f 51/50/177 141/140/176 95/93/175
f 51/50/177 90/89/177 141/140/176
f 142/141/178 140/139/173 141/140/176
f 142/141/178 141/140/176 143/142/179
f 144/143/180 142/141/178 143/142/179
f 144/143/180 143/142/179 145/144/181
f 146/145/182 144/143/180 145/144/181
f 146/145/182 145/144/181 147/146/183
f 148/147/184 146/145/182 147/146/183
f 148/147/184 147/146/183 149/148/185
f 150/149/186 148/147/184 149/148/185
f 150/149/186 149/148/185 151/150/187
f 152/151/188 146/145/189 148/147/190
f 152/151/188 153/152/191 146/145/189
f 153/152/191 144/143/192 146/145/189
f 153/152/191 154/153/193 144/143/192
f 154/153/193 142/141/194 144/143/192
f 154/153/193 155/154/195 142/141/194
f 155/154/195 140/139/196 142/141/194
f 155/154/195 156/155/197 140/139/196
f 156/155/197 94/94/198 140/139/196
f 156/155/197 108/107/138 94/94/198
f 157/156/199 108/107/138 156/155/197
f 157/156/199 110/109/140 108/107/138
f 158/157/200 156/155/197 155/154/195
f 158/157/200 157/156/199 156/155/197
f 159/158/201 155/154/195 154/153/193
f 159/158/201 158/157/200 155/154/195
f 160/159/202 154/153/193 153/152/191
f 160/159/202 159/158/201 154/153/193
f 161/160/203 153/152/191 152/151/188
f 161/160/203 160/159/202 153/152/191
f 162/161/204 110/109/140 157/156/199
f 162/161/204 116/115/146 110/109/140
f 117/116/147 116/115/146 162/161/204
f 163/162/205 157/156/199 158/157/200
f 163/162/205 162/161/204 157/156/199
f 117/116/147 162/161/204 164/163/206
f 164/163/206 162/161/204 163/162/205
f 120/119/150 117/116/147 164/163/206
f 165/164/207 163/162/205 158/157/200
f 165/164/207 158/157/200 159/158/201
f 164/163/206 163/162/205 165/164/207
f 120/119/150 164/163/206 166/165/208
f 166/165/208 164/163/206 165/164/207
f 123/122/153 120/119/150 166/165/208
f 123/122/153 166/165/208 131/130/161
f 167/166/209 165/164/207 159/158/201
f 166/165/208 165/164/207 167/166/209
f 131/130/161 166/165/208 167/166/209
f 167/166/209 159/158/201 160/159/202
f 131/130/161 167/166/209 134/133/210
f 134/133/210 167/166/209 160/159/202
f 134/133/210 160/159/202 161/160/203
f 135/134/211 134/133/210 161/160/203
f 135/134/211 161/160/203 168/167/212
f 168/167/212 161/160/203 152/151/188
f 168/167/212 152/151/188 169/168/213
f 170/169/214 168/167/212 169/168/213
f 170/169/214 169/168/213 171/170/215
f 172/171/216 168/167/212 170/169/214
f 172/171/216 135/134/211 168/167/212
f 74/73/217 172/171/216 170/169/214
f 74/73/217 72/71/218 172/171/216
f 173/172/219 135/134/211 172/171/216
f 72/71/218 173/172/219 172/171/216
f 72/71/218 70/69/220 173/172/219
f 173/172/219 133/132/163 135/134/211
f 136/135/165 133/132/163 173/172/219
f 136/135/165 130/129/160 133/132/163
f 171/170/221 169/168/222 150/149/223
f 171/170/221 150/149/223 174/173/224
f 81/80/225 171/170/221 174/173/224
f 81/80/225 76/75/226 171/170/221
f 91/90/227 81/80/225 174/173/224
f 91/90/227 174/173/224 175/174/228
f 174/173/229 151/150/229 175/174/229
f 174/173/229 150/149/230 151/150/229
f 176/175/231 177/176/232 129/128/233
f 176/175/231 178/177/234 177/176/232
f 34/34/235 178/177/234 176/175/231
f 34/34/235 39/39/236 178/177/234
f 39/39/236 179/178/237 178/177/234
f 39/39/236 92/91/238 179/178/237
f 92/91/238 180/179/239 179/178/237
f 92/91/238 41/41/240 180/179/239
f 41/41/240 47/40/241 180/179/239
f 41/41/240 40/40/242 47/40/241
f 178/177/243 180/179/243 177/176/243
f 178/177/243 179/178/243 180/179/243
f 139/138/170 129/128/244 128/127/169
f 139/138/170 176/175/244 129/128/244
f 169/168/245 148/147/245 150/149/246
f 169/168/245 152/151/245 148/147/245
f 129/128/159 102/101/125 103/102/129
f 129/128/159 177/176/247 102/101/125
f 132/131/162 126/125/248 125/124/155
f 132/131/162 127/126/248 126/125/248
f 177/176/249 47/40/249 102/101/249
f 177/176/249 180/179/249 47/40/249
f 45/45/250 100/99/251 46/46/250
f 45/45/250 48/47/252 100/99/251
f 48/47/252 98/97/253 100/99/251
f 48/47/252 49/48/254 98/97/253
f 49/48/255 96/95/119 98/97/121
f 49/48/255 50/49/256 96/95/119
f 28/28/257 30/30/171 138/137/168
f 28/28/257 138/137/168 137/136/166
f 27/27/258 28/28/257 137/136/166
f 27/27/258 137/136/166 136/135/165
f 32/32/259 176/175/259 139/138/259
f 32/32/259 34/34/259 176/175/259
f 86/85/260 147/146/261 145/144/260
f 86/85/260 84/83/261 147/146/261
f 90/89/262 143/142/262 141/140/262
f 90/89/262 89/88/262 143/142/262
f 89/88/263 145/144/263 143/142/264
f 89/88/263 86/85/263 145/144/263
f 76/75/265 170/169/266 171/170/266
f 76/75/265 74/73/266 170/169/266
f 70/69/220 136/135/165 173/172/219
f 70/69/220 27/27/258 136/135/165
f 50/49/256 95/93/267 96/95/119
f 50/49/256 51/50/267 95/93/267
f 83/82/268 175/174/268 151/150/269
f 83/82/268 91/90/268 175/174/268
f 82/81/270 83/82/271 151/150/272
f 82/81/270 151/150/272 149/148/273
f 84/83/274 82/81/270 149/148/273
f 84/83/274 149/148/273 147/146/274
