# Blender 4.3.2
# www.blender.org
mtllib dreamerhat.mtl
o helm_dreamer
v 0.486791 -0.873846 -0.062172
v -0.000001 -1.113357 -0.118459
v -0.000001 -0.896102 -0.101914
v 0.609137 -0.984711 0.030205
v -0.000001 -1.223456 -0.102209
v 0.696098 -1.078325 0.066120
v 0.596007 -0.636868 0.217904
v -0.000001 -0.646818 0.220318
v 0.730423 -0.643109 0.334127
v 0.829277 -0.679082 0.406015
v 0.551261 -0.388703 0.666721
v -0.000001 -0.355555 0.693510
v 0.655414 -0.368213 0.820978
v 0.720708 -0.349373 1.048360
v -0.000001 -0.259292 1.005733
v -0.000001 -0.151900 1.273268
v 0.756270 -0.706166 -0.314282
v 0.754739 -0.785355 -0.258585
v 0.948914 -0.254817 0.207071
v 0.967284 -0.213191 0.073538
v 0.716587 0.210780 0.830634
v 0.877615 -0.215723 -0.164029
v 0.664010 -0.603308 -0.623444
v 0.735133 0.296210 0.696277
v -0.000001 0.345372 1.009854
v -0.000001 0.401128 0.852065
v -0.000001 0.640639 0.528478
v 0.635690 0.453057 0.401717
v 0.538014 0.774936 -0.411194
v -0.000001 0.958278 -0.340895
v 0.786886 -0.056049 -0.656120
v 0.374337 0.167505 -1.188719
v -0.000001 0.542138 -1.165522
v 0.575106 -0.553440 -0.838756
v 0.586175 -0.307865 -1.120834
v 0.293793 -0.249577 -1.584959
v -0.000001 -0.135180 -1.629411
v 0.391764 -0.734191 -1.020626
v 0.476370 -0.601954 -1.294226
v 0.224672 -0.710876 -1.681046
v -0.000001 -0.631392 -1.737980
v 0.309690 -0.910998 -1.136613
v 0.364151 -0.902637 -1.471386
v 0.090904 -1.120187 -1.688346
v -0.000001 -1.056423 -1.696589
v -0.000001 -1.347392 -1.906661
v 0.097145 -1.334027 -1.875044
v 0.171094 -1.268085 -1.605036
v 0.126701 -1.449307 -1.802744
v 0.090963 -1.405680 -1.506947
v 0.097145 -1.518958 -1.722730
v 0.225850 -1.091690 -1.255191
v -0.000001 -1.470503 -1.468854
v -0.000001 -1.563881 -1.738097
v -0.000001 -1.183126 -1.161400
v -0.000001 -1.055128 -1.067139
v -0.000001 -0.929838 -0.974879
v -0.000001 -0.779644 -0.847941
v -0.000001 -0.807964 -0.752914
v -0.000001 -0.862719 -0.446284
v -0.000001 -0.897692 -0.405011
v -0.000001 -1.020567 -0.424382
v 0.828394 -0.887565 -0.247104
v 1.019566 -0.324704 0.234860
v 0.812556 0.121052 0.928251
v -0.000001 0.337482 1.156457
v -0.000001 -1.775661 -2.276524
v 0.236035 -1.538741 -2.386094
v -0.000001 -1.571123 -2.585215
v 0.170506 -1.788673 -2.285650
v 0.236035 -1.808161 -2.024297
v -0.000001 -2.013699 -1.990973
v 0.442928 -1.488519 -2.076108
v 0.236035 -1.168819 -2.127920
v 0.170506 -1.269792 -2.369726
v -0.000001 -1.279213 -2.357009
v -0.000001 -0.963516 -2.161185
v 0.236035 -1.438297 -1.766064
v 0.170506 -1.188248 -1.866566
v -0.000001 -1.201260 -1.875633
v -0.000001 -1.406092 -1.566943
v 0.170506 -1.707128 -1.782431
v -0.000001 -1.697649 -1.795208
v -0.486794 -0.873846 -0.062172
v -0.609139 -0.984711 0.030205
v -0.696100 -1.078325 0.066120
v -0.596010 -0.636868 0.217904
v -0.730425 -0.643109 0.334127
v -0.829279 -0.679082 0.406015
v -0.551264 -0.388703 0.666721
v -0.655417 -0.368213 0.820978
v -0.720711 -0.349373 1.048360
v -0.756684 -0.706401 -0.314282
v -0.949093 -0.254758 0.207129
v -0.755095 -0.785649 -0.258762
v -0.967640 -0.213191 0.073479
v -0.716648 0.210780 0.830634
v -0.877617 -0.215723 -0.164029
v -0.664012 -0.603308 -0.623444
v -0.735136 0.296210 0.696277
v -0.635693 0.453057 0.401717
v -0.538016 0.774936 -0.411194
v -0.786888 -0.056049 -0.656120
v -0.374339 0.167505 -1.188719
v -0.575109 -0.553440 -0.838756
v -0.586178 -0.307865 -1.120834
v -0.293796 -0.249577 -1.584959
v -0.391767 -0.734191 -1.020626
v -0.476373 -0.601954 -1.294226
v -0.224675 -0.710876 -1.681046
v -0.309693 -0.910998 -1.136613
v -0.364154 -0.902637 -1.471386
v -0.090907 -1.120187 -1.688346
v -0.097148 -1.334027 -1.875044
v -0.171097 -1.268085 -1.605036
v -0.126704 -1.449307 -1.802744
v -0.090966 -1.405680 -1.506947
v -0.097148 -1.518958 -1.722730
v -0.225852 -1.091690 -1.255191
v -0.828396 -0.887565 -0.247104
v -1.019569 -0.324704 0.234860
v -0.812558 0.121052 0.928251
v -0.236038 -1.538741 -2.386094
v -0.170508 -1.788673 -2.285650
v -0.236038 -1.808161 -2.024297
v -0.442931 -1.488519 -2.076108
v -0.236038 -1.168819 -2.127920
v -0.170508 -1.269792 -2.369726
v -0.236038 -1.438297 -1.766064
v -0.170508 -1.188248 -1.866566
v -0.170508 -1.707128 -1.782431
vn -0.1687 -0.5059 0.8460
vn -0.0039 0.1608 0.9870
vn -0.0039 0.1451 0.9894
vn -0.4667 -0.1059 0.8781
vn -0.0039 0.1372 0.9905
vn -0.4981 -0.1451 0.8549
vn -0.1608 -0.7961 0.5835
vn -0.0039 -0.7804 0.6253
vn -0.0039 -0.8275 0.5615
vn -0.5843 -0.6392 0.5000
vn -0.6470 -0.6314 0.4275
vn -0.0981 -0.9059 0.4120
vn -0.0039 -0.9059 0.4235
vn -0.2785 -0.9137 0.2960
vn -0.2000 -0.9373 0.2856
vn -0.0039 -0.9686 0.2485
vn -0.0039 -0.9608 0.2773
vn 0.9451 -0.1843 -0.2699
vn 0.9372 0.3255 -0.1250
vn 0.5608 -0.0274 -0.8275
vn 0.9529 0.2627 -0.1513
vn 0.5530 0.8039 0.2191
vn 0.9686 0.2078 -0.1363
vn 0.7098 -0.6157 -0.3423
vn 0.6627 0.7019 0.2609
vn 0.0039 0.9373 0.3486
vn 0.0039 0.8745 0.4850
vn -0.0039 0.9216 0.3882
vn 0.6707 0.7175 0.1878
vn 0.6863 0.7176 -0.1185
vn -0.0039 1.0000 -0.0000
vn 0.9372 0.2392 -0.2537
vn 0.6392 0.5059 -0.5792
vn -0.0039 0.7804 -0.6253
vn 0.8274 -0.5059 -0.2438
vn 0.8902 0.1215 -0.4391
vn 0.6157 0.3019 -0.7279
vn -0.0039 0.4980 -0.8672
vn 0.7412 -0.6157 0.2676
vn 0.9372 -0.0902 -0.3368
vn 0.6000 0.0118 -0.7999
vn -0.0039 0.1216 -0.9926
vn 0.7569 -0.5372 0.3722
vn 0.9059 -0.2471 -0.3440
vn 0.6078 0.0196 -0.7938
vn -0.0039 0.0588 -0.9983
vn -0.0039 0.6235 -0.7818
vn 0.7412 0.4039 -0.5362
vn 0.9373 -0.3019 -0.1743
vn 0.9921 -0.0588 -0.1104
vn 0.7255 -0.5921 0.3507
vn 0.7804 -0.5686 0.2601
vn 0.7647 -0.5529 0.3309
vn 0.5373 -0.6784 0.5011
vn 0.5058 -0.7961 0.3322
vn -0.0039 -0.7176 0.6964
vn -0.0039 -0.6549 0.7557
vn -0.0039 -0.7255 0.6883
vn -0.0039 -0.9843 0.1765
vn 0.0039 -0.9529 -0.3031
vn 0.0039 -0.9216 -0.3882
vn 0.2863 -0.8745 -0.3916
vn 0.0039 -0.1844 -0.9829
vn 0.4196 0.2392 -0.8756
vn 0.0039 0.0980 -0.9952
vn 0.9922 -0.0902 0.0866
vn 0.7098 0.2157 0.6706
vn -0.0039 0.4039 0.9148
vn 0.7020 0.0039 0.7122
vn -0.0039 0.2079 0.9782
vn 0.9216 -0.3020 0.2440
vn 0.6157 -0.7490 -0.2447
vn 0.6549 -0.7255 -0.2116
vn -0.0039 -0.8745 -0.4850
vn -0.0039 -0.8039 -0.5947
vn -0.0039 -0.6941 -0.7198
vn 0.7412 -0.1059 -0.6629
vn 0.5764 -0.6549 -0.4887
vn 0.7490 -0.6549 0.1004
vn -0.0039 -0.8902 -0.4556
vn 1.0000 0.0039 -0.0000
vn 0.7490 0.6549 -0.1004
vn 0.5765 0.4667 -0.6707
vn -0.0039 0.4353 -0.9003
vn -0.0039 0.5686 -0.8226
vn -0.0039 0.6941 -0.7199
vn 0.7412 0.1059 0.6629
vn 0.5765 0.6559 0.4873
vn -0.0039 0.8039 0.5947
vn -0.0039 0.8902 0.4556
vn -0.0039 0.6941 0.7198
vn 0.5765 -0.4667 0.6708
vn -0.0039 -0.6941 0.7199
vn -0.0039 -0.4353 0.9003
vn -0.0039 -0.5686 0.8226
vn 0.1687 -0.5059 0.8460
vn 0.4667 -0.1059 0.8781
vn 0.4980 -0.1451 0.8549
vn 0.1608 -0.7960 0.5835
vn 0.5843 -0.6392 0.5000
vn 0.6470 -0.6314 0.4275
vn 0.0981 -0.9059 0.4120
vn 0.2785 -0.9137 0.2959
vn 0.2000 -0.9373 0.2856
vn -0.9451 -0.1843 -0.2699
vn -0.5608 -0.0275 -0.8275
vn -0.9372 0.3255 -0.1250
vn -0.9529 0.2627 -0.1513
vn -0.5530 0.8039 0.2191
vn -0.9686 0.2078 -0.1363
vn -0.7098 -0.6157 -0.3422
vn -0.6628 0.7019 0.2609
vn -0.6706 0.7176 0.1879
vn -0.6863 0.7177 -0.1184
vn -0.9372 0.2392 -0.2537
vn -0.6392 0.5059 -0.5792
vn -0.8274 -0.5059 -0.2438
vn -0.8902 0.1215 -0.4391
vn -0.6157 0.3019 -0.7279
vn -0.7412 -0.6157 0.2676
vn -0.9372 -0.0902 -0.3368
vn -0.6000 0.0118 -0.7999
vn -0.7569 -0.5372 0.3722
vn -0.9059 -0.2471 -0.3440
vn -0.6078 0.0196 -0.7938
vn -0.7412 0.4039 -0.5362
vn -0.9373 -0.3019 -0.1743
vn -0.9921 -0.0588 -0.1104
vn -0.7255 -0.5921 0.3507
vn -0.7804 -0.5686 0.2601
vn -0.7647 -0.5530 0.3309
vn -0.5373 -0.6784 0.5011
vn -0.5058 -0.7961 0.3322
vn -0.2863 -0.8745 -0.3916
vn -0.4196 0.2392 -0.8756
vn -0.9922 -0.0902 0.0866
vn -0.7098 0.2158 0.6705
vn -0.7020 0.0039 0.7122
vn -0.9216 -0.3020 0.2440
vn -0.6157 -0.7490 -0.2447
vn -0.6549 -0.7255 -0.2116
vn -0.7412 -0.1059 -0.6629
vn -0.5764 -0.6549 -0.4887
vn -0.7490 -0.6549 0.1004
vn -1.0000 0.0039 -0.0000
vn -0.7490 0.6549 -0.1004
vn -0.5765 0.4667 -0.6708
vn -0.7412 0.1059 0.6629
vn -0.5764 0.6549 0.4887
vn -0.5765 -0.4667 0.6708
vt 0.852176 0.488989
vt 0.980303 0.537157
vt 0.972596 0.600739
vt 0.801118 0.504403
vt 0.969706 0.630603
vt 0.763547 0.519817
vt 0.811715 0.419627
vt 0.987047 0.435041
vt 0.763547 0.387836
vt 0.717306 0.375313
vt 0.815569 0.220212
vt 0.987047 0.202871
vt 0.764511 0.166264
vt 0.752950 0.114242
vt 0.985120 0.068001
vt 0.984157 0.001529
vt 0.601703 0.367606
vt 0.652761 0.252966
vt 0.652761 0.377240
vt 0.599776 0.266453
vt 0.616153 0.141216
vt 0.567022 0.278977
vt 0.536194 0.387836
vt 0.596886 0.150850
vt 0.585325 0.019833
vt 0.564131 0.028503
vt 0.488989 0.052587
vt 0.536194 0.151813
vt 0.427334 0.190348
vt 0.367606 0.128692
vt 0.479356 0.306914
vt 0.357972 0.316548
vt 0.294390 0.254893
vt 0.490916 0.406140
vt 0.420591 0.380130
vt 0.325218 0.399397
vt 0.273197 0.383983
vt 0.459125 0.461052
vt 0.400360 0.438895
vt 0.323291 0.471649
vt 0.278977 0.464905
vt 0.436968 0.497660
vt 0.372423 0.494770
vt 0.313658 0.546791
vt 0.294390 0.535231
vt 0.277050 0.595922
vt 0.295354 0.595922
vt 0.345449 0.568948
vt 0.314621 0.610373
vt 0.369533 0.595922
vt 0.331962 0.620006
vt 0.414811 0.532341
vt 0.383020 0.612300
vt 0.337742 0.637347
vt 0.443711 0.567022
vt 0.465869 0.550644
vt 0.488026 0.534267
vt 0.516927 0.516927
vt 0.535231 0.515000
vt 0.593032 0.508257
vt 0.636384 0.512110
vt 0.018869 0.968743
vt 0.119059 0.713452
vt 0.097865 0.962963
vt 0.022723 0.730793
vt 0.110389 0.514037
vt 0.018869 0.530414
vt 0.073781 0.283794
vt 0.013089 0.288610
vt 0.048734 0.002492
vt 0.006346 0.013089
vt 0.215395 0.314621
vt 0.215395 0.004419
vt 0.209615 0.586289
vt 0.207688 0.736573
vt 0.199981 0.963926
vt 0.834836 0.807862
vt 0.777998 0.974523
vt 0.700929 0.869517
vt 0.760657 0.795338
vt 0.727903 0.708636
vt 0.834836 0.630603
vt 0.633493 0.777998
vt 0.540047 0.846396
vt 0.612300 0.904198
vt 0.601703 0.978377
vt 0.433114 0.924428
vt 0.567022 0.685515
vt 0.507293 0.759694
vt 0.433114 0.747170
vt 0.489953 0.580509
vt 0.654687 0.650834
vt 0.666248 0.577619
s 1
usemtl Default_Material
f 1/1/1 3/2/2 2/3/3
f 1/1/1 2/3/3 4/4/4
f 4/4/4 2/3/3 5/5/5
f 4/4/4 5/5/5 6/6/6
f 7/7/7 1/1/1 4/4/4
f 3/2/8 1/1/1 7/7/7
f 3/2/8 7/7/7 8/8/9
f 9/9/10 4/4/4 6/6/6
f 7/7/7 4/4/4 9/9/10
f 9/9/10 6/6/6 10/10/11
f 8/8/9 7/7/7 11/11/12
f 11/11/12 7/7/7 9/9/10
f 8/8/9 11/11/12 12/12/13
f 13/13/14 9/9/10 10/10/11
f 11/11/12 9/9/10 13/13/14
f 12/12/13 11/11/12 13/13/14
f 13/13/14 10/10/11 14/14/15
f 12/12/13 13/13/14 15/15/16
f 15/15/16 13/13/14 14/14/15
f 15/15/16 14/14/15 16/16/17
f 17/17/18 19/18/19 18/19/20
f 17/17/18 20/20/21 19/18/19
f 20/20/21 21/21/22 19/18/19
f 17/17/18 22/22/23 20/20/21
f 17/17/18 23/23/24 22/22/23
f 20/20/21 24/24/25 21/21/22
f 24/24/25 25/25/26 21/21/22
f 24/24/25 26/26/27 25/25/26
f 24/24/25 27/27/28 26/26/27
f 20/20/21 28/28/29 24/24/25
f 24/24/25 28/28/29 27/27/28
f 20/20/21 22/22/23 28/28/29
f 27/27/28 28/28/29 29/29/30
f 27/27/28 29/29/30 30/30/31
f 28/28/29 22/22/23 31/31/32
f 28/28/29 31/31/32 29/29/30
f 30/30/31 29/29/30 32/32/33
f 30/30/31 32/32/33 33/33/34
f 22/22/23 23/23/24 34/34/35
f 22/22/23 34/34/35 31/31/32
f 29/29/30 31/31/32 35/35/36
f 29/29/30 35/35/36 32/32/33
f 33/33/34 32/32/33 36/36/37
f 33/33/34 36/36/37 37/37/38
f 31/31/32 34/34/35 38/38/39
f 31/31/32 38/38/39 35/35/36
f 32/32/33 35/35/36 39/39/40
f 32/32/33 39/39/40 36/36/37
f 37/37/38 36/36/37 40/40/41
f 37/37/38 40/40/41 41/41/42
f 35/35/36 38/38/39 42/42/43
f 35/35/36 42/42/43 39/39/40
f 36/36/37 39/39/40 43/43/44
f 36/36/37 43/43/44 40/40/41
f 41/41/42 40/40/41 44/44/45
f 41/41/42 44/44/45 45/45/46
f 44/44/45 46/46/47 45/45/46
f 44/44/45 47/47/48 46/46/47
f 40/40/41 48/48/49 44/44/45
f 48/48/49 47/47/48 44/44/45
f 40/40/41 43/43/44 48/48/49
f 48/48/49 49/49/50 47/47/48
f 50/50/51 49/49/50 48/48/49
f 43/43/44 50/50/51 48/48/49
f 50/50/51 51/51/52 49/49/50
f 39/39/40 52/52/53 43/43/44
f 43/43/44 52/52/53 50/50/51
f 39/39/40 42/42/43 52/52/53
f 53/53/54 51/51/52 50/50/51
f 52/52/53 53/53/54 50/50/51
f 53/53/54 54/54/55 51/51/52
f 52/52/53 55/55/56 53/53/54
f 42/42/43 55/55/56 52/52/53
f 42/42/43 56/56/57 55/55/56
f 38/38/39 56/56/57 42/42/43
f 38/38/39 57/57/58 56/56/57
f 34/34/35 57/57/58 38/38/39
f 34/34/35 58/58/59 57/57/58
f 23/23/24 58/58/59 34/34/35
f 23/23/24 59/59/60 58/58/59
f 60/60/61 59/59/60 23/23/24
f 60/60/61 23/23/24 17/17/62
f 60/60/61 17/17/62 18/19/20
f 60/60/61 18/19/20 61/61/63
f 61/62/63 63/63/64 62/64/65
f 61/62/63 18/65/20 63/63/64
f 18/65/20 64/66/66 63/63/64
f 18/65/20 19/67/19 64/66/66
f 19/67/19 65/68/67 64/66/66
f 19/67/19 21/69/22 65/68/67
f 21/69/22 66/70/68 65/68/67
f 21/69/22 25/71/26 66/70/68
f 14/72/69 65/68/67 66/70/68
f 14/72/69 66/70/68 16/73/70
f 10/74/71 65/68/67 14/72/69
f 10/74/71 64/66/66 65/68/67
f 6/75/72 64/66/66 10/74/71
f 6/75/72 63/63/73 64/66/66
f 5/76/74 63/63/73 6/75/72
f 5/76/74 62/64/74 63/63/73
f 67/77/75 69/78/76 68/79/77
f 67/77/75 68/79/77 70/80/78
f 67/77/75 70/80/78 71/81/79
f 67/77/75 71/81/79 72/82/80
f 70/80/78 68/79/77 73/83/81
f 70/80/78 73/83/81 71/81/79
f 68/79/77 74/84/82 73/83/81
f 68/79/77 75/85/83 74/84/82
f 69/78/84 75/85/83 68/79/77
f 69/78/84 76/86/85 75/85/83
f 75/85/83 76/86/85 77/87/86
f 75/85/83 77/87/86 74/84/82
f 71/81/79 73/83/81 78/88/87
f 73/83/81 74/84/82 79/89/88
f 73/83/81 79/89/88 78/88/87
f 74/84/82 80/90/89 79/89/88
f 78/88/87 79/89/88 80/90/89
f 74/84/82 77/87/90 80/90/89
f 78/88/87 80/90/89 81/91/91
f 71/81/79 78/88/87 82/92/92
f 72/82/93 71/81/79 82/92/92
f 82/92/92 78/88/87 81/91/94
f 72/82/93 82/92/92 83/93/95
f 82/92/92 81/91/94 83/93/95
f 84/1/96 2/3/3 3/2/2
f 84/1/96 85/4/97 2/3/3
f 85/4/97 5/5/5 2/3/3
f 85/4/97 86/6/98 5/5/5
f 87/7/99 85/4/97 84/1/96
f 3/2/8 87/7/99 84/1/96
f 3/2/8 8/8/9 87/7/99
f 88/9/100 86/6/98 85/4/97
f 87/7/99 88/9/100 85/4/97
f 88/9/100 89/10/101 86/6/98
f 8/8/9 90/11/102 87/7/99
f 90/11/102 88/9/100 87/7/99
f 8/8/9 12/12/13 90/11/102
f 91/13/103 89/10/101 88/9/100
f 90/11/102 91/13/103 88/9/100
f 12/12/13 91/13/103 90/11/102
f 91/13/103 92/14/104 89/10/101
f 12/12/13 15/15/16 91/13/103
f 15/15/16 92/14/104 91/13/103
f 15/15/16 16/16/17 92/14/104
f 93/17/105 95/19/106 94/18/107
f 93/17/105 94/18/107 96/20/108
f 96/20/108 94/18/107 97/21/109
f 93/17/105 96/20/108 98/22/110
f 93/17/105 98/22/110 99/23/111
f 96/20/108 97/21/109 100/24/112
f 100/24/112 97/21/109 25/25/26
f 100/24/112 25/25/26 26/26/27
f 100/24/112 26/26/27 27/27/28
f 96/20/108 100/24/112 101/28/113
f 100/24/112 27/27/28 101/28/113
f 96/20/108 101/28/113 98/22/110
f 27/27/28 102/29/114 101/28/113
f 27/27/28 30/30/31 102/29/114
f 101/28/113 103/31/115 98/22/110
f 101/28/113 102/29/114 103/31/115
f 30/30/31 104/32/116 102/29/114
f 30/30/31 33/33/34 104/32/116
f 98/22/110 105/34/117 99/23/111
f 98/22/110 103/31/115 105/34/117
f 102/29/114 106/35/118 103/31/115
f 102/29/114 104/32/116 106/35/118
f 33/33/34 107/36/119 104/32/116
f 33/33/34 37/37/38 107/36/119
f 103/31/115 108/38/120 105/34/117
f 103/31/115 106/35/118 108/38/120
f 104/32/116 109/39/121 106/35/118
f 104/32/116 107/36/119 109/39/121
f 37/37/38 110/40/122 107/36/119
f 37/37/38 41/41/42 110/40/122
f 106/35/118 111/42/123 108/38/120
f 106/35/118 109/39/121 111/42/123
f 107/36/119 112/43/124 109/39/121
f 107/36/119 110/40/122 112/43/124
f 41/41/42 113/44/125 110/40/122
f 41/41/42 45/45/46 113/44/125
f 113/44/125 45/45/46 46/46/47
f 113/44/125 46/46/47 114/47/126
f 110/40/122 113/44/125 115/48/127
f 115/48/127 113/44/125 114/47/126
f 110/40/122 115/48/127 112/43/124
f 115/48/127 114/47/126 116/49/128
f 117/50/129 115/48/127 116/49/128
f 112/43/124 115/48/127 117/50/129
f 117/50/129 116/49/128 118/51/130
f 109/39/121 112/43/124 119/52/131
f 112/43/124 117/50/129 119/52/131
f 109/39/121 119/52/131 111/42/123
f 53/53/132 117/50/129 118/51/130
f 119/52/131 117/50/129 53/53/132
f 53/53/132 118/51/130 54/54/133
f 119/52/131 53/53/132 55/55/56
f 111/42/123 119/52/131 55/55/56
f 111/42/123 55/55/56 56/56/57
f 108/38/120 111/42/123 56/56/57
f 108/38/120 56/56/57 57/57/58
f 105/34/117 108/38/120 57/57/58
f 105/34/117 57/57/58 58/58/59
f 99/23/111 105/34/117 58/58/59
f 99/23/111 58/58/59 59/59/60
f 60/60/61 99/23/111 59/59/60
f 60/60/61 93/17/134 99/23/111
f 60/60/61 95/19/106 93/17/134
f 60/60/61 61/61/63 95/19/106
f 61/62/63 62/64/65 120/63/135
f 61/62/63 120/63/135 95/65/106
f 95/65/106 120/63/135 121/66/136
f 95/65/106 121/66/136 94/67/107
f 94/67/107 121/66/136 122/68/137
f 94/67/107 122/68/137 97/69/109
f 97/69/109 122/68/137 66/70/68
f 97/69/109 66/70/68 25/71/26
f 92/72/138 66/70/68 122/68/137
f 92/72/138 16/73/70 66/70/68
f 89/74/139 122/68/137 121/66/136
f 89/74/139 92/72/138 122/68/137
f 86/75/140 89/74/139 121/66/136
f 86/75/140 121/66/136 120/63/141
f 5/76/74 86/75/140 120/63/141
f 5/76/74 120/63/141 62/64/74
f 67/77/75 123/79/142 69/78/76
f 67/77/75 124/80/143 123/79/142
f 67/77/75 125/81/144 124/80/143
f 67/77/75 72/82/80 125/81/144
f 124/80/143 126/83/145 123/79/142
f 124/80/143 125/81/144 126/83/145
f 123/79/142 126/83/145 127/84/146
f 123/79/142 127/84/146 128/85/147
f 69/78/84 123/79/142 128/85/147
f 69/78/84 128/85/147 76/86/85
f 128/85/147 77/87/86 76/86/85
f 128/85/147 127/84/146 77/87/86
f 125/81/144 129/88/148 126/83/145
f 126/83/145 130/89/149 127/84/146
f 126/83/145 129/88/148 130/89/149
f 127/84/146 130/89/149 80/90/89
f 129/88/148 80/90/89 130/89/149
f 127/84/146 80/90/89 77/87/90
f 129/88/148 81/91/91 80/90/89
f 125/81/144 131/92/150 129/88/148
f 72/82/93 131/92/150 125/81/144
f 131/92/150 81/91/94 129/88/148
f 72/82/93 83/93/95 131/92/150
f 131/92/150 83/93/95 81/91/94
