# Blender 4.3.2
# www.blender.org
mtllib SukiStatue.mtl
o sukiStatueFBX_04
v -3.948620 1.984123 -3.948620
v 3.948814 1.984123 -3.948620
v 3.543612 3.751367 -3.544086
v -3.544086 3.751367 -3.544086
v 3.948815 1.984124 3.948814
v 3.543612 3.751368 3.543612
v -3.948619 1.984124 3.948814
v -3.544085 3.751368 3.543612
v 4.658921 0.216211 -3.544086
v -5.067273 0.216211 -3.544085
v -5.067272 0.216211 3.543612
v 4.658922 0.216211 3.543612
v -0.493032 24.885412 4.859515
v -2.951661 25.665058 2.949180
v -2.135907 27.214323 2.596132
v 0.213063 27.111349 2.949179
v 1.964928 24.105097 2.949179
v 2.191601 25.840912 2.596132
v 2.847547 23.824930 -0.000239
v 2.671691 26.331703 -0.000239
v 1.964927 24.105097 -2.949657
v 2.191600 25.840912 -2.596610
v -0.493033 24.885412 -4.859993
v 0.213062 27.111349 -2.949657
v -2.951662 25.665058 -2.949657
v -2.135908 27.214323 -2.596610
v -3.834280 25.945221 -0.000239
v -2.244897 27.891665 -0.000239
v 0.466481 27.911057 -0.000239
v 1.258164 21.994833 -0.000239
v 1.025473 22.331163 -2.539105
v 0.653035 22.376635 -1.385683
v -1.166364 22.764452 -2.957012
v -0.558560 22.192087 -1.581598
v 0.596868 21.550182 -1.322161
v -0.558560 21.293417 -1.413098
v -1.815624 22.400705 -1.388357
v -1.714658 21.550182 -1.322161
v -3.206417 23.674484 -2.539105
v -3.431084 23.548109 -0.000238
v -1.809606 21.363628 -0.000238
v -2.316443 20.761173 -2.457530
v -2.462209 20.479671 -0.000238
v -4.162588 19.457973 -2.553147
v -4.480865 19.359682 -0.000238
v -4.337106 18.175501 -2.583236
v -5.005088 17.913391 -0.000238
v -1.815624 22.400705 1.388549
v -3.206417 23.674484 2.538629
v -1.166364 22.764452 2.956535
v -1.714657 21.550182 1.322353
v -2.293709 20.733089 2.458390
v -4.161919 19.456636 2.554676
v -4.341117 18.186869 2.579417
v -0.558560 22.192087 1.581789
v 0.653035 22.376635 1.385874
v 1.025474 22.331163 2.538628
v -0.558560 21.293417 1.413289
v 0.596868 21.550182 1.322353
v 1.958241 20.821352 2.403561
v -0.558560 20.446907 2.586103
v 1.945536 20.835392 -2.405375
v -0.558560 20.446907 -2.585911
v 1.266188 20.446907 -0.000239
v 0.795457 18.824760 -0.000238
v 1.567749 19.158419 2.137438
v 0.677106 21.293417 -0.000239
v -0.327875 22.381983 5.495402
v -0.435528 21.116894 5.258699
v -3.222464 24.242836 5.944067
v -3.292004 23.185699 5.775567
v -6.101005 25.688461 4.903646
v -6.367129 24.850641 4.479722
v -7.118692 25.413645 3.243387
v -6.440681 26.068922 4.097922
v 1.551701 19.175802 -2.138583
v -0.817329 21.534132 -5.292609
v -0.715694 22.799891 -5.531986
v -3.607608 23.691200 -5.835553
v -3.544755 24.769064 -5.990680
v -6.560369 25.693808 -4.467494
v -6.268837 26.520929 -4.903454
v -6.486150 26.800426 -4.085026
v -7.169511 26.266176 -3.241857
v -2.547128 19.231300 -2.472240
v 0.255856 17.060860 -0.000238
v 0.631638 17.282850 -2.653444
v 1.956904 15.431358 -0.000238
v 1.099025 15.581136 -3.600254
v 3.466717 13.371244 -0.000238
v 2.452374 13.511662 -3.711918
v 2.423622 9.628139 -0.000238
v 1.567749 9.929701 -3.086730
v 1.639963 6.052864 -0.000237
v 1.511582 6.303607 -1.881152
v 2.044497 3.171647 -0.000237
v 1.885358 3.483238 -2.334497
v -1.347569 20.150696 -5.007095
v -2.914217 19.907307 -4.559099
v -0.809304 16.953207 -2.692894
v -4.030864 22.503010 -5.484512
v -4.460806 22.229530 -4.908135
v -3.028556 20.119268 -3.540744
v -2.452848 17.504175 -2.458867
v -6.591796 24.551752 -4.110435
v -6.777681 24.626642 -3.415038
v -4.458800 22.512367 -4.160583
v -6.312300 24.624638 -3.122837
v -6.263488 25.817509 -3.189034
v -4.399291 23.713936 -4.002782
v -2.989106 21.549511 -3.412363
v -2.507008 17.665989 2.441674
v -4.300330 17.166508 2.350070
v -2.517038 19.199875 2.471764
v -0.554549 15.352458 -3.897135
v -2.764439 15.797779 -3.550773
v -0.119257 13.365228 -4.271579
v -2.835316 13.695541 -3.740001
v -0.727060 10.223238 -3.309390
v -3.098764 11.044340 -3.019864
v -0.037681 6.052864 -2.036947
v -0.037682 3.171647 -2.528406
v -1.586277 6.303607 -1.881152
v -1.960052 3.483238 -2.334497
v -3.906495 9.762538 -0.000237
v -3.666449 12.519384 -0.000238
v -2.242892 5.060585 -0.000237
v -2.647425 2.179370 -0.000237
v -3.507310 14.360179 -0.000238
v -2.402699 16.268507 0.112764
v -0.809304 16.953207 2.693087
v -2.764439 15.797779 3.550297
v -0.554548 15.352458 3.896658
v 0.644343 17.269480 2.652968
v -2.835315 13.695541 3.740195
v 1.099025 15.581136 3.600446
v -0.119256 13.365228 4.271772
v 2.452374 13.511662 3.711442
v -3.098764 11.044340 3.020058
v -0.727060 10.223238 3.309584
v 1.567749 9.929701 3.086254
v -0.037681 6.052864 2.037141
v 1.511582 6.303607 1.880677
v -0.037681 3.171648 2.528600
v 1.885358 3.483239 2.334691
v -1.960052 3.483239 2.334692
v -1.586276 6.303607 1.880677
v -2.636727 21.117565 3.405200
v -2.656786 22.426115 3.592422
v -4.051591 23.245878 4.050447
v -4.022171 24.351160 4.350672
v -6.192610 25.144178 3.181870
v -6.068242 26.028133 3.551634
v -3.778113 24.482883 5.290126
v -2.216813 22.396025 4.802011
v -0.850760 21.981459 2.463739
v 1.311656 22.783842 1.150509
v 1.389219 21.838369 1.231416
v -0.780552 22.917572 2.300589
v -3.090072 22.124550 1.231416
v -2.872761 23.051300 1.150509
v -0.920300 21.046017 2.300589
v 1.171908 20.912287 1.150509
v -3.012508 21.179749 1.150510
v 1.311656 22.783842 -1.150318
v 1.389219 21.838369 -1.231893
v 1.171908 20.912287 -1.150318
v -0.780552 22.917572 -2.301066
v -0.850761 21.981459 -2.463548
v -2.872761 23.051300 -1.150318
v -3.090072 22.124550 -1.231893
v -0.920300 21.046017 -2.301066
v -3.012508 21.179749 -1.150317
v -3.013846 22.858061 -3.598917
v -4.363183 24.797819 -4.304343
v -6.111036 26.654659 -3.546762
v -4.122469 24.960300 -5.248478
v -2.603294 22.827972 -4.819205
v -4.298324 16.487827 0.008455
v -4.212737 16.952539 -2.431452
v 0.602217 15.490869 -0.000238
v 0.844937 17.705441 -1.728700
v 0.423688 17.710121 -0.000238
v 1.487511 16.063234 -1.960722
v 2.551334 14.415677 -0.000238
v 2.720503 14.801489 -1.728700
v 5.419846 12.788851 -0.000238
v 2.720503 14.801489 1.728224
v 5.041389 16.024452 1.960914
v 7.337536 16.797413 -0.000239
v 1.487511 16.063234 1.960914
v 7.132929 17.464058 1.960914
v 9.966671 15.684777 -0.000239
v 3.977567 17.671339 2.658317
v 0.844938 17.705441 1.728224
v 2.913743 19.318893 1.960914
v 2.535955 19.904633 -0.000239
v 6.556552 19.338284 2.658317
v 5.980844 21.212511 1.960914
v 5.776237 21.879158 -0.000239
v 9.562138 18.453661 1.728223
v 9.390294 20.208868 1.960913
v 11.241119 20.518454 -0.000239
v 8.547126 21.758131 1.728223
v 8.814586 22.083765 -0.000239
v 2.913743 19.318893 -1.960722
v 5.980844 21.212511 -1.960723
v 3.977566 17.671339 -2.658125
v 5.041389 16.024452 -1.960722
v 6.556552 19.338284 -2.658125
v 7.132929 17.464058 -1.960723
v 8.547126 21.758131 -1.728701
v 9.390294 20.208868 -1.960723
v 9.562138 18.453661 -1.728701
v -0.971786 19.734795 4.984553
v -2.533754 19.476027 4.549930
v -3.687176 22.022247 5.456621
v -2.672834 19.687321 3.534918
v -4.105083 21.739408 4.959145
v -4.103746 22.021580 4.209587
v -6.372478 23.766090 4.120656
v -6.675376 23.867723 3.383803
v -6.219357 23.943949 3.081573
v 4.380094 26.775019 2.608836
v 6.069775 28.826437 4.644877
v 4.896293 31.356613 4.090566
v 2.603489 30.605717 1.769010
v 1.789073 26.168552 1.579782
v 0.614922 28.699396 1.024803
v 5.802983 32.578907 5.895253
v 1.905418 31.376671 3.550296
v -0.468961 28.821756 1.754969
v 6.995188 30.009281 6.458258
v 5.490055 29.107939 7.159003
v 4.315904 31.638784 6.604692
v 1.046202 25.554062 2.471094
v 4.199558 26.430664 4.634179
v 1.208684 26.450722 4.093910
v 3.501487 27.201618 6.414795
v 0.034533 28.981564 3.538929
v 1.724882 31.032318 5.575639
v 4.380094 26.775019 -2.608646
v 4.896292 31.356613 -4.090376
v 6.069774 28.826437 -4.644688
v 2.603489 30.605717 -1.769489
v 1.789072 26.168552 -1.579592
v 0.614922 28.699396 -1.024612
v 5.802982 32.578907 -5.895065
v 1.905417 31.376671 -3.550106
v -0.468961 28.821756 -1.754779
v 6.995187 30.009281 -6.458737
v 4.315903 31.638784 -6.604503
v 5.490054 29.107939 -7.159483
v 1.046201 25.554062 -2.470903
v 4.199557 26.430664 -4.633989
v 1.208683 26.450722 -4.093719
v 3.501487 27.201618 -6.414606
v 0.034533 28.981564 -3.539407
v 1.724882 31.032318 -5.575449
v 5.633814 22.253603 4.646883
v 5.070142 24.438084 4.751862
v 6.308483 24.176640 4.241681
v 4.405503 22.544464 5.151046
v 3.429273 25.425680 4.010996
v 2.423622 22.558508 4.615457
v 1.528968 25.215725 2.546652
v 1.189293 25.386230 1.262842
v 0.864329 23.321438 2.945168
v 3.695396 25.512604 2.554007
v 1.686769 24.779097 0.737283
v 3.668649 24.764383 1.272872
v 5.227943 24.001455 2.943161
v 2.396876 21.810955 3.334322
v 0.331414 22.940973 1.777704
v 4.563305 22.107836 3.341678
v 2.662999 21.897881 1.876664
v 1.022130 22.884809 1.136468
v 5.633813 22.253603 -4.646693
v 6.308482 24.176640 -4.241491
v 5.070141 24.438084 -4.751671
v 4.405502 22.544464 -5.150856
v 3.429272 25.425680 -4.011475
v 2.423622 22.558508 -4.615266
v 1.528967 25.215725 -2.546461
v 1.189293 25.386230 -1.262652
v 0.864328 23.321438 -2.945645
v 3.695395 25.512604 -2.554485
v 1.686769 24.779097 -0.737092
v 3.668649 24.764383 -1.272681
v 5.227943 24.001455 -2.942971
v 2.396876 21.810955 -3.334131
v 0.331414 22.940973 -1.778181
v 4.563304 22.107836 -3.342155
v 2.662999 21.897881 -1.877141
v 1.022130 22.884809 -1.136276
v -1.599649 26.706146 0.445083
v 0.012468 26.574423 0.610239
v -1.381001 29.616783 2.113366
v -1.750096 29.647543 2.075253
v -0.183447 26.119072 2.158834
v -1.425800 29.513144 2.467082
v -1.795564 26.250797 1.993678
v -1.794895 29.543232 2.429638
v -1.599649 26.706146 -0.445560
v -1.750096 29.647543 -2.075731
v -1.381001 29.616783 -2.113175
v 0.012467 26.574423 -0.610048
v -1.425801 29.513144 -2.467560
v -0.183447 26.119072 -2.158643
v -1.794896 29.543232 -2.429447
v -1.795564 26.250797 -1.993487
vn -0.0000 -0.0665 -0.9978
vn -0.0000 0.2231 -0.9748
vn -0.0000 -0.0587 -0.9983
vn 0.9533 0.3020 -0.0039
vn 0.9747 0.2235 -0.0039
vn -0.0000 -0.0587 0.9983
vn -0.0000 0.2232 0.9748
vn -0.0000 -0.0665 0.9978
vn -0.0000 0.2230 0.9748
vn -0.9182 0.3961 -0.0039
vn -0.9747 0.2235 -0.0039
vn -0.0000 -1.0000 -0.0039
vn -0.0000 1.0000 -0.0039
vn -0.8434 0.5373 -0.0039
vn -0.8434 0.5372 -0.0039
vn -0.0000 -0.2234 0.9747
vn 0.9280 0.3725 -0.0039
vn -0.0000 -0.2231 -0.9748
vn -0.0000 -0.0039 1.0000
vn -0.3757 0.7961 0.4745
vn -0.7492 0.2235 0.6235
vn 0.2601 0.7804 0.5686
vn 0.7418 -0.2470 0.6235
vn 0.7695 0.4274 0.4745
vn 0.9508 -0.3098 -0.0039
vn 0.8532 0.5216 -0.0039
vn 0.7417 -0.2471 -0.6235
vn 0.7695 0.4274 -0.4745
vn -0.0000 -0.0039 -1.0000
vn 0.2601 0.7804 -0.5686
vn -0.7492 0.2236 -0.6235
vn -0.3756 0.7960 -0.4745
vn -0.9605 0.2784 -0.0039
vn -0.3882 0.9216 -0.0039
vn 0.3032 0.9529 -0.0039
vn -0.3776 -0.9216 -0.0902
vn -0.1345 -0.8902 -0.4353
vn 0.5069 -0.6863 -0.5216
vn -0.1843 -0.5765 -0.7961
vn 0.0701 -0.5686 -0.8196
vn 0.1664 -0.1372 -0.9765
vn -0.0000 -0.1370 -0.9906
vn -0.1664 -0.1372 -0.9765
vn -0.1663 -0.1372 -0.9765
vn -0.6760 -0.7255 -0.1295
vn -0.8051 -0.3098 -0.5059
vn -0.9604 -0.2785 -0.0039
vn -1.0000 0.0040 0.0039
vn -0.8716 0.4902 0.0039
vn -0.5837 0.8117 0.0196
vn -0.6052 0.7961 0.0039
vn -0.7395 0.6706 -0.0588
vn -0.7624 0.6470 0.0039
vn -0.9829 0.0039 -0.1843
vn -0.9994 -0.0353 -0.0039
vn -0.6760 -0.7255 0.1294
vn -0.8050 -0.3098 0.5059
vn -0.1843 -0.5765 0.7960
vn -0.8760 0.4823 0.0039
vn -0.5839 0.8117 -0.0118
vn -0.7395 0.6706 0.0588
vn -0.9837 0.0353 0.1765
vn 0.0702 -0.5686 0.8196
vn -0.1345 -0.8902 0.4353
vn 0.5069 -0.6863 0.5215
vn -0.3776 -0.9216 0.0902
vn -0.0000 -0.1371 0.9906
vn 0.1664 -0.1372 0.9765
vn -0.1664 -0.1372 0.9765
vn -0.1664 -0.1373 0.9765
vn 0.8058 -0.5922 -0.0039
vn -0.0961 0.7882 0.6078
vn -0.0000 0.7948 0.6069
vn -0.0960 0.7882 0.6078
vn 0.0792 0.7961 0.6000
vn -0.0792 0.7961 -0.6000
vn -0.0961 0.7882 -0.6078
vn -0.0960 0.7883 -0.6078
vn 0.1250 0.7961 -0.5922
vn 0.9935 0.1137 -0.0039
vn 0.9091 -0.3098 0.2784
vn 0.9428 -0.3333 -0.0039
vn 0.9246 -0.1529 0.3490
vn 0.8803 0.4745 -0.0039
vn 0.3834 -0.2157 0.8980
vn 0.4912 -0.2471 0.8353
vn -0.2643 -0.1921 0.9451
vn -0.1999 -0.1921 0.9608
vn 0.7826 0.5921 -0.1921
vn -0.5712 -0.1216 0.8117
vn -0.6182 -0.1451 0.7725
vn -0.8866 -0.0588 0.4588
vn -0.8561 0.1059 0.5059
vn 0.8999 -0.4353 0.0275
vn 0.7690 -0.6392 -0.0039
vn 0.8999 -0.4353 -0.0275
vn 0.7826 0.5921 0.1921
vn 0.8896 -0.1608 -0.4274
vn 0.8871 -0.3020 -0.3490
vn 0.4530 -0.2392 -0.8588
vn 0.3645 -0.2157 -0.9059
vn -0.2407 -0.1843 -0.9529
vn -0.3241 -0.1765 -0.9294
vn -0.6513 -0.1216 -0.7490
vn -0.5973 -0.0980 -0.7960
vn -0.8720 0.2078 -0.4431
vn -0.9216 -0.0039 -0.3882
vn -0.0000 0.0118 -0.9999
vn -0.0000 -0.0353 -0.9994
vn -0.0000 -0.0118 -0.9999
vn 0.9843 0.1765 -0.0039
vn 0.8798 -0.0902 -0.4667
vn 0.8226 0.5687 -0.0039
vn 0.8178 0.5608 -0.1294
vn 0.9983 0.0589 -0.0039
vn 0.9593 0.1216 -0.2549
vn 0.9747 -0.2235 -0.0039
vn 0.9389 -0.2314 -0.2549
vn 0.9998 -0.0196 -0.0039
vn 0.9869 -0.0510 -0.1529
vn 0.9905 0.1373 -0.0039
vn 0.9892 0.1372 -0.0510
vn 0.2907 -0.3882 -0.8745
vn -0.3978 -0.6000 -0.6941
vn -0.1467 -0.6078 -0.7804
vn -0.3124 -0.3098 -0.8980
vn -0.6951 -0.6000 -0.3961
vn -0.9040 -0.4274 0.0118
vn -0.6290 -0.5765 -0.5215
vn -0.6907 -0.2706 -0.6706
vn -0.8562 -0.4980 0.1373
vn -0.5734 -0.4353 0.6941
vn 0.0719 -0.3412 0.9373
vn 0.3533 0.1608 0.9216
vn -0.1529 0.3569 0.9216
vn 0.1634 0.0667 0.9843
vn -0.6349 0.0118 0.7725
vn -0.9212 -0.0275 0.3882
vn -0.9040 -0.0118 0.4274
vn 0.0776 -0.0980 0.9922
vn 0.0776 -0.0981 0.9921
vn -0.0000 -0.0274 0.9996
vn -0.0000 0.0039 1.0000
vn 0.0294 0.5608 -0.8274
vn -0.0719 0.5451 -0.8353
vn 0.1250 0.3255 -0.9372
vn -0.0272 0.3020 -0.9529
vn 0.0701 0.5686 -0.8196
vn 0.1782 -0.1215 -0.9765
vn -0.0000 0.3490 -0.9371
vn 0.0520 -0.1137 -0.9922
vn 0.1200 -0.2784 -0.9529
vn -0.1921 -0.0980 -0.9765
vn -0.0000 -0.2783 -0.9605
vn 0.1200 -0.1294 -0.9843
vn -0.7378 -0.1922 -0.6471
vn -0.0665 -0.1059 -0.9922
vn 0.0520 0.1686 -0.9843
vn -0.6653 -0.2314 -0.7098
vn -0.0520 0.1686 -0.9843
vn -0.9710 -0.2392 -0.0039
vn -0.9978 0.0667 -0.0039
vn -0.9944 -0.1059 -0.0039
vn -0.9656 0.1451 -0.2157
vn -0.9882 0.1529 -0.0039
vn -0.9775 0.0667 -0.2000
vn -0.9870 0.1608 -0.0039
vn -0.9736 0.2157 -0.0745
vn -0.9400 0.3412 -0.0040
vn -0.9357 0.3490 0.0510
vn -0.0000 0.5520 0.8338
vn -0.0000 0.5520 0.8339
vn -0.0000 0.3490 0.9371
vn -0.0272 0.3020 0.9529
vn -0.0719 0.5451 0.8353
vn -0.1921 -0.0980 0.9765
vn 0.1250 0.3255 0.9372
vn 0.0520 -0.1137 0.9922
vn 0.1782 -0.1216 0.9765
vn -0.7378 -0.1922 0.6471
vn -0.0000 -0.2783 0.9605
vn 0.1200 -0.2784 0.9529
vn -0.0665 -0.1059 0.9922
vn 0.1200 -0.1294 0.9843
vn 0.0520 0.1686 0.9843
vn -0.0521 0.1686 0.9843
vn -0.6653 -0.2314 0.7098
vn -0.9656 0.1451 0.2157
vn -0.9775 0.0666 0.2000
vn -0.9775 0.2000 0.0667
vn -0.9442 0.3255 -0.0510
vn -0.9236 0.0902 -0.3726
vn -0.9841 0.0196 -0.1765
vn -0.7198 0.0118 -0.6941
vn -0.3151 0.1921 -0.9294
vn 0.1561 0.0824 -0.9843
vn 0.6346 0.5843 -0.5059
vn 0.3241 0.1765 -0.9294
vn 0.5094 0.6785 -0.5294
vn -0.1549 0.6706 -0.7255
vn -0.2432 0.3255 -0.9137
vn 0.5734 0.7882 -0.2235
vn 0.5498 0.8353 -0.0039
vn 0.4453 0.6784 -0.5843
vn 0.4431 0.8902 0.1059
vn 0.0935 0.8118 -0.5765
vn 0.3309 0.7647 -0.5529
vn -0.0000 0.8339 -0.5520
vn 0.5637 0.7020 -0.4353
vn 0.0293 0.8274 -0.5608
vn 0.4398 0.7255 -0.5294
vn 0.4837 -0.0353 0.8745
vn 0.4858 0.1137 0.8667
vn -0.4837 0.0353 0.8745
vn -0.4636 0.1843 0.8666
vn -0.0520 -0.1686 0.9843
vn 0.4636 -0.1843 0.8667
vn -0.4858 -0.1137 0.8667
vn 0.9972 -0.0745 -0.0039
vn 0.9966 0.0823 -0.0039
vn 0.9729 -0.2314 -0.0039
vn 0.4837 -0.0353 -0.8745
vn 0.4858 0.1137 -0.8667
vn -0.0000 0.0039 -1.0000
vn -0.4636 0.1843 -0.8667
vn -0.4837 0.0353 -0.8745
vn 0.4636 -0.1843 -0.8667
vn -0.0520 -0.1686 -0.9843
vn -0.4858 -0.1137 -0.8666
vn -0.9972 0.0745 -0.0039
vn -0.9729 0.2314 -0.0039
vn -0.9966 -0.0823 -0.0039
vn -0.7766 0.0902 0.6235
vn -0.2644 0.1921 0.9451
vn 0.6924 0.5294 0.4902
vn 0.5961 0.6235 0.5059
vn 0.5792 0.7882 0.2078
vn 0.6349 0.7176 0.2863
vn 0.5918 0.8039 0.0588
vn 0.5738 0.6784 0.4588
vn 0.4696 0.6549 0.5921
vn 0.3508 0.7255 0.5921
vn 0.4609 0.6941 0.5530
vn 0.0815 0.7647 0.6392
vn 0.0471 0.7804 0.6235
vn 0.0470 0.7804 0.6235
vn -0.9353 -0.3019 -0.1843
vn -0.9506 -0.3098 -0.0196
vn -0.9353 -0.3019 0.1843
vn 0.1141 -0.9922 0.0510
vn 0.0444 -0.9137 0.4039
vn -0.0000 -0.9994 0.0352
vn 0.0769 -0.9451 -0.3176
vn -0.0000 -0.0509 -0.9987
vn -0.8384 -0.5451 -0.0039
vn -0.9248 0.3804 -0.0039
vn -0.7039 0.3098 -0.6392
vn -0.4820 -0.3098 -0.8196
vn -0.3268 -0.9451 -0.0040
vn -0.1689 -0.6314 -0.7568
vn 0.2989 -0.6549 0.6941
vn -0.1690 -0.6314 0.7569
vn 0.2966 -0.4902 0.8196
vn 0.4026 -0.6314 0.6627
vn -0.4820 -0.3098 0.8196
vn 0.3237 -0.4589 0.8274
vn 0.3844 -0.5608 0.7333
vn -0.7039 0.3098 0.6392
vn -0.4535 0.5686 0.6863
vn -0.5947 0.8039 -0.0039
vn -0.0000 0.0665 0.9978
vn -0.2407 0.6941 0.6784
vn -0.3691 0.9294 -0.0039
vn 0.5291 -0.3333 0.7804
vn 0.5425 0.1451 0.8274
vn 0.9857 0.1686 -0.0039
vn 0.2087 0.7333 0.6471
vn 0.2773 0.9608 -0.0040
vn -0.4535 0.5686 -0.6863
vn -0.2407 0.6941 -0.6784
vn -0.0000 -0.0274 -0.9996
vn 0.2966 -0.4902 -0.8196
vn 0.2988 -0.6549 -0.6942
vn -0.0000 0.0665 -0.9978
vn 0.3238 -0.4588 -0.8274
vn 0.4027 -0.6314 -0.6627
vn 0.2087 0.7333 -0.6470
vn 0.5425 0.1451 -0.8275
vn 0.5290 -0.3333 -0.7804
vn 0.3843 -0.5608 -0.7334
vn 0.9892 0.1373 0.0510
vn 0.9869 -0.0510 0.1529
vn 0.9389 -0.2314 0.2549
vn 0.9593 0.1216 0.2549
vn 0.8178 0.5608 0.1294
vn 0.9095 -0.0981 0.4039
vn 0.3158 -0.4196 0.8510
vn -0.1004 -0.6549 0.7490
vn -0.3886 -0.6235 0.6784
vn -0.7117 -0.5451 0.4431
vn -0.2719 -0.3020 0.9137
vn -0.8984 -0.4353 0.0588
vn -0.6572 -0.6313 0.4117
vn -0.5307 -0.4510 -0.7176
vn -0.6451 -0.3020 0.7019
vn -0.8178 -0.5608 -0.1294
vn -0.0000 -0.3326 -0.9431
vn 0.5566 0.0745 -0.8274
vn 0.5674 0.4667 -0.6784
vn 0.7186 0.1843 -0.6706
vn 0.3150 0.4039 -0.8588
vn 0.3680 -0.0274 -0.9294
vn 0.3681 -0.0275 -0.9294
vn 0.4136 0.8039 -0.4275
vn -0.4094 0.8902 -0.2000
vn -0.4098 0.7255 -0.5530
vn -0.9267 0.3647 -0.0902
vn 0.2340 0.3098 0.9216
vn -0.1663 0.1373 0.9765
vn -0.2167 0.1216 0.9686
vn -0.5410 -0.4118 -0.7333
vn -0.5409 -0.4117 -0.7334
vn -0.5410 -0.4117 -0.7334
vn 0.4345 -0.8745 0.2157
vn -0.6185 -0.4980 0.6078
vn -0.3374 -0.9216 0.1922
vn -0.2701 -0.4353 0.8588
vn 0.6571 -0.6941 0.2941
vn 0.5547 -0.6941 0.4588
vn -0.8705 0.0431 0.4902
vn -0.6504 0.3255 0.6863
vn -0.3690 0.9059 0.2078
vn 0.5464 -0.8274 -0.1294
vn 0.3373 -0.9216 -0.1922
vn 0.7878 -0.6157 -0.0196
vn 0.7902 0.2470 -0.5608
vn 0.5566 0.0745 0.8275
vn 0.7186 0.1843 0.6706
vn 0.5674 0.4667 0.6784
vn 0.3151 0.4039 0.8588
vn 0.3680 -0.0275 0.9294
vn 0.3680 -0.0274 0.9294
vn 0.4135 0.8039 0.4274
vn -0.4094 0.8902 0.2000
vn -0.4098 0.7255 0.5529
vn -0.9267 0.3647 0.0902
vn 0.2340 0.3098 -0.9216
vn -0.1664 0.1372 -0.9765
vn -0.2168 0.1216 -0.9686
vn -0.5410 -0.4118 0.7333
vn -0.5410 -0.4117 0.7334
vn 0.4344 -0.8745 -0.2157
vn -0.3374 -0.9216 -0.1922
vn -0.6185 -0.4981 -0.6078
vn -0.2701 -0.4353 -0.8588
vn 0.6570 -0.6941 -0.2941
vn 0.5547 -0.6941 -0.4588
vn -0.8705 0.0431 -0.4902
vn -0.6504 0.3255 -0.6863
vn -0.3690 0.9059 -0.2078
vn 0.5464 -0.8274 0.1294
vn 0.3373 -0.9216 0.1922
vn 0.7878 -0.6157 0.0196
vn 0.7902 0.2471 0.5608
vn 0.3838 0.0588 0.9216
vn 0.3837 0.0588 0.9216
vn -0.0000 0.2157 0.9765
vn -0.1087 0.2235 0.9686
vn -0.2410 0.6863 0.6863
vn -0.4977 -0.1216 0.8588
vn -0.5926 0.6392 0.4902
vn -0.4138 0.9059 -0.0902
vn -0.7906 0.0745 0.6078
vn 0.3328 0.9216 -0.2000
vn 0.3690 0.9059 0.2079
vn 0.1879 0.8117 -0.5529
vn 0.8575 0.2862 -0.4275
vn 0.5089 0.0588 -0.8588
vn 0.7323 -0.0588 -0.6784
vn -0.2995 -0.9294 0.2157
vn -0.8795 -0.4353 0.1922
vn -0.0736 -0.9529 0.2941
vn -0.1046 -0.8824 0.4588
vn 0.1235 -0.9921 -0.0196
vn -0.1725 -0.9765 -0.1294
vn -0.3957 -0.8980 -0.1922
vn -0.6748 0.0823 -0.7334
vn -0.6749 0.0824 -0.7333
vn 0.6460 -0.3647 -0.6706
vn 0.7354 -0.3804 -0.5608
vn 0.4519 -0.3333 -0.8275
vn 0.2423 -0.2784 -0.9294
vn 0.2422 -0.2784 -0.9294
vn 0.3838 0.0588 -0.9216
vn -0.0000 0.2157 -0.9765
vn 0.3837 0.0588 -0.9216
vn -0.1086 0.2235 -0.9686
vn -0.2409 0.6863 -0.6863
vn -0.4976 -0.1216 -0.8588
vn -0.5926 0.6392 -0.4902
vn -0.4138 0.9059 0.0902
vn -0.7906 0.0745 -0.6078
vn 0.3327 0.9216 0.2000
vn 0.3690 0.9059 -0.2079
vn 0.1879 0.8118 0.5529
vn 0.8575 0.2863 0.4275
vn 0.5089 0.0589 0.8588
vn 0.7323 -0.0588 0.6784
vn -0.2995 -0.9294 -0.2157
vn -0.8795 -0.4353 -0.1922
vn -0.0736 -0.9529 -0.2941
vn -0.1046 -0.8824 -0.4588
vn 0.1235 -0.9921 0.0196
vn -0.1726 -0.9765 0.1294
vn -0.3957 -0.8980 0.1922
vn -0.6748 0.0822 0.7334
vn -0.6748 0.0821 0.7335
vn -0.6747 0.0821 0.7335
vn 0.6460 -0.3647 0.6706
vn 0.7354 -0.3804 0.5608
vn 0.4519 -0.3333 0.8275
vn 0.2423 -0.2784 0.9294
vn 0.2422 -0.2784 0.9294
vn 0.1274 0.4824 -0.8667
vn 0.1274 0.4823 -0.8667
vn 0.9251 0.3176 0.2078
vn 0.9252 0.3176 0.2078
vn 0.9251 0.3176 0.2079
vn 0.9251 0.3177 0.2079
vn -0.1200 -0.1294 0.9843
vn -0.9924 0.0196 -0.1216
vn -0.0998 -0.9529 -0.2863
vn 0.0998 0.9529 0.2863
vn 0.1274 0.4823 0.8667
vn 0.1274 0.4824 0.8667
vn 0.1274 0.4824 0.8666
vn 0.9252 0.3176 -0.2078
vn 0.9251 0.3177 -0.2079
vn -0.1200 -0.1294 -0.9843
vn -0.9924 0.0196 0.1216
vn -0.0998 -0.9529 0.2863
vn 0.0998 0.9529 -0.2863
vt 0.360691 0.797754
vt 0.489239 0.917732
vt 0.471385 0.972008
vt 0.417109 0.817750
vt 0.594219 0.852744
vt 0.650638 0.872026
vt 0.522090 0.752048
vt 0.540658 0.697772
vt 0.499237 0.660636
vt 0.319270 0.591363
vt 0.398541 0.530660
vt 0.412110 0.724196
vt 0.432820 0.467814
vt 0.226429 0.585650
vt 0.389971 0.773472
vt 0.560654 0.669920
vt 0.047176 0.794897
vt 0.136446 0.529231
vt 0.247854 0.614930
vt 0.002899 0.586364
vt -0.209205 0.710627
vt -0.142075 0.590649
vt -0.371319 0.482811
vt -0.173497 0.442819
vt -0.312044 0.207861
vt -0.202064 0.292846
vt -0.109938 0.025752
vt -0.063518 0.238570
vt 0.153586 0.105737
vt 0.086455 0.230000
vt 0.383544 0.532802
vt 0.414252 0.689916
vt 0.330696 0.670634
vt 0.490667 0.587078
vt 0.463529 0.408539
vt 0.528517 0.464243
vt 0.384972 0.394970
vt 0.481383 0.414252
vt 0.436391 0.465672
vt 0.462815 0.370689
vt 0.386400 0.307843
vt 0.453531 0.324269
vt 0.317841 0.512806
vt 0.220002 0.498523
vt 0.285704 0.477812
vt 0.263566 0.574223
vt 0.356406 0.540658
vt 0.344265 0.607788
vt -0.057090 0.555655
vt -0.039950 0.531374
vt -0.019954 0.536373
vt -0.013527 0.532088
vt -0.024953 0.518519
vt -0.062803 0.519233
vt -0.031381 0.497094
vt -0.000672 0.519233
vt 0.010755 0.497094
vt -0.008528 0.537087
vt -0.003529 0.540658
vt 0.042177 0.528517
vt 0.020753 0.426393
vt 0.064316 0.516377
vt 0.107880 0.452103
vt 0.124305 0.509235
vt 0.135018 0.442819
vt 0.160013 0.501379
vt 0.009326 0.557798
vt -0.005671 0.546371
vt -0.007099 0.553513
vt 0.030037 0.571366
vt 0.068601 0.528517
vt 0.070744 0.625642
vt 0.128590 0.508521
vt 0.137874 0.569938
vt 0.165726 0.499951
vt 0.167869 0.566367
vt -0.010670 0.570652
vt -0.029952 0.567082
vt -0.014955 0.552798
vt -0.005671 0.592077
vt -0.043521 0.588506
vt 0.625642 0.775615
vt 0.407111 0.897735
vt 0.485668 0.764903
vt 0.666349 0.984148
vt 0.744192 0.712769
vt 0.867741 0.806324
vt 0.732766 0.564939
vt 0.931301 0.524946
vt 0.689202 0.419966
vt 0.764188 0.287133
vt 0.557798 0.414252
vt 0.515662 0.211432
vt 0.439248 0.472813
vt 0.319984 0.379259
vt 0.316413 0.381401
vt 0.414252 0.388543
vt 0.382829 0.533516
vt 0.272850 0.495666
vt 0.319270 0.666349
vt 0.237856 0.612073
vt 0.003613 0.632784
vt -0.068517 0.641354
vt -0.112080 0.487096
vt -0.044235 0.457102
vt -0.104939 0.580651
vt -0.114223 0.650638
vt -0.149216 0.597076
vt -0.084228 0.562797
vt -0.010670 0.727052
vt -0.042807 0.734908
vt 0.050033 0.782756
vt 0.025752 0.794897
vt 0.107166 0.824177
vt 0.105737 0.852744
vt 0.153586 0.833461
vt 0.124305 0.822749
vt -0.110652 0.558512
vt -0.157786 0.569224
vt -0.156358 0.504236
vt -0.139218 0.380687
vt -0.107081 0.367832
vt -0.114937 0.289275
vt -0.087085 0.284276
vt -0.077801 0.193578
vt -0.060661 0.217145
vt -0.046378 0.209290
vt -0.027810 0.186437
vt 0.095025 0.419966
vt 0.149301 0.091454
vt 0.148587 0.050747
vt 0.177867 0.038607
vt 0.203577 0.097882
vt 0.212146 0.018610
vt 0.246426 0.080742
vt 0.254282 -0.010670
vt 0.276420 0.051461
vt 0.325697 -0.025667
vt 0.336409 0.032179
vt 0.394256 -0.046378
vt 0.408539 -0.007099
vt 0.443533 -0.079943
vt 0.464243 -0.037094
vt 0.135018 0.175724
vt 0.105023 0.172154
vt 0.150729 0.207147
vt 0.221430 0.133589
vt 0.098596 0.237142
vt 0.073600 0.232857
vt 0.108594 0.247854
vt 0.164298 0.222859
vt 0.230714 0.183580
vt 0.073600 0.294274
vt 0.052176 0.301416
vt 0.064316 0.329982
vt 0.078599 0.304272
vt 0.115735 0.262137
vt 0.086455 0.305701
vt 0.085027 0.325697
vt 0.116450 0.288561
vt 0.155014 0.249997
vt 0.194292 0.219288
vt 0.313556 0.339980
vt 0.264994 0.318556
vt 0.277135 0.306415
vt 0.272850 0.357834
vt 0.140017 0.607074
vt 0.262137 0.110022
vt 0.272135 0.152157
vt 0.293560 0.088597
vt 0.307129 0.133589
vt 0.349978 0.074314
vt 0.353549 0.120020
vt 0.429250 0.022895
vt 0.485668 -0.004957
vt 0.440676 0.057175
vt 0.497808 0.032179
vt 0.407111 0.151443
vt 0.362833 0.182866
vt 0.483525 0.084313
vt 0.536373 0.067173
vt 0.332124 0.201434
vt 0.292846 0.224287
vt 0.358548 0.370689
vt 0.364261 0.315699
vt 0.397827 0.343551
vt 0.383544 0.402826
vt 0.395684 0.292132
vt 0.417109 0.370689
vt 0.430678 0.324269
vt 0.457102 0.356406
vt 0.428535 0.257138
vt 0.467814 0.279991
vt 0.499951 0.309986
vt 0.547799 0.230714
vt 0.566367 0.262137
vt 0.596362 0.191436
vt 0.616358 0.224287
vt 0.568510 0.165012
vt 0.522090 0.205719
vt 0.515662 0.155728
vt 0.553513 0.115021
vt 0.422822 0.195721
vt 0.376402 0.221430
vt 0.346408 0.241427
vt 0.312842 0.269279
vt 0.086455 0.673491
vt 0.071458 0.707770
vt 0.100024 0.744906
vt 0.091454 0.772044
vt 0.149301 0.802039
vt 0.130733 0.813465
vt 0.070744 0.784185
vt 0.042177 0.724196
vt 0.710627 0.515662
vt 0.762760 0.513520
vt 0.754190 0.531374
vt 0.721339 0.531374
vt 0.684203 0.558512
vt 0.702771 0.557798
vt 0.668492 0.448532
vt 0.652066 0.477098
vt 0.633498 0.479240
vt 0.656351 0.434249
vt 0.700629 0.446389
vt 0.708484 0.427821
vt 0.768473 0.557798
vt 0.792040 0.559226
vt 0.657779 0.518519
vt 0.665635 0.504236
vt 0.749905 0.583507
vt 0.757047 0.601361
vt 0.717054 0.584221
vt 0.708484 0.597790
vt 0.706342 0.518519
vt 0.697772 0.501379
vt 0.737051 0.473527
vt 0.714198 0.472813
vt -0.027096 0.336409
vt 0.002185 0.359262
vt -0.042807 0.271421
vt -0.020668 0.290703
vt -0.034951 0.214289
vt -0.014241 0.215717
vt -0.067088 0.272135
vt -0.059233 0.339266
vt 0.251425 0.274278
vt 0.242141 0.232857
vt 0.273564 0.254996
vt 0.224287 0.239284
vt 0.275706 0.267136
vt 0.247854 0.277135
vt 0.256424 1.081988
vt 0.205005 1.090557
vt 0.206433 1.054135
vt 0.234285 1.045566
vt 0.287847 1.040567
vt 0.254282 1.026283
vt 0.827034 0.534945
vt 0.804895 0.501379
vt 0.821321 0.504950
vt 0.792040 0.523518
vt 0.789184 0.552798
vt 0.792755 0.488524
vt 0.775615 0.540658
vt 0.781328 0.578508
vt 0.777043 0.511377
vt 0.777757 0.481383
vt 0.762046 0.499951
vt 0.767759 0.467100
vt 0.746335 0.488524
vt 0.759903 0.531374
vt 0.744906 0.524946
vt 0.727052 0.519233
vt 0.760618 0.557798
vt 0.747763 0.551370
vt 0.737051 0.571366
vt 0.739193 0.542086
vt 0.725624 0.547799
vt 0.742764 0.456387
vt 0.759189 0.461387
vt 0.729909 0.477812
vt 0.724196 0.517091
vt 0.730623 0.444247
vt 0.712769 0.502093
vt 0.697772 0.527803
vt 0.714198 0.467814
vt 0.714912 0.437819
vt 0.698486 0.457102
vt 0.705628 0.423536
vt 0.675633 0.428535
vt 0.701343 0.489953
vt 0.687774 0.479240
vt 0.671348 0.469956
vt 0.698486 0.513520
vt 0.686346 0.508521
vt 0.671348 0.525661
vt 0.676347 0.498523
vt 0.649924 0.486382
vt 0.547085 0.439962
vt 0.497808 0.414252
vt 0.548514 0.403540
vt 0.521376 0.449960
vt 0.467814 0.457102
vt 0.501379 0.471385
vt 0.595648 0.291418
vt 0.646353 0.261423
vt 0.547085 0.344265
vt 0.503522 0.402112
vt 0.459958 0.427821
vt 0.427821 0.450674
vt 0.404968 0.472099
vt 0.368546 0.454959
vt 0.284990 0.457816
vt 0.294274 0.429250
vt 0.215717 0.459244
vt 0.272850 0.400683
vt 0.222145 0.434963
vt 0.145016 0.447103
vt 0.264994 0.380687
vt 0.235713 0.377116
vt 0.216431 0.421394
vt 0.207147 0.407825
vt 0.182866 0.393542
vt 0.159299 0.430678
vt 0.150729 0.422108
vt 0.122877 0.422822
vt 0.152871 0.414252
vt 0.134303 0.405682
vt 0.756333 0.472099
vt 0.746335 0.484240
vt 0.745620 0.474241
vt 0.757047 0.484240
vt 0.764188 0.473527
vt 0.764188 0.481383
vt 0.737765 0.487096
vt 0.755619 0.491381
vt 0.768473 0.484240
vt 0.689916 0.593505
vt 0.695630 0.583507
vt 0.697058 0.592077
vt 0.689202 0.581365
vt 0.730623 0.492095
vt 0.727052 0.503522
vt 0.727052 0.495666
vt 0.732051 0.506378
vt 0.743478 0.577794
vt 0.752048 0.569224
vt 0.758475 0.572081
vt 0.741335 0.570652
vt 0.726338 0.571366
vt 0.733480 0.569938
vt 0.750619 0.559226
vt 0.740621 0.559226
vt 0.732766 0.561368
vt 0.757761 0.556369
vt 0.742050 0.552084
vt 0.725624 0.559226
vt 0.767759 0.469956
vt 0.753476 0.465672
vt 0.736336 0.474956
vt 0.714912 0.591363
vt 0.720625 0.578508
vt 0.722053 0.594219
vt 0.714198 0.582079
vt 0.708484 0.496380
vt 0.700629 0.509235
vt 0.699914 0.497094
vt 0.709198 0.506378
vt 0.744192 0.527089
vt 0.733480 0.526375
vt 0.732766 0.516377
vt 0.743478 0.514948
vt 0.752048 0.524232
vt 0.751334 0.516377
vt 0.724196 0.514948
vt 0.740621 0.507807
vt 0.754904 0.512806
vt 0.657065 0.584935
vt 0.664207 0.594219
vt 0.657779 0.597076
vt 0.664207 0.585650
vt 0.719197 0.549228
vt 0.714198 0.538515
vt 0.718482 0.534945
vt 0.714912 0.546371
vt 0.709913 0.554227
vt 0.725624 0.558512
vt 0.719197 0.562082
vt 0.708484 0.561368
vt 0.694201 0.562797
vt 0.701343 0.563511
vt 0.719197 0.571366
vt 0.709198 0.572795
vt 0.701343 0.572081
vt 0.741335 0.528517
vt 0.751334 0.527089
vt 0.758475 0.529231
vt 0.743478 0.535659
vt 0.733480 0.527803
vt 0.727052 0.530660
vt 0.756333 0.527089
vt 0.742764 0.534230
vt 0.724910 0.527089
vt 0.682061 0.584221
vt 0.689916 0.595648
vt 0.682775 0.593505
vt 0.688488 0.580651
vt 0.697058 0.548514
vt 0.687060 0.537087
vt 0.696344 0.538515
vt 0.687774 0.549228
vt 0.714198 0.533516
vt 0.745620 0.514234
vt 0.754904 0.529945
vt 0.724196 0.549228
vt 0.764903 0.544943
vt 0.734194 0.564939
vt 0.774901 0.560654
vt 0.789898 0.550656
vt 0.743478 0.579936
vt 0.779900 0.534945
vt 0.805609 0.540658
vt 0.770616 0.519947
vt 0.795611 0.525661
vt 0.785613 0.509949
vt 0.718482 0.574223
vt 0.728481 0.589935
vt 0.708484 0.559226
vt 0.693487 0.568510
vt 0.703485 0.584221
vt 0.712769 0.599219
vt 0.506378 0.902020
vt 0.795611 0.872740
vt 0.575651 1.012000
vt 0.726338 0.762760
vt 0.436391 0.792040
vt 0.656351 0.652780
vt 0.704914 0.518519
vt 0.735622 0.498523
vt 0.694915 0.502808
vt 0.725624 0.483525
vt 0.684917 0.487810
vt 0.716340 0.467814
vt 0.649209 0.467100
vt 0.705628 0.479240
vt 0.670634 0.501379
vt 0.683489 0.444961
vt 0.727052 0.514234
vt 0.692773 0.535659
vt 0.749191 0.548514
vt 0.714198 0.569938
vt 0.770616 0.582793
vt 0.736336 0.604932
vt 0.077171 0.712055
vt 0.216431 0.931301
vt 0.297131 0.572081
vt 0.517091 0.432820
vt 0.876311 0.513520
vt 0.737051 0.293560
s 1
usemtl forest_stone07_1
f 1/1/1 3/2/2 2/3/3
f 1/1/1 4/4/2 3/2/2
f 2/3/4 6/5/5 5/6/4
f 2/3/4 3/2/5 6/5/5
f 5/6/6 8/7/7 7/8/8
f 5/6/6 6/5/9 8/7/7
f 7/8/10 4/4/11 1/1/10
f 7/8/10 8/7/11 4/4/11
f 9/9/12 11/10/12 10/11/12
f 9/9/12 12/12/12 11/10/12
f 6/5/13 4/4/13 8/7/13
f 6/5/13 3/2/13 4/4/13
f 11/10/14 1/13/10 10/11/15
f 11/10/14 7/14/10 1/13/10
f 12/12/16 7/14/8 11/10/16
f 12/12/16 5/15/6 7/14/8
f 9/9/17 5/15/4 12/12/17
f 9/9/17 2/16/4 5/15/4
f 10/11/18 2/16/3 9/9/18
f 10/11/18 1/13/1 2/16/3
f 13/17/19 15/18/20 14/19/21
f 13/17/19 16/20/22 15/18/20
f 17/21/23 16/20/22 13/17/19
f 17/21/23 18/22/24 16/20/22
f 19/23/25 18/22/24 17/21/23
f 19/23/25 20/24/26 18/22/24
f 21/25/27 20/24/26 19/23/25
f 21/25/27 22/26/28 20/24/26
f 23/27/29 22/26/28 21/25/27
f 23/27/29 24/28/30 22/26/28
f 25/29/31 24/28/30 23/27/29
f 25/29/31 26/30/32 24/28/30
f 27/31/33 26/32/32 25/33/31
f 27/31/33 28/34/34 26/32/32
f 14/35/21 28/34/34 27/31/33
f 14/35/21 15/36/20 28/34/34
f 29/37/35 26/38/32 28/39/34
f 29/37/35 24/40/30 26/38/32
f 20/41/26 24/40/30 29/37/35
f 20/41/26 22/42/28 24/40/30
f 16/43/22 28/44/34 15/45/20
f 16/43/22 29/46/35 28/44/34
f 18/47/24 29/46/35 16/43/22
f 18/47/24 20/48/26 29/46/35
f 30/49/36 32/50/37 31/51/38
f 31/51/38 32/50/37 33/52/39
f 32/50/37 34/53/40 33/52/39
f 34/53/40 32/50/37 35/54/41
f 34/53/40 35/54/41 36/55/42
f 37/56/43 34/53/40 36/55/42
f 37/56/43 36/55/42 38/57/44
f 33/52/39 34/53/40 37/56/45
f 33/52/39 37/56/45 39/58/46
f 40/59/47 39/58/46 37/56/45
f 41/60/48 40/59/47 37/56/45
f 37/56/45 38/57/49 41/60/48
f 41/60/48 38/57/49 42/61/50
f 41/60/48 42/61/50 43/62/51
f 43/62/51 42/61/50 44/63/52
f 43/62/51 44/63/52 45/64/53
f 45/64/53 44/63/52 46/65/54
f 45/64/53 46/65/54 47/66/55
f 41/60/48 48/67/56 40/59/47
f 49/68/57 40/59/47 48/67/56
f 49/68/57 48/67/56 50/69/58
f 51/70/59 48/67/56 41/60/48
f 51/70/59 41/60/48 43/71/51
f 51/70/59 43/71/51 52/72/60
f 52/72/60 43/71/51 45/73/53
f 52/72/60 45/73/53 53/74/61
f 53/74/61 45/73/53 47/75/55
f 53/74/61 47/75/55 54/76/62
f 55/77/63 50/69/58 48/67/56
f 55/77/63 56/78/64 50/69/58
f 50/69/58 56/78/64 57/79/65
f 57/79/65 56/78/64 30/49/66
f 56/78/64 55/77/63 58/80/67
f 56/78/64 58/80/67 59/81/68
f 55/77/63 51/70/69 58/80/67
f 55/77/63 48/67/70 51/70/69
f 50/82/58 14/83/21 49/84/57
f 50/82/58 13/85/19 14/83/21
f 57/86/65 13/85/19 50/82/58
f 57/86/65 17/87/23 13/85/19
f 30/88/71 17/87/23 57/86/65
f 30/88/71 19/89/25 17/87/23
f 31/90/38 19/89/25 30/88/71
f 31/90/38 21/91/27 19/89/25
f 33/92/39 21/91/27 31/90/38
f 33/92/39 23/93/29 21/91/27
f 39/94/46 23/93/29 33/92/39
f 39/94/46 25/95/31 23/93/29
f 49/96/57 14/97/21 27/98/33
f 49/96/57 27/98/33 40/99/47
f 40/99/47 27/98/33 25/100/31
f 40/99/47 25/100/31 39/101/46
f 59/81/72 61/102/73 60/103/74
f 59/81/72 58/80/73 61/102/73
f 58/80/73 52/72/75 61/102/73
f 58/80/73 51/70/75 52/72/75
f 36/55/76 35/54/77 62/104/78
f 36/55/76 62/104/78 63/105/76
f 38/57/79 36/55/76 63/105/76
f 38/57/79 63/105/76 42/61/79
f 64/106/80 66/107/81 65/108/82
f 64/106/80 60/103/83 66/107/81
f 67/109/84 60/103/83 64/106/80
f 66/107/81 60/103/83 68/110/85
f 66/107/81 68/110/85 69/111/86
f 69/111/86 68/110/85 70/112/87
f 69/111/86 70/112/87 71/113/88
f 67/109/84 59/81/89 60/103/83
f 71/113/88 70/112/87 72/114/90
f 71/113/88 72/114/90 73/115/91
f 72/114/90 74/116/92 73/115/91
f 72/114/90 75/117/93 74/116/92
f 56/78/94 59/81/89 67/109/84
f 67/109/84 30/49/95 56/78/94
f 67/109/84 32/50/96 30/49/95
f 35/54/97 32/50/96 67/109/84
f 35/54/97 67/109/84 64/118/80
f 35/54/97 64/118/80 62/104/98
f 62/104/98 64/118/80 65/119/82
f 62/104/98 65/119/82 76/120/99
f 62/104/98 76/120/99 77/121/100
f 62/104/98 77/121/100 78/122/101
f 78/122/101 77/121/100 79/123/102
f 78/122/101 79/123/102 80/124/103
f 80/124/103 79/123/102 81/125/104
f 80/124/103 81/125/104 82/126/105
f 83/127/106 82/126/105 81/125/104
f 83/127/106 81/125/104 84/128/107
f 42/61/108 46/65/109 44/63/108
f 42/61/108 85/129/110 46/65/109
f 76/130/99 65/131/82 86/132/111
f 76/130/99 86/132/111 87/133/112
f 87/133/112 86/132/111 88/134/113
f 87/133/112 88/134/113 89/135/114
f 89/135/114 88/134/113 90/136/115
f 89/135/114 90/136/115 91/137/116
f 91/137/116 90/136/115 92/138/117
f 91/137/116 92/138/117 93/139/118
f 93/139/118 92/138/117 94/140/119
f 93/139/118 94/140/119 95/141/120
f 95/141/120 94/140/119 96/142/121
f 95/141/120 96/142/121 97/143/122
f 76/130/99 87/133/112 98/144/123
f 76/130/99 98/144/123 77/145/100
f 87/133/112 99/146/124 98/144/123
f 87/133/112 100/147/125 99/146/124
f 77/145/100 98/144/123 101/148/126
f 77/145/100 101/148/126 79/149/102
f 98/144/123 99/146/124 102/150/127
f 98/144/123 102/150/127 101/148/126
f 100/147/125 103/151/128 99/146/124
f 100/147/125 104/152/129 103/151/128
f 79/149/102 101/148/126 105/153/130
f 79/149/102 105/153/130 81/154/104
f 84/155/107 81/154/104 105/153/130
f 84/155/107 105/153/130 106/156/131
f 101/148/126 106/156/131 105/153/130
f 101/148/126 102/150/127 106/156/131
f 99/146/124 107/157/132 102/150/127
f 99/146/124 103/151/128 107/157/132
f 102/150/127 108/158/133 106/156/131
f 102/150/127 107/157/132 108/158/133
f 109/159/134 106/156/131 108/158/133
f 107/157/132 109/159/134 108/158/133
f 109/159/134 84/155/135 106/156/131
f 107/157/132 110/160/136 109/159/134
f 103/151/128 110/160/136 107/157/132
f 103/151/128 111/161/137 110/160/136
f 104/152/138 111/161/137 103/151/128
f 104/152/138 85/162/139 111/161/137
f 112/163/140 54/164/8 113/165/141
f 112/163/140 114/166/142 54/164/8
f 114/167/142 53/74/143 54/76/8
f 114/167/142 52/72/143 53/74/143
f 100/147/144 87/133/145 89/135/146
f 100/147/144 89/135/146 115/168/147
f 104/152/148 100/147/144 115/168/147
f 115/168/147 89/135/146 91/137/149
f 104/152/148 115/168/147 116/169/150
f 115/168/147 91/137/149 117/170/151
f 116/169/150 115/168/147 117/170/151
f 117/170/151 91/137/149 93/139/152
f 116/169/150 117/170/151 118/171/153
f 117/170/151 93/139/152 119/172/154
f 118/171/153 117/170/151 119/172/154
f 119/172/154 93/139/152 95/141/155
f 118/171/153 119/172/154 120/173/156
f 119/172/154 95/141/155 121/174/157
f 120/173/156 119/172/154 121/174/157
f 121/174/157 95/141/155 97/143/158
f 121/174/157 97/143/158 122/175/158
f 123/176/159 121/174/157 122/175/158
f 120/173/156 121/174/157 123/176/159
f 123/176/159 122/175/158 124/177/160
f 125/178/161 120/173/156 123/176/159
f 126/179/162 120/173/156 125/178/161
f 125/178/161 123/176/159 127/180/163
f 127/180/163 123/176/159 124/177/164
f 127/180/163 124/177/164 128/181/165
f 126/179/162 118/171/166 120/173/156
f 129/182/167 118/171/166 126/179/162
f 129/182/167 116/169/168 118/171/166
f 130/183/169 116/169/168 129/182/167
f 130/183/169 104/152/170 116/169/168
f 131/184/171 112/163/172 132/185/173
f 131/184/171 132/185/173 133/186/174
f 134/187/175 131/184/171 133/186/174
f 133/186/174 132/185/173 135/188/176
f 134/187/175 133/186/174 136/189/177
f 133/186/174 135/188/176 137/190/178
f 136/189/177 133/186/174 137/190/178
f 136/189/177 137/190/178 138/191/179
f 137/190/178 135/188/176 139/192/180
f 138/191/179 137/190/178 140/193/181
f 137/190/178 139/192/180 140/193/181
f 138/191/179 140/193/181 141/194/182
f 141/194/182 140/193/181 142/195/183
f 141/194/182 142/195/183 143/196/184
f 143/196/184 142/195/183 144/197/185
f 143/196/184 144/197/185 145/198/185
f 142/195/183 146/199/186 144/197/185
f 142/195/183 147/200/187 146/199/186
f 140/193/181 147/200/187 142/195/183
f 140/193/181 139/192/180 147/200/187
f 139/192/180 127/201/163 147/200/187
f 147/200/187 127/201/163 128/202/165
f 147/200/187 128/202/165 146/199/188
f 139/192/180 125/203/161 127/201/163
f 135/188/189 125/203/161 139/192/180
f 135/188/189 126/204/162 125/203/161
f 132/185/190 126/204/162 135/188/189
f 132/185/190 129/205/167 126/204/162
f 112/163/191 129/205/167 132/185/190
f 112/163/191 130/206/169 129/205/167
f 52/72/192 114/167/193 148/207/194
f 52/72/192 148/207/194 149/208/195
f 149/208/195 148/207/194 150/209/196
f 149/208/195 150/209/196 151/210/197
f 151/210/197 150/209/196 152/211/198
f 151/210/197 152/211/198 153/212/199
f 75/117/200 153/212/199 152/211/198
f 75/117/200 152/211/198 74/116/201
f 154/213/202 151/210/197 153/212/199
f 154/213/202 153/212/199 75/117/203
f 70/112/204 154/213/202 75/117/203
f 70/112/204 75/117/203 72/114/205
f 68/110/206 154/213/202 70/112/204
f 155/214/207 151/210/197 154/213/202
f 68/110/206 155/214/207 154/213/202
f 60/103/208 155/214/207 68/110/206
f 155/214/207 149/208/209 151/210/197
f 60/103/208 61/102/210 155/214/207
f 61/102/210 149/208/209 155/214/207
f 61/102/210 52/72/211 149/208/209
f 156/215/143 158/216/212 157/217/213
f 156/215/143 157/217/213 159/218/185
f 160/219/214 156/215/143 159/218/185
f 160/219/214 159/218/185 161/220/215
f 162/221/216 163/222/217 158/223/212
f 162/221/216 158/223/212 156/224/143
f 164/225/218 162/221/216 156/224/143
f 164/225/218 156/224/143 160/226/214
f 158/216/219 165/227/220 157/217/220
f 158/216/219 166/228/219 165/227/220
f 163/222/221 166/229/219 158/223/219
f 163/222/221 167/230/221 166/229/219
f 166/228/222 168/231/158 165/227/223
f 166/228/222 169/232/224 168/231/158
f 169/232/224 170/233/225 168/231/158
f 169/232/224 171/234/226 170/233/225
f 167/230/227 169/235/224 166/229/222
f 167/230/227 172/236/228 169/235/224
f 172/236/228 171/237/226 169/235/224
f 172/236/228 173/238/229 171/237/226
f 171/234/230 161/220/231 170/233/231
f 171/234/230 160/219/230 161/220/231
f 173/238/232 160/226/230 171/237/230
f 173/238/232 164/225/232 160/226/230
f 85/129/139 42/61/233 174/239/234
f 85/129/139 174/239/234 111/240/137
f 111/240/137 174/239/234 175/241/235
f 111/240/137 175/241/235 110/242/136
f 110/242/136 175/241/235 176/243/236
f 110/242/136 176/243/236 109/244/134
f 176/243/236 84/128/135 109/244/134
f 176/243/236 83/127/237 84/128/135
f 175/241/235 83/127/237 176/243/236
f 175/241/235 177/245/238 83/127/237
f 177/245/238 82/126/239 83/127/237
f 174/239/240 177/245/238 175/241/235
f 177/245/238 80/124/241 82/126/239
f 174/239/240 178/246/242 177/245/238
f 178/246/242 80/124/241 177/245/238
f 42/61/243 178/246/242 174/239/240
f 178/246/242 78/122/244 80/124/241
f 42/61/243 63/105/245 178/246/242
f 63/105/245 78/122/244 178/246/242
f 63/105/245 62/104/246 78/122/244
f 47/247/55 180/248/247 179/249/248
f 47/247/55 46/250/54 180/248/247
f 54/164/62 179/251/248 113/165/249
f 54/164/62 47/252/55 179/251/248
f 130/206/250 113/165/251 179/251/252
f 130/206/250 112/163/251 113/165/251
f 104/152/253 179/249/252 180/248/253
f 104/152/253 130/183/250 179/249/252
f 85/162/110 180/248/254 46/250/109
f 85/162/110 104/152/254 180/248/254
f 181/253/255 183/254/256 182/255/257
f 181/253/255 182/255/257 184/256/258
f 185/257/259 181/253/255 184/256/258
f 185/257/259 184/256/258 186/258/260
f 187/259/261 188/260/262 185/261/259
f 187/259/261 189/262/263 188/260/262
f 189/262/263 187/259/261 190/263/264
f 189/262/263 191/264/265 188/260/262
f 189/262/263 190/263/264 192/265/266
f 193/266/267 192/265/266 190/263/264
f 189/262/263 194/267/142 191/264/265
f 194/267/142 189/262/263 192/265/266
f 194/267/142 195/268/268 191/264/265
f 194/267/142 196/269/269 195/268/268
f 196/269/269 183/270/256 195/268/268
f 196/269/269 197/271/270 183/270/256
f 194/267/142 192/265/266 198/272/271
f 196/269/269 194/267/142 198/272/271
f 197/271/270 196/269/269 199/273/272
f 196/269/269 198/272/271 199/273/272
f 197/271/270 199/273/272 200/274/273
f 193/266/267 201/275/274 192/265/266
f 201/275/274 198/272/271 192/265/266
f 193/266/267 202/276/275 201/275/274
f 201/275/274 202/276/275 198/272/271
f 202/276/275 199/273/272 198/272/271
f 193/266/267 203/277/276 202/276/275
f 204/278/277 200/274/273 199/273/272
f 202/276/275 204/278/277 199/273/272
f 203/277/276 204/278/277 202/276/275
f 204/278/277 205/279/278 200/274/273
f 203/277/276 205/279/278 204/278/277
f 197/271/270 182/280/257 183/281/256
f 197/271/270 206/282/279 182/280/257
f 206/282/279 197/271/270 200/283/273
f 184/284/258 182/280/257 206/282/279
f 206/282/279 200/283/273 207/285/280
f 205/286/278 207/285/280 200/283/273
f 184/284/258 206/282/279 208/287/281
f 208/287/281 206/282/279 207/285/280
f 186/288/260 184/284/258 208/287/281
f 186/288/260 208/287/281 209/289/282
f 209/289/282 185/290/259 186/288/260
f 209/289/282 187/291/283 185/290/259
f 208/287/281 207/285/280 210/292/284
f 209/289/282 208/287/281 210/292/284
f 187/291/283 209/289/282 211/293/285
f 209/289/282 210/292/284 211/293/285
f 187/291/283 211/293/285 190/294/286
f 205/286/278 212/295/287 207/285/280
f 210/292/284 207/285/280 212/295/287
f 213/296/288 212/295/287 205/286/278
f 210/292/284 212/295/287 213/296/288
f 211/293/285 210/292/284 213/296/288
f 213/296/288 205/286/278 203/297/276
f 214/298/289 190/294/286 211/293/285
f 211/293/285 213/296/288 214/298/289
f 214/298/289 213/296/288 203/297/276
f 214/298/289 193/299/290 190/294/286
f 214/298/289 203/297/276 193/299/290
f 188/300/262 181/301/255 185/302/259
f 188/300/262 191/303/265 181/301/255
f 191/303/265 183/304/256 181/301/255
f 191/303/265 195/305/268 183/304/256
f 94/306/119 145/198/291 96/307/121
f 94/306/119 143/196/292 145/198/291
f 92/308/117 143/196/292 94/306/119
f 92/308/117 141/194/293 143/196/292
f 90/309/115 141/194/293 92/308/117
f 90/309/115 138/191/294 141/194/293
f 88/310/113 138/191/294 90/309/115
f 88/310/113 136/189/295 138/191/294
f 86/311/111 136/189/295 88/310/113
f 86/311/111 134/187/296 136/189/295
f 65/312/82 134/187/296 86/311/111
f 65/312/82 66/313/81 134/187/296
f 134/187/296 66/313/81 69/314/86
f 134/187/296 69/314/86 215/315/297
f 131/184/298 134/187/296 215/315/297
f 215/315/297 69/314/86 71/316/88
f 131/184/298 215/315/297 216/317/299
f 112/163/300 131/184/298 216/317/299
f 215/315/297 71/316/88 217/318/301
f 216/317/299 215/315/297 217/318/301
f 217/318/301 71/316/88 73/319/91
f 112/163/300 216/317/299 218/320/302
f 114/166/193 112/163/300 218/320/302
f 114/166/193 218/320/302 148/321/194
f 216/317/299 217/318/301 219/322/303
f 218/320/302 216/317/299 219/322/303
f 148/321/194 218/320/302 220/323/304
f 218/320/302 219/322/303 220/323/304
f 148/321/194 220/323/304 150/324/196
f 217/318/301 73/319/91 221/325/305
f 219/322/303 217/318/301 221/325/305
f 73/319/91 222/326/306 221/325/305
f 219/322/303 221/325/305 222/326/306
f 220/323/304 219/322/303 222/326/306
f 73/319/91 74/327/92 222/326/306
f 150/324/196 220/323/304 223/328/307
f 220/323/304 222/326/306 223/328/307
f 150/324/196 223/328/307 152/329/198
f 74/327/201 223/328/307 222/326/306
f 74/327/201 152/329/198 223/328/307
f 224/330/308 226/331/309 225/332/310
f 224/330/308 227/333/311 226/331/309
f 228/334/312 227/333/311 224/330/308
f 228/334/312 229/335/313 227/333/311
f 230/336/314 226/331/309 227/333/311
f 230/336/314 227/333/311 231/337/315
f 231/337/315 227/333/311 229/335/316
f 231/337/315 229/335/316 232/338/317
f 233/339/318 235/340/319 234/341/320
f 233/339/318 230/342/318 235/340/319
f 236/343/321 229/344/322 228/345/322
f 236/343/321 232/346/323 229/344/322
f 237/347/324 238/348/325 236/349/326
f 237/347/324 239/350/327 238/348/325
f 233/351/328 239/350/327 237/347/324
f 233/351/328 234/352/329 239/350/327
f 239/350/327 240/353/330 238/348/325
f 239/350/327 241/354/331 240/353/330
f 234/352/320 241/354/331 239/350/327
f 234/352/320 235/355/319 241/354/331
f 241/354/331 232/356/317 240/353/330
f 241/354/331 231/357/315 232/356/317
f 235/355/332 231/357/315 241/354/331
f 235/355/332 230/358/314 231/357/315
f 224/330/333 236/359/326 228/334/334
f 224/330/333 237/360/324 236/359/326
f 225/332/335 237/360/324 224/330/333
f 225/332/335 233/361/328 237/360/324
f 238/362/325 232/363/317 236/364/326
f 238/362/325 240/365/330 232/363/317
f 225/366/310 230/367/314 233/368/336
f 225/366/310 226/369/309 230/367/314
f 242/370/337 244/371/338 243/372/339
f 242/370/337 243/372/339 245/373/340
f 246/374/341 242/370/337 245/373/340
f 246/374/341 245/373/340 247/375/342
f 248/376/343 245/373/340 243/372/339
f 248/376/343 249/377/344 245/373/340
f 249/377/344 247/375/345 245/373/340
f 249/377/344 250/378/346 247/375/345
f 251/379/347 252/380/348 248/381/347
f 251/379/347 253/382/349 252/380/348
f 254/383/350 247/384/350 250/385/351
f 254/383/350 246/386/350 247/384/350
f 255/387/352 254/388/353 256/389/354
f 255/387/352 256/389/354 257/390/355
f 251/391/356 255/387/352 257/390/355
f 251/391/356 257/390/355 253/392/357
f 257/390/355 256/389/354 258/393/358
f 257/390/355 258/393/358 259/394/359
f 253/392/349 257/390/355 259/394/359
f 253/392/349 259/394/359 252/395/348
f 259/396/359 258/397/358 250/398/346
f 259/396/359 250/398/346 249/399/344
f 252/400/360 259/396/359 249/399/344
f 252/400/360 249/399/344 248/401/343
f 242/370/361 246/374/362 254/402/353
f 242/370/361 254/402/353 255/403/352
f 244/371/363 242/370/361 255/403/352
f 244/371/363 255/403/352 251/404/356
f 256/405/354 250/406/346 258/407/358
f 256/405/354 254/408/353 250/406/346
f 244/409/338 248/410/343 243/411/339
f 244/409/338 251/412/364 248/410/343
f 260/413/365 262/414/366 261/415/367
f 260/413/365 261/415/367 263/416/368
f 263/416/368 261/415/367 264/417/369
f 263/416/368 264/417/369 265/418/370
f 265/418/370 264/417/369 266/419/371
f 264/417/369 267/420/372 266/419/371
f 265/418/370 266/419/371 268/421/373
f 264/417/369 269/422/374 267/420/372
f 261/415/375 269/422/374 264/417/369
f 269/422/374 270/423/376 267/420/372
f 261/415/375 262/424/377 269/422/374
f 269/422/374 271/425/378 270/423/376
f 262/424/377 271/425/378 269/422/374
f 262/424/377 272/426/379 271/425/378
f 273/427/380 265/418/370 268/421/373
f 273/427/380 268/421/373 274/428/381
f 260/429/382 265/418/370 273/427/380
f 260/429/382 263/416/383 265/418/370
f 275/430/384 260/429/382 273/427/380
f 275/430/384 273/427/380 276/431/385
f 276/431/385 273/427/380 274/428/381
f 276/431/385 274/428/381 277/432/386
f 274/433/387 270/434/388 277/435/388
f 274/433/387 267/436/388 270/434/388
f 268/437/373 267/436/372 274/433/381
f 268/437/373 266/438/371 267/436/372
f 275/439/389 262/414/377 260/413/390
f 275/439/389 272/440/379 262/414/377
f 276/441/391 272/440/379 275/439/389
f 276/441/391 271/442/378 272/440/379
f 277/443/392 271/442/378 276/441/391
f 277/443/392 270/444/393 271/442/378
f 278/413/394 280/415/395 279/414/396
f 278/413/394 281/416/397 280/415/395
f 281/416/397 282/417/398 280/415/395
f 281/416/397 283/418/399 282/417/398
f 283/418/399 284/419/400 282/417/398
f 282/417/398 284/419/400 285/420/401
f 283/418/399 286/421/402 284/419/400
f 282/417/398 285/420/401 287/422/403
f 280/415/404 282/417/398 287/422/403
f 287/422/403 285/420/401 288/423/405
f 280/415/404 287/422/403 279/424/406
f 287/422/403 288/423/405 289/425/407
f 279/424/406 287/422/403 289/425/407
f 279/424/406 289/425/407 290/426/408
f 291/427/409 286/421/402 283/418/399
f 291/427/409 292/428/410 286/421/402
f 278/429/411 291/427/409 283/418/399
f 278/429/411 283/418/399 281/416/412
f 293/430/413 291/427/409 278/429/411
f 293/430/413 294/431/414 291/427/409
f 294/431/414 292/428/410 291/427/409
f 294/431/414 295/432/415 292/428/410
f 292/433/416 288/434/417 285/436/418
f 292/433/416 295/435/416 288/434/417
f 286/437/402 285/436/401 284/438/400
f 286/437/402 292/433/410 285/436/401
f 293/439/419 278/413/420 279/414/406
f 293/439/419 279/414/406 290/440/408
f 294/441/421 293/439/419 290/440/408
f 294/441/421 290/440/408 289/442/407
f 295/443/422 294/441/421 289/442/407
f 295/443/422 289/442/407 288/444/423
f 296/445/424 298/446/424 297/447/425
f 296/445/424 299/448/424 298/446/424
f 297/447/426 301/449/427 300/450/428
f 297/447/426 298/446/429 301/449/427
f 300/450/430 303/451/430 302/452/430
f 300/450/430 301/449/430 303/451/430
f 302/452/431 299/453/431 296/454/431
f 302/452/431 303/451/431 299/453/431
f 297/455/432 302/437/432 296/456/432
f 297/455/432 300/457/432 302/437/432
f 301/458/433 299/459/433 303/438/433
f 301/458/433 298/460/433 299/459/433
f 304/445/434 306/446/434 305/448/435
f 304/445/434 307/447/436 306/446/434
f 307/447/437 308/449/437 306/446/438
f 307/447/437 309/450/437 308/449/437
f 309/450/439 310/451/439 308/449/439
f 309/450/439 311/452/439 310/451/439
f 311/452/440 305/453/440 310/451/440
f 311/452/440 304/454/440 305/453/440
f 307/455/441 311/437/441 309/457/441
f 307/455/441 304/456/441 311/437/441
f 308/458/442 305/459/442 306/460/442
f 308/458/442 310/438/442 305/459/442
