# Blender 4.3.2
# www.blender.org
mtllib Helmet1.mtl
o _helm_01
v 0.673033 -0.698815 -0.480117
v 0.000030 -0.349755 -0.936896
v 0.000030 -0.624487 -0.865647
v 0.623279 -0.371431 -0.580348
v 0.000030 -0.081001 -1.015572
v 0.659568 -0.089454 -0.682513
v 0.000030 0.256829 -1.104271
v 0.722605 0.263290 -0.782624
v 0.000030 0.650511 -0.988039
v 0.540437 0.655462 -0.780993
v 0.000030 0.934239 -0.711556
v 0.467256 0.866492 -0.695193
v 0.000030 1.165859 -0.129547
v 0.910932 -0.637831 0.189324
v 0.856409 -0.235394 0.016635
v 0.882372 0.056124 -0.104489
v 0.944383 0.413637 -0.214865
v 0.723632 0.776102 -0.327656
v 0.887384 -0.902056 0.320350
v 0.780691 -0.860454 -0.315700
v 0.789507 -0.588077 0.768313
v 0.824105 -0.364186 0.680339
v 0.804240 -0.058177 0.484585
v 0.791077 0.231047 0.374149
v 0.739089 0.629076 0.319685
v 0.622675 0.934541 -0.392685
v 0.576665 0.941847 0.094647
v 0.304288 0.789507 0.448658
v 0.506926 1.038275 -0.114572
v 0.270777 1.042079 0.216917
v 0.000030 0.927175 0.525523
v 0.000030 1.117434 0.272468
v 0.260512 1.124378 -0.047188
v -0.673033 -0.698815 -0.480117
v -0.623279 -0.371431 -0.580348
v -0.659568 -0.089454 -0.682513
v -0.722605 0.263290 -0.782624
v -0.540437 0.655462 -0.780993
v -0.467256 0.866492 -0.695193
v -0.910932 -0.637831 0.189324
v -0.856409 -0.235394 0.016635
v -0.882372 0.056124 -0.104489
v -0.944383 0.413637 -0.214865
v -0.723632 0.776102 -0.327656
v -0.887384 -0.902056 0.320350
v -0.780691 -0.860454 -0.315700
v -0.789507 -0.588077 0.768313
v -0.824105 -0.364186 0.680339
v -0.804240 -0.058177 0.484585
v -0.791077 0.231047 0.374149
v -0.739089 0.629076 0.319685
v -0.622675 0.934541 -0.392685
v -0.576665 0.941847 0.094647
v -0.304288 0.789507 0.448658
v -0.506926 1.038275 -0.114572
v -0.270777 1.042079 0.216917
v -0.260512 1.124378 -0.047188
v 0.520089 -0.704129 -0.437790
v 0.000030 -0.595987 -0.753339
v 0.000030 -0.316425 -0.826037
v 0.489657 -0.351264 -0.518156
v 0.000030 -0.046825 -0.904955
v 0.533372 -0.074540 -0.620864
v 0.000030 0.265222 -0.989186
v 0.602629 0.256044 -0.723994
v 0.000030 0.618147 -0.882010
v 0.479452 0.623943 -0.697910
v 0.000030 0.857375 -0.644110
v 0.423178 0.800919 -0.628653
v 0.000030 1.066775 -0.121697
v 0.739089 -0.677018 0.213778
v 0.690483 -0.220782 0.031005
v 0.720130 0.056546 -0.091145
v 0.791318 0.392806 -0.204298
v 0.631129 0.733836 -0.311172
v 0.787394 -0.928141 0.327233
v 0.685531 -0.891188 -0.288227
v 0.688249 -0.609814 0.758894
v 0.635114 -0.361106 0.702800
v 0.634208 -0.050689 0.486638
v 0.621166 0.224163 0.373062
v 0.584152 0.595202 0.304892
v 0.556136 0.864319 -0.362495
v 0.508375 0.875066 0.049180
v 0.262444 0.724296 0.369680
v 0.455179 0.951569 -0.118074
v 0.233582 0.961169 0.156899
v 0.000030 0.854175 0.441231
v 0.000030 1.028795 0.212087
v 0.232798 1.027950 -0.053105
v -0.520089 -0.704129 -0.437790
v -0.489657 -0.351264 -0.518156
v -0.533372 -0.074540 -0.620864
v -0.602629 0.256044 -0.723994
v -0.479452 0.623943 -0.697910
v -0.423178 0.800919 -0.628653
v -0.739089 -0.677018 0.213778
v -0.690483 -0.220782 0.031005
v -0.720130 0.056546 -0.091145
v -0.791318 0.392806 -0.204298
v -0.631129 0.733836 -0.311172
v -0.787394 -0.928141 0.327233
v -0.685531 -0.891188 -0.288227
v -0.688249 -0.609814 0.758894
v -0.635114 -0.361106 0.702800
v -0.634208 -0.050689 0.486638
v -0.621166 0.224163 0.373062
v -0.584152 0.595202 0.304892
v -0.556136 0.864319 -0.362495
v -0.508375 0.875066 0.049180
v -0.262444 0.724296 0.369680
v -0.455179 0.951569 -0.118074
v -0.233582 0.961169 0.156899
v -0.232798 1.027950 -0.053105
v 0.364790 0.482532 0.844815
v 0.836302 0.657273 0.366601
v 0.878629 0.416777 0.464538
v 0.579443 0.708174 0.607580
v 0.000030 0.639280 1.005730
v 0.877240 1.005669 0.095130
v 0.000030 0.936473 0.740417
v 0.485128 1.216277 0.417864
v 0.000030 1.378399 0.589526
v -0.364790 0.437367 0.804059
v -0.878629 0.371009 0.423238
v -0.836302 0.611203 0.324999
v -0.579443 0.662104 0.566038
v -0.877240 0.959901 0.053829
v -0.485128 1.171052 0.377107
v 0.305073 0.323429 0.660232
v 0.827849 0.269086 0.270596
v 0.768796 0.504148 0.175436
v 0.532225 0.470697 0.433623
v 0.000030 0.477098 0.813176
v 0.815773 0.852786 -0.102557
v 0.000030 0.708416 0.551486
v 0.431812 1.071122 0.215529
v 0.000030 1.237592 0.376383
v -0.305073 0.323429 0.660232
v -0.768796 0.504148 0.175436
v -0.827849 0.269086 0.270596
v -0.532225 0.470697 0.433623
v -0.815773 0.852786 -0.102557
v -0.431812 1.071122 0.215529
v 0.549735 0.131660 -0.650873
v 0.609029 0.592123 -0.966000
v 0.215287 0.427283 -0.885754
v 0.825252 0.401078 -0.814203
v 0.810157 0.287261 -0.183104
v 1.442705 0.684143 -1.353824
v 0.993533 0.501672 -0.511877
v 0.736010 0.738425 0.049723
v 1.560447 0.583065 -1.277745
v 1.722086 0.911838 -1.596977
v 1.836930 0.839381 -1.580554
v 1.651561 0.634510 -1.116649
v 1.920859 0.860575 -1.454660
v 0.945651 0.793251 -0.361408
v 0.401561 1.034049 -0.185157
v 1.624873 0.787092 -1.031694
v 1.890004 0.954286 -1.345130
v 0.729428 0.984295 -0.513205
v 0.141140 0.878448 -0.652866
v 0.561147 0.883761 -0.815471
v 1.507191 0.888169 -1.107773
v 1.416077 0.836664 -1.268869
v 1.775100 1.026803 -1.361553
v 1.963307 1.156440 -1.796656
v 1.691171 1.005549 -1.487447
v 1.907696 1.190253 -1.801788
v 1.867301 1.181377 -1.861263
v 1.978522 1.113690 -1.850938
v 1.938128 1.104754 -1.910413
v 1.882517 1.138628 -1.915546
v -0.549735 0.131660 -0.650873
v -0.215287 0.427283 -0.885754
v -0.609029 0.592123 -0.966000
v -0.825252 0.401078 -0.814203
v -0.810157 0.287261 -0.183104
v -1.442705 0.684143 -1.353824
v -0.993533 0.501672 -0.511877
v -0.736010 0.738425 0.049723
v -1.560447 0.583065 -1.277745
v -1.722086 0.911838 -1.596977
v -1.836930 0.839381 -1.580554
v -1.651561 0.634510 -1.116649
v -1.920859 0.860575 -1.454660
v -0.945651 0.793251 -0.361408
v -0.401561 1.034049 -0.185157
v -1.624873 0.787092 -1.031694
v -1.890004 0.954286 -1.345130
v -0.729428 0.984295 -0.513205
v -0.141140 0.878448 -0.652866
v -0.561147 0.883761 -0.815471
v -1.507191 0.888169 -1.107773
v -1.416077 0.836664 -1.268869
v -1.775100 1.026803 -1.361553
v -1.963307 1.156440 -1.796656
v -1.691171 1.005549 -1.487447
v -1.907696 1.190253 -1.801788
v -1.867301 1.181377 -1.861263
v -1.978522 1.113690 -1.850938
v -1.938128 1.104754 -1.910413
v -1.882517 1.138628 -1.915546
vn 0.8431 -0.0667 -0.5335
vn -0.0039 -0.2314 -0.9729
vn -0.0039 -0.2941 -0.9558
vn 0.7412 -0.1922 -0.6432
vn -0.0039 -0.3177 -0.9482
vn 0.7098 -0.2863 -0.6436
vn -0.0039 -0.0354 -0.9994
vn 0.7177 -0.0040 -0.6964
vn -0.0039 0.3647 -0.9311
vn 0.5530 0.3725 -0.7453
vn -0.0039 0.7960 -0.6053
vn 0.3491 0.7254 -0.5933
vn -0.0039 0.9920 -0.1260
vn 0.9922 0.0352 -0.1200
vn 0.9922 -0.0040 -0.1250
vn 0.9922 -0.1138 -0.0519
vn 0.9765 0.1686 -0.1345
vn 0.8588 0.4823 -0.1727
vn 0.9999 -0.0119 -0.0000
vn 0.9686 0.0117 -0.2483
vn 0.9765 -0.0197 0.2148
vn 0.9921 0.0744 0.1005
vn 0.9921 0.0980 0.0777
vn 0.9765 0.0431 0.2113
vn 0.8666 0.4117 0.2818
vn 0.5922 0.7568 -0.2769
vn 0.6784 0.6627 0.3172
vn 0.4275 0.6626 0.6150
vn 0.5216 0.8509 0.0630
vn 0.3804 0.7960 0.4709
vn -0.0038 0.7567 0.6537
vn -0.0039 0.8901 0.4558
vn 0.2785 0.9450 0.1716
vn -0.8430 -0.0667 -0.5337
vn -0.7411 -0.1922 -0.6433
vn -0.7097 -0.2863 -0.6437
vn -0.7176 -0.0040 -0.6965
vn -0.5528 0.3725 -0.7454
vn -0.3489 0.7254 -0.5934
vn -0.9920 0.0352 -0.1210
vn -0.9920 -0.0040 -0.1259
vn -0.9920 -0.1138 -0.0541
vn -0.9763 0.1686 -0.1354
vn -0.8587 0.4823 -0.1733
vn -0.9999 -0.0118 0.0107
vn -0.9685 0.0117 -0.2487
vn -0.9763 -0.0197 0.2153
vn -0.9920 0.0744 0.1017
vn -0.9920 0.0980 0.0793
vn -0.9763 0.0431 0.2119
vn -0.8665 0.4117 0.2822
vn -0.5921 0.7567 -0.2771
vn -0.6783 0.6626 0.3175
vn -0.4274 0.6626 0.6150
vn -0.5215 0.8509 0.0640
vn -0.3803 0.7960 0.4710
vn -0.2784 0.9450 0.1719
vn -0.8744 0.0117 0.4851
vn -0.0039 0.2862 0.9582
vn -0.0039 0.2078 0.9782
vn -0.7881 0.1764 0.5897
vn -0.0039 0.3332 0.9428
vn -0.7332 0.3019 0.6093
vn -0.0039 0.0352 0.9994
vn -0.7254 0.0431 0.6870
vn -0.0039 -0.3648 0.9311
vn -0.5842 -0.3569 0.7289
vn -0.0039 -0.8039 0.5947
vn -0.3411 -0.7333 0.5881
vn -0.0039 -0.9921 0.1250
vn -0.9842 -0.1530 0.0893
vn -0.9920 0.0117 0.1255
vn -0.9916 0.1293 -0.0000
vn -0.9920 -0.1059 0.0682
vn -0.9058 -0.4040 0.1282
vn -0.9607 -0.2628 0.0899
vn -0.9214 -0.3099 0.2344
vn -0.9763 -0.2157 -0.0145
vn -0.9842 -0.1530 -0.0893
vn -0.9920 -0.0902 -0.0879
vn -0.9685 -0.0275 -0.2475
vn -0.8744 -0.3413 -0.3450
vn -0.5764 -0.7647 0.2881
vn -0.7254 -0.6000 -0.3373
vn -0.4195 -0.6628 -0.6203
vn -0.5133 -0.8582 -0.0000
vn -0.3803 -0.7882 -0.4838
vn -0.0039 -0.7490 -0.6625
vn -0.0039 -0.8824 -0.4705
vn -0.2862 -0.9451 -0.1577
vn 0.8745 0.0117 0.4849
vn 0.7882 0.1764 0.5895
vn 0.7333 0.3019 0.6092
vn 0.7255 0.0431 0.6869
vn 0.5843 -0.3569 0.7288
vn 0.3412 -0.7333 0.5881
vn 0.9843 -0.1530 0.0880
vn 0.9922 0.0117 0.1245
vn 0.9916 0.1293 -0.0000
vn 0.9921 -0.1059 0.0665
vn 0.9059 -0.4040 0.1273
vn 0.9608 -0.2628 0.0886
vn 0.9216 -0.3099 0.2339
vn 0.9765 -0.2157 -0.0000
vn 0.9843 -0.1530 -0.0879
vn 0.9921 -0.0902 -0.0866
vn 0.9686 -0.0275 -0.2470
vn 0.8745 -0.3412 -0.3447
vn 0.5765 -0.7647 0.2879
vn 0.7255 -0.6000 -0.3371
vn 0.4196 -0.6628 -0.6202
vn 0.5133 -0.8582 -0.0000
vn 0.3804 -0.7882 -0.4837
vn 0.2863 -0.9451 -0.1575
vn 0.2393 -0.9372 0.2536
vn 0.1765 -0.7804 0.5998
vn 0.2392 -0.9373 0.2536
vn 0.1452 -0.9294 -0.3393
vn 0.1451 -0.9294 -0.3393
vn -0.1293 -0.9137 -0.3852
vn -0.1450 -0.9765 -0.1597
vn -0.0039 -1.0000 -0.0000
vn -0.0039 -1.0000 0.0001
vn 0.1295 -0.9137 -0.3852
vn 0.1452 -0.9765 -0.1596
vn -0.1450 -0.9294 -0.3394
vn -0.2391 -0.9373 0.2537
vn -0.2392 -0.9372 0.2537
vn -0.1764 -0.7804 0.5999
vn 0.0275 0.2940 0.9554
vn 0.0589 0.4744 0.8783
vn 0.0432 0.4744 0.8792
vn 0.0432 0.4823 0.8750
vn -0.0352 0.2470 0.9684
vn -0.0352 0.2548 0.9663
vn -0.0588 -0.2628 0.9631
vn -0.0666 -0.0354 0.9972
vn -0.0980 -0.6785 0.7281
vn -0.1058 -0.6863 0.7196
vn -0.0039 -0.7412 0.6713
vn 0.0981 -0.6785 0.7281
vn 0.1060 -0.6863 0.7196
vn 0.0589 -0.2628 0.9630
vn 0.0667 -0.0354 0.9971
vn 0.0354 0.2470 0.9684
vn 0.0354 0.2548 0.9663
vn -0.0431 0.4744 0.8792
vn -0.0431 0.4823 0.8750
vn -0.0588 0.4744 0.8783
vn -0.0274 0.2940 0.9554
vn -0.0274 0.2941 0.9554
vn 0.4824 0.4822 0.7313
vn 0.6235 0.2862 0.7275
vn 0.6706 0.3489 0.6546
vn 0.5530 0.3803 0.7413
vn -0.0666 0.5685 0.8200
vn 0.6863 0.3725 0.6247
vn -0.0588 0.4431 0.8946
vn 0.4902 0.3646 0.7917
vn -0.0431 0.3725 0.9270
vn -0.5450 0.4430 0.7118
vn -0.6705 0.3489 0.6548
vn -0.6234 0.2862 0.7276
vn -0.5842 0.3646 0.7251
vn -0.6862 0.3725 0.6249
vn -0.5372 0.3568 0.7643
vn -0.5058 -0.5372 -0.6749
vn -0.6783 -0.3569 -0.6423
vn -0.6156 -0.3256 -0.7177
vn -0.5529 -0.3804 -0.7414
vn -0.0039 -0.6471 -0.7624
vn -0.6862 -0.3647 -0.6294
vn -0.0039 -0.4432 -0.8964
vn -0.4979 -0.3491 -0.7939
vn -0.0039 -0.3647 -0.9311
vn 0.5059 -0.5372 -0.6748
vn 0.6157 -0.3256 -0.7176
vn 0.6784 -0.3569 -0.6421
vn 0.5530 -0.3804 -0.7413
vn 0.6863 -0.3647 -0.6293
vn 0.4981 -0.3491 -0.7938
vn 0.3098 -0.7804 0.5431
vn 0.2157 -0.7882 0.5763
vn 0.1452 -0.7804 0.6082
vn 0.0118 -0.7647 0.6443
vn 0.0040 -0.7647 0.6444
vn -0.1685 -0.8196 0.5476
vn -0.1058 -0.8118 0.5743
vn -0.2705 -0.8196 0.5050
vn 0.9608 -0.2314 -0.1528
vn 0.9686 -0.1138 -0.2210
vn 0.9686 -0.1373 -0.2072
vn 0.9373 0.0666 -0.3422
vn 0.0432 0.8116 -0.5825
vn -0.0431 0.8038 -0.5933
vn 0.0040 0.8117 -0.5841
vn -0.0039 0.8273 -0.5617
vn -0.0117 0.8273 -0.5616
vn -0.0823 0.8352 -0.5438
vn -0.0509 0.8352 -0.5476
vn -0.0117 0.8352 -0.5499
vn -0.9450 -0.1765 -0.2755
vn -0.9371 -0.2785 -0.2103
vn -0.9450 -0.1608 -0.2849
vn -0.9214 0.0353 -0.3869
vn -0.9215 0.0353 -0.3869
vn 0.4196 -0.7412 -0.5240
vn 0.0746 -0.5686 -0.8192
vn -0.0588 -0.6628 -0.7465
vn 0.2314 -0.8902 -0.3924
vn 0.8745 -0.4353 0.2138
vn -0.2077 -0.7177 -0.6647
vn 0.7333 -0.5922 0.3340
vn 0.7647 0.4666 0.4444
vn 0.1530 -0.9451 -0.2888
vn -0.2392 -0.6549 -0.7169
vn 0.2785 -0.8196 -0.5007
vn 0.5922 -0.7255 0.3507
vn 0.8588 -0.5059 0.0805
vn 0.7177 0.4430 0.5373
vn 0.2000 0.9763 0.0821
vn 0.7098 -0.2471 0.6596
vn 0.7569 0.2940 0.5837
vn 0.1687 0.9842 0.0541
vn -0.2313 0.7803 -0.5811
vn 0.3883 0.7881 0.4776
vn -0.2470 0.7803 -0.5746
vn -0.3333 0.3881 -0.8592
vn -0.3881 0.3803 -0.8395
vn 0.1295 0.9842 0.1209
vn -0.3647 0.7332 -0.5739
vn -0.5058 0.3568 -0.7854
vn -0.0117 0.9136 0.4064
vn 0.8196 0.4745 0.3212
vn -0.7019 0.6783 -0.2174
vn -0.8352 0.2313 -0.4990
vn -0.0587 0.9528 0.2978
vn -0.4744 0.8587 0.1938
vn 0.4981 0.7411 -0.4503
vn -0.9215 0.1293 -0.3663
vn -0.9214 0.1293 -0.3663
vn -0.3411 -0.6785 -0.6507
vn -0.3411 -0.6784 -0.6507
vn 0.8902 -0.4353 -0.1343
vn 0.6628 -0.6706 -0.3332
vn -0.4195 -0.7412 -0.5241
vn 0.0589 -0.6628 -0.7465
vn -0.0745 -0.5686 -0.8192
vn -0.2313 -0.8902 -0.3925
vn -0.8744 -0.4353 0.2143
vn 0.2079 -0.7177 -0.6646
vn -0.7332 -0.5922 0.3342
vn -0.7646 0.4666 0.4447
vn -0.1529 -0.9451 -0.2889
vn 0.2393 -0.6549 -0.7168
vn -0.2783 -0.8196 -0.5008
vn -0.5921 -0.7255 0.3509
vn -0.8587 -0.5059 0.0817
vn -0.7175 0.4431 0.5374
vn -0.1999 0.9763 0.0823
vn -0.7097 -0.2471 0.6597
vn -0.7568 0.2940 0.5838
vn -0.1686 0.9842 0.0544
vn 0.2314 0.7803 -0.5811
vn -0.3881 0.7881 0.4777
vn 0.2471 0.7803 -0.5745
vn 0.3334 0.3881 -0.8592
vn 0.3883 0.3803 -0.8394
vn -0.1372 0.9842 0.1121
vn 0.3648 0.7332 -0.5739
vn 0.5059 0.3568 -0.7853
vn 0.0118 0.9136 0.4064
vn -0.8195 0.4744 0.3215
vn 0.7020 0.6783 -0.2170
vn 0.8353 0.2313 -0.4988
vn 0.0588 0.9528 0.2977
vn 0.4745 0.8587 0.1935
vn -0.4979 0.7411 -0.4504
vn 0.9216 0.1293 -0.3660
vn 0.3412 -0.6785 -0.6506
vn 0.3412 -0.6784 -0.6506
vn -0.8901 -0.4353 -0.1351
vn -0.6626 -0.6706 -0.3335
vt 0.223566 0.201952
vt 0.026220 0.309082
vt 0.039377 0.422790
vt 0.232963 0.341033
vt 0.053473 0.536499
vt 0.246119 0.451922
vt 0.083544 0.678399
vt 0.262095 0.575028
vt 0.156844 0.811842
vt 0.279010 0.700013
vt 0.246119 0.902997
vt 0.303443 0.763916
vt 0.401176 0.965020
vt 0.425609 0.132411
vt 0.413393 0.323178
vt 0.404935 0.437826
vt 0.398357 0.563751
vt 0.381442 0.688736
vt 0.440645 0.022461
vt 0.270552 0.106098
vt 0.592883 0.105158
vt 0.594763 0.205710
vt 0.587245 0.347611
vt 0.585365 0.470717
vt 0.585365 0.647388
vt 0.370165 0.745121
vt 0.469777 0.756398
vt 0.594763 0.802445
vt 0.420911 0.792108
vt 0.500789 0.863528
vt 0.598521 0.939647
vt 0.513945 0.969719
vt 0.430308 0.875745
vt 0.766735 0.019642
vt 0.974417 0.054412
vt 0.965960 0.212289
vt 0.842854 0.192554
vt 0.624834 0.048774
vt 0.974417 0.370165
vt 0.626714 0.251758
vt 0.799626 0.393658
vt 0.617316 0.422790
vt 0.637051 0.640810
vt 0.818420 0.546836
vt 0.802445 0.677460
vt 0.747940 0.713170
vt 0.633292 0.843793
vt 0.791168 0.745121
vt 0.742302 0.774253
vt 0.809023 0.945285
vt 0.792108 0.745121
vt 0.796807 0.812782
vt 0.980995 0.841914
vt 0.860709 0.782710
vt 0.980995 0.651147
vt 0.865407 0.710350
vt 0.792108 0.744181
s 1
usemtl Default_Material.002
f 1/1/1 3/2/2 2/3/3
f 1/1/1 2/3/3 4/4/4
f 4/4/4 2/3/3 5/5/5
f 4/4/4 5/5/5 6/6/6
f 6/6/6 5/5/5 7/7/7
f 6/6/6 7/7/7 8/8/8
f 8/8/8 7/7/7 9/9/9
f 8/8/8 9/9/9 10/10/10
f 10/10/10 9/9/9 11/11/11
f 10/10/10 11/11/11 12/12/12
f 13/13/13 12/12/12 11/11/11
f 14/14/14 1/1/1 4/4/4
f 15/15/15 4/4/4 6/6/6
f 14/14/14 4/4/4 15/15/15
f 16/16/16 6/6/6 8/8/8
f 15/15/15 6/6/6 16/16/16
f 17/17/17 8/8/8 10/10/10
f 16/16/16 8/8/8 17/17/17
f 18/18/18 10/10/10 12/12/12
f 17/17/17 10/10/10 18/18/18
f 1/1/1 14/14/14 19/19/19
f 1/1/1 19/19/19 20/20/20
f 14/14/14 21/21/21 19/19/19
f 14/14/14 22/22/22 21/21/21
f 22/22/22 14/14/14 15/15/15
f 22/22/22 15/15/15 23/23/23
f 23/23/23 15/15/15 16/16/16
f 23/23/23 16/16/16 24/24/24
f 24/24/24 16/16/16 17/17/17
f 24/24/24 17/17/17 25/25/25
f 25/25/25 17/17/17 18/18/18
f 18/18/18 12/12/12 26/26/26
f 12/12/12 13/13/13 26/26/26
f 25/25/25 18/18/18 27/27/27
f 27/27/27 18/18/18 26/26/26
f 28/28/28 25/25/25 27/27/27
f 26/26/26 13/13/13 29/29/29
f 27/27/27 26/26/26 29/29/29
f 28/28/28 27/27/27 30/30/30
f 30/30/30 27/27/27 29/29/29
f 31/31/31 28/28/28 30/30/30
f 31/31/31 30/30/30 32/32/32
f 29/29/29 13/13/13 33/33/33
f 32/32/32 33/33/33 13/13/13
f 30/30/30 29/29/29 33/33/33
f 32/32/32 30/30/30 33/33/33
f 34/1/34 2/3/3 3/2/2
f 34/1/34 35/4/35 2/3/3
f 35/4/35 5/5/5 2/3/3
f 35/4/35 36/6/36 5/5/5
f 36/6/36 7/7/7 5/5/5
f 36/6/36 37/8/37 7/7/7
f 37/8/37 9/9/9 7/7/7
f 37/8/37 38/10/38 9/9/9
f 38/10/38 11/11/11 9/9/9
f 38/10/38 39/12/39 11/11/11
f 39/12/39 13/13/13 11/11/11
f 40/14/40 35/4/35 34/1/34
f 41/15/41 36/6/36 35/4/35
f 40/14/40 41/15/41 35/4/35
f 42/16/42 37/8/37 36/6/36
f 41/15/41 42/16/42 36/6/36
f 43/17/43 38/10/38 37/8/37
f 42/16/42 43/17/43 37/8/37
f 44/18/44 39/12/39 38/10/38
f 43/17/43 44/18/44 38/10/38
f 34/1/34 45/19/45 40/14/40
f 34/1/34 46/20/46 45/19/45
f 40/14/40 45/19/45 47/21/47
f 40/14/40 47/21/47 48/22/48
f 48/22/48 41/15/41 40/14/40
f 48/22/48 49/23/49 41/15/41
f 49/23/49 42/16/42 41/15/41
f 49/23/49 50/24/50 42/16/42
f 50/24/50 43/17/43 42/16/42
f 50/24/50 51/25/51 43/17/43
f 51/25/51 44/18/44 43/17/43
f 44/18/44 52/26/52 39/12/39
f 13/13/13 39/12/39 52/26/52
f 51/25/51 53/27/53 44/18/44
f 53/27/53 52/26/52 44/18/44
f 54/28/54 53/27/53 51/25/51
f 13/13/13 52/26/52 55/29/55
f 53/27/53 55/29/55 52/26/52
f 54/28/54 56/30/56 53/27/53
f 56/30/56 55/29/55 53/27/53
f 31/31/31 56/30/56 54/28/54
f 31/31/31 32/32/32 56/30/56
f 13/13/13 55/29/55 57/33/57
f 56/30/56 57/33/57 55/29/55
f 32/32/32 57/33/57 56/30/56
f 32/32/32 13/13/13 57/33/57
f 58/1/58 60/3/59 59/2/60
f 58/1/58 61/4/61 60/3/59
f 61/4/61 62/5/62 60/3/59
f 61/4/61 63/6/63 62/5/62
f 63/6/63 64/7/64 62/5/62
f 63/6/63 65/8/65 64/7/64
f 65/8/65 66/9/66 64/7/64
f 65/8/65 67/10/67 66/9/66
f 67/10/67 68/11/68 66/9/66
f 67/10/67 69/12/69 68/11/68
f 69/12/69 70/13/70 68/11/68
f 71/14/71 61/4/61 58/1/58
f 72/15/72 63/6/63 61/4/61
f 71/14/71 72/15/72 61/4/61
f 73/16/73 65/8/65 63/6/63
f 72/15/72 73/16/73 63/6/63
f 74/17/74 67/10/67 65/8/65
f 73/16/73 74/17/74 65/8/65
f 75/18/75 69/12/69 67/10/67
f 74/17/74 75/18/75 67/10/67
f 58/1/58 76/19/76 71/14/71
f 58/1/58 77/20/77 76/19/76
f 71/14/71 76/19/76 78/21/78
f 71/14/71 78/21/78 79/22/79
f 79/22/79 72/15/72 71/14/71
f 79/22/79 80/23/80 72/15/72
f 80/23/80 73/16/73 72/15/72
f 80/23/80 81/24/81 73/16/73
f 81/24/81 74/17/74 73/16/73
f 81/24/81 82/25/82 74/17/74
f 82/25/82 75/18/75 74/17/74
f 75/18/75 83/26/83 69/12/69
f 70/13/70 69/12/69 83/26/83
f 82/25/82 84/27/84 75/18/75
f 84/27/84 83/26/83 75/18/75
f 85/28/85 84/27/84 82/25/82
f 70/13/70 83/26/83 86/29/86
f 84/27/84 86/29/86 83/26/83
f 85/28/85 87/30/87 84/27/84
f 87/30/87 86/29/86 84/27/84
f 88/31/88 87/30/87 85/28/85
f 88/31/88 89/32/89 87/30/87
f 70/13/70 86/29/86 90/33/90
f 87/30/87 90/33/90 86/29/86
f 89/32/89 90/33/90 87/30/87
f 89/32/89 70/13/70 90/33/90
f 91/1/91 59/2/60 60/3/59
f 91/1/91 60/3/59 92/4/92
f 92/4/92 60/3/59 62/5/62
f 92/4/92 62/5/62 93/6/93
f 93/6/93 62/5/62 64/7/64
f 93/6/93 64/7/64 94/8/94
f 94/8/94 64/7/64 66/9/66
f 94/8/94 66/9/66 95/10/95
f 95/10/95 66/9/66 68/11/68
f 95/10/95 68/11/68 96/12/96
f 70/13/70 96/12/96 68/11/68
f 97/14/97 91/1/91 92/4/92
f 98/15/98 92/4/92 93/6/93
f 97/14/97 92/4/92 98/15/98
f 99/16/99 93/6/93 94/8/94
f 98/15/98 93/6/93 99/16/99
f 100/17/100 94/8/94 95/10/95
f 99/16/99 94/8/94 100/17/100
f 101/18/101 95/10/95 96/12/96
f 100/17/100 95/10/95 101/18/101
f 91/1/91 97/14/97 102/19/102
f 91/1/91 102/19/102 103/20/103
f 97/14/97 104/21/104 102/19/102
f 97/14/97 105/22/105 104/21/104
f 105/22/105 97/14/97 98/15/98
f 105/22/105 98/15/98 106/23/106
f 106/23/106 98/15/98 99/16/99
f 106/23/106 99/16/99 107/24/107
f 107/24/107 99/16/99 100/17/100
f 107/24/107 100/17/100 108/25/108
f 108/25/108 100/17/100 101/18/101
f 101/18/101 96/12/96 109/26/109
f 96/12/96 70/13/70 109/26/109
f 108/25/108 101/18/101 110/27/110
f 110/27/110 101/18/101 109/26/109
f 111/28/111 108/25/108 110/27/110
f 109/26/109 70/13/70 112/29/112
f 110/27/110 109/26/109 112/29/112
f 111/28/111 110/27/110 113/30/113
f 113/30/113 110/27/110 112/29/112
f 88/31/88 111/28/111 113/30/113
f 88/31/88 113/30/113 89/32/89
f 112/29/112 70/13/70 114/33/114
f 89/32/89 114/33/114 70/13/70
f 113/30/113 112/29/112 114/33/114
f 89/32/89 113/30/113 114/33/114
f 19/19/115 21/21/116 78/21/116
f 19/19/115 78/21/116 76/19/117
f 20/20/118 19/19/115 76/19/117
f 20/20/118 76/19/117 77/20/119
f 1/1/120 20/20/118 77/20/119
f 1/1/120 77/20/119 58/1/121
f 3/2/122 1/1/120 58/1/121
f 3/2/122 58/1/121 59/2/123
f 34/1/124 3/2/122 59/2/123
f 34/1/124 59/2/123 91/1/125
f 46/20/126 34/1/124 91/1/125
f 46/20/126 91/1/125 103/20/126
f 45/19/127 46/20/126 103/20/126
f 45/19/127 103/20/126 102/19/128
f 47/21/129 45/19/127 102/19/128
f 47/21/129 102/19/128 104/21/129
f 21/21/130 79/22/131 78/21/130
f 21/21/130 22/22/131 79/22/131
f 22/22/131 80/23/132 79/22/131
f 22/22/131 23/23/133 80/23/132
f 23/23/133 81/24/134 80/23/132
f 23/23/133 24/24/135 81/24/134
f 24/24/135 82/25/136 81/24/134
f 24/24/135 25/25/137 82/25/136
f 25/25/137 85/28/138 82/25/136
f 25/25/137 28/28/139 85/28/138
f 28/28/139 88/31/140 85/28/138
f 28/28/139 31/31/140 88/31/140
f 31/31/140 111/28/141 88/31/140
f 31/31/140 54/28/142 111/28/141
f 54/28/142 108/25/143 111/28/141
f 54/28/142 51/25/144 108/25/143
f 51/25/144 107/24/145 108/25/143
f 51/25/144 50/24/146 107/24/145
f 50/24/146 106/23/147 107/24/145
f 50/24/146 49/23/148 106/23/147
f 49/23/148 105/22/149 106/23/147
f 49/23/148 48/22/149 105/22/149
f 48/22/149 104/21/150 105/22/149
f 48/22/149 47/21/151 104/21/150
f 115/34/152 117/35/153 116/36/154
f 115/34/152 116/36/154 118/37/155
f 119/38/156 115/34/152 118/37/155
f 118/37/155 116/36/154 120/39/157
f 119/38/156 118/37/155 121/40/158
f 118/37/155 120/39/157 122/41/159
f 121/40/158 118/37/155 122/41/159
f 121/40/158 122/41/159 123/42/160
f 124/34/161 126/36/162 125/35/163
f 124/34/161 127/37/164 126/36/162
f 119/38/156 127/37/164 124/34/161
f 127/37/164 128/39/165 126/36/162
f 119/38/156 121/40/158 127/37/164
f 127/37/164 129/41/166 128/39/165
f 121/40/158 129/41/166 127/37/164
f 121/40/158 123/42/160 129/41/166
f 130/34/167 132/36/168 131/35/169
f 130/34/167 133/37/170 132/36/168
f 134/38/171 133/37/170 130/34/167
f 133/37/170 135/39/172 132/36/168
f 134/38/171 136/40/173 133/37/170
f 133/37/170 137/41/174 135/39/172
f 136/40/173 137/41/174 133/37/170
f 136/40/173 138/42/175 137/41/174
f 139/34/176 141/35/177 140/36/178
f 139/34/176 140/36/178 142/37/179
f 134/38/171 139/34/176 142/37/179
f 142/37/179 140/36/178 143/39/180
f 134/38/171 142/37/179 136/40/173
f 142/37/179 143/39/180 144/41/181
f 136/40/173 142/37/179 144/41/181
f 136/40/173 144/41/181 138/42/175
f 117/35/182 130/34/183 131/35/182
f 117/35/182 115/34/184 130/34/183
f 115/34/184 134/38/185 130/34/183
f 115/34/184 119/38/186 134/38/185
f 119/38/186 139/34/187 134/38/185
f 119/38/186 124/34/188 139/34/187
f 124/34/188 141/35/189 139/34/187
f 124/34/188 125/35/189 141/35/189
f 120/39/190 132/36/191 135/39/190
f 120/39/190 116/36/192 132/36/191
f 116/36/192 131/35/193 132/36/191
f 116/36/192 117/35/193 131/35/193
f 122/41/194 120/39/195 135/39/195
f 122/41/194 135/39/195 137/41/196
f 123/42/197 122/41/194 137/41/196
f 123/42/197 137/41/196 138/42/198
f 129/41/199 123/42/197 138/42/198
f 129/41/199 138/42/198 144/41/200
f 128/39/201 129/41/199 144/41/200
f 128/39/201 144/41/200 143/39/201
f 126/36/202 128/39/203 143/39/203
f 126/36/202 143/39/203 140/36/204
f 125/35/205 126/36/202 140/36/204
f 125/35/205 140/36/204 141/35/206
f 145/43/207 147/44/208 146/45/209
f 145/43/207 146/45/209 148/46/210
f 149/47/211 145/43/207 148/46/210
f 148/46/210 146/45/209 150/48/212
f 149/47/211 148/46/210 151/49/213
f 152/50/214 149/47/211 151/49/213
f 148/46/210 150/48/212 153/51/215
f 151/49/213 148/46/210 153/51/215
f 153/51/215 150/48/212 154/51/216
f 153/51/215 154/51/216 155/51/217
f 156/51/218 153/51/215 155/51/217
f 151/49/213 153/51/215 156/51/218
f 156/51/218 155/51/217 157/51/219
f 152/50/214 151/49/213 158/52/220
f 158/52/220 151/49/213 156/51/218
f 159/53/221 152/50/214 158/52/220
f 160/51/222 156/51/218 157/51/219
f 158/52/220 156/51/218 160/51/222
f 160/51/222 157/51/219 161/51/223
f 159/53/221 158/52/220 162/54/224
f 163/55/225 159/53/221 162/54/224
f 162/54/224 158/52/220 160/51/226
f 163/55/225 162/54/224 164/56/227
f 147/44/228 163/55/225 164/56/227
f 147/44/228 164/56/227 146/45/229
f 162/54/224 160/51/226 165/57/230
f 164/56/227 162/54/224 165/57/230
f 165/57/230 160/51/226 161/51/223
f 146/45/229 164/56/227 166/57/231
f 164/56/227 165/57/230 166/57/231
f 146/45/229 166/57/231 150/48/232
f 165/57/230 161/51/223 167/51/233
f 166/57/231 165/57/230 167/51/233
f 167/51/233 161/51/223 168/51/234
f 150/48/232 166/57/231 169/51/235
f 166/57/231 167/51/233 169/51/235
f 150/48/232 169/51/235 154/51/236
f 167/51/233 168/51/234 170/51/237
f 169/51/235 167/51/233 170/51/237
f 169/51/235 170/51/237 171/51/238
f 172/51/239 170/51/237 168/51/234
f 172/51/239 171/51/239 170/51/237
f 173/51/239 171/51/239 172/51/239
f 171/51/239 173/51/239 174/51/239
f 154/51/236 171/51/240 174/51/241
f 154/51/236 169/51/235 171/51/240
f 155/51/217 174/51/242 173/51/243
f 155/51/217 154/51/216 174/51/242
f 161/51/223 172/51/244 168/51/234
f 161/51/223 157/51/219 172/51/244
f 157/51/219 173/51/245 172/51/244
f 157/51/219 155/51/217 173/51/245
f 175/43/246 177/45/247 176/44/248
f 175/43/246 178/46/249 177/45/247
f 179/47/250 178/46/249 175/43/246
f 178/46/249 180/48/251 177/45/247
f 179/47/250 181/49/252 178/46/249
f 182/50/253 181/49/252 179/47/250
f 178/46/249 183/51/254 180/48/251
f 181/49/252 183/51/254 178/46/249
f 183/51/254 184/51/255 180/48/251
f 183/51/254 185/51/256 184/51/255
f 186/51/257 185/51/256 183/51/254
f 181/49/252 186/51/257 183/51/254
f 186/51/257 187/51/258 185/51/256
f 182/50/253 188/52/259 181/49/252
f 188/52/259 186/51/257 181/49/252
f 189/53/260 188/52/259 182/50/253
f 190/51/261 187/51/258 186/51/257
f 188/52/259 190/51/261 186/51/257
f 190/51/261 191/51/262 187/51/258
f 189/53/260 192/54/263 188/52/259
f 193/55/264 192/54/263 189/53/260
f 192/54/263 190/51/265 188/52/259
f 193/55/264 194/56/266 192/54/263
f 176/44/267 194/56/266 193/55/264
f 176/44/267 177/45/268 194/56/266
f 192/54/263 195/57/269 190/51/265
f 194/56/266 195/57/269 192/54/263
f 195/57/269 191/51/262 190/51/265
f 177/45/268 196/57/270 194/56/266
f 194/56/266 196/57/270 195/57/269
f 177/45/268 180/48/271 196/57/270
f 195/57/269 197/51/272 191/51/262
f 196/57/270 197/51/272 195/57/269
f 197/51/272 198/51/273 191/51/262
f 180/48/271 199/51/274 196/57/270
f 196/57/270 199/51/274 197/51/272
f 180/48/271 184/51/275 199/51/274
f 197/51/272 200/51/276 198/51/273
f 199/51/274 200/51/276 197/51/272
f 199/51/274 201/51/277 200/51/276
f 200/51/276 202/51/278 198/51/273
f 201/51/278 202/51/278 200/51/276
f 201/51/278 203/51/278 202/51/278
f 203/51/278 201/51/278 204/51/278
f 184/51/275 201/51/279 199/51/274
f 184/51/275 204/51/279 201/51/279
f 185/51/256 204/51/280 184/51/255
f 185/51/256 203/51/281 204/51/280
f 191/51/262 198/51/273 202/51/282
f 191/51/262 202/51/282 187/51/258
f 187/51/258 202/51/282 203/51/283
f 187/51/258 203/51/283 185/51/256
