# Blender 4.3.2
# www.blender.org
mtllib stareye2.mtl
o Circle
v 0.000000 0.000000 -41.069580
v -11.026730 0.000000 -15.176991
v -39.059494 0.000000 -12.691197
v -17.841627 0.000000 5.797097
v -24.140095 0.000000 33.225994
v 0.000000 0.000000 18.759798
v 24.140095 0.000000 33.225994
v 17.841627 0.000000 5.797097
v 39.059494 0.000000 -12.691197
v 11.026731 0.000000 -15.176991
v 0.000000 0.569855 -41.069580
v -11.026730 0.569855 -15.176991
v -39.059494 0.569855 -12.691197
v -17.841627 0.569855 5.797097
v -24.140095 0.569855 33.225994
v 0.000000 0.569855 18.759798
v 24.140095 0.569855 33.225994
v 17.841627 0.569855 5.797097
v 39.059494 0.569855 -12.691197
v 11.026731 0.569855 -15.176991
vn -0.0000 -1.0000 -0.0000
vn -0.0000 1.0000 -0.0000
vn -0.0883 -0.0000 -0.9961
vn 0.0883 -0.0000 -0.9961
vn -0.5140 -0.0000 0.8578
vn -0.6569 -0.0000 0.7539
vn 0.9200 -0.0000 -0.3918
vn 0.9746 -0.0000 -0.2238
vn -0.9746 -0.0000 -0.2238
vn -0.9200 -0.0000 -0.3918
vn 0.6569 -0.0000 0.7539
vn 0.5140 -0.0000 0.8578
vt 0.000000 0.000000
s 0
f 4/1/1 2/1/1 10/1/1 8/1/1 6/1/1
f 2/1/1 1/1/1 10/1/1
f 3/1/1 2/1/1 4/1/1
f 5/1/1 4/1/1 6/1/1
f 7/1/1 6/1/1 8/1/1
f 9/1/1 8/1/1 10/1/1
f 14/1/2 16/1/2 18/1/2 20/1/2 12/1/2
f 12/1/2 20/1/2 11/1/2
f 13/1/2 14/1/2 12/1/2
f 15/1/2 16/1/2 14/1/2
f 17/1/2 18/1/2 16/1/2
f 19/1/2 20/1/2 18/1/2
f 2/1/3 3/1/3 13/1/3 12/1/3
f 9/1/4 10/1/4 20/1/4 19/1/4
f 6/1/5 7/1/5 17/1/5 16/1/5
f 3/1/6 4/1/6 14/1/6 13/1/6
f 10/1/7 1/1/7 11/1/7 20/1/7
f 7/1/8 8/1/8 18/1/8 17/1/8
f 4/1/9 5/1/9 15/1/9 14/1/9
f 1/1/10 2/1/10 12/1/10 11/1/10
f 8/1/11 9/1/11 19/1/11 18/1/11
f 5/1/12 6/1/12 16/1/12 15/1/12
