# Blender 4.3.2
# www.blender.org
mtllib star.mtl
o Circle
v 0.000000 0.000000 -41.069580
v -11.026730 0.000000 -15.176991
v -39.059494 0.000000 -12.691197
v -17.841627 0.000000 5.797097
v -24.140095 0.000000 33.225994
v 0.000000 0.000000 18.759798
v 24.140095 0.000000 33.225994
v 17.841627 0.000000 5.797097
v 39.059494 0.000000 -12.691197
v 11.026731 0.000000 -15.176991
vn -0.0000 1.0000 -0.0000
vt 0.000000 0.000000
s 0
f 4/1/1 6/1/1 8/1/1 10/1/1 2/1/1
f 2/1/1 10/1/1 1/1/1
f 3/1/1 4/1/1 2/1/1
f 5/1/1 6/1/1 4/1/1
f 7/1/1 8/1/1 6/1/1
f 9/1/1 10/1/1 8/1/1
